<svg width="45" height="60" viewBox="0 0 45 60" fill="none" xmlns="http://www.w3.org/2000/svg">
<path fill-rule="evenodd" clip-rule="evenodd" d="M43.7691 15.283C43.966 15.8737 44.1629 16.6858 44.3352 17.6456C44.9996 21.4356 44.5813 25.2502 43.0554 28.6711L42.9078 28.991C41.7653 31.4859 40.1367 34.3342 38.5455 37.1174L38.281 37.58C36.829 40.0903 35.3278 42.699 34.2449 44.9385C34.0234 45.3569 33.6051 45.603 33.1621 45.603C32.9898 45.603 32.8175 45.5538 32.6452 45.4799C32.0546 45.1846 31.8085 44.4709 32.1038 43.8803C33.2359 41.5669 34.7371 38.9336 36.2137 36.3741C37.8626 33.4947 39.5608 30.5168 40.7174 28.0066L40.7667 27.9081C40.779 27.8712 40.7974 27.8343 40.8159 27.7974L40.8159 27.7973C40.8344 27.7604 40.8528 27.7235 40.8651 27.6867C42.1695 24.7088 42.5386 21.3618 41.948 18.0394C41.8003 17.178 41.6526 16.5135 41.4804 16.0213C38.7486 7.92453 31.1932 2.43643 22.7027 2.36259H21.8659C13.3753 2.43643 5.84458 7.92453 3.11283 16.0213C2.94056 16.5135 2.79289 17.178 2.64523 18.0394C2.05458 21.3618 2.42374 24.7088 3.72809 27.7113L3.87575 28.0066C4.94981 30.3882 6.55553 33.1907 8.12545 35.9307L8.37945 36.3741L8.50151 36.5857C9.93977 39.0783 11.4124 41.6306 12.4894 43.8803C12.7847 44.4709 12.5386 45.1846 11.9479 45.4799C11.3573 45.7753 10.6436 45.5292 10.3483 44.9385C9.30296 42.8004 7.86777 40.2953 6.46334 37.8439L6.31217 37.58C4.61406 34.6514 2.86672 31.6243 1.68543 29.0156C1.66565 28.9695 1.64763 28.9268 1.63091 28.8873C1.58522 28.7792 1.54919 28.6939 1.51316 28.6218C0.0611451 25.2502 -0.357231 21.4356 0.307248 17.6456C0.479521 16.6858 0.676403 15.8737 0.873286 15.283C3.92497 6.22642 12.3663 0.0738311 21.8905 0H22.7519C32.2761 0.0738311 40.7174 6.22642 43.7691 15.283ZM13.671 48.3347H31.0212C31.5873 48.3347 32.1533 48.5808 32.5717 49.0484C32.9409 49.516 33.0885 50.1067 32.9901 50.6727L32.1533 55.0533C31.9564 55.9885 31.1443 56.653 30.2091 56.653H28.8801C27.3789 58.7203 24.9425 60 22.3584 60C19.7743 60 17.3379 58.7449 15.8367 56.653H14.5077C13.5479 56.653 12.7358 55.9885 12.5635 55.0533L11.7267 50.6727C11.6283 50.0821 11.776 49.4914 12.1451 49.0484C12.5389 48.6054 13.0803 48.3347 13.671 48.3347ZM28.2157 54.2658H29.84L30.5044 50.7219H14.1632L14.8276 54.2658H16.4519C16.8703 54.2658 17.2641 54.4873 17.4856 54.8565C18.4946 56.5792 20.365 57.6374 22.3338 57.6374C24.3272 57.6374 26.173 56.5546 27.182 54.8565C27.4035 54.4873 27.7973 54.2658 28.2157 54.2658ZM20.2667 24.881C20.5128 25.1271 20.8082 25.2501 21.1281 25.2501C21.4234 25.2501 21.7187 25.1517 21.9402 24.9302L26.6162 20.4757C27.0838 20.0327 27.1084 19.2698 26.6654 18.8022C26.2224 18.3346 25.4595 18.31 24.9673 18.753L21.1527 22.3707L19.7253 20.8941C19.2577 20.4265 18.5194 20.4019 18.0272 20.8695C17.5596 21.3371 17.535 22.0754 18.0026 22.5676L20.2667 24.881ZM12.2924 29.114C11.9479 28.6218 11.9971 27.982 12.4155 27.5636L12.9077 27.0714L13.203 26.776C12.8831 26.1608 12.5877 25.4963 12.3908 24.8072H11.431C11.3818 24.7949 11.3141 24.7888 11.2465 24.7826C11.1788 24.7765 11.1111 24.7703 11.0619 24.758C10.6189 24.6596 10.2497 24.2658 10.1759 23.7982C10.0529 23.1337 10.0036 22.4692 10.0036 21.8048C10.0036 21.0911 10.0529 20.4266 10.1759 19.7621C10.2744 19.1961 10.7666 18.7777 11.3572 18.7777H11.8248H12.4155C12.6369 18.1132 12.8831 17.4733 13.2276 16.8581C13.1045 16.735 12.9815 16.6181 12.8584 16.5012C12.7354 16.3843 12.6123 16.2674 12.4893 16.1444C12.0463 15.726 11.9971 15.0861 12.3416 14.5939C13.1292 13.4865 14.089 12.5267 15.1964 11.7391C15.664 11.3946 16.3285 11.4684 16.7469 11.8868C16.8116 11.9515 16.8764 12.0189 16.942 12.0872C17.0759 12.2267 17.2135 12.3699 17.3621 12.502L17.4606 12.6005C18.0758 12.2805 18.7403 12.0098 19.4048 11.813V11.3454V10.8285C19.3802 10.2133 19.8232 9.67185 20.4138 9.57341C21.7428 9.37652 23.0225 9.37652 24.3515 9.57341C24.9421 9.67185 25.3605 10.1641 25.3605 10.7547V11.3454V11.6653V11.7883V11.813C26.025 12.0344 26.6895 12.2805 27.3047 12.6251L27.4278 12.502L28.043 11.8868C28.4614 11.4438 29.1259 11.3946 29.5935 11.7391C30.7009 12.5513 31.6608 13.4865 32.4483 14.5939C32.7928 15.0615 32.719 15.726 32.3006 16.1444C32.0545 16.3659 31.8084 16.612 31.5623 16.8581C31.9069 17.4733 32.1776 18.1132 32.3745 18.7777H32.9651H33.4327C34.0233 18.7777 34.5156 19.2207 34.614 19.7867C34.737 20.4758 34.7863 21.1649 34.7863 21.8048C34.7863 22.4938 34.737 23.1583 34.614 23.8228C34.5402 24.2658 34.2202 24.6103 33.8019 24.758C33.6788 24.8072 33.4819 24.8318 33.3589 24.8318H32.3745C32.1776 25.5209 31.9069 26.1854 31.5623 26.8007C31.6608 26.9237 31.7592 27.0222 31.8822 27.1452L32.276 27.5636C32.6944 27.982 32.7436 28.6464 32.3991 29.114C31.6115 30.1969 30.6763 31.1567 29.5689 31.9442C29.2735 32.1411 28.929 32.2149 28.5845 32.1411C28.363 32.0673 28.1415 31.9688 27.9938 31.7966L27.9692 31.7719L27.3047 31.1075L27.2801 31.0829C26.6649 31.4274 26.0004 31.6981 25.3359 31.895V32.0919V32.8794C25.3359 33.4701 24.9175 34.0115 24.3269 34.1099C23.687 34.2084 23.0225 34.2576 22.358 34.2576C21.6443 34.2576 21.0045 34.2084 20.3646 34.1099C19.774 34.0115 19.3556 33.5193 19.3556 32.9286V32.0919V31.895C18.6911 31.6735 18.0266 31.4274 17.4114 31.0829L17.3375 31.1567C17.1889 31.2888 17.0513 31.4321 16.9174 31.5715C16.8518 31.6398 16.787 31.7072 16.7223 31.7719C16.6977 31.7966 16.673 31.815 16.6484 31.8335C16.6238 31.8519 16.5992 31.8704 16.5746 31.895C16.1562 32.2888 15.5902 32.2888 15.1226 31.9442C14.0397 31.1567 13.0799 30.1969 12.2924 29.114ZM12.317 21.854C12.317 22.0509 12.317 22.2724 12.3416 22.4692L13.2276 22.5185C13.279 22.5258 13.3282 22.531 13.3753 22.5359C13.4858 22.5475 13.5843 22.5578 13.6706 22.5923C14.0644 22.7153 14.3843 23.0599 14.4581 23.4783C14.655 24.5119 15.0734 25.4963 15.664 26.3823C15.9347 26.776 15.9347 27.2683 15.7132 27.662C15.6394 27.8097 15.5164 27.9327 15.4671 27.982L14.9011 28.548C15.1718 28.8433 15.4425 29.1386 15.7625 29.4094C15.819 29.3528 15.8782 29.2963 15.9383 29.2389C16.0613 29.1213 16.1882 29.0002 16.3039 28.8679C16.4269 28.7449 16.5254 28.671 16.6484 28.5972C17.0422 28.3511 17.5344 28.3757 17.9282 28.6218C18.7895 29.2125 19.774 29.6062 20.8076 29.8031C21.2506 29.9016 21.5951 30.2215 21.7182 30.6399C21.7674 30.8368 21.7674 31.0336 21.7674 31.1321V31.895C22.1612 31.9196 22.5549 31.9196 22.9487 31.895V31.1813C22.9241 31.0336 22.9487 30.8368 22.9979 30.6399C23.121 30.2215 23.4655 29.877 23.9085 29.8031C24.9421 29.6062 25.9019 29.2125 26.7879 28.6218C27.1817 28.3757 27.6739 28.3511 28.0676 28.5972C28.1661 28.671 28.2891 28.7695 28.3876 28.8679L28.9536 29.434C29.2489 29.1633 29.5443 28.8679 29.815 28.5726C29.6992 28.4403 29.5724 28.3192 29.4494 28.2017C29.3893 28.1443 29.3301 28.0877 29.2735 28.0312C29.1997 27.9573 29.1013 27.8589 29.0028 27.7112C28.7567 27.2929 28.7567 26.8007 29.0274 26.4069C29.6181 25.5209 30.0119 24.5611 30.2334 23.5029C30.3072 23.1337 30.5533 22.8138 30.8978 22.6661C31.0701 22.5923 31.2916 22.5431 31.4639 22.5431H32.3252C32.3498 22.3462 32.3498 22.1494 32.3498 21.9279V21.9278V21.9277C32.3498 21.7063 32.3498 21.5094 32.3252 21.2879C32.1989 21.2879 32.0791 21.2944 31.9625 21.3007C31.8518 21.3067 31.744 21.3125 31.6361 21.3125C31.4146 21.3372 31.2424 21.3125 31.0947 21.2633C30.6517 21.1649 30.3318 20.7957 30.2334 20.3527C30.0365 19.3191 29.6427 18.3593 29.0521 17.4979C28.806 17.1042 28.7813 16.612 29.0274 16.2182C29.1505 16.0213 29.2982 15.8737 29.4458 15.7506C29.5689 15.603 29.6919 15.4799 29.8395 15.3323L29.8396 15.3322C29.5689 15.0123 29.2735 14.717 28.9536 14.4463C28.8397 14.5439 28.7366 14.6523 28.6299 14.7643C28.5753 14.8217 28.5198 14.8801 28.4614 14.9385C28.2891 15.1107 28.0676 15.283 27.8215 15.3568C27.477 15.4553 27.0832 15.4061 26.7879 15.2092C25.9019 14.6185 24.9175 14.2248 23.9085 14.0279C23.4901 13.9541 23.1702 13.6833 23.0225 13.3142C22.9487 13.0927 22.8995 12.8712 22.9241 12.6497V12.1083V11.936C22.5303 11.9114 22.1365 11.9114 21.7428 11.936V12.2313V12.6497C21.7428 12.7974 21.7428 13.0189 21.6443 13.265C21.4721 13.6341 21.1521 13.9048 20.7584 13.9787C19.7493 14.1755 18.7649 14.5693 17.879 15.16C17.559 15.3815 17.1653 15.4061 16.8207 15.283C16.5746 15.2092 16.3777 15.0615 16.1808 14.84L15.7132 14.3724C15.3933 14.6431 15.098 14.9385 14.8273 15.2584L15.2456 15.6768L15.2457 15.6768C15.3933 15.8244 15.5164 15.9475 15.6394 16.1444C15.8855 16.5381 15.8609 17.0303 15.6148 17.4241C15.0488 18.2855 14.6304 19.2453 14.4335 20.2789C14.3597 20.7219 14.0151 21.0664 13.5721 21.1895C13.4245 21.2141 13.2522 21.2387 13.0799 21.2387C12.8092 21.2141 12.5877 21.2141 12.3416 21.2141C12.317 21.4356 12.317 21.6325 12.317 21.854Z" fill="#31222A"/>
</svg>
