<svg width="18" height="15" viewBox="0 0 18 15" fill="none" xmlns="http://www.w3.org/2000/svg">
<path d="M4.5 14.0625H13.5V2.34375C13.5 1.56738 12.7441 0.9375 11.8125 0.9375H6.1875C5.25586 0.9375 4.5 1.56738 4.5 2.34375V14.0625ZM6.75 2.8125H11.25V3.75H6.75V2.8125ZM18 5.15625V12.6562C18 13.4326 17.2441 14.0625 16.3125 14.0625H14.625V3.75H16.3125C17.2441 3.75 18 4.37988 18 5.15625ZM3.375 14.0625H1.6875C0.755859 14.0625 0 13.4326 0 12.6562V5.15625C0 4.37988 0.755859 3.75 1.6875 3.75H3.375V14.0625Z" fill="#FF0990"/>
</svg>
