<svg width="16" height="13" viewBox="0 0 16 13" fill="none" xmlns="http://www.w3.org/2000/svg">
<path d="M14.8014 10.0471L11.3424 7.07383C10.66 6.4873 9.64094 6.37305 8.81975 6.7209L5.67089 4.01426V2.4375L1.8899 0L-0.000598267 1.625L2.83515 4.875H4.66952L7.81838 7.58164C7.41665 8.2875 7.54662 9.16348 8.22897 9.75L11.688 12.7232C12.1193 13.0939 12.8164 13.0939 13.2447 12.7232L14.8014 11.3852C15.2297 11.0145 15.2297 10.4152 14.8014 10.0471ZM9.79749 5.71289C10.6334 5.71289 11.4192 5.99219 12.01 6.5L12.583 6.99258C13.0497 6.81738 13.4928 6.57363 13.8768 6.24355C14.9727 5.30156 15.3449 3.97617 14.9964 2.77266C14.9314 2.54414 14.5976 2.46543 14.4026 2.63301L12.2049 4.52207L10.1992 4.23516L9.86543 2.51113L12.0631 0.62207C12.2581 0.454492 12.1636 0.167578 11.8948 0.10918C10.4946 -0.187891 8.95268 0.132031 7.85973 1.07148C7.01787 1.79512 6.62205 2.7498 6.64273 3.70195L9.06788 5.78652C9.30714 5.73828 9.55527 5.71289 9.79749 5.71289ZM6.72839 7.79492L5.05353 6.35527L0.551781 10.2273C-0.186694 10.8621 -0.186694 11.8904 0.551781 12.5252C1.29026 13.16 2.48659 13.16 3.22506 12.5252L6.87608 9.38691C6.65159 8.88164 6.58365 8.33066 6.72839 7.79492ZM1.8899 11.9844C1.49998 11.9844 1.18096 11.7102 1.18096 11.375C1.18096 11.0373 1.49703 10.7656 1.8899 10.7656C2.28277 10.7656 2.59883 11.0373 2.59883 11.375C2.59883 11.7102 2.28277 11.9844 1.8899 11.9844Z" fill="#FF0990"/>
</svg>
