<svg width="18" height="12" viewBox="0 0 18 12" fill="none" xmlns="http://www.w3.org/2000/svg">
<path d="M11.7 8H13.05C13.275 8 13.5 7.8 13.5 7.6V3.4C13.5 3.2 13.275 3 13.05 3H11.7C11.475 3 11.25 3.2 11.25 3.4V7.6C11.25 7.8 11.475 8 11.7 8ZM15.075 8H16.425C16.65 8 16.875 7.8 16.875 7.6V0.4C16.875 0.2 16.65 0 16.425 0H15.075C14.85 0 14.625 0.2 14.625 0.4V7.6C14.625 7.8 14.85 8 15.075 8ZM4.95 8H6.3C6.525 8 6.75 7.8 6.75 7.6V5.4C6.75 5.2 6.525 5 6.3 5H4.95C4.725 5 4.5 5.2 4.5 5.4V7.6C4.5 7.8 4.725 8 4.95 8ZM8.325 8H9.675C9.9 8 10.125 7.8 10.125 7.6V1.4C10.125 1.2 9.9 1 9.675 1H8.325C8.1 1 7.875 1.2 7.875 1.4V7.6C7.875 7.8 8.1 8 8.325 8ZM17.4375 10H2.25V0.5C2.25 0.22375 1.99828 0 1.6875 0H0.5625C0.251719 0 0 0.22375 0 0.5V11C0 11.5522 0.503789 12 1.125 12H17.4375C17.7483 12 18 11.7762 18 11.5V10.5C18 10.2238 17.7483 10 17.4375 10Z" fill="#FF0990"/>
</svg>
