<svg width="13" height="12" viewBox="0 0 13 12" fill="none" xmlns="http://www.w3.org/2000/svg">
<path d="M5.46973 1.19474C5.8427 0.391623 6.98446 0.391622 7.35743 1.19474L8.26641 3.15203C8.41804 3.47854 8.72766 3.70349 9.08505 3.7468L11.2274 4.00646C12.1065 4.113 12.4593 5.19887 11.8108 5.80177L10.2302 7.27109C9.96648 7.5162 9.84822 7.88018 9.91747 8.23346L10.3326 10.3512C10.5029 11.2202 9.57917 11.8913 8.80537 11.4608L6.91953 10.4116C6.60494 10.2366 6.22223 10.2366 5.90763 10.4116L4.02179 11.4608C3.24799 11.8913 2.32429 11.2202 2.49461 10.3512L2.90969 8.23346C2.97894 7.88018 2.86068 7.5162 2.597 7.27109L1.0164 5.80177C0.367846 5.19887 0.720668 4.113 1.59973 4.00646L3.74211 3.7468C4.0995 3.70349 4.40912 3.47854 4.56075 3.15203L5.46973 1.19474Z" fill="#F1AE00"/>
</svg>
