<svg width="19" height="19" viewBox="0 0 19 19" fill="none" xmlns="http://www.w3.org/2000/svg">
<path fill-rule="evenodd" clip-rule="evenodd" d="M1.2 3.92661C1.2 4.42367 1.60294 4.82661 2.1 4.82661H2.70339H15.4H16.003C16.5001 4.82661 16.903 4.42367 16.903 3.92661V2.1C16.903 1.60294 16.5001 1.2 16.003 1.2H2.1C1.60294 1.2 1.2 1.60294 1.2 2.1V3.92661ZM16 6.02661H16.003C17.1628 6.02661 18.103 5.08641 18.103 3.92661V2.1C18.103 0.940202 17.1628 0 16.003 0H2.1C0.940202 0 0 0.940202 0 2.1V3.92661C0 5.08641 0.940202 6.02661 2.1 6.02661H2.10339V15.523C2.10339 16.9589 3.26746 18.123 4.7034 18.123H13.4C14.8359 18.123 16 16.9589 16 15.523V6.02661ZM14.8 6.02661H3.30339V15.523C3.30339 16.2962 3.9302 16.923 4.7034 16.923H13.4C14.1732 16.923 14.8 16.2962 14.8 15.523V6.02661ZM7.56108 9.33891C7.56108 9.00753 7.29245 8.7389 6.96108 8.7389C6.62971 8.7389 6.36108 9.00753 6.36108 9.33891V13.6118C6.36108 13.9432 6.62971 14.2118 6.96108 14.2118C7.29245 14.2118 7.56108 13.9432 7.56108 13.6118V9.33891ZM11.141 8.7389C11.4724 8.7389 11.741 9.00753 11.741 9.33891V13.6118C11.741 13.9432 11.4724 14.2118 11.141 14.2118C10.8096 14.2118 10.541 13.9432 10.541 13.6118V9.33891C10.541 9.00753 10.8096 8.7389 11.141 8.7389Z" fill="#EE0202"/>
</svg>
