<svg width="18" height="18" viewBox="0 0 18 18" fill="none" xmlns="http://www.w3.org/2000/svg">
<path fill-rule="evenodd" clip-rule="evenodd" d="M12.6268 0.000184834C11.3445 -0.0109581 10.1091 0.48199 9.18676 1.37286L9.17643 1.38298L7.83805 2.71358C7.44639 3.10296 7.44454 3.73612 7.83393 4.12778C8.22331 4.51945 8.85648 4.52129 9.24814 4.13191L10.581 2.80679C11.1257 2.28317 11.8538 1.99354 12.6095 2.00011C13.3674 2.0067 14.0924 2.3107 14.6283 2.84665C15.1643 3.38259 15.4683 4.1076 15.4749 4.86551C15.4814 5.62075 15.1922 6.34844 14.6691 6.89299L12.3413 9.22077L12.3412 9.2209C12.0482 9.51405 11.6955 9.74075 11.3071 9.88562C10.9188 10.0305 10.5038 10.0901 10.0904 10.0605C9.67692 10.0309 9.27468 9.91274 8.91093 9.71401C8.54717 9.51527 8.23042 9.24063 7.98214 8.90871C7.65133 8.46646 7.02464 8.37612 6.58239 8.70693C6.14014 9.03773 6.0498 9.66442 6.38061 10.1067C6.80067 10.6682 7.33659 11.1329 7.95202 11.4691C8.56745 11.8054 9.24799 12.0053 9.94749 12.0554C10.647 12.1055 11.3491 12.0046 12.0062 11.7595C12.6632 11.5144 13.2598 11.1309 13.7556 10.635L13.7557 10.6349L16.0899 8.30061L16.1021 8.28821C16.993 7.36583 17.4859 6.13044 17.4748 4.84814C17.4636 3.56583 16.9493 2.3392 16.0425 1.43243C15.1358 0.52567 13.9091 0.0113277 12.6268 0.000184834ZM7.52748 5.40264C6.82798 5.35255 6.12589 5.45347 5.46882 5.69858C4.81181 5.94366 4.21519 6.32716 3.71942 6.82308L3.71929 6.82321L1.38504 9.15746L1.37286 9.16985C0.48199 10.0922 -0.0109581 11.3276 0.000184834 12.6099C0.0113277 13.8922 0.52567 15.1189 1.43243 16.0256C2.3392 16.9324 3.56583 17.4467 4.84814 17.4579C6.13044 17.469 7.36583 16.9761 8.28821 16.0852L8.30061 16.073L9.6312 14.7424C10.0217 14.3519 10.0217 13.7187 9.6312 13.3282C9.24068 12.9377 8.60751 12.9377 8.21699 13.3282L6.893 14.6522C6.34845 15.1752 5.62075 15.4645 4.86551 15.458C4.1076 15.4514 3.38259 15.1474 2.84665 14.6114C2.3107 14.0755 2.0067 13.3505 2.00011 12.5926C1.99355 11.8373 2.28282 11.1096 2.80585 10.5651L5.13363 8.23729L5.13376 8.23717C5.42681 7.94402 5.77947 7.71732 6.16783 7.57245C6.55619 7.42758 6.97117 7.36792 7.38461 7.39753C7.79805 7.42714 8.20029 7.54532 8.56404 7.74406C8.9278 7.94279 9.24456 8.21743 9.49283 8.54935C9.82364 8.9916 10.4503 9.08195 10.8926 8.75114C11.3348 8.42033 11.4252 7.79365 11.0944 7.3514C10.6743 6.78983 10.1384 6.32516 9.52295 5.98893C8.90752 5.65269 8.22698 5.45274 7.52748 5.40264Z" fill="#FF0990"/>
</svg>
