<svg width="20" height="17" viewBox="0 0 20 17" fill="none" xmlns="http://www.w3.org/2000/svg">
<path d="M0.294458 4.87769L18.1021 0.0278201C18.7344 -0.144368 19.2814 0.513991 19.0273 1.14127L13.8402 13.9463C13.6425 14.4344 13.0594 14.6024 12.6491 14.2896L7.99123 10.7391C7.15239 10.0996 7.12703 8.80408 7.94015 8.12954L10.488 6.00517C10.8444 5.70951 10.6866 5.44705 10.265 5.62691L6.15513 7.43144C5.00609 7.92162 3.70249 7.81875 2.63743 7.15383L0.191599 5.62691C-0.107828 5.43997 -0.0432595 4.96967 0.294458 4.87769Z" fill="white"/>
<path d="M4.19532 16.0693L4.6292 11.5255C4.68952 10.8912 5.39043 10.5673 5.88212 10.9466L8.45828 12.9918C8.87234 13.3112 8.88564 13.9519 8.48521 14.2896L5.47517 16.7883C4.93138 17.2469 4.12634 16.7947 4.19532 16.0693Z" fill="white"/>
</svg>
