<svg width="121" height="120" viewBox="0 0 121 120" fill="none" xmlns="http://www.w3.org/2000/svg">
<path d="M21.9043 66L20.8232 63.0293H15.998L14.9082 66H13.3174L17.7734 54.4863H19.1094L23.4863 66H21.9043ZM18.415 56.4814L16.4814 61.7285H20.3574L18.459 56.4814H18.415ZM24.418 61.8955C24.418 60.4951 24.7139 59.3789 25.3057 58.5469C25.8975 57.7148 26.7061 57.2988 27.7314 57.2988C28.7568 57.2988 29.5449 57.6621 30.0957 58.3887V53.6777H31.6602V66.0176H30.3857L30.2012 64.9629C29.6328 65.7773 28.8242 66.1846 27.7754 66.1846C26.7266 66.1846 25.9062 65.8125 25.3145 65.0684C24.7227 64.3184 24.4268 63.3164 24.4268 62.0625L24.418 61.8955ZM25.9912 61.8955V62.0625C25.9912 62.959 26.1699 63.6592 26.5273 64.1631C26.8906 64.667 27.4355 64.9189 28.1621 64.9189C29.041 64.9189 29.6914 64.5176 30.1133 63.7148V59.7246C29.6797 58.9512 29.0352 58.5645 28.1797 58.5645C27.4473 58.5645 26.8994 58.8633 26.5361 59.4609C26.1729 60.0527 25.9912 60.8643 25.9912 61.8955ZM33.6289 61.8955C33.6289 60.4951 33.9248 59.3789 34.5166 58.5469C35.1084 57.7148 35.917 57.2988 36.9424 57.2988C37.9678 57.2988 38.7559 57.6621 39.3066 58.3887V53.6777H40.8711V66.0176H39.5967L39.4121 64.9629C38.8438 65.7773 38.0352 66.1846 36.9863 66.1846C35.9375 66.1846 35.1172 65.8125 34.5254 65.0684C33.9336 64.3184 33.6377 63.3164 33.6377 62.0625L33.6289 61.8955ZM35.2021 61.8955V62.0625C35.2021 62.959 35.3809 63.6592 35.7383 64.1631C36.1016 64.667 36.6465 64.9189 37.373 64.9189C38.252 64.9189 38.9023 64.5176 39.3242 63.7148V59.7246C38.8906 58.9512 38.2461 58.5645 37.3906 58.5645C36.6582 58.5645 36.1104 58.8633 35.7471 59.4609C35.3838 60.0527 35.2021 60.8643 35.2021 61.8955ZM50.2139 66.1846C49.3232 66.1846 48.6436 65.959 48.1748 65.5078C47.7061 65.0566 47.4717 64.4238 47.4717 63.6094C47.4717 62.7949 47.7998 62.1562 48.4561 61.6934C49.1123 61.2305 50.0146 60.999 51.1631 60.999H52.8506V60.1553C52.8506 59.6514 52.6953 59.2559 52.3848 58.9688C52.0801 58.6758 51.6641 58.5293 51.1367 58.5293C50.6152 58.5293 50.1963 58.6553 49.8799 58.9072C49.5635 59.1533 49.4053 59.4609 49.4053 59.8301H47.9199L47.9023 59.7861C47.873 59.1416 48.1719 58.5674 48.7988 58.0635C49.4316 57.5537 50.2344 57.2988 51.207 57.2988C52.1855 57.2988 52.9648 57.5508 53.5449 58.0547C54.125 58.5527 54.415 59.2588 54.415 60.1729V64.2949C54.415 64.957 54.4883 65.5312 54.6348 66.0176H53.0264C52.915 65.4727 52.8564 65.0449 52.8506 64.7344C52.5459 65.168 52.1592 65.5195 51.6904 65.7891C51.2275 66.0527 50.7354 66.1846 50.2139 66.1846ZM49.0449 63.6445H49.0361C49.0361 64.0312 49.1562 64.333 49.3965 64.5498C49.6367 64.7666 50.0088 64.875 50.5127 64.875C51.0166 64.875 51.4971 64.7344 51.9541 64.4531C52.417 64.166 52.7188 63.832 52.8594 63.4512V62.0537H51.1191C50.498 62.0537 49.9971 62.209 49.6162 62.5195C49.2354 62.8242 49.0449 63.1992 49.0449 63.6445ZM68.5566 62.2471V62.4141C68.5566 63.6621 68.2578 64.6611 67.6602 65.4111C67.0684 66.1553 66.2539 66.5273 65.2168 66.5273C64.1797 66.5273 63.3799 66.1758 62.8174 65.4727V69.6562H61.2617V57.8086H62.457L62.7031 58.916C63.2715 58.0723 64.0918 57.6504 65.1641 57.6504C66.2422 57.6504 67.0771 58.0664 67.6689 58.8984C68.2607 59.7246 68.5566 60.8408 68.5566 62.2471ZM66.9922 62.4141V62.2471C66.9922 61.2393 66.7959 60.4336 66.4033 59.8301C66.0166 59.2207 65.46 58.916 64.7334 58.916C63.8721 58.916 63.2334 59.2939 62.8174 60.0498V64.1895C63.2275 64.9395 63.8721 65.3145 64.751 65.3145C65.4717 65.3145 66.0254 65.0508 66.4121 64.5234C66.7988 63.9961 66.9922 63.293 66.9922 62.4141ZM72.0283 66.0088H70.4727V57.4482H71.8613L72.0107 58.6963C72.5322 57.7529 73.2412 57.2812 74.1377 57.2812C74.3486 57.2812 74.5479 57.3105 74.7354 57.3691L74.5244 58.8281L73.7246 58.7754C72.9219 58.7754 72.3564 59.1475 72.0283 59.8916V66.0088ZM77.0645 61.6582V61.834C77.0645 62.7832 77.2578 63.542 77.6445 64.1104C78.0371 64.6787 78.5996 64.9629 79.332 64.9629C80.0645 64.9629 80.627 64.6787 81.0195 64.1104C81.4121 63.5361 81.6084 62.7773 81.6084 61.834V61.6582C81.6084 60.7266 81.4092 59.9736 81.0107 59.3994C80.6182 58.8193 80.0557 58.5293 79.3232 58.5293C78.5967 58.5293 78.0371 58.8193 77.6445 59.3994C77.2578 59.9736 77.0645 60.7266 77.0645 61.6582ZM75.5 61.834V61.6582C75.5 60.3691 75.8457 59.3203 76.5371 58.5117C77.2285 57.7031 78.1602 57.2988 79.332 57.2988C80.5039 57.2988 81.4355 57.7031 82.127 58.5117C82.8184 59.3145 83.1641 60.3633 83.1641 61.6582V61.834C83.1641 63.1348 82.8184 64.1865 82.127 64.9893C81.4414 65.7861 80.5098 66.1846 79.332 66.1846C78.1602 66.1846 77.2285 65.7832 76.5371 64.9805C75.8457 64.1777 75.5 63.1289 75.5 61.834ZM87.2861 66H85.7217V58.5996H84.377V57.4395H85.7217V56.3584C85.7217 55.4443 85.9561 54.7383 86.4248 54.2402C86.8994 53.7422 87.5674 53.4932 88.4287 53.4932C88.7275 53.4932 89.1143 53.5488 89.5889 53.6602L89.3955 54.8467C89.1729 54.7939 88.918 54.7676 88.6309 54.7676C87.7344 54.7676 87.2861 55.2979 87.2861 56.3584V57.4395H89.0615V58.5996H87.2861V66ZM92.3486 57.4395V66H90.793V57.4395H92.3486ZM92.3486 53.6602V55.251H90.793V53.6602H92.3486ZM96.4268 53.6602V66H94.8711V53.6602H96.4268ZM104.073 60.6826C104.073 60.0381 103.906 59.5195 103.572 59.127C103.238 58.7285 102.758 58.5293 102.131 58.5293C101.615 58.5293 101.17 58.7461 100.795 59.1797C100.426 59.6133 100.197 60.167 100.109 60.8408L100.127 60.8848H104.073V60.6826ZM102.368 66.1846C101.179 66.1846 100.229 65.792 99.5205 65.0068C98.8174 64.2217 98.4658 63.1875 98.4658 61.9043V61.5527C98.4658 60.3516 98.8232 59.3438 99.5381 58.5293C100.259 57.709 101.123 57.2988 102.131 57.2988C103.268 57.2988 104.135 57.6416 104.732 58.3271C105.336 59.0068 105.638 59.9414 105.638 61.1309V62.1064H100.083L100.057 62.1416C100.074 62.9854 100.285 63.668 100.689 64.1895C101.1 64.7051 101.659 64.9629 102.368 64.9629C103.364 64.9629 104.173 64.6816 104.794 64.1191L105.409 65.1299H105.4C104.686 65.833 103.675 66.1846 102.368 66.1846ZM45.0107 85.2471V85.4141C45.0107 86.6621 44.7119 87.6611 44.1143 88.4111C43.5225 89.1553 42.708 89.5273 41.6709 89.5273C40.6338 89.5273 39.834 89.1758 39.2715 88.4727V92.6562H37.7158V80.8086H38.9111L39.1572 81.916C39.7256 81.0723 40.5459 80.6504 41.6182 80.6504C42.6963 80.6504 43.5312 81.0664 44.123 81.8984C44.7148 82.7246 45.0107 83.8408 45.0107 85.2471ZM43.4463 85.4141V85.2471C43.4463 84.2393 43.25 83.4336 42.8574 82.8301C42.4707 82.2207 41.9141 81.916 41.1875 81.916C40.3262 81.916 39.6875 82.2939 39.2715 83.0498V87.1895C39.6816 87.9395 40.3262 88.3145 41.2051 88.3145C41.9258 88.3145 42.4795 88.0508 42.8662 87.5234C43.2529 86.9961 43.4463 86.293 43.4463 85.4141ZM48.6055 80.4395V89H47.0498V80.4395H48.6055ZM48.6055 76.6602V78.251H47.0498V76.6602H48.6055ZM52.209 84.9043C52.209 85.8242 52.3789 86.5508 52.7188 87.084C53.0879 87.6699 53.6768 87.9629 54.4854 87.9629C55.0127 87.9629 55.4697 87.8018 55.8564 87.4795C56.2432 87.1572 56.4365 86.7676 56.4365 86.3105H57.834L57.8516 86.3633C57.8809 87.1074 57.5557 87.7637 56.876 88.332C56.1963 88.9004 55.3994 89.1846 54.4854 89.1846C53.2666 89.1846 52.3203 88.7891 51.6465 87.998C50.9727 87.207 50.6357 86.1758 50.6357 84.9043V84.5703C50.6357 83.3047 50.9727 82.2764 51.6465 81.4854C52.3262 80.6943 53.2725 80.2988 54.4854 80.2988C55.4814 80.2988 56.2988 80.5918 56.9375 81.1777C57.5762 81.7637 57.8838 82.4932 57.8604 83.3662L57.8428 83.4102H56.4365C56.4365 82.8828 56.252 82.4375 55.8828 82.0742C55.5137 81.7109 55.0537 81.5293 54.5029 81.5293C53.958 81.5293 53.5098 81.667 53.1582 81.9424C52.8125 82.2178 52.5664 82.5752 52.4199 83.0146C52.2793 83.4541 52.209 83.9727 52.209 84.5703V84.9043ZM60.0928 78.3916H61.666V80.457H63.2832V81.6172H61.666V86.8115C61.666 87.5381 61.9678 87.9014 62.5713 87.9014C62.7588 87.9014 62.9521 87.8662 63.1514 87.7959L63.3535 88.8594C63.0723 89.0762 62.6768 89.1846 62.167 89.1846C61.5107 89.1846 61.001 88.9883 60.6377 88.5957C60.2744 88.2031 60.0928 87.6084 60.0928 86.8115V81.6172H58.7393V80.457H60.0928V78.3916ZM68.1436 89.1846C67.1826 89.1846 66.4473 88.8828 65.9375 88.2793C65.4277 87.6699 65.1729 86.7441 65.1729 85.502V80.457H66.7285V85.5195C66.7285 86.416 66.8574 87.04 67.1152 87.3916C67.3789 87.7432 67.8037 87.9189 68.3896 87.9189C69.4619 87.9189 70.1943 87.4883 70.5869 86.627V80.457H72.1426V89.0176H70.7451L70.6396 87.752C70.0771 88.707 69.2451 89.1846 68.1436 89.1846ZM75.9746 89.0088H74.4189V80.4482H75.8076L75.957 81.6963C76.4785 80.7529 77.1875 80.2812 78.084 80.2812C78.2949 80.2812 78.4941 80.3105 78.6816 80.3691L78.4707 81.8281L77.6709 81.7754C76.8682 81.7754 76.3027 82.1475 75.9746 82.8916V89.0088ZM85.2207 83.6826C85.2207 83.0381 85.0537 82.5195 84.7197 82.127C84.3857 81.7285 83.9053 81.5293 83.2783 81.5293C82.7627 81.5293 82.3174 81.7461 81.9424 82.1797C81.5732 82.6133 81.3447 83.167 81.2568 83.8408L81.2744 83.8848H85.2207V83.6826ZM83.5156 89.1846C82.3262 89.1846 81.377 88.792 80.668 88.0068C79.9648 87.2217 79.6133 86.1875 79.6133 84.9043V84.5527C79.6133 83.3516 79.9707 82.3438 80.6855 81.5293C81.4062 80.709 82.2705 80.2988 83.2783 80.2988C84.415 80.2988 85.2822 80.6416 85.8799 81.3271C86.4834 82.0068 86.7852 82.9414 86.7852 84.1309V85.1064H81.2305L81.2041 85.1416C81.2217 85.9854 81.4326 86.668 81.8369 87.1895C82.2471 87.7051 82.8066 87.9629 83.5156 87.9629C84.5117 87.9629 85.3203 87.6816 85.9414 87.1191L86.5566 88.1299H86.5479C85.833 88.833 84.8223 89.1846 83.5156 89.1846Z" fill="#767676"/>
<path d="M69 38H63V44H61V38H55V36H61V30H63V36H69V38Z" fill="#767676"/>
<mask id="mask0" mask-type="alpha" maskUnits="userSpaceOnUse" x="1" y="0" width="120" height="120">
<rect x="2" y="1" width="118" height="118" rx="59" fill="white" stroke="#FF0990" stroke-width="2"/>
</mask>
<g mask="url(#mask0)">
<rect width="120" height="120" transform="translate(1)" fill="black"/>
<path d="M75.4781 53.1337C75.3661 51.2837 74.9904 49.7811 73.7723 48.2342C71.3309 45.1397 65.7193 44.6243 63.2071 47.6036C62.77 48.0418 62.356 48.5702 61.9406 49.2001L61.0014 50.6263L60.0614 49.1993C59.6452 48.5694 59.2312 48.0411 58.7934 47.6028C56.2813 44.6243 50.6703 45.1389 48.2297 48.2335C47.0101 49.7803 46.6344 51.2829 46.5225 53.1329C46.3635 58.6325 50.1422 63.0365 50.6053 63.6809C53.1695 66.8586 55.9648 69.8638 58.805 72.6315C59.267 73.0585 59.7341 73.4795 60.2059 73.8944C60.4732 74.125 60.7355 74.3571 61.0014 74.5861C61.2658 74.3571 61.5288 74.125 61.7947 73.8944C62.2669 73.48 62.7339 73.059 63.1956 72.6315C66.0357 69.8638 68.8325 66.8586 71.396 63.6809C71.8613 63.0365 75.6392 58.6333 75.4781 53.1337Z" fill="#FF0990"/>
<path fill-rule="evenodd" clip-rule="evenodd" d="M90.6443 41.7126L91 27L84.433 27C84.5989 31.7316 84.7933 36.7692 84.7933 41.7126V56.7666V59.0971V78.4942C84.7933 83.932 84.5989 88.1928 84.433 93.2069H91L90.6443 78.4942V63.1225V57.0844V41.7126ZM37.2071 59.0971V56.7666V41.7126L37.5672 27L31 27C31.1659 31.9434 31.3558 36.628 31.3558 41.7126V57.0844V63.1225V78.4942C31.3558 83.5083 31.1659 88.1928 31 93.2069H37.5672C37.4843 88.4047 37.29 83.7908 37.2071 78.4942V59.0971Z" fill="white"/>
</g>
</svg>
