<svg width="22" height="22" viewBox="0 0 22 22" fill="none" xmlns="http://www.w3.org/2000/svg">
<path fill-rule="evenodd" clip-rule="evenodd" d="M6.74323 3.40445C7.19858 1.45979 8.94639 0 11.0243 0C13.4457 0 15.4258 1.9794 15.4258 4.40172C15.4258 5.52466 14.9962 6.54911 14.2986 7.3276H16.1333C16.5383 7.32764 16.8666 7.65607 16.8667 8.06122V10.9986H17.7361C18.0413 10.148 18.8508 9.52846 19.8 9.52846H21.2667C21.6717 9.5285 22 9.85693 22 10.2621V19.7991C22 20.2043 21.6717 20.5327 21.2667 20.5328H19.8C18.8523 20.5328 18.044 19.9153 17.7375 19.067H16.8667V21.2664C16.8666 21.6715 16.5383 22 16.1333 22H0.733333C0.328341 22 4.048e-05 21.6715 0 21.2664V8.06122C4.048e-05 7.65607 0.328341 7.32764 0.733333 7.3276H2.46354C1.85348 6.78836 1.45951 6.00989 1.45951 5.1382C1.45951 3.52622 2.78149 2.20373 4.39284 2.20373C5.35492 2.20373 6.20704 2.6812 6.74323 3.40445ZM13.9591 4.40172C13.9591 2.77238 12.6531 1.46724 11.0243 1.46724C9.39563 1.46724 8.09101 2.77238 8.09102 4.40172C8.09101 5.99714 9.34434 7.27474 10.9255 7.3276H11.1232C12.7045 7.27486 13.9591 5.99723 13.9591 4.40172ZM5.85951 5.1382C5.85951 4.31917 5.21154 3.67096 4.39284 3.67096C3.57413 3.67096 2.92617 4.31917 2.92617 5.1382C2.92617 5.95722 3.57413 6.60688 4.39284 6.60688C5.21154 6.60688 5.85951 5.95722 5.85951 5.1382ZM7.75013 7.3276C7.47997 7.02614 7.25228 6.6874 7.07266 6.32031C6.89914 6.70998 6.63819 7.04831 6.32214 7.3276H7.75013ZM15.4 8.79484H1.46667V20.5328H15.4V8.79484ZM20.5333 10.9957H19.8C19.3852 10.9957 19.0757 11.305 19.0695 11.7179V18.3434C19.0757 18.7562 19.3852 19.0655 19.8 19.0655H20.5333V10.9957ZM17.6 12.4601H16.8667V17.5997H17.6V12.4601ZM3.149 10.4766C3.28656 10.339 3.47313 10.2617 3.66767 10.2617H5.1347C5.32924 10.2617 5.51582 10.339 5.65338 10.4766C5.79094 10.6143 5.86822 10.8009 5.86822 10.9955C5.86822 11.1901 5.79094 11.3768 5.65338 11.5144C5.51582 11.652 5.32924 11.7293 5.1347 11.7293H3.66767C3.47313 11.7293 3.28656 11.652 3.149 11.5144C3.01144 11.3768 2.93416 11.1901 2.93416 10.9955C2.93416 10.8009 3.01144 10.6143 3.149 10.4766Z" fill="#FF0990"/>
</svg>
