<svg width="40" height="40" viewBox="0 0 40 40" fill="none" xmlns="http://www.w3.org/2000/svg">
<path d="M26.6663 26.6667L19.9997 20L13.333 26.6667" stroke="#FF0990" stroke-width="2" stroke-linecap="round" stroke-linejoin="round"/>
<path d="M20 20V35" stroke="#FF0990" stroke-width="2" stroke-linecap="round" stroke-linejoin="round"/>
<path d="M33.9828 30.6498C35.6083 29.7636 36.8925 28.3613 37.6326 26.6642C38.3726 24.9671 38.5265 23.0719 38.0698 21.2776C37.6131 19.4834 36.5719 17.8923 35.1106 16.7556C33.6492 15.6188 31.8509 15.001 29.9994 14.9998H27.8994C27.395 13.0485 26.4547 11.237 25.1494 9.70147C23.844 8.1659 22.2075 6.94623 20.3629 6.13416C18.5184 5.32208 16.5137 4.93874 14.4996 5.01295C12.4856 5.08715 10.5146 5.61698 8.73474 6.56259C6.95492 7.5082 5.41263 8.84498 4.22382 10.4724C3.035 12.0999 2.2306 13.9757 1.87108 15.9588C1.51156 17.9419 1.60629 19.9807 2.14813 21.9219C2.68998 23.8631 3.66485 25.6563 4.99945 27.1665" stroke="#FF0990" stroke-width="2" stroke-linecap="round" stroke-linejoin="round"/>
<path d="M26.6663 26.6667L19.9997 20L13.333 26.6667" stroke="#FF0990" stroke-width="2" stroke-linecap="round" stroke-linejoin="round"/>
</svg>
