<svg width="24" height="26" viewBox="0 0 24 26" fill="none" xmlns="http://www.w3.org/2000/svg">
<path fill-rule="evenodd" clip-rule="evenodd" d="M13 23.8C13 24.4636 13.5364 25 14.2 25H17.8C19.0732 25 20.2936 24.4948 21.1936 23.5948C22.0936 22.6948 22.6 21.4732 22.6 20.2V19C22.6 18.3376 22.0624 17.8 21.4 17.8H14.2C13.5364 17.8 13 18.3376 13 19V23.8ZM9.4 25C10.0624 25 10.6 24.4636 10.6 23.8V11.8C10.6 11.1376 10.0624 10.6 9.4 10.6H2.2C1.5364 10.6 1 11.1376 1 11.8V20.2C1 21.4732 1.5052 22.6948 2.4052 23.5948C3.3052 24.4948 4.5268 25 5.8 25H9.4ZM14.2 1C13.5364 1 13 1.5376 13 2.2V14.2C13 14.8636 13.5364 15.4 14.2 15.4H21.4C22.0624 15.4 22.6 14.8636 22.6 14.2V5.8C22.6 4.528 22.0936 3.3064 21.1936 2.4064C20.2936 1.5064 19.0732 1 17.8 1H14.2ZM10.6 2.2C10.6 1.5376 10.0624 1 9.4 1H5.8C4.5268 1 3.3052 1.5064 2.4052 2.4064C1.5052 3.3064 1 4.528 1 5.8V7C1 7.6636 1.5364 8.2 2.2 8.2H9.4C10.0624 8.2 10.6 7.6636 10.6 7V2.2Z" fill="white" stroke="#FF0990"/>
</svg>
