<svg width="24" height="24" viewBox="0 0 24 24" fill="none" xmlns="http://www.w3.org/2000/svg">
<path d="M17.8736 18.8464L17.7271 18.7H17.52H3.6C1.83614 18.7 0.5 17.3639 0.5 15.6V3.6C0.5 1.83614 1.83614 0.5 3.6 0.5H20.4C22.1639 0.5 23.5 1.83614 23.5 3.6V22.8C23.5 22.9217 23.4803 23.0007 23.4531 23.0619C23.4249 23.1254 23.3769 23.196 23.2864 23.2864C23.0017 23.5712 22.5983 23.5712 22.3136 23.2864L17.8736 18.8464ZM6 13.7H13.2C13.6736 13.7 14.1072 13.5399 14.4236 13.2236C14.7399 12.9072 14.9 12.4736 14.9 12C14.9 11.5264 14.7399 11.0928 14.4236 10.7764C14.1072 10.4601 13.6736 10.3 13.2 10.3H6C5.52638 10.3 5.09284 10.4601 4.77645 10.7764C4.46006 11.0928 4.3 11.5264 4.3 12C4.3 12.4736 4.46006 12.9072 4.77645 13.2236C5.09284 13.5399 5.52638 13.7 6 13.7ZM6 8.9H18C18.4736 8.9 18.9072 8.73994 19.2236 8.42355C19.5399 8.10716 19.7 7.67362 19.7 7.2C19.7 6.72638 19.5399 6.29284 19.2236 5.97645C18.9072 5.66006 18.4736 5.5 18 5.5H6C5.52638 5.5 5.09284 5.66006 4.77645 5.97645C4.46006 6.29284 4.3 6.72638 4.3 7.2C4.3 7.67362 4.46006 8.10716 4.77645 8.42355C5.09284 8.73994 5.52638 8.9 6 8.9Z" stroke="#FF0990"/>
</svg>
