<svg width="26" height="26" viewBox="0 0 26 26" fill="none" xmlns="http://www.w3.org/2000/svg">
<circle cx="13.0003" cy="13" r="3.27273" stroke="#FF0990" stroke-width="1.5" stroke-linecap="round" stroke-linejoin="round"/>
<path fill-rule="evenodd" clip-rule="evenodd" d="M21.0727 16.2727C20.7756 16.9459 20.9182 17.7322 21.4327 18.2582L21.4982 18.3236C21.9079 18.7329 22.1381 19.2882 22.1381 19.8673C22.1381 20.4463 21.9079 21.0017 21.4982 21.4109C21.0889 21.8206 20.5336 22.0508 19.9545 22.0508C19.3755 22.0508 18.8201 21.8206 18.4109 21.4109L18.3455 21.3455C17.8194 20.8309 17.0332 20.6883 16.36 20.9855C15.7006 21.2681 15.272 21.9153 15.2691 22.6327V22.8182C15.2691 24.0232 14.2923 25 13.0873 25C11.8823 25 10.9055 24.0232 10.9055 22.8182V22.72C10.8882 21.9811 10.421 21.3279 9.72727 21.0727C9.05408 20.7756 8.26784 20.9182 7.74182 21.4327L7.67636 21.4982C7.26712 21.9079 6.7118 22.1381 6.13273 22.1381C5.55365 22.1381 4.99833 21.9079 4.58909 21.4982C4.1794 21.0889 3.94919 20.5336 3.94919 19.9545C3.94919 19.3755 4.1794 18.8201 4.58909 18.4109L4.65455 18.3455C5.16909 17.8194 5.31165 17.0332 5.01455 16.36C4.73193 15.7006 4.0847 15.272 3.36727 15.2691H3.18182C1.97683 15.2691 1 14.2923 1 13.0873C1 11.8823 1.97683 10.9055 3.18182 10.9055H3.28C4.0189 10.8882 4.67215 10.421 4.92727 9.72727C5.22438 9.05408 5.08182 8.26784 4.56727 7.74182L4.50182 7.67636C4.09212 7.26712 3.86192 6.7118 3.86192 6.13273C3.86192 5.55365 4.09212 4.99833 4.50182 4.58909C4.91106 4.1794 5.46638 3.94919 6.04545 3.94919C6.62453 3.94919 7.17985 4.1794 7.58909 4.58909L7.65455 4.65455C8.18057 5.16909 8.96681 5.31165 9.64 5.01455H9.72727C10.3867 4.73193 10.8153 4.0847 10.8182 3.36727V3.18182C10.8182 1.97683 11.795 1 13 1C14.205 1 15.1818 1.97683 15.1818 3.18182V3.28C15.1847 3.99743 15.6133 4.64465 16.2727 4.92727C16.9459 5.22438 17.7322 5.08182 18.2582 4.56727L18.3236 4.50182C18.7329 4.09212 19.2882 3.86192 19.8673 3.86192C20.4463 3.86192 21.0017 4.09212 21.4109 4.50182C21.8206 4.91106 22.0508 5.46638 22.0508 6.04545C22.0508 6.62453 21.8206 7.17985 21.4109 7.58909L21.3455 7.65455C20.8309 8.18057 20.6883 8.96681 20.9855 9.64V9.72727C21.2681 10.3867 21.9153 10.8153 22.6327 10.8182H22.8182C24.0232 10.8182 25 11.795 25 13C25 14.205 24.0232 15.1818 22.8182 15.1818H22.72C22.0026 15.1847 21.3553 15.6133 21.0727 16.2727Z" stroke="#FF0990" stroke-width="1.5" stroke-linecap="round" stroke-linejoin="round"/>
</svg>
