<svg width="24" height="24" viewBox="0 0 24 24" fill="none" xmlns="http://www.w3.org/2000/svg">
<path d="M6.09879 1.30945C5.89321 1.04956 5.66309 0.812131 5.41243 0.6H19.6349C20.633 0.6 21.5902 0.996491 22.296 1.70225C23.0017 2.40801 23.3982 3.36522 23.3982 4.36331L23.3982 22.9074L23.3982 22.9089C23.3984 23.0028 23.3717 23.0947 23.3213 23.1739C23.2718 23.2515 23.2015 23.3137 23.1184 23.3532C23.0511 23.3821 22.9786 23.3974 22.9053 23.3982C22.789 23.3977 22.6767 23.356 22.5883 23.2804L19.4797 20.619L19.0895 20.2849L18.6993 20.619L15.5906 23.2805C15.5906 23.2805 15.5906 23.2805 15.5906 23.2805C15.5017 23.3565 15.3885 23.3983 15.2716 23.3983C15.1546 23.3983 15.0415 23.3565 14.9526 23.2805C14.9526 23.2805 14.9526 23.2805 14.9525 23.2805L11.8439 20.619L11.4537 20.2849L11.0635 20.619L7.95462 23.2806L7.95373 23.2814C7.88244 23.3427 7.79504 23.3822 7.70194 23.3952L7.78524 23.9894L7.70194 23.3952C7.60907 23.4083 7.51442 23.3944 7.42918 23.3553C7.34419 23.3159 7.27225 23.2529 7.22188 23.1739C7.17143 23.0947 7.14473 23.0028 7.14497 22.9089V22.9074V4.39536C7.16278 4.21766 7.16156 4.03853 7.14133 3.86102C7.0417 2.92914 6.68025 2.0445 6.09879 1.30945ZM3.76629 4.30361L3.76331 4.33339V4.36331V12.4899H1.09083C0.960652 12.4899 0.835808 12.4382 0.74376 12.3462C0.651712 12.2541 0.6 12.1293 0.6 11.9991V4.36331V4.36242V4.36152V4.36063V4.35974V4.35884V4.35795V4.35706V4.35616V4.35527V4.35438V4.35348V4.35259V4.3517V4.35081V4.34992V4.34903V4.34814V4.34725V4.34636V4.34547V4.34458V4.34369V4.3428V4.34191V4.34102V4.34013V4.33924V4.33835V4.33747V4.33658V4.33569V4.3348V4.33392V4.33303V4.33214V4.33126V4.33037V4.32949V4.3286V4.32771V4.32683V4.32594V4.32506V4.32418V4.32329V4.32241V4.32152V4.32064V4.31976V4.31887V4.31799V4.31711V4.31623V4.31534V4.31446V4.31358V4.3127V4.31182V4.31094V4.31006V4.30917V4.30829V4.30741V4.30653V4.30565V4.30477V4.3039V4.30302V4.30214V4.30126V4.30038V4.2995V4.29862V4.29775V4.29687V4.29599V4.29511V4.29424V4.29336V4.29248V4.29161V4.29073V4.28986V4.28898V4.28811V4.28723V4.28635V4.28548V4.28461V4.28373V4.28286V4.28198V4.28111V4.28024V4.27936V4.27849V4.27762V4.27674V4.27587V4.275V4.27413V4.27325V4.27238V4.27151V4.27064V4.26977V4.2689V4.26803V4.26716V4.26628V4.26541V4.26454V4.26367V4.2628V4.26194V4.26107V4.2602V4.25933V4.25846V4.25759V4.25672V4.25586V4.25499V4.25412V4.25325V4.25238V4.25152V4.25065V4.24978V4.24892V4.24805V4.24718V4.24632V4.24545V4.24459V4.24372V4.24286V4.24199V4.24113V4.24026V4.2394V4.23853V4.23767V4.2368V4.23594V4.23508V4.23421V4.23335V4.23249V4.23162V4.23076V4.2299V4.22904V4.22817V4.22731V4.22645V4.22559V4.22473V4.22387V4.223V4.22214V4.22128V4.22042V4.21956V4.2187V4.21784V4.21698V4.21612V4.21526V4.2144V4.21354V4.21268V4.21182V4.21097V4.21011V4.20925V4.20839V4.20753V4.20667V4.20582V4.20496V4.2041V4.20324V4.20239V4.20153V4.20067V4.19982V4.19896V4.1981V4.19725V4.19639V4.19553V4.19468V4.19382V4.19297V4.19211V4.19126V4.1904V4.18955V4.18869V4.18784V4.18698V4.18613V4.18527V4.18442V4.18357V4.18271V4.18186V4.18101V4.18015V4.1793V4.17845V4.17759V4.17674V4.17589V4.17504V4.17418V4.17333V4.17248V4.17163V4.17078V4.16993V4.16907V4.16822V4.16737V4.16652V4.16567V4.16482V4.16397V4.16312V4.16227V4.16142V4.16057V4.15972V4.15887V4.15802V4.15717V4.15632V4.15547V4.15462V4.15377V4.15293V4.15208V4.15123V4.15038V4.14953V4.14868V4.14784V4.14699V4.14614V4.14529V4.14444V4.1436V4.14275V4.1419V4.14106V4.14021V4.13936V4.13852V4.13767V4.13682V4.13598V4.13513V4.13429V4.13344V4.13259V4.13175V4.1309V4.13006V4.12921V4.12837V4.12752V4.12668V4.12583V4.12499V4.12414V4.1233V4.12245V4.12161V4.12077V4.11992V4.11908V4.11823V4.11739V4.11655V4.1157V4.11486V4.11402V4.11317V4.11233V4.11149V4.11065V4.1098V4.10896V4.10812V4.10728V4.10643V4.10559V4.10475V4.10391V4.10307V4.10222V4.10138V4.10054V4.0997V4.09886V4.09802V4.09718V4.09633V4.09549V4.09465V4.09381V4.09297V4.09213V4.09129V4.09045V4.08961V4.08877V4.08793V4.08709V4.08625V4.08541V4.08457V4.08373V4.08289V4.08205V4.08121V4.08037V4.07954V4.0787V4.07786V4.07702V4.07618V4.07534V4.0745V4.07366V4.07282V4.07199V4.07115V4.07031V4.06947V4.06863V4.0678V4.06696V4.06612V4.06528V4.06445V4.06361V4.06277V4.06193V4.0611V4.06026V4.05942V4.05858V4.05775V4.05691V4.05607V4.05524V4.0544V4.05356V4.05273V4.05189V4.05105V4.05022V4.04938V4.04855V4.04771V4.04687V4.04604V4.0452V4.04437V4.04353V4.0427V4.04186V4.04102V4.04019V4.03935V4.03852V4.03768V4.03685V4.03601V4.03518V4.03434V4.03351V4.03267V4.03184V4.031V4.03017V4.02933V4.0285V4.02766V4.02683V4.026V4.02516V4.02433V4.02349V4.02266V4.02182V4.02099V4.02016V4.01932V4.01849V4.01766V4.01682V4.01599V4.01515V4.01432V4.01349V4.01265V4.01182V4.01099V4.01015V4.00932V4.00849V4.00765V4.00682V4.00599V4.00515V4.00432V4.00349V4.00266V4.00182V4.00099V4.00016V3.99932V3.99849V3.99766V3.99683V3.99599V3.99516V3.99433V3.9935V3.99266V3.99183V3.991V3.99017V3.98933V3.9885V3.98767V3.98684V3.986V3.98517V3.98434V3.98351V3.98268V3.98184V3.98101V3.98018V3.97935V3.97852V3.97768V3.97685V3.97602V3.97519V3.97436V3.97353V3.97269V3.97186V3.97103V3.9702V3.96937V3.96854V3.96771V3.96687V3.96604V3.96521V3.96438V3.96355V3.96272V3.96189V3.96105V3.96022V3.95939V3.9593C0.648126 3.54965 0.85342 3.17423 1.1732 2.91259C1.5001 2.64513 1.91985 2.51849 2.34012 2.56051C2.76039 2.60254 3.14675 2.8098 3.41421 3.13669C3.68167 3.46359 3.80832 3.88334 3.76629 4.30361ZM11.9991 15.8716H18.5441C18.9925 15.8716 19.4226 15.6935 19.7397 15.3764C20.0568 15.0593 20.2349 14.6292 20.2349 14.1808C20.2349 13.7323 20.0568 13.3023 19.7397 12.9852C19.4226 12.6681 18.9925 12.4899 18.5441 12.4899H11.9991C11.5507 12.4899 11.1206 12.6681 10.8035 12.9852C10.4864 13.3023 10.3083 13.7323 10.3083 14.1808C10.3083 14.6292 10.4864 15.0593 10.8035 15.3764C11.1206 15.6935 11.5507 15.8716 11.9991 15.8716ZM11.9991 11.5083H18.5441C18.9925 11.5083 19.4226 11.3301 19.7397 11.0131C20.0568 10.696 20.2349 10.2659 20.2349 9.81745C20.2349 9.36902 20.0568 8.93895 19.7397 8.62186C19.4226 8.30477 18.9925 8.12663 18.5441 8.12663H11.9991C11.5507 8.12663 11.1206 8.30477 10.8035 8.62186C10.4864 8.93895 10.3083 9.36902 10.3083 9.81745C10.3083 10.2659 10.4864 10.696 10.8035 11.013C11.1206 11.3301 11.5507 11.5083 11.9991 11.5083ZM11.9991 7.14497H18.5441C18.9925 7.14497 19.4226 6.96683 19.7397 6.64974C20.0568 6.33264 20.2349 5.90258 20.2349 5.45414C20.2349 5.00571 20.0568 4.57564 19.7397 4.25855C19.4226 3.94145 18.9925 3.76331 18.5441 3.76331H11.9991C11.5507 3.76331 11.1206 3.94145 10.8035 4.25854C10.4864 4.57564 10.3083 5.0057 10.3083 5.45414C10.3083 5.90258 10.4864 6.33264 10.8035 6.64974C11.1206 6.96683 11.5507 7.14497 11.9991 7.14497Z" stroke="#FF0990" stroke-width="1.2"/>
</svg>
