<svg width="27" height="22" viewBox="0 0 27 22" fill="none" xmlns="http://www.w3.org/2000/svg">
<mask id="path-1-inside-1_12551_63104" fill="white">
<path fill-rule="evenodd" clip-rule="evenodd" d="M12.1935 9.42567C11.3512 9.99122 10.3608 10.2931 9.34763 10.2931C7.98962 10.2919 6.68756 9.7494 5.72722 8.78469C4.76688 7.81998 4.22672 6.51187 4.2253 5.14744C4.22512 4.12951 4.52539 3.13439 5.08813 2.28793C5.65087 1.44147 6.45081 0.781685 7.38678 0.392018C8.32275 0.00235009 9.35271 -0.0996967 10.3464 0.0987819C11.3401 0.297261 12.2529 0.78735 12.9694 1.50707C13.6858 2.22679 14.1738 3.14381 14.3715 4.14217C14.5692 5.14053 14.4678 6.17537 14.0801 7.11583C13.6925 8.05629 13.0359 8.86012 12.1935 9.42567ZM11.2647 11.9062C13.0848 12.2883 14.7502 13.2068 16.0482 14.5445C17.0695 15.5989 17.8281 16.881 18.262 18.2862C18.5535 19.1951 18.7002 20.1445 18.6967 21.0994C18.6967 21.3383 18.6023 21.5673 18.4342 21.7362C18.2661 21.9051 18.0382 22 17.8004 22H0.896296C0.658584 22 0.430607 21.9051 0.262519 21.7362C0.0944309 21.5673 0 21.3383 0 21.0994C0.000840175 19.2313 0.555936 17.4058 1.59438 15.8561C2.63283 14.3064 4.10748 13.1029 5.82998 12.3994C7.55247 11.6958 9.44461 11.5241 11.2647 11.9062ZM20.1667 10.7433C22.2705 10.7433 23.976 9.02981 23.976 6.91608C23.976 4.80234 22.2705 3.08882 20.1667 3.08882C18.0629 3.08882 16.3574 4.80234 16.3574 6.91608C16.3574 9.02981 18.0629 10.7433 20.1667 10.7433ZM16.7554 12.7488C17.7871 12.1302 18.9652 11.8015 20.1667 11.797C21.9489 11.7989 23.6576 12.5111 24.9179 13.7773C26.1781 15.0435 26.887 16.7603 26.8889 18.551C26.8889 18.7898 26.7945 19.0188 26.6264 19.1877C26.4583 19.3566 26.2303 19.4515 25.9926 19.4515H20.3674C20.2845 18.8765 20.1534 18.3096 19.9758 17.7567C19.4569 16.0773 18.5503 14.545 17.3299 13.2846C17.1704 13.1205 17.0014 12.9692 16.8323 12.8178C16.8067 12.7948 16.781 12.7719 16.7554 12.7488Z"/>
</mask>
<path d="M9.34763 10.2931L9.34632 11.7931H9.34763V10.2931ZM12.1935 9.42567L13.0296 10.671L13.0296 10.671L12.1935 9.42567ZM4.2253 5.14744L2.7253 5.1477L2.7253 5.14901L4.2253 5.14744ZM5.08813 2.28793L6.33727 3.11838L6.33727 3.11838L5.08813 2.28793ZM7.38678 0.392018L7.9633 1.7768V1.7768L7.38678 0.392018ZM10.3464 0.0987819L10.0526 1.56973L10.3464 0.0987819ZM12.9694 1.50707L11.9063 2.56532L11.9063 2.56532L12.9694 1.50707ZM14.3715 4.14217L15.8429 3.85076L15.8429 3.85076L14.3715 4.14217ZM14.0801 7.11583L15.4669 7.68749L15.4669 7.68749L14.0801 7.11583ZM16.0482 14.5445L17.1256 13.5009L17.1247 13.4999L16.0482 14.5445ZM18.262 18.2862L16.8288 18.7288L16.8312 18.7365L16.8337 18.7442L18.262 18.2862ZM18.6967 21.0994L17.1967 21.094V21.0994H18.6967ZM18.4342 21.7362L17.3711 20.6781L17.3711 20.6781L18.4342 21.7362ZM0.262519 21.7362L1.32568 20.6781H1.32568L0.262519 21.7362ZM0 21.0994L-1.5 21.0988V21.0994H0ZM1.59438 15.8561L0.348289 15.0211H0.348288L1.59438 15.8561ZM5.82998 12.3994L6.39717 13.788H6.39717L5.82998 12.3994ZM20.1667 11.797L20.1683 10.2969L20.161 10.297L20.1667 11.797ZM16.7554 12.7488L15.984 11.4623L14.2415 12.5071L15.753 13.8647L16.7554 12.7488ZM26.8889 18.551H28.3889V18.5494L26.8889 18.551ZM26.6264 19.1877L27.6895 20.2459L27.6895 20.2459L26.6264 19.1877ZM20.3674 19.4515L18.8828 19.6657L19.0683 20.9515H20.3674V19.4515ZM19.9758 17.7567L18.5426 18.1995L18.5451 18.2076L18.5477 18.2157L19.9758 17.7567ZM17.3299 13.2846L18.4075 12.2412L18.4057 12.2394L17.3299 13.2846ZM16.8323 12.8178L17.8329 11.7003L17.8329 11.7003L16.8323 12.8178ZM9.34763 11.7931C10.659 11.7931 11.9404 11.4023 13.0296 10.671L11.3574 8.1803C10.7619 8.58012 10.0625 8.79308 9.34763 8.79308V11.7931ZM4.66416 9.84295C5.90493 11.0894 7.5887 11.7915 9.34632 11.7931L9.34895 8.79308C8.39055 8.79224 7.4702 8.40945 6.79029 7.72644L4.66416 9.84295ZM2.7253 5.14901C2.72714 6.90849 3.42363 8.59677 4.66416 9.84295L6.79029 7.72644C6.11014 7.0432 5.72631 6.11525 5.7253 5.14588L2.7253 5.14901ZM3.83899 1.45748C3.11236 2.55047 2.72507 3.83466 2.7253 5.1477L5.7253 5.14718C5.72517 4.42437 5.93842 3.71832 6.33727 3.11838L3.83899 1.45748ZM6.81026 -0.992766C5.5994 -0.488656 4.56568 0.36442 3.83899 1.45748L6.33727 3.11838C6.73607 2.51852 7.30222 2.05203 7.9633 1.7768L6.81026 -0.992766ZM10.6402 -1.37216C9.35413 -1.62904 8.02118 -1.49691 6.81026 -0.992765L7.9633 1.7768C8.62431 1.50161 9.35129 1.42965 10.0526 1.56973L10.6402 -1.37216ZM14.0324 0.448821C13.1066 -0.481197 11.9262 -1.11529 10.6402 -1.37216L10.0526 1.56973C10.7539 1.70981 11.3992 2.0559 11.9063 2.56532L14.0324 0.448821ZM15.8429 3.85076C15.5878 2.56278 14.9581 1.37876 14.0324 0.44882L11.9063 2.56532C12.4135 3.07482 12.7597 3.72485 12.9001 4.43358L15.8429 3.85076ZM15.4669 7.68749C15.9672 6.4738 16.098 5.13871 15.8429 3.85076L12.9001 4.43358C13.0404 5.14234 12.9684 5.87694 12.6933 6.54417L15.4669 7.68749ZM13.0296 10.671C14.1188 9.93981 14.9666 8.90124 15.4669 7.68749L12.6933 6.54417C12.4183 7.21133 11.953 7.78043 11.3574 8.1803L13.0296 10.671ZM17.1247 13.4999C15.619 11.9482 13.6862 10.8818 11.5729 10.4382L10.9565 13.3742C12.4833 13.6947 13.8814 14.4654 14.9717 15.5891L17.1247 13.4999ZM19.6952 17.8436C19.1917 16.2133 18.3114 14.7252 17.1256 13.5009L14.9707 15.5881C15.8275 16.4726 16.4644 17.5487 16.8288 18.7288L19.6952 17.8436ZM20.1967 21.1049C20.2008 19.9928 20.0299 18.8869 19.6904 17.8281L16.8337 18.7442C17.0771 19.5033 17.1996 20.2963 17.1967 21.094L20.1967 21.1049ZM19.4974 22.7944C19.946 22.3437 20.1967 21.7338 20.1967 21.0994H17.1967C17.1967 20.9427 17.2586 20.791 17.3711 20.6781L19.4974 22.7944ZM17.8004 23.5C18.4383 23.5 19.0485 23.2453 19.4974 22.7944L17.3711 20.6781C17.4837 20.5649 17.638 20.5 17.8004 20.5V23.5ZM0.896296 23.5H17.8004V20.5H0.896296V23.5ZM-0.800638 22.7944C-0.351796 23.2453 0.258471 23.5 0.896296 23.5V20.5C1.0587 20.5 1.21301 20.5649 1.32568 20.6781L-0.800638 22.7944ZM-1.5 21.0994C-1.5 21.7338 -1.24924 22.3437 -0.800638 22.7944L1.32568 20.6781C1.43811 20.791 1.5 20.9427 1.5 21.0994H-1.5ZM0.348288 15.0211C-0.855818 16.818 -1.49903 18.9339 -1.5 21.0988L1.5 21.1001C1.50071 19.5286 1.96769 17.9936 2.84048 16.6911L0.348288 15.0211ZM5.26278 11.0107C3.26318 11.8275 1.55245 13.2241 0.348289 15.0211L2.84048 16.6911C3.71321 15.3887 4.95178 14.3784 6.39717 13.788L5.26278 11.0107ZM11.5729 10.4382C9.45947 9.99451 7.26246 10.1939 5.26278 11.0107L6.39717 13.788C7.84248 13.1976 9.42975 13.0537 10.9565 13.3742L11.5729 10.4382ZM22.476 6.91608C22.476 8.20806 21.4354 9.24333 20.1667 9.24333V12.2433C23.1056 12.2433 25.476 9.85157 25.476 6.91608H22.476ZM20.1667 4.58882C21.4354 4.58882 22.476 5.62409 22.476 6.91608H25.476C25.476 3.98059 23.1056 1.58882 20.1667 1.58882V4.58882ZM17.8574 6.91608C17.8574 5.62409 18.898 4.58882 20.1667 4.58882V1.58882C17.2278 1.58882 14.8574 3.98059 14.8574 6.91608H17.8574ZM20.1667 9.24333C18.898 9.24333 17.8574 8.20806 17.8574 6.91608H14.8574C14.8574 9.85157 17.2278 12.2433 20.1667 12.2433V9.24333ZM20.161 10.297C18.6894 10.3025 17.2468 10.7052 15.984 11.4623L17.5267 14.0353C18.3273 13.5553 19.241 13.3005 20.1723 13.297L20.161 10.297ZM25.9811 12.7191C24.4404 11.1712 22.3501 10.2993 20.1683 10.297L20.1651 13.297C21.5478 13.2984 22.8749 13.8509 23.8547 14.8354L25.9811 12.7191ZM28.3889 18.5494C28.3866 16.3637 27.5214 14.2668 25.9811 12.7191L23.8547 14.8354C24.8349 15.8202 25.3874 17.1569 25.3889 18.5525L28.3889 18.5494ZM27.6895 20.2459C28.1381 19.7952 28.3889 19.1853 28.3889 18.551H25.3889C25.3889 18.3942 25.4508 18.2425 25.5632 18.1296L27.6895 20.2459ZM25.9926 20.9515C26.6304 20.9515 27.2407 20.6968 27.6895 20.2459L25.5632 18.1296C25.6759 18.0164 25.8302 17.9515 25.9926 17.9515V20.9515ZM20.3674 20.9515H25.9926V17.9515H20.3674V20.9515ZM18.5477 18.2157C18.6997 18.6887 18.8118 19.1737 18.8828 19.6657L21.8521 19.2373C21.7571 18.5793 21.6072 17.9305 21.4038 17.2977L18.5477 18.2157ZM16.2523 14.3281C17.3083 15.4186 18.0933 16.7451 18.5426 18.1995L21.4089 17.3139C20.8206 15.4096 19.7923 13.6713 18.4075 12.2412L16.2523 14.3281ZM15.8318 13.9354C16.0071 14.0923 16.1369 14.2093 16.2541 14.3299L18.4057 12.2394C18.2038 12.0316 17.9957 11.846 17.8329 11.7003L15.8318 13.9354ZM15.753 13.8647C15.7797 13.8887 15.8063 13.9125 15.8318 13.9354L17.8329 11.7003C17.8071 11.6772 17.7823 11.655 17.7577 11.6329L15.753 13.8647Z" fill="#FF0990" mask="url(#path-1-inside-1_12551_63104)"/>
</svg>
