<svg viewBox="0 0 1058 794" fill="none" xmlns="http://www.w3.org/2000/svg">
<path d="M892.906 122.408C900.74 122.408 908.253 125.522 913.792 131.065C919.332 136.608 922.444 144.126 922.444 151.965V432.287C922.444 440.126 919.332 447.643 913.792 453.186C908.253 458.729 900.74 461.843 892.906 461.843H529.443C521.609 461.843 514.096 458.729 508.557 453.186C503.017 447.643 499.905 440.126 499.905 432.287V151.965C499.905 144.126 503.017 136.608 508.557 131.065C514.096 125.522 521.609 122.408 529.443 122.408H892.906ZM892.906 119.762H529.443C520.91 119.77 512.729 123.166 506.696 129.203C500.662 135.241 497.269 143.427 497.26 151.965V432.287C497.269 440.825 500.662 449.011 506.696 455.048C512.729 461.086 520.91 464.481 529.443 464.49H892.906C901.439 464.481 909.619 461.086 915.653 455.048C921.687 449.011 925.08 440.825 925.089 432.287V151.965C925.08 143.427 921.687 135.241 915.653 129.203C909.619 123.166 901.439 119.77 892.906 119.762Z" fill="white"/>
<path d="M892.906 122.408H529.443C513.13 122.408 499.905 135.641 499.905 151.965V432.287C499.905 448.61 513.13 461.843 529.443 461.843H892.906C909.219 461.843 922.444 448.61 922.444 432.287V151.965C922.444 135.641 909.219 122.408 892.906 122.408Z" fill="#F5EBDD"/>
<path d="M499.905 185.928H923.766" stroke="white" stroke-width="4" stroke-miterlimit="10"/>
<path d="M530.984 164.755C537.192 164.755 542.225 159.719 542.225 153.507C542.225 147.294 537.192 142.258 530.984 142.258C524.776 142.258 519.743 147.294 519.743 153.507C519.743 159.719 524.776 164.755 530.984 164.755Z" fill="white"/>
<path d="M565.051 164.755C571.26 164.755 576.293 159.719 576.293 153.507C576.293 147.294 571.26 142.258 565.051 142.258C558.843 142.258 553.81 147.294 553.81 153.507C553.81 159.719 558.843 164.755 565.051 164.755Z" fill="white"/>
<path d="M599.112 164.755C605.321 164.755 610.354 159.719 610.354 153.507C610.354 147.294 605.321 142.258 599.112 142.258C592.904 142.258 587.871 147.294 587.871 153.507C587.871 159.719 592.904 164.755 599.112 164.755Z" fill="white"/>
<path d="M520.622 322.232C528.456 322.232 535.969 325.346 541.509 330.889C547.048 336.432 550.16 343.949 550.16 351.788V632.11C550.16 639.949 547.048 647.467 541.509 653.01C535.969 658.553 528.456 661.667 520.622 661.667H157.159C149.325 661.667 141.812 658.553 136.273 653.01C130.733 647.467 127.621 639.949 127.621 632.11V351.788C127.621 343.949 130.733 336.432 136.273 330.889C141.812 325.346 149.325 322.232 157.159 322.232H520.622ZM520.622 319.585H157.159C148.627 319.594 140.446 322.989 134.412 329.027C128.379 335.064 124.985 343.25 124.976 351.788V632.11C124.985 640.648 128.379 648.834 134.412 654.872C140.446 660.909 148.627 664.305 157.159 664.313H520.622C529.155 664.305 537.336 660.909 543.369 654.872C549.403 648.834 552.796 640.648 552.805 632.11V351.788C552.796 343.25 549.403 335.064 543.369 329.027C537.336 322.989 529.155 319.594 520.622 319.585Z" fill="white"/>
<path d="M520.622 322.232H157.159C140.846 322.232 127.621 335.465 127.621 351.788V632.11C127.621 648.434 140.846 661.667 157.159 661.667H520.622C536.935 661.667 550.16 648.434 550.16 632.11V351.788C550.16 335.465 536.935 322.232 520.622 322.232Z" fill="#F5EBDD"/>
<path d="M127.621 385.752H551.483" stroke="white" stroke-width="4" stroke-miterlimit="10"/>
<path d="M158.7 364.578C164.908 364.578 169.941 359.542 169.941 353.33C169.941 347.118 164.908 342.082 158.7 342.082C152.492 342.082 147.459 347.118 147.459 353.33C147.459 359.542 152.492 364.578 158.7 364.578Z" fill="white"/>
<path d="M192.768 364.578C198.976 364.578 204.009 359.542 204.009 353.33C204.009 347.118 198.976 342.082 192.768 342.082C186.559 342.082 181.526 347.118 181.526 353.33C181.526 359.542 186.559 364.578 192.768 364.578Z" fill="white"/>
<path d="M226.829 364.578C233.037 364.578 238.07 359.542 238.07 353.33C238.07 347.118 233.037 342.082 226.829 342.082C220.62 342.082 215.587 347.118 215.587 353.33C215.587 359.542 220.62 364.578 226.829 364.578Z" fill="white"/>
<path d="M572.861 402.644L572.656 402.446V402.856L572.861 402.644Z" fill="#3EC1F3"/>
<path d="M557.01 418.67L556.845 386.784L540.578 370.672L540.902 434.947L557.01 418.67Z" fill="#3EC1F3"/>
<path d="M444.638 330.926L445.18 438.175L461.447 454.287L460.739 314.649L444.638 330.926Z" fill="#3EC1F3"/>
<path d="M391.321 384.825L429.37 422.514L428.986 346.746L391.321 384.825Z" fill="#3EC1F3"/>
<path d="M525.257 450.76L524.775 355.017L508.501 338.899L509.149 467.044L525.257 450.76Z" fill="#3EC1F3"/>
<path d="M492.697 323.244L476.431 307.132L477.251 469.949L491.911 484.466L493.504 482.858L492.697 323.244Z" fill="#3EC1F3"/>
<path d="M428.986 346.746L429.369 422.514L445.18 438.176L444.638 330.926L428.986 346.746Z" fill="#4756DF"/>
<path d="M472.265 303.004L460.739 314.649L461.447 454.287L477.251 469.949L476.431 307.132L472.265 303.004Z" fill="#4756DF"/>
<path d="M509.149 467.044L508.501 338.899L492.697 323.244L493.504 482.858L509.149 467.044Z" fill="#4756DF"/>
<path d="M540.903 434.947L540.579 370.672L524.775 355.017L525.257 450.76L540.903 434.947Z" fill="#4756DF"/>
<path d="M572.656 402.856V402.445L556.845 386.784L557.011 418.67L572.656 402.856Z" fill="#4756DF"/>
<path d="M497.359 328.2L416.561 409.869" stroke="black" stroke-width="4" stroke-linejoin="round"/>
<path d="M476.45 298.773L387.127 389.062L411.39 413.095L500.713 322.806L476.45 298.773Z" fill="#4756DF"/>
<path d="M452.295 444.64C452.295 444.64 460.891 416.188 455.601 411.557C449.214 405.966 438.409 424.128 429.7 445.963C420.542 468.903 393.993 533.965 392.67 538.597C392.67 538.597 347.434 513.85 327.206 504.852C309.353 496.912 287.604 494.027 287.604 494.027L284.84 477.412C284.84 477.412 297.754 482.044 308.824 475.566C319.893 469.089 322.664 457.099 318.974 438.639C316.785 427.701 316.864 414.157 315.006 402.082C307.64 403.326 296.848 400.791 296.848 400.791C282.083 417.406 266.431 421.098 266.431 421.098C256.281 410.022 237.825 410.022 235.061 425.73C232 443.098 253.51 447.882 253.51 447.882C253.51 447.882 257.888 473.092 248.63 498.235C235.769 533.171 183.92 542.441 162.668 527.348C124.315 554.477 158.244 636.901 190.44 675.562C216.89 707.322 310.788 690.78 310.788 690.78C310.788 690.78 321.368 698.72 333.931 701.367C356.414 745.698 365.671 733.127 365.671 733.127C365.671 733.127 373.606 741.728 379.558 732.465C391.46 733.127 390.799 725.848 380.219 700.705C392.121 715.262 403.772 715.308 404.024 711.292C404.685 700.705 369.639 663.652 347.818 654.388C331.425 647.428 323.351 645.125 323.351 645.125L320.045 591.53C320.045 591.53 390.217 630.092 423.2 612.042C465.52 588.883 482.713 475.077 482.713 475.077L452.295 444.64Z" fill="#EAA58B"/>
<path d="M248.63 498.235C257.887 473.092 253.47 447.869 253.47 447.869C253.47 447.869 231.96 443.085 235.021 425.716C237.786 410.022 256.241 410.022 266.391 421.085C266.391 421.085 282.069 417.393 296.809 400.778C296.809 400.778 307.6 403.312 314.967 402.068C313.677 393.751 311.469 386.109 306.952 380.465C295.883 366.623 265.439 357.386 241.455 374.927C217.472 392.468 219.31 421.085 220.236 432.161C220.236 432.161 178.756 421.998 156.69 453.228C129.579 491.605 162.641 527.335 162.641 527.335C183.92 542.441 235.769 533.171 248.63 498.235Z" fill="#30242A"/>
<path d="M321.202 610.301L320.045 591.53H320.105L314.57 500.114C308.464 498.226 302.261 496.664 295.989 495.436L292.934 558.447H241.356L221.763 526.587C214.77 530.04 207.28 532.378 199.565 533.515L229.031 606.59L240.034 633.877C240.034 633.877 265.161 635.2 287.644 638.508C310.126 641.817 323.351 645.125 323.351 645.125L321.202 610.301Z" fill="#FFCCCC"/>
<path d="M453.28 446.281C452.738 448.008 452.183 449.689 451.634 451.257C451.634 451.257 468.496 470.776 457.916 495.919" stroke="#BB7259" stroke-width="4" stroke-miterlimit="10" stroke-linecap="round"/>
<path d="M391.123 538.008L384.186 555.8" stroke="#BB7259" stroke-width="4" stroke-miterlimit="10" stroke-linecap="round"/>
<path d="M382.864 703.788C380.067 697.443 376.608 690.019 373.553 684.6" stroke="#BB7259" stroke-width="4" stroke-miterlimit="10" stroke-linecap="round"/>
<path d="M361.142 691.197C369.077 705.178 375.299 720.833 379.2 731.83" stroke="#BB7259" stroke-width="4" stroke-miterlimit="10" stroke-linecap="round"/>
<path d="M348.803 699.031C354.754 709.962 360.547 722.699 364.845 732.71" stroke="#BB7259" stroke-width="4" stroke-miterlimit="10" stroke-linecap="round"/>
<path d="M207.752 660.112C203.46 658.654 198.864 658.337 194.413 659.19C189.962 660.044 185.808 662.04 182.36 664.982C185.038 668.773 187.742 672.326 190.44 675.568C197.754 684.349 210.218 689.463 224.428 692.196C228.032 678.711 220.858 664.624 207.752 660.112Z" fill="#CA7358"/>
<path d="M423.2 612.042C428.946 608.899 434.223 604.102 439.07 598.107C435.933 593.386 431.329 589.831 425.971 587.99C412.25 583.272 397.22 590.815 392.399 604.836C391.143 608.492 390.676 612.374 391.03 616.223C403.032 617.639 414.432 616.839 423.2 612.042Z" fill="#CA7358"/>
<path d="M199.559 533.515C185.315 535.639 171.403 533.555 162.668 527.348C134.796 547.066 145.098 595.976 165.167 636.08L229.031 606.59L199.559 533.515Z" fill="#B7E0E0"/>
<path d="M248.63 498.235C243.856 511.197 233.712 520.626 221.763 526.587L241.356 558.447H292.934L295.989 495.469C290.91 494.47 287.604 494.027 287.604 494.027L286.321 486.325H252.082C251.206 490.37 250.053 494.349 248.63 498.235Z" fill="#B7E0E0"/>
<path d="M327.2 504.852C323.081 503.048 318.865 501.477 314.57 500.147L320.105 591.563C328.889 596.217 337.919 600.389 347.156 604.062L374.268 528.672C359.403 520.732 339.03 510.145 327.2 504.852Z" fill="#B7E0E0"/>
<path d="M153.424 561.129C171.139 550.905 178.295 530.14 169.407 514.751C160.52 499.361 138.953 495.174 121.238 505.399C103.523 515.624 96.3666 536.388 105.255 551.778C114.142 567.167 135.709 571.354 153.424 561.129Z" fill="#30242A"/>
<path d="M146.467 497.242C146.467 497.242 151.096 525.032 173.578 533.634" stroke="black" stroke-width="4" stroke-linecap="round" stroke-linejoin="round"/>
<path d="M646.372 333.811L649.017 353.661" stroke="#F5EBDC" stroke-width="4" stroke-miterlimit="10" stroke-linecap="round"/>
<path d="M866.238 310.322C866.238 310.322 895.994 275.253 862.931 245.478C842.724 227.283 818.449 232.351 818.449 232.351C819.368 221.275 821.213 192.651 797.23 175.117C773.246 157.583 742.795 166.813 731.726 180.655C720.657 194.497 723.427 220.355 719.738 238.815C716.048 257.276 718.812 269.252 729.881 275.743C740.951 282.234 753.871 277.589 753.871 277.589L751.101 294.203C751.101 294.203 729.359 297.088 711.505 305.028C691.271 314.027 646.041 338.773 646.041 338.773C644.719 334.142 637.445 258.712 634.139 234.23C631.619 215.578 622.898 192.545 616.285 197.177C609.871 201.669 612.318 216.365 612.318 216.365L578.594 251.433C578.594 251.433 561.924 371.678 601.738 404.278C630.833 428.098 706.876 389.722 706.876 389.722L696.958 461.843H787.694C787.694 461.843 770.68 466.369 735.31 482.355C694.313 500.882 670.508 552.492 673.153 556.462C675.798 560.432 683.733 557.123 694.313 543.89C685.055 578.297 694.313 575.65 700.264 574.988C706.314 583.696 714.15 573.003 714.15 573.003C714.15 573.003 724.73 582.928 741.261 536.612C748.771 533.069 755.686 528.381 761.76 522.717C761.76 522.717 866.899 516.1 887.398 479.047C907.896 441.993 894.01 345.39 866.238 310.322Z" fill="#A15842"/>
<path d="M728.797 230.458C730.312 230.458 731.541 229.229 731.541 227.713C731.541 226.196 730.312 224.967 728.797 224.967C727.281 224.967 726.052 226.196 726.052 227.713C726.052 229.229 727.281 230.458 728.797 230.458Z" fill="#30242A"/>
<path d="M239.703 632.884L224.494 632.222" stroke="#BB7259" stroke-width="4" stroke-miterlimit="10" stroke-linecap="round"/>
<path d="M284.609 478.961C280.613 477.588 276.736 475.891 273.017 473.886" stroke="#BB7259" stroke-width="4" stroke-miterlimit="10" stroke-linecap="round"/>
<path d="M219.231 431.982C219.733 437.031 220.414 443.317 221.076 448.279" stroke="black" stroke-width="4" stroke-linecap="round" stroke-linejoin="round"/>
<path d="M268.943 594.595C268.943 594.595 253.622 572.899 260.737 570.047C266.483 567.745 268.123 584.624 268.943 594.595Z" stroke="#724342" stroke-width="4" stroke-linecap="round" stroke-linejoin="round"/>
<path d="M269.426 594.979C269.426 594.979 276.958 577.577 281.685 580.363C285.501 582.612 275.437 590.433 269.426 594.979Z" stroke="#724342" stroke-width="4" stroke-linecap="round" stroke-linejoin="round"/>
<path d="M289.112 494.49L290.289 501.543" stroke="#BB7259" stroke-width="4" stroke-miterlimit="10" stroke-linecap="round"/>
<path d="M256.195 433.028L247.962 428.449" stroke="#BB7259" stroke-width="4" stroke-miterlimit="10" stroke-linecap="round"/>
<path d="M295.493 448.511C295.962 457.192 304.876 457.913 307.058 451.819L295.493 448.511Z" stroke="#BB7259" stroke-width="4" stroke-linecap="round" stroke-linejoin="round"/>
<path d="M290.17 433.259C291.685 433.259 292.914 432.03 292.914 430.513C292.914 428.997 291.685 427.767 290.17 427.767C288.654 427.767 287.426 428.997 287.426 430.513C287.426 432.03 288.654 433.259 290.17 433.259Z" fill="#724342"/>
<path d="M310.576 428.297C312.092 428.297 313.32 427.067 313.32 425.551C313.32 424.034 312.092 422.805 310.576 422.805C309.06 422.805 307.832 424.034 307.832 425.551C307.832 427.067 309.06 428.297 310.576 428.297Z" fill="#724342"/>
<path d="M303.554 433.868C304.215 435.621 304.836 437.547 304.638 438.268C304.357 439.134 303.791 439.878 303.031 440.379" stroke="#BB7259" stroke-width="4" stroke-miterlimit="10" stroke-linecap="round"/>
<path d="M279.292 360.423L282.79 364.267L285.105 366.821C286.579 371.982 275.847 380.207 260.929 385.302C246.012 390.397 232.496 390.443 230.512 385.454L230.79 382.013L231.213 376.832C236.814 378.156 246.534 377.09 256.935 373.524C267.337 369.958 275.682 364.922 279.292 360.423Z" fill="#C2EE99"/>
<path d="M252.902 361.76C260.704 359.113 267.357 355.58 271.721 352.086L279.292 360.423C275.682 364.922 267.324 369.991 256.916 373.544C246.507 377.097 236.794 378.176 231.193 376.852L232.099 365.604C237.686 365.703 245.099 364.42 252.902 361.76Z" fill="#FFCCCC"/>
<path d="M263.614 343.167L271.721 352.086C267.357 355.58 260.704 359.1 252.902 361.76C245.099 364.42 237.693 365.73 232.099 365.611L233.064 353.588C243.862 352.283 254.268 348.733 263.614 343.167Z" fill="#C2EE99"/>
<path d="M244.868 338.191C248.397 336.996 251.838 335.552 255.163 333.87L263.614 343.167C254.268 348.733 243.862 352.283 233.064 353.588L234.083 341.069C237.74 340.363 241.344 339.402 244.868 338.191Z" fill="#FFCCCC"/>
<path d="M234.083 341.069L236.337 313.147L255.17 333.87C251.844 335.552 248.404 336.996 244.874 338.191C241.349 339.402 237.743 340.364 234.083 341.069Z" fill="#C2EE99"/>
<path d="M234.744 318.679C240.368 318.679 244.927 314.116 244.927 308.489C244.927 302.861 240.368 298.299 234.744 298.299C229.12 298.299 224.561 302.861 224.561 308.489C224.561 314.116 229.12 318.679 234.744 318.679Z" fill="#FFCCCC"/>
<path d="M250.944 459.197C255.509 459.197 259.21 455.494 259.21 450.926C259.21 446.358 255.509 442.655 250.944 442.655C246.379 442.655 242.679 446.358 242.679 450.926C242.679 455.494 246.379 459.197 250.944 459.197Z" fill="#F4E6D8"/>
<path d="M769.12 494.166L770.819 497.97L781.003 520.804C812.346 516.927 872.434 506.102 887.398 479.047C907.896 441.993 894.01 345.39 866.238 310.322C843.094 335.789 807.307 328.848 792.958 307.675C790.313 308.333 787.62 308.775 784.904 308.998C780.668 309.39 776.399 309.221 772.208 308.495C767.185 307.657 762.429 305.651 758.322 302.64C753.091 298.703 751.18 294.442 751.18 294.442L750.294 294.316C746.234 294.918 727.342 297.982 711.505 305.028C691.271 314.027 646.041 338.773 646.041 338.773C645.446 336.696 643.654 320.333 641.558 300.727L615.875 310.652L613.091 311.731L599.807 316.879L575.651 326.235C577.384 357.386 583.884 389.655 601.738 404.278C630.833 428.098 706.876 389.722 706.876 389.722L696.958 461.843H787.694C787.694 461.843 778.391 464.325 759.261 472.066L763.665 481.932L769.12 494.166Z" fill="#C2EE99"/>
<path d="M644.058 375.165C635.99 375.165 628.253 378.372 622.549 384.08C616.845 389.788 613.64 397.529 613.64 405.602C613.64 407.183 613.762 408.763 614.004 410.326C631.342 414.958 655.173 409.519 674.363 403.048C673.723 395.445 670.253 388.361 664.641 383.197C659.028 378.033 651.682 375.166 644.058 375.165Z" fill="#F99AAD"/>
<path d="M614.301 320.247C614.3 317.372 613.893 314.512 613.091 311.751L599.807 316.899L575.651 326.255C576.094 334.241 576.855 342.3 578.038 350.114C582.445 350.978 586.987 350.854 591.34 349.753C595.693 348.652 599.748 346.6 603.215 343.745C606.681 340.889 609.473 337.302 611.39 333.239C613.307 329.176 614.301 324.739 614.301 320.247Z" fill="#F99AAD"/>
<path d="M702.248 341.42C707.316 341.417 712.303 340.148 716.756 337.726C721.21 335.305 724.988 331.808 727.747 327.554C730.506 323.3 732.159 318.423 732.556 313.368C732.953 308.312 732.082 303.237 730.02 298.604C723.696 300.276 717.506 302.423 711.505 305.028C702.195 309.17 687.588 316.647 674.528 323.515C676.938 328.852 680.834 333.379 685.751 336.555C690.668 339.731 696.396 341.42 702.248 341.42Z" fill="#F99AAD"/>
<path d="M776.308 410.895C793.107 410.895 806.725 397.268 806.725 380.458C806.725 363.649 793.107 350.022 776.308 350.022C759.508 350.022 745.89 363.649 745.89 380.458C745.89 397.268 759.508 410.895 776.308 410.895Z" fill="#F99AAD"/>
<path d="M716.795 428.76C711.191 428.759 705.698 430.315 700.925 433.253L696.958 461.843H747.087C747.166 460.97 747.213 460.09 747.213 459.197C747.213 451.124 744.008 443.383 738.303 437.675C732.599 431.967 724.862 428.76 716.795 428.76Z" fill="#F99AAD"/>
<path d="M825.954 326.453C825.954 327.029 825.901 327.604 825.901 328.187C825.904 334.938 828.15 341.497 832.285 346.831C836.421 352.166 842.212 355.973 848.746 357.654C855.281 359.334 862.189 358.793 868.383 356.116C874.577 353.438 879.705 348.776 882.961 342.862C878.286 329.742 872.632 318.381 866.238 310.322C854.567 323.165 839.682 327.763 825.954 326.453Z" fill="#F99AAD"/>
<path d="M854.335 455.227C854.337 462.936 857.262 470.357 862.52 475.991C867.778 481.626 874.977 485.054 882.663 485.584C884.488 483.595 886.077 481.401 887.398 479.047C894.142 466.859 897.164 448.22 897.191 427.437C892.558 425.359 887.479 424.475 882.417 424.866C877.355 425.256 872.471 426.907 868.211 429.67C863.95 432.433 860.448 436.219 858.025 440.683C855.601 445.147 854.333 450.147 854.335 455.227Z" fill="#F99AAD"/>
<path d="M790.194 485.663C782.333 485.655 774.777 488.704 769.12 494.166L770.819 497.97L781.002 520.804C794.283 519.191 807.474 516.907 820.525 513.963C819.985 506.281 816.555 499.09 810.927 493.839C805.298 488.588 797.889 485.666 790.194 485.663Z" fill="#F99AAD"/>
<path d="M841.441 442.986C823.666 449.047 799.696 456.418 784.904 461.182" stroke="#F5EBDC" stroke-width="4" stroke-miterlimit="10" stroke-linecap="round"/>
<path d="M822.602 378.672L828.877 446.956" stroke="#F5EBDC" stroke-width="4" stroke-miterlimit="10" stroke-linecap="round"/>
<path d="M692.534 545.624C694.703 538.921 699.325 525.152 703.385 516.345" stroke="#30242A" stroke-width="4" stroke-miterlimit="10" stroke-linecap="round"/>
<path d="M716.299 521.883C707.081 541.733 701.672 564.362 699.669 573.744" stroke="#30242A" stroke-width="4" stroke-miterlimit="10" stroke-linecap="round"/>
<path d="M729.213 528.341C723.262 542.077 718.051 560.829 715.129 572.368" stroke="#30242A" stroke-width="4" stroke-miterlimit="10" stroke-linecap="round"/>
<path d="M709.012 366.199L705.415 390.218" stroke="#F5EBDC" stroke-width="4" stroke-miterlimit="10" stroke-linecap="round"/>
<path d="M862.931 245.478C842.724 227.283 818.449 232.351 818.449 232.351C819.368 221.275 821.213 192.651 797.23 175.117C773.246 157.583 742.795 166.813 731.726 180.655C727.216 186.299 725.001 193.941 723.712 202.258C731.078 203.502 741.876 200.968 741.876 200.968C756.635 217.582 772.294 221.275 772.294 221.275C782.444 210.198 800.893 210.198 803.663 225.906C806.725 243.275 785.208 248.059 785.208 248.059C785.208 248.059 780.645 272.812 788.184 297.763C789.257 301.292 790.857 304.639 792.931 307.688C807.281 328.862 843.074 335.809 866.211 310.335C867.356 308.925 868.418 307.449 869.392 305.915C876.09 295.56 888.925 268.888 862.931 245.478Z" fill="#30242A"/>
<path d="M753.772 278.76C758.048 277.507 762.17 275.776 766.058 273.599" stroke="#30242A" stroke-width="4" stroke-miterlimit="10" stroke-linecap="round"/>
<path d="M819.474 232.159C818.972 237.207 818.297 243.493 817.636 248.456" stroke="black" stroke-width="4" stroke-miterlimit="10" stroke-linecap="round"/>
<path d="M782.51 233.204L790.743 228.626" stroke="#30242A" stroke-width="4" stroke-miterlimit="10" stroke-linecap="round"/>
<path d="M735.72 254.682C737.234 255.628 742.901 256.363 745.202 252.002" stroke="#30242A" stroke-width="4" stroke-miterlimit="10" stroke-linecap="round"/>
<path d="M750.625 234.098C752.14 234.098 753.369 232.868 753.369 231.352C753.369 229.835 752.14 228.606 750.625 228.606C749.109 228.606 747.88 229.835 747.88 231.352C747.88 232.868 749.109 234.098 750.625 234.098Z" fill="#30242A"/>
<path d="M735.383 238.041C734.96 239.867 734.609 241.859 734.9 242.541C735.295 243.362 735.957 244.025 736.778 244.42" stroke="#30242A" stroke-width="4" stroke-miterlimit="10" stroke-linecap="round"/>
<path d="M734.293 230.279C735.942 223.159 732.088 216.183 725.684 214.698C719.28 213.213 712.752 217.78 711.102 224.9C709.453 232.02 713.308 238.996 719.711 240.481C726.115 241.966 732.643 237.399 734.293 230.279Z" stroke="black" stroke-width="4" stroke-miterlimit="10" stroke-linecap="round"/>
<path d="M763.391 234.909C765.04 227.789 761.186 220.813 754.782 219.328C748.378 217.842 741.85 222.41 740.201 229.53C738.551 236.65 742.406 243.626 748.809 245.111C755.213 246.596 761.741 242.028 763.391 234.909Z" stroke="black" stroke-width="4" stroke-miterlimit="10" stroke-linecap="round"/>
<path d="M734.979 229.267L739.608 229.929" stroke="black" stroke-width="4" stroke-miterlimit="10" stroke-linecap="round"/>
<path d="M604.052 220.004C604.052 220.004 616.616 230.591 617.938 233.238C617.938 233.238 597.44 254.411 613.309 280.216" stroke="#30242A" stroke-width="4" stroke-miterlimit="10" stroke-linecap="round"/>
<path d="M671.384 151.461C672.903 148.976 672.122 145.729 669.638 144.209C667.155 142.689 663.91 143.471 662.391 145.956L562.228 309.788C560.708 312.273 561.49 315.519 563.973 317.039C566.457 318.56 569.701 317.778 571.221 315.293L671.384 151.461Z" fill="#30242A"/>
<path d="M612.318 216.365C607.689 212.395 598.795 209.821 594.464 212.395C587.15 216.742 588.949 225.185 588.949 225.185C588.949 225.185 577.047 223.332 577.192 235.533C577.192 235.533 567.611 239.728 571.803 249.316C571.803 249.316 563.511 251.413 567.452 261.63C570.659 269.96 578.058 274.32 582.561 276.577C586.529 278.562 592.612 275.697 590.496 267.975C590.496 267.975 595.125 269.298 597.77 266.652C601.42 262.999 599.754 256.065 599.754 256.065C599.754 256.065 604.383 257.388 607.689 254.742C611.722 251.513 609.673 245.478 609.673 245.478C611.151 245.279 612.547 244.681 613.712 243.748C614.877 242.816 615.766 241.584 616.285 240.185C618.93 233.568 609.011 225.628 609.011 225.628L612.318 216.365Z" fill="#A15842"/>
<path d="M571.32 249.693C577.141 256.764 583.557 263.323 590.496 269.298" stroke="#30242A" stroke-width="4" stroke-miterlimit="10" stroke-linecap="round"/>
<path d="M577.271 235.474C584.09 243.816 591.872 251.321 600.455 257.832" stroke="#30242A" stroke-width="4" stroke-miterlimit="10" stroke-linecap="round"/>
<path d="M587.851 225.741C594.1 233.956 601.621 241.12 610.129 246.96" stroke="#30242A" stroke-width="4" stroke-miterlimit="10" stroke-linecap="round"/>
<path d="M604.052 220.004C604.052 220.004 610.248 225.225 614.394 229.267" stroke="#30242A" stroke-width="4" stroke-miterlimit="10" stroke-linecap="round"/>
<path d="M759.413 160.6L755.921 164.444L753.6 166.998C752.126 172.159 762.858 180.384 777.782 185.478C792.707 190.573 806.216 190.62 808.2 185.631L807.922 182.19L807.505 177.009C801.898 178.332 792.184 177.267 781.776 173.701C771.368 170.134 763.03 165.099 759.413 160.6Z" fill="#C2EE99"/>
<path d="M785.81 161.936C778.007 159.29 771.355 155.756 766.991 152.263L759.413 160.6C763.03 165.099 771.388 170.167 781.789 173.721C792.191 177.274 801.911 178.352 807.518 177.029L806.613 165.781C801.025 165.88 793.612 164.596 785.81 161.936Z" fill="#FF0990"/>
<path d="M775.097 143.343L766.99 152.263C771.355 155.756 778.007 159.276 785.81 161.936C793.612 164.596 801.018 165.906 806.613 165.787L805.641 153.765C794.845 152.46 784.441 148.91 775.097 143.343Z" fill="#C2EE99"/>
<path d="M793.844 138.368C790.312 137.173 786.869 135.729 783.542 134.047L775.098 143.31C784.441 148.877 794.845 152.427 805.641 153.732L804.629 141.213C800.972 140.517 797.368 139.566 793.844 138.368Z" fill="#FF0990"/>
<path d="M804.629 141.246L802.374 113.324L783.542 134.047C786.869 135.729 790.312 137.173 793.844 138.368C797.367 139.578 800.971 140.539 804.629 141.246Z" fill="#C2EE99"/>
<path d="M803.961 118.855C809.585 118.855 814.144 114.293 814.144 108.666C814.144 103.038 809.585 98.4759 803.961 98.4759C798.337 98.4759 793.778 103.038 793.778 108.666C793.778 114.293 798.337 118.855 803.961 118.855Z" fill="#FF0990"/>
<path d="M702.945 114.943C702.945 105.817 695.552 98.4196 686.434 98.4196C680.898 98.4196 676.013 101.154 673.016 105.333C670.019 101.154 665.135 98.4196 659.601 98.4196C650.481 98.4196 643.088 105.816 643.088 114.943C643.088 116.236 643.252 117.488 643.533 118.695C645.826 132.95 661.664 147.988 673.016 152.117C684.367 147.988 700.207 132.95 702.496 118.697C702.781 117.49 702.945 116.237 702.945 114.943Z" fill="#FFCCCC"/>
<path d="M697.484 143.901C697.364 142.096 696.961 140.63 695.655 139.121C693.037 136.103 687.019 135.6 684.325 138.506C683.856 138.934 683.412 139.449 682.966 140.064L681.959 141.455L680.951 140.063C680.505 139.448 680.061 138.933 679.591 138.505C676.897 135.6 670.88 136.102 668.263 139.121C666.955 140.63 666.552 142.095 666.432 143.9C666.262 149.265 670.314 153.561 670.811 154.19C673.56 157.29 676.558 160.221 679.604 162.921C680.099 163.338 680.6 163.748 681.106 164.153C681.393 164.378 681.674 164.605 681.959 164.828C682.243 164.605 682.525 164.378 682.81 164.153C683.316 163.749 683.817 163.338 684.312 162.921C687.358 160.221 690.357 157.29 693.106 154.19C693.605 153.561 697.657 149.266 697.484 143.901Z" fill="#181818"/>
<path d="M676.674 124.04C671.911 118.488 663.352 118.171 658.266 123.247C657.539 123.961 656.409 123.961 655.763 123.247C650.918 118.408 642.925 118.408 638.081 123.247C633.882 127.292 633.236 133.875 636.466 138.713C637.435 140.22 638.727 141.41 640.099 142.282L656.166 155.052C656.732 155.528 657.539 155.528 658.104 155.052L674.09 142.282C675.463 141.41 676.674 140.3 677.643 138.793C680.55 134.272 680.227 128.164 676.674 124.04Z" fill="#FF0990"/>
</svg>
