<svg width="350" height="199" viewBox="0 0 350 199" fill="none" xmlns="http://www.w3.org/2000/svg">
<path d="M67.1681 98.0295C69.8751 98.0295 72.0696 95.8351 72.0696 93.128C72.0696 90.421 69.8751 88.2266 67.1681 88.2266C64.4611 88.2266 62.2666 90.421 62.2666 93.128C62.2666 95.8351 64.4611 98.0295 67.1681 98.0295Z" fill="#D4FFD4"/>
<path d="M144.612 199C146.777 199 148.533 197.245 148.533 195.079C148.533 192.913 146.777 191.158 144.612 191.158C142.446 191.158 140.69 192.913 140.69 195.079C140.69 197.245 142.446 199 144.612 199Z" fill="#D4FFD4"/>
<path d="M269.109 159.788C270.733 159.788 272.05 158.471 272.05 156.847C272.05 155.223 270.733 153.906 269.109 153.906C267.485 153.906 266.168 155.223 266.168 156.847C266.168 158.471 267.485 159.788 269.109 159.788Z" fill="#FF0990" fill-opacity="0.37"/>
<path d="M230.878 8.82255C231.96 8.82255 232.838 7.94476 232.838 6.86196C232.838 5.77915 231.96 4.90137 230.878 4.90137C229.795 4.90137 228.917 5.77915 228.917 6.86196C228.917 7.94476 229.795 8.82255 230.878 8.82255Z" fill="#D4FFD4"/>
<path d="M295.577 22.547C296.118 22.547 296.557 22.1081 296.557 21.5667C296.557 21.0253 296.118 20.5864 295.577 20.5864C295.036 20.5864 294.597 21.0253 294.597 21.5667C294.597 22.1081 295.036 22.547 295.577 22.547Z" fill="#D4FFD4"/>
<path d="M344.592 31.3694C347.299 31.3694 349.493 29.1749 349.493 26.4679C349.493 23.7609 347.299 21.5664 344.592 21.5664C341.885 21.5664 339.69 23.7609 339.69 26.4679C339.69 29.1749 341.885 31.3694 344.592 31.3694Z" fill="#FF0990" fill-opacity="0.25"/>
<path d="M22.0745 32.3497C24.2401 32.3497 25.9957 30.5941 25.9957 28.4285C25.9957 26.2629 24.2401 24.5073 22.0745 24.5073C19.9089 24.5073 18.1533 26.2629 18.1533 28.4285C18.1533 30.5941 19.9089 32.3497 22.0745 32.3497Z" fill="#FF0990" fill-opacity="0.37"/>
<path d="M75.9907 121.557C77.6149 121.557 78.9316 120.24 78.9316 118.616C78.9316 116.991 77.6149 115.675 75.9907 115.675C74.3665 115.675 73.0498 116.991 73.0498 118.616C73.0498 120.24 74.3665 121.557 75.9907 121.557Z" fill="#FFBDBD"/>
<path d="M122.064 31.3694C123.147 31.3694 124.025 30.4916 124.025 29.4088C124.025 28.326 123.147 27.4482 122.064 27.4482C120.981 27.4482 120.104 28.326 120.104 29.4088C120.104 30.4916 120.981 31.3694 122.064 31.3694Z" fill="#FFBDBD"/>
<path d="M98.5369 3.92104C99.0783 3.92104 99.5172 3.48215 99.5172 2.94074C99.5172 2.39934 99.0783 1.96045 98.5369 1.96045C97.9955 1.96045 97.5566 2.39934 97.5566 2.94074C97.5566 3.48215 97.9955 3.92104 98.5369 3.92104Z" fill="#FFBDBD"/>
<path d="M111.281 169.591C113.988 169.591 116.183 167.397 116.183 164.69C116.183 161.983 113.988 159.788 111.281 159.788C108.574 159.788 106.38 161.983 106.38 164.69C106.38 167.397 108.574 169.591 111.281 169.591Z" fill="#BBF1FF"/>
<path d="M43.6409 166.65C45.8065 166.65 47.5621 164.895 47.5621 162.729C47.5621 160.564 45.8065 158.808 43.6409 158.808C41.4753 158.808 39.7197 160.564 39.7197 162.729C39.7197 164.895 41.4753 166.65 43.6409 166.65Z" fill="#FF0990" fill-opacity="0.37"/>
<path d="M189.705 44.1132C191.329 44.1132 192.645 42.7965 192.645 41.1723C192.645 39.5481 191.329 38.2314 189.705 38.2314C188.08 38.2314 186.764 39.5481 186.764 41.1723C186.764 42.7965 188.08 44.1132 189.705 44.1132Z" fill="#BBF1FF"/>
<path d="M320.085 182.335C321.167 182.335 322.045 181.457 322.045 180.374C322.045 179.291 321.167 178.414 320.085 178.414C319.002 178.414 318.124 179.291 318.124 180.374C318.124 181.457 319.002 182.335 320.085 182.335Z" fill="#BBF1FF"/>
<path d="M265.187 199C265.729 199 266.168 198.561 266.168 198.02C266.168 197.478 265.729 197.04 265.187 197.04C264.646 197.04 264.207 197.478 264.207 198.02C264.207 198.561 264.646 199 265.187 199Z" fill="#FF0990" fill-opacity="0.37"/>
<path d="M5.40929 120.576C8.1163 120.576 10.3108 118.382 10.3108 115.675C10.3108 112.968 8.1163 110.773 5.40929 110.773C2.70228 110.773 0.507812 112.968 0.507812 115.675C0.507812 118.382 2.70228 120.576 5.40929 120.576Z" fill="#FFF4C5"/>
<path d="M344.591 117.635C346.757 117.635 348.512 115.88 348.512 113.714C348.512 111.549 346.757 109.793 344.591 109.793C342.425 109.793 340.67 111.549 340.67 113.714C340.67 115.88 342.425 117.635 344.591 117.635Z" fill="#FFF4C5"/>
<path d="M220.094 178.414C221.718 178.414 223.035 177.097 223.035 175.473C223.035 173.849 221.718 172.532 220.094 172.532C218.47 172.532 217.153 173.849 217.153 175.473C217.153 177.097 218.47 178.414 220.094 178.414Z" fill="#FFF4C5"/>
<path d="M161.276 10.7835C162.359 10.7835 163.237 9.9057 163.237 8.8229C163.237 7.74009 162.359 6.8623 161.276 6.8623C160.193 6.8623 159.315 7.74009 159.315 8.8229C159.315 9.9057 160.193 10.7835 161.276 10.7835Z" fill="#FFF4C5"/>
<path d="M8.35024 64.6995C9.43304 64.6995 10.3108 63.8217 10.3108 62.7389C10.3108 61.6561 9.43304 60.7783 8.35024 60.7783C7.26743 60.7783 6.38965 61.6561 6.38965 62.7389C6.38965 63.8217 7.26743 64.6995 8.35024 64.6995Z" fill="#FFF4C5"/>
<path d="M204.409 1.96059C204.95 1.96059 205.389 1.5217 205.389 0.980296C205.389 0.438893 204.95 0 204.409 0C203.868 0 203.429 0.438893 203.429 0.980296C203.429 1.5217 203.868 1.96059 204.409 1.96059Z" fill="#FFF4C5"/>
<path d="M312.97 31.3696H255.257C244.211 31.3696 235.257 40.3239 235.257 51.3696V117.379C235.257 128.425 244.211 137.379 255.257 137.379H312.97C324.015 137.379 332.97 128.425 332.97 117.379V51.3696C332.97 40.3239 324.015 31.3696 312.97 31.3696Z" fill="#E6E6E6" fill-opacity="0.2"/>
<path d="M302.72 137.379H269.157L267.308 119.144L267.198 118.035L266.971 115.836L266.043 106.644L264.882 116.517L262.43 137.379H256.332L256.559 130.886L256.786 124.302L256.883 121.648L258.135 85.5551C258.039 79.8354 259.849 74.2464 263.28 69.6686C265.184 67.1891 267.642 65.1888 270.456 63.8272C273.271 62.4656 276.364 61.7802 279.49 61.8259C282.68 61.8155 285.829 62.5439 288.689 63.9541C291.55 65.3643 294.046 67.4179 295.98 69.954C299.526 74.5777 301.423 80.2542 301.371 86.0805L301.948 107.929L302.72 137.379Z" fill="#2F2E41"/>
<path d="M279.492 98.4713C287.645 98.4713 294.255 91.8617 294.255 83.7083C294.255 75.5549 287.645 68.9453 279.492 68.9453C271.338 68.9453 264.729 75.5549 264.729 83.7083C264.729 91.8617 271.338 98.4713 279.492 98.4713Z" fill="#FBBEBE"/>
<path d="M272.11 94.2527C272.11 94.2527 276.328 108.488 272.11 112.706C267.892 116.924 266.838 118.506 266.838 118.506L278.965 134.851L300.055 109.016C300.055 109.016 285.292 104.798 288.982 93.1982L272.11 94.2527Z" fill="#FBBEBE"/>
<path d="M317.653 137.379H305.198L304.991 135.245L304.803 133.273L310.537 132.553L317.452 131.69L317.53 133.902L317.653 137.379Z" fill="#FBBEBE"/>
<path d="M318.509 133.796C318.509 133.796 316.4 120.615 314.818 115.342C313.236 110.07 311.654 110.07 311.654 110.07L311.654 110.068C309.793 108.207 305.316 107.876 301.95 107.928C299.589 107.954 297.772 108.161 297.772 108.161L278.967 127.998L269.496 115.407V115.401C268.643 115.467 267.798 115.613 266.972 115.835C266.262 116.016 265.564 116.244 264.883 116.517C261.95 117.77 259.247 119.504 256.885 121.648H256.879C255.516 122.874 254.712 123.775 254.712 123.775C252.626 128.112 251.054 132.677 250.028 137.379H310.292L310.428 134.667V134.662L318.509 133.796Z" fill="#FD5FB6"/>
<path d="M267.101 81.3351C276.636 76.1945 280.552 76.4122 292.409 81.3351L295.572 73.6276C295.571 72.1764 294.993 70.785 293.967 69.7589C292.941 68.7327 291.55 68.1554 290.099 68.1538H268.884C267.433 68.1554 266.041 68.7327 265.015 69.7589C263.989 70.785 263.412 72.1764 263.41 73.6276L267.101 81.3351Z" fill="#2F2E41"/>
<path d="M211.559 53.751H153.847C142.801 53.751 133.847 62.7053 133.847 73.751V139.761C133.847 150.806 142.801 159.761 153.847 159.761H211.559C222.605 159.761 231.559 150.806 231.559 139.761V73.751C231.559 62.7053 222.605 53.751 211.559 53.751Z" fill="#E6E6E6" fill-opacity="0.2"/>
<path d="M171.43 126.083C183.811 126.083 193.849 115.428 193.849 102.284C193.849 89.1408 183.811 78.4858 171.43 78.4858C159.048 78.4858 149.011 89.1408 149.011 102.284C149.011 115.428 159.048 126.083 171.43 126.083Z" fill="#2F2E41"/>
<path d="M191.321 138.298C197.835 138.298 203.115 133.018 203.115 126.504C203.115 119.991 197.835 114.71 191.321 114.71C184.808 114.71 179.527 119.991 179.527 126.504C179.527 133.018 184.808 138.298 191.321 138.298Z" fill="#2F2E41"/>
<path d="M183.107 110.709L189.425 127.136L173.42 133.876L172.014 130.691L167.101 119.555L183.107 110.709Z" fill="#9F616A"/>
<path d="M170.47 121.45C178.263 121.45 184.581 115.132 184.581 107.339C184.581 99.5461 178.263 93.2285 170.47 93.2285C162.677 93.2285 156.359 99.5461 156.359 107.339C156.359 115.132 162.677 121.45 170.47 121.45Z" fill="#9F616A"/>
<path d="M158.936 105.791C167.805 99.8727 170.457 98.458 180.622 100.744L181.232 85.9131L154.962 91.424L158.936 105.791Z" fill="#2F2E41"/>
<path d="M215.959 139.347L215.569 139.392C215.56 139.378 215.549 139.365 215.537 139.353C213.993 137.809 206.624 135 201.13 133.054H201.123C197.633 131.815 194.902 130.926 194.902 130.926L188.259 124.096C186.586 125.977 183.05 127.43 179.69 128.455C177.118 129.234 174.501 129.857 171.854 130.323H171.848L170.472 134.715C170.472 134.715 154.884 146.515 153.626 147.773H153.619V147.786C153.519 147.929 153.477 148.106 153.502 148.279V148.311C152.716 152.078 152.312 155.914 152.296 159.761H220.175V155.778C220.175 150.303 215.959 139.347 215.959 139.347Z" fill="#575A89"/>
<path d="M110.57 33.7319H52.8574C41.8117 33.7319 32.8574 42.6862 32.8574 53.7319V119.741C32.8574 130.787 41.8117 139.741 52.8574 139.741H110.57C121.616 139.741 130.57 130.787 130.57 119.741V53.7319C130.57 42.6862 121.616 33.7319 110.57 33.7319Z" fill="#E6E6E6" fill-opacity="0.2"/>
<path d="M80.2275 63.8486C67.9829 63.8486 58.0566 74.8646 58.0566 88.4534V105.718H63.3664L66.4406 99.3215L65.672 105.718H99.8017L102.596 99.903L101.898 105.718H105.74V92.1623C105.74 76.5251 94.3179 63.8486 80.2275 63.8486Z" fill="#2F2E41"/>
<path d="M62.3337 139.741H47.9132L47.777 127.981C47.7705 127.857 47.7705 127.741 47.7705 127.617L50.6572 124.367L50.7091 124.309L61.7304 131.289L62.3337 139.741Z" fill="#D0CDE1"/>
<path d="M78.2649 103.306C86.9818 103.306 94.0483 96.2392 94.0483 87.5222C94.0483 78.8053 86.9818 71.7388 78.2649 71.7388C69.5479 71.7388 62.4814 78.8053 62.4814 87.5222C62.4814 96.2392 69.5479 103.306 78.2649 103.306Z" fill="#FBBEBE"/>
<path d="M69.2168 96.9921C69.2168 96.9921 73.8466 120.983 71.7422 123.508C69.6377 126.034 94.0495 118.878 94.0495 118.878C94.0495 118.878 86.0525 102.464 90.2614 93.2041L69.2168 96.9921Z" fill="#FBBEBE"/>
<path d="M112.037 113.216H112.031C111.659 112.43 111.016 111.804 110.221 111.452C107.126 110.148 104.46 109.149 102.268 108.39C98.3896 107.059 94.1588 107.19 90.3707 108.76C90.001 108.909 89.6377 109.071 89.2809 109.253C89.2809 109.253 73.8485 112.191 72.0127 111.822C71.8765 111.796 71.7337 111.776 71.5975 111.763C71.3202 111.723 71.0408 111.699 70.7607 111.692C67.1697 111.525 63.6079 112.409 60.5113 114.235C55.445 117.173 47.9332 122.382 47.7775 127.455L47.6348 127.617L47.7775 139.741H115.514C115.65 128.123 115.728 119.392 115.728 118.801C115.728 116.966 112.037 113.216 112.037 113.216Z" fill="#FF4BAE"/>
<path d="M86.5303 70.6262C85.4635 69.1935 84.0808 68.0259 82.4897 67.214C80.8987 66.402 79.1419 65.9676 77.3558 65.9443H76.9205C68.528 65.9443 61.7246 73.5386 61.7246 82.9066V82.9066H64.5367L64.9908 79.4498L65.6567 82.9066H82.3352L83.7325 79.9821L83.3831 82.9066H86.6643C88.1954 90.5104 85.9955 98.1142 80.0645 105.718H85.6539L88.4485 99.8689L87.7499 105.718H98.4045L100.5 92.2651C100.5 82.1901 94.6466 73.6468 86.5303 70.6262Z" fill="#2F2E41"/>
<path d="M89.5931 72.0431C94.1793 72.0431 97.8971 68.3253 97.8971 63.7391C97.8971 59.1529 94.1793 55.4351 89.5931 55.4351C85.0069 55.4351 81.2891 59.1529 81.2891 63.7391C81.2891 68.3253 85.0069 72.0431 89.5931 72.0431Z" fill="#2F2E41"/>
</svg>
