<svg width="22" height="22" viewBox="0 0 22 22" fill="none" xmlns="http://www.w3.org/2000/svg">
<path d="M21.2143 0H12.5714C12.363 0 12.1632 0.0827803 12.0158 0.23013C11.8685 0.37748 11.7857 0.57733 11.7857 0.785714V7.85714H10.2143V0.785714C10.2143 0.57733 10.1315 0.37748 9.98415 0.23013C9.83681 0.0827803 9.63696 0 9.42857 0H0.785714C0.57733 0 0.37748 0.0827803 0.23013 0.23013C0.0827803 0.37748 0 0.57733 0 0.785714V21.2143C0 21.4227 0.0827803 21.6225 0.23013 21.7699C0.37748 21.9172 0.57733 22 0.785714 22H9.42857C9.63696 22 9.83681 21.9172 9.98415 21.7699C10.1315 21.6225 10.2143 21.4227 10.2143 21.2143V14.1429H11.7857V21.2143C11.7857 21.4227 11.8685 21.6225 12.0158 21.7699C12.1632 21.9172 12.363 22 12.5714 22H21.2143C21.4227 22 21.6225 21.9172 21.7699 21.7699C21.9172 21.6225 22 21.4227 22 21.2143V0.785714C22 0.57733 21.9172 0.37748 21.7699 0.23013C21.6225 0.0827803 21.4227 0 21.2143 0ZM8.64286 20.4286H1.57143V1.57143H8.64286V7.85714H6.28571C6.07733 7.85714 5.87748 7.93992 5.73013 8.08727C5.58278 8.23462 5.5 8.43447 5.5 8.64286C5.5 8.85124 5.58278 9.05109 5.73013 9.19844C5.87748 9.34579 6.07733 9.42857 6.28571 9.42857H8.64286V12.5714H6.28571V11.7857C6.28534 11.6436 6.2464 11.5042 6.17307 11.3824C6.09974 11.2607 5.99475 11.1611 5.86929 11.0943C5.74642 11.0312 5.6091 11.0016 5.47116 11.0085C5.33322 11.0154 5.19953 11.0585 5.08357 11.1336L2.72643 12.705C2.61947 12.7769 2.53184 12.874 2.47124 12.9877C2.41065 13.1014 2.37896 13.2283 2.37896 13.3571C2.37896 13.486 2.41065 13.6129 2.47124 13.7266C2.53184 13.8403 2.61947 13.9374 2.72643 14.0093L5.08357 15.5807C5.20149 15.6544 5.33687 15.6956 5.47588 15.6998C5.61488 15.7041 5.75254 15.6715 5.87478 15.6051C5.99703 15.5388 6.09948 15.4413 6.17168 15.3224C6.24387 15.2035 6.28323 15.0676 6.28571 14.9286V14.1429H8.64286V20.4286ZM4.71429 13.4593L4.55714 13.3571L4.71429 13.255V13.4593ZM10.2143 12.5714V9.42857H11.7857V12.5714H10.2143ZM20.4286 20.4286H13.3571V14.1429H15.7143C15.9227 14.1429 16.1225 14.0601 16.2699 13.9127C16.4172 13.7654 16.5 13.5655 16.5 13.3571C16.5 13.1488 16.4172 12.9489 16.2699 12.8016C16.1225 12.6542 15.9227 12.5714 15.7143 12.5714H13.3571V9.42857H15.7143V10.2143C15.7147 10.3564 15.7536 10.4958 15.8269 10.6176C15.9003 10.7393 16.0053 10.8389 16.1307 10.9057C16.2536 10.9688 16.3909 10.9984 16.5288 10.9915C16.6668 10.9846 16.8005 10.9415 16.9164 10.8664L19.2736 9.295C19.3805 9.22313 19.4682 9.12605 19.5288 9.01233C19.5893 8.8986 19.621 8.77172 19.621 8.64286C19.621 8.514 19.5893 8.38711 19.5288 8.27339C19.4682 8.15966 19.3805 8.06259 19.2736 7.99071L16.9164 6.41929C16.8005 6.34426 16.6668 6.30112 16.5288 6.29422C16.3909 6.28733 16.2536 6.31691 16.1307 6.38C16.0053 6.44681 15.9003 6.54639 15.8269 6.66815C15.7536 6.78992 15.7147 6.92929 15.7143 7.07143V7.85714H13.3571V1.57143H20.4286V20.4286ZM17.2857 8.54071L17.4429 8.64286L17.2857 8.745V8.54071Z" fill="#FF0990"/>
</svg>
