<svg width="169" height="29" viewBox="0 0 169 29" fill="none" xmlns="http://www.w3.org/2000/svg">
<path d="M8.15 22.3C5.65 22.3 3.67 21.62 2.21 20.26C0.77 18.9 0.05 16.98 0.05 14.5C0.05 12.86 0.38 11.46 1.04 10.3C1.72 9.12 2.64 8.23 3.8 7.63C4.98 7.01 6.35 6.7 7.91 6.7C9.49 6.7 10.83 7.01 11.93 7.63C13.05 8.23 13.9 9.07 14.48 10.15C15.06 11.21 15.35 12.43 15.35 13.81C15.35 14.19 15.33 14.56 15.29 14.92C15.27 15.26 15.25 15.55 15.23 15.79H5C5.14 16.83 5.48 17.58 6.02 18.04C6.56 18.48 7.27 18.7 8.15 18.7C8.91 18.7 9.51 18.55 9.95 18.25C10.41 17.95 10.75 17.53 10.97 16.99L15.05 18.34C14.77 19.2 14.28 19.93 13.58 20.53C12.9 21.11 12.08 21.55 11.12 21.85C10.18 22.15 9.19 22.3 8.15 22.3ZM7.91 10.27C6.29 10.27 5.33 11.2 5.03 13.06H10.52C10.3 11.2 9.43 10.27 7.91 10.27ZM18.203 22V7H22.763L22.913 9.91C23.393 8.85 24.063 8.05 24.923 7.51C25.803 6.97 26.813 6.7 27.953 6.7C29.053 6.7 30.013 6.95 30.833 7.45C31.673 7.95 32.293 8.69 32.693 9.67C33.153 8.69 33.833 7.95 34.733 7.45C35.653 6.95 36.653 6.7 37.733 6.7C39.213 6.7 40.433 7.15 41.393 8.05C42.373 8.93 42.863 10.25 42.863 12.01V22H37.763V13.18C37.763 12.22 37.573 11.55 37.193 11.17C36.813 10.79 36.323 10.6 35.723 10.6C34.963 10.6 34.333 10.89 33.833 11.47C33.333 12.03 33.083 12.87 33.083 13.99V22H27.983V13.18C27.983 12.22 27.793 11.55 27.413 11.17C27.033 10.79 26.543 10.6 25.943 10.6C25.243 10.6 24.623 10.87 24.083 11.41C23.563 11.95 23.303 12.84 23.303 14.08V22H18.203ZM46.4452 28.3V7H51.0352L51.1852 10.03C51.6052 9.03 52.2352 8.23 53.0752 7.63C53.9352 7.01 54.9452 6.7 56.1052 6.7C57.9452 6.7 59.4252 7.38 60.5452 8.74C61.6852 10.1 62.2552 12 62.2552 14.44C62.2552 16.92 61.6752 18.85 60.5152 20.23C59.3752 21.61 57.8852 22.3 56.0452 22.3C54.9652 22.3 54.0452 22.04 53.2852 21.52C52.5252 20.98 51.9452 20.28 51.5452 19.42V28.3H46.4452ZM54.3052 18.55C55.1852 18.55 55.8752 18.23 56.3752 17.59C56.8752 16.93 57.1252 15.9 57.1252 14.5C57.1252 13.1 56.8752 12.08 56.3752 11.44C55.8952 10.78 55.2152 10.45 54.3352 10.45C53.4752 10.45 52.7952 10.8 52.2952 11.5C51.7952 12.18 51.5452 13.18 51.5452 14.5C51.5452 15.76 51.7852 16.75 52.2652 17.47C52.7452 18.19 53.4252 18.55 54.3052 18.55ZM70.2938 0.64V16.9C70.2938 17.56 70.4038 18.03 70.6238 18.31C70.8438 18.59 71.2138 18.73 71.7338 18.73C72.0338 18.73 72.2838 18.71 72.4838 18.67C72.6838 18.63 72.9238 18.57 73.2038 18.49L72.8738 21.55C72.5138 21.77 72.0438 21.95 71.4638 22.09C70.8838 22.23 70.3138 22.3 69.7538 22.3C68.1538 22.3 66.9938 21.93 66.2738 21.19C65.5538 20.45 65.1938 19.24 65.1938 17.56V0.64H70.2938ZM82.2083 6.7C83.7883 6.7 85.1683 7.01 86.3483 7.63C87.5483 8.25 88.4783 9.14 89.1383 10.3C89.8183 11.46 90.1583 12.86 90.1583 14.5C90.1583 16.14 89.8183 17.54 89.1383 18.7C88.4783 19.86 87.5483 20.75 86.3483 21.37C85.1683 21.99 83.7883 22.3 82.2083 22.3C80.6483 22.3 79.2683 21.99 78.0683 21.37C76.8883 20.75 75.9583 19.86 75.2783 18.7C74.6183 17.54 74.2883 16.14 74.2883 14.5C74.2883 12.86 74.6183 11.46 75.2783 10.3C75.9583 9.14 76.8883 8.25 78.0683 7.63C79.2683 7.01 80.6483 6.7 82.2083 6.7ZM82.2083 10.33C81.3283 10.33 80.6383 10.66 80.1383 11.32C79.6583 11.96 79.4183 13.02 79.4183 14.5C79.4183 15.96 79.6583 17.02 80.1383 17.68C80.6383 18.34 81.3283 18.67 82.2083 18.67C83.1083 18.67 83.7983 18.34 84.2783 17.68C84.7783 17.02 85.0283 15.96 85.0283 14.5C85.0283 13.02 84.7783 11.96 84.2783 11.32C83.7983 10.66 83.1083 10.33 82.2083 10.33ZM107.268 7L101.808 22C101.248 23.58 100.638 24.84 99.9777 25.78C99.3177 26.74 98.5377 27.42 97.6377 27.82C96.7377 28.24 95.6577 28.45 94.3977 28.45C93.5377 28.45 92.7577 28.36 92.0577 28.18C91.3777 28 90.7777 27.75 90.2577 27.43L91.2777 23.98C91.6377 24.24 92.0177 24.42 92.4177 24.52C92.8177 24.64 93.3277 24.7 93.9477 24.7C94.5277 24.7 94.9977 24.6 95.3577 24.4C95.7377 24.22 96.0377 23.84 96.2577 23.26L96.6477 22.33L94.9077 18.25L90.4077 7H96.0177L98.3277 15.55L99.0477 18.73L99.8877 15.43L102.198 7H107.268Z" fill="#333333"/>
<path d="M114.602 2.2V10.03H122.162V2.2H127.322V22H122.162V14.02H114.602V22H109.442V2.2H114.602ZM131.708 22V2.2H147.128V6.19H136.868V10.21H145.028V13.96H136.868V18.01H147.518V22H131.708ZM160.083 2.2C162.443 2.2 164.273 2.75 165.573 3.85C166.893 4.95 167.553 6.43 167.553 8.29C167.553 9.77 167.203 10.99 166.503 11.95C165.823 12.89 164.843 13.58 163.563 14.02L168.723 22H163.023L158.793 14.77H155.703V22H150.633V2.2H160.083ZM159.363 11.11C160.363 11.11 161.113 10.91 161.613 10.51C162.113 10.11 162.363 9.47 162.363 8.59C162.363 6.93 161.363 6.1 159.363 6.1H155.703V11.11H159.363Z" fill="#FF0990"/>
</svg>
