<svg width="262" height="24" viewBox="0 0 262 24" fill="none" xmlns="http://www.w3.org/2000/svg">
                                <a href="https://twitter.com/" target="_blank"><path d="M145.109 4.45776C144.164 4.85622 143.136 5.14299 142.076 5.25468C143.176 4.61605 144 3.60711 144.392 2.41717C143.361 3.01724 142.23 3.43802 141.051 3.66085C140.558 3.14595 139.962 2.73576 139.3 2.45583C138.638 2.17591 137.925 2.03225 137.203 2.0338C134.285 2.0338 131.938 4.34607 131.938 7.18359C131.938 7.58204 131.987 7.9805 132.068 8.36387C127.698 8.14049 123.801 6.0999 121.21 2.97562C120.738 3.76383 120.49 4.6613 120.493 5.57466C120.493 7.36168 121.423 8.93741 122.84 9.86413C122.005 9.83197 121.189 9.60754 120.459 9.20908V9.27248C120.459 11.7749 122.269 13.8487 124.681 14.3257C124.228 14.4406 123.762 14.4995 123.294 14.5007C122.952 14.5007 122.627 14.4675 122.3 14.4223C122.967 16.4628 124.909 17.945 127.222 17.9933C125.413 19.3788 123.146 20.1939 120.685 20.1939C120.243 20.1939 119.836 20.1788 119.413 20.1305C121.747 21.5945 124.517 22.4397 127.5 22.4397C137.185 22.4397 142.484 14.5973 142.484 7.79033C142.484 7.56695 142.484 7.34357 142.469 7.12019C143.494 6.38667 144.392 5.47806 145.109 4.45776Z" fill="#FFCCCC" /></a>
                                <a href="https://in.pinterest.com/" target="_blank"><path d="M250.539 0.626953C244.486 0.626953 239.581 5.53346 239.581 11.5851C239.581 16.2273 242.469 20.1959 246.546 21.7931C246.45 20.9265 246.364 19.5926 246.584 18.6471C246.783 17.7915 247.869 13.1998 247.869 13.1998C247.869 13.1998 247.541 12.5428 247.541 11.572C247.541 10.0495 248.424 8.91196 249.524 8.91196C250.46 8.91196 250.911 9.61399 250.911 10.4553C250.911 11.3965 250.312 12.8016 250.004 14.1048C249.746 15.1951 250.551 16.0847 251.626 16.0847C253.573 16.0847 255.072 14.0313 255.072 11.0663C255.072 8.44248 253.186 6.60844 250.494 6.60844C247.376 6.60844 245.545 8.94707 245.545 11.3636C245.545 12.3047 245.908 13.315 246.361 13.8645C246.399 13.9059 246.427 13.9565 246.44 14.0115C246.453 14.0664 246.452 14.1239 246.437 14.1783C246.353 14.5238 246.168 15.2686 246.133 15.4211C246.084 15.6218 245.974 15.6646 245.765 15.5681C244.397 14.9307 243.542 12.93 243.542 11.3219C243.542 7.8655 246.053 4.69103 250.783 4.69103C254.584 4.69103 257.538 7.39932 257.538 11.0202C257.538 14.798 255.157 17.8354 251.852 17.8354C250.741 17.8354 249.698 17.2595 249.34 16.5783L248.657 19.1824C248.41 20.1345 247.742 21.328 247.295 22.0563C248.346 22.3808 249.44 22.5453 250.54 22.5444C256.592 22.5444 261.498 17.6379 261.498 11.5862C261.498 5.53456 256.591 0.626953 250.539 0.626953Z" fill="#FFCCCC" /></a>
                                <a href="https://www.linkedin.com/company/employherinc/" target="_blank">
                                  <path d="M186.865 5.54104C188.222 5.54104 189.322 4.44099 189.322 3.084C189.322 1.72701 188.222 0.626953 186.865 0.626953C185.508 0.626953 184.408 1.72701 184.408 3.084C184.408 4.44099 185.508 5.54104 186.865 5.54104Z" fill="#FFCCCC" />
                                  <path d="M191.642 7.40297V21.0346H195.874V14.2935C195.874 12.5147 196.209 10.7921 198.414 10.7921C200.59 10.7921 200.617 12.8258 200.617 14.4058V21.0358H204.851V13.5602C204.851 9.88809 204.061 7.06608 199.769 7.06608C197.708 7.06608 196.327 8.19691 195.762 9.26709H195.705V7.40297H191.642ZM184.745 7.40297H188.984V21.0346H184.745V7.40297Z" fill="#FFCCCC" />
                                </a>
                                <a href="https://www.facebook.com/employher/" target="_blank"><path d="M72.271 6.14332H75.5776V2.03379H72.271C69.7184 2.03379 67.6419 4.18445 67.6419 6.82824V8.88301H64.9967V12.9925H67.6419V23.9513H71.6097V12.9925H74.9163L75.5776 8.88301H71.6097V6.82824C71.6097 6.45702 71.9126 6.14332 72.271 6.14332Z" fill="#FFCCCC" /></a>
                                <a href="https://www.instagram.com/employherinc/" target="_blank"><path d="M10.578 9.08619C8.63515 9.08619 7.04962 10.6718 7.04962 12.6147C7.04962 14.5576 8.63515 16.1431 10.578 16.1431C12.5209 16.1431 14.1064 14.5576 14.1064 12.6147C14.1064 10.6718 12.5209 9.08619 10.578 9.08619ZM21.1605 12.6147C21.1605 11.1535 21.1738 9.70559 21.0917 8.2471C21.0097 6.55301 20.6232 5.04952 19.3844 3.81072C18.143 2.56927 16.6422 2.18546 14.9481 2.1034C13.487 2.02134 12.0391 2.03458 10.5807 2.03458C9.11954 2.03458 7.67166 2.02134 6.21319 2.1034C4.51914 2.18546 3.01567 2.57192 1.77689 3.81072C0.535472 5.05216 0.151664 6.55301 0.0696081 8.2471C-0.0124475 9.70824 0.000787321 11.1562 0.000787321 12.6147C0.000787321 14.0731 -0.0124475 15.5237 0.0696081 16.9822C0.151664 18.6763 0.538119 20.1798 1.77689 21.4186C3.01831 22.66 4.51914 23.0438 6.21319 23.1259C7.67431 23.208 9.12219 23.1947 10.5807 23.1947C12.0418 23.1947 13.4897 23.208 14.9481 23.1259C16.6422 23.0438 18.1457 22.6574 19.3844 21.4186C20.6259 20.1771 21.0097 18.6763 21.0917 16.9822C21.1764 15.5237 21.1605 14.0758 21.1605 12.6147ZM10.578 18.0437C7.57372 18.0437 5.14911 15.619 5.14911 12.6147C5.14911 9.6103 7.57372 7.18565 10.578 7.18565C13.5823 7.18565 16.0069 9.6103 16.0069 12.6147C16.0069 15.619 13.5823 18.0437 10.578 18.0437ZM16.2293 8.23121C15.5278 8.23121 14.9614 7.66475 14.9614 6.9633C14.9614 6.26184 15.5278 5.69538 16.2293 5.69538C16.9307 5.69538 17.4972 6.26184 17.4972 6.9633C17.4974 7.12986 17.4647 7.29483 17.4011 7.44876C17.3374 7.60268 17.244 7.74254 17.1263 7.86032C17.0085 7.97809 16.8686 8.07148 16.7147 8.13513C16.5608 8.19877 16.3958 8.23142 16.2293 8.23121Z" fill="#FFCCCC" /></a>
                              </svg>