<svg
									width="277"
									height="200"
									viewBox="0 0 277 200"
									fill="none"
									xmlns="http://www.w3.org/2000/svg"
								>
									<g clipPath="url(#clip0)">
										<path
											d="M133.537 4.74536C106.532 4.74536 84.6406 19.319 84.6406 37.2964C84.6406 45.3235 89.0078 52.6704 96.2433 58.3459V81.9711L111.743 66.4406C118.781 68.7306 126.138 69.8807 133.537 69.8474C160.542 69.8474 182.434 55.2738 182.434 37.2964C182.434 19.319 160.542 4.74536 133.537 4.74536Z"
											fill="#F2F2F2"
										/>
										<g opacity="0.5">
											<path
												opacity="0.3"
												d="M215.699 166.768C216.427 167.156 217.235 167.37 218.06 167.392C218.885 167.414 219.704 167.244 220.452 166.895C221.2 166.546 221.857 166.028 222.371 165.381C222.885 164.734 223.242 163.977 223.414 163.168C223.586 162.36 223.568 161.522 223.362 160.721C223.156 159.921 222.767 159.179 222.226 158.555C221.685 157.931 221.006 157.441 220.244 157.124C219.482 156.808 218.656 156.673 217.833 156.73L217.581 159.469L216.626 156.955C215.281 157.37 214.156 158.303 213.497 159.549C213.264 159.985 213.094 160.452 212.992 160.935C212.749 162.07 212.881 163.254 213.37 164.306C213.858 165.358 214.676 166.223 215.699 166.768Z"
												fill="#57B894"
											/>
											<path
												opacity="0.3"
												d="M217.597 199.224C217.47 196.846 219.725 195.073 221.855 194.015C223.984 192.957 226.437 191.969 227.419 189.8C228.83 186.684 226.416 183.303 224.572 180.422C223.204 178.284 222.094 175.991 221.265 173.591C220.932 172.629 220.643 171.631 220.664 170.613C220.693 169.147 221.358 167.778 222.018 166.469C224.216 162.109 226.516 157.802 228.918 153.549"
												stroke="#3F3D56"
												strokeMiterlimit="10"
											/>
											<path
												opacity="0.3"
												d="M216.015 166.098C216.743 166.487 217.552 166.7 218.377 166.723C219.202 166.745 220.02 166.574 220.768 166.226C221.516 165.877 222.173 165.358 222.687 164.711C223.201 164.065 223.558 163.307 223.73 162.498C223.902 161.69 223.885 160.852 223.678 160.052C223.472 159.251 223.083 158.51 222.542 157.885C222.001 157.261 221.323 156.771 220.56 156.455C219.798 156.138 218.973 156.003 218.15 156.06L217.897 158.8L216.942 156.286C215.597 156.701 214.472 157.633 213.813 158.879C213.58 159.315 213.41 159.782 213.308 160.266C213.065 161.401 213.198 162.584 213.686 163.636C214.175 164.689 214.992 165.553 216.015 166.098Z"
												stroke="#3F3D56"
												strokeMiterlimit="10"
											/>
											<path
												opacity="0.3"
												d="M223.633 151.841C224.052 151.051 224.663 150.379 225.41 149.887C226.156 149.396 227.014 149.1 227.904 149.028L227.973 151.676L229.162 149.074C230.278 149.249 231.309 149.775 232.107 150.576C232.905 151.376 233.428 152.41 233.602 153.529C233.775 154.647 233.589 155.791 233.071 156.797C232.552 157.802 231.728 158.617 230.718 159.122C229.708 159.628 228.563 159.799 227.45 159.61C226.336 159.422 225.311 158.884 224.523 158.073C223.734 157.263 223.223 156.223 223.063 155.103C222.904 153.982 223.103 152.84 223.633 151.841Z"
												fill="#57B894"
											/>
											<path
												opacity="0.3"
												d="M224.055 150.948C224.474 150.158 225.085 149.486 225.831 148.994C226.578 148.503 227.436 148.207 228.326 148.135L228.395 150.783L229.584 148.181C230.7 148.356 231.731 148.882 232.529 149.683C233.327 150.484 233.85 151.518 234.024 152.636C234.197 153.754 234.011 154.899 233.492 155.904C232.974 156.909 232.15 157.724 231.14 158.23C230.13 158.735 228.985 158.906 227.872 158.718C226.758 158.529 225.733 157.991 224.945 157.181C224.156 156.37 223.645 155.33 223.485 154.21C223.325 153.09 223.525 151.947 224.055 150.948Z"
												stroke="#3F3D56"
												strokeMiterlimit="10"
											/>
											<path
												opacity="0.3"
												d="M223.639 180.343C224.794 180.958 226.135 181.126 227.405 180.815C228.676 180.503 229.788 179.734 230.529 178.654C231.271 177.574 231.589 176.258 231.424 174.957C231.26 173.657 230.623 172.463 229.636 171.602L228.722 173.602L228.653 170.923C228.649 170.92 228.645 170.918 228.64 170.916C228.023 170.586 227.346 170.381 226.649 170.313C225.952 170.245 225.248 170.316 224.579 170.52C223.909 170.725 223.286 171.06 222.746 171.506C222.205 171.952 221.758 172.501 221.429 173.12C221.1 173.74 220.897 174.418 220.83 175.117C220.763 175.815 220.834 176.52 221.04 177.191C221.245 177.861 221.58 178.485 222.026 179.026C222.472 179.567 223.02 180.014 223.639 180.343Z"
												fill="#57B894"
											/>
											<path
												opacity="0.3"
												d="M224.023 179.433C225.179 180.048 226.519 180.216 227.79 179.904C229.061 179.593 230.173 178.824 230.914 177.743C231.655 176.663 231.974 175.348 231.809 174.047C231.644 172.747 231.008 171.552 230.021 170.692L229.107 172.692L229.038 170.013C229.034 170.01 229.03 170.008 229.025 170.006C228.407 169.676 227.731 169.472 227.034 169.405C226.338 169.337 225.635 169.408 224.965 169.613C224.296 169.818 223.673 170.153 223.133 170.599C222.593 171.045 222.146 171.593 221.818 172.212C221.489 172.831 221.286 173.509 221.219 174.207C221.152 174.905 221.223 175.61 221.428 176.28C221.632 176.951 221.967 177.574 222.412 178.115C222.858 178.656 223.405 179.104 224.023 179.433V179.433Z"
												stroke="#3F3D56"
												strokeMiterlimit="10"
											/>
											<path
												opacity="0.3"
												d="M216.907 188.342C216.947 189.566 217.407 190.738 218.208 191.662C219.009 192.587 220.102 193.207 221.306 193.419C222.509 193.631 223.748 193.423 224.816 192.828C225.884 192.233 226.715 191.289 227.17 190.153C227.626 189.017 227.677 187.759 227.317 186.589C226.956 185.42 226.205 184.41 225.19 183.729C224.174 183.049 222.956 182.739 221.739 182.851C220.523 182.964 219.382 183.492 218.508 184.347L220.358 188.225L217.412 185.888C217.05 186.654 216.876 187.495 216.907 188.342Z"
												fill="#57B894"
											/>
											<path
												opacity="0.3"
												d="M217.222 187.672C217.263 188.896 217.722 190.068 218.523 190.992C219.324 191.917 220.418 192.537 221.621 192.749C222.824 192.962 224.064 192.753 225.131 192.158C226.199 191.564 227.031 190.619 227.486 189.483C227.941 188.347 227.993 187.089 227.632 185.92C227.272 184.75 226.521 183.74 225.505 183.06C224.49 182.379 223.271 182.069 222.055 182.182C220.838 182.294 219.697 182.822 218.823 183.678L220.673 187.556L217.727 185.219C217.365 185.984 217.192 186.826 217.222 187.672V187.672Z"
												stroke="#3F3D56"
												strokeMiterlimit="10"
											/>
										</g>
										<g opacity="0.5">
											<path
												opacity="0.3"
												d="M74.8383 167.537C74.1099 167.926 73.3014 168.14 72.4766 168.162C71.6517 168.184 70.833 168.014 70.0849 167.665C69.3369 167.316 68.6799 166.797 68.1659 166.151C67.6519 165.504 67.2948 164.746 67.1229 163.938C66.9509 163.129 66.9687 162.292 67.1749 161.491C67.3812 160.69 67.7701 159.949 68.3112 159.325C68.8523 158.7 69.5307 158.211 70.2929 157.894C71.0551 157.577 71.8803 157.442 72.7035 157.499L72.9558 160.239L73.9111 157.725C75.2558 158.14 76.3811 159.072 77.0398 160.318C77.2728 160.754 77.443 161.221 77.5452 161.705C77.7883 162.84 77.6555 164.023 77.167 165.076C76.6786 166.128 75.861 166.992 74.8383 167.537Z"
												fill="#FF6584"
											/>
											<path
												opacity="0.3"
												d="M72.9395 199.993C73.0661 197.615 70.8113 195.843 68.6819 194.785C66.5525 193.727 64.0995 192.738 63.1175 190.57C61.7063 187.453 64.1207 184.073 65.9645 181.191C67.3324 179.053 68.4426 176.76 69.2718 174.36C69.6041 173.398 69.8935 172.4 69.8729 171.382C69.8433 169.916 69.1784 168.548 68.5186 167.239C66.3203 162.878 64.0202 158.572 61.6182 154.319"
												stroke="#3F3D56"
												strokeMiterlimit="10"
											/>
											<path
												opacity="0.3"
												d="M74.5218 166.868C73.7935 167.256 72.985 167.47 72.1602 167.492C71.3353 167.514 70.5166 167.344 69.7685 166.995C69.0205 166.646 68.3635 166.128 67.8495 165.481C67.3355 164.834 66.9784 164.077 66.8065 163.268C66.6345 162.459 66.6523 161.622 66.8585 160.821C67.0647 160.021 67.4537 159.279 67.9948 158.655C68.5359 158.031 69.2143 157.541 69.9765 157.224C70.7387 156.907 71.5639 156.772 72.3871 156.83L72.6394 159.569L73.5947 157.055C74.9394 157.47 76.0647 158.403 76.7234 159.648C76.9564 160.084 77.1266 160.551 77.2288 161.035C77.4719 162.17 77.3391 163.353 76.8506 164.406C76.3621 165.458 75.5446 166.323 74.5218 166.868V166.868Z"
												stroke="#3F3D56"
												strokeMiterlimit="10"
											/>
											<path
												opacity="0.3"
												d="M66.9034 152.611C66.4843 151.82 65.8735 151.148 65.1272 150.657C64.3808 150.165 63.523 149.87 62.6327 149.797L62.5638 152.445L61.3747 149.843C60.2589 150.018 59.2276 150.544 58.4296 151.345C57.6316 152.146 57.1082 153.18 56.9351 154.298C56.7619 155.416 56.9479 156.561 57.4662 157.566C57.9845 158.572 58.8083 159.386 59.8186 159.892C60.8289 160.398 61.9735 160.569 63.0871 160.38C64.2007 160.191 65.2257 159.653 66.0141 158.843C66.8025 158.033 67.3135 156.992 67.4734 155.872C67.6332 154.752 67.4336 153.61 66.9034 152.611Z"
												fill="#FF6584"
											/>
											<path
												opacity="0.3"
												d="M66.4815 151.718C66.0624 150.928 65.4516 150.256 64.7053 149.764C63.959 149.272 63.1011 148.977 62.2109 148.905L62.1419 151.553L60.9528 148.95C59.8371 149.126 58.8057 149.652 58.0077 150.452C57.2097 151.253 56.6864 152.287 56.5132 153.405C56.34 154.524 56.526 155.668 57.0443 156.673C57.5626 157.679 58.3864 158.493 59.3967 158.999C60.407 159.505 61.5516 159.676 62.6652 159.487C63.7788 159.299 64.8038 158.76 65.5922 157.95C66.3806 157.14 66.8916 156.1 67.0515 154.979C67.2113 153.859 67.0117 152.717 66.4815 151.718V151.718Z"
												stroke="#3F3D56"
												strokeMiterlimit="10"
											/>
											<path
												opacity="0.3"
												d="M66.8975 181.113C65.7423 181.728 64.4015 181.896 63.1307 181.584C61.8598 181.273 60.7479 180.504 60.0067 179.423C59.2655 178.343 58.947 177.027 59.1118 175.727C59.2766 174.427 59.9132 173.232 60.9002 172.372L61.814 174.372L61.883 171.693C61.8871 171.69 61.8913 171.688 61.8957 171.686C62.5136 171.356 63.1901 171.152 63.8868 171.084C64.5835 171.017 65.2866 171.087 65.956 171.292C66.6254 171.497 67.248 171.832 67.7881 172.278C68.3283 172.724 68.7754 173.272 69.1039 173.892C69.4325 174.511 69.636 175.189 69.703 175.887C69.7699 176.585 69.6989 177.29 69.494 177.96C69.289 178.631 68.9543 179.254 68.5088 179.795C68.0632 180.336 67.5157 180.784 66.8975 181.113V181.113Z"
												fill="#FF6584"
											/>
											<path
												opacity="0.3"
												d="M66.5137 180.202C65.3585 180.818 64.0177 180.985 62.7469 180.674C61.4761 180.362 60.3641 179.593 59.6229 178.513C58.8818 177.433 58.5632 176.117 58.728 174.817C58.8928 173.516 59.5294 172.322 60.5165 171.462L61.4302 173.461L61.4992 170.782C61.5033 170.78 61.5075 170.777 61.512 170.775C62.1298 170.446 62.8063 170.242 63.5029 170.174C64.1995 170.107 64.9026 170.178 65.5719 170.382C66.2412 170.587 66.8637 170.922 67.4037 171.368C67.9437 171.814 68.3908 172.363 68.7193 172.982C69.0478 173.601 69.2514 174.279 69.3183 174.977C69.3853 175.675 69.3143 176.379 69.1095 177.05C68.9047 177.72 68.57 178.344 68.1246 178.885C67.6792 179.426 67.1318 179.873 66.5137 180.202V180.202Z"
												stroke="#3F3D56"
												strokeMiterlimit="10"
											/>
											<path
												opacity="0.3"
												d="M73.6299 189.112C73.5892 190.335 73.1299 191.507 72.329 192.432C71.528 193.356 70.4343 193.976 69.2311 194.189C68.0279 194.401 66.7884 194.192 65.7206 193.598C64.6527 193.003 63.8214 192.058 63.3661 190.922C62.9108 189.787 62.8591 188.528 63.2197 187.359C63.5804 186.189 64.3314 185.179 65.3469 184.499C66.3624 183.818 67.5806 183.508 68.7971 183.621C70.0136 183.733 71.1546 184.261 72.0286 185.117L70.1789 188.995L73.1247 186.658C73.4868 187.423 73.6601 188.265 73.6299 189.112Z"
												fill="#FF6584"
											/>
											<path
												opacity="0.3"
												d="M73.3145 188.442C73.2738 189.665 72.8144 190.838 72.0135 191.762C71.2126 192.686 70.1188 193.307 68.9156 193.519C67.7124 193.731 66.473 193.523 65.4051 192.928C64.3373 192.333 63.506 191.389 63.0507 190.253C62.5953 189.117 62.5437 187.859 62.9043 186.689C63.265 185.519 64.016 184.51 65.0315 183.829C66.047 183.149 67.2651 182.839 68.4817 182.951C69.6982 183.064 70.8391 183.592 71.7131 184.447L69.8635 188.325L72.8092 185.988C73.1714 186.754 73.3447 187.595 73.3145 188.442V188.442Z"
												stroke="#3F3D56"
												strokeMiterlimit="10"
											/>
										</g>
										<g opacity="0.5">
											<path
												opacity="0.3"
												d="M207.96 167.281C207.232 167.669 206.424 167.883 205.599 167.905C204.774 167.927 203.955 167.757 203.207 167.408C202.459 167.059 201.802 166.541 201.288 165.894C200.774 165.247 200.417 164.49 200.245 163.681C200.073 162.872 200.091 162.035 200.297 161.234C200.503 160.434 200.892 159.692 201.433 159.068C201.974 158.444 202.653 157.954 203.415 157.637C204.177 157.321 205.002 157.185 205.826 157.243L206.078 159.982L207.033 157.468C208.378 157.883 209.503 158.816 210.162 160.062C210.395 160.498 210.565 160.964 210.667 161.448C210.91 162.583 210.778 163.766 210.289 164.819C209.801 165.871 208.983 166.736 207.96 167.281Z"
												fill="#FF6584"
											/>
											<path
												opacity="0.3"
												d="M206.062 199.737C206.188 197.359 203.933 195.586 201.804 194.528C199.675 193.47 197.222 192.482 196.24 190.313C194.828 187.196 197.243 183.816 199.087 180.935C200.455 178.797 201.565 176.504 202.394 174.104C202.726 173.142 203.016 172.144 202.995 171.126C202.965 169.66 202.301 168.291 201.641 166.982C199.442 162.622 197.142 158.315 194.74 154.062"
												stroke="#3F3D56"
												strokeMiterlimit="10"
											/>
											<path
												opacity="0.3"
												d="M207.644 166.611C206.916 167 206.107 167.213 205.282 167.235C204.457 167.258 203.639 167.087 202.891 166.738C202.143 166.389 201.486 165.871 200.972 165.224C200.458 164.578 200.1 163.82 199.929 163.011C199.757 162.203 199.774 161.365 199.981 160.565C200.187 159.764 200.576 159.022 201.117 158.398C201.658 157.774 202.336 157.284 203.099 156.968C203.861 156.651 204.686 156.516 205.509 156.573L205.761 159.312L206.717 156.799C208.061 157.213 209.187 158.146 209.845 159.392C210.078 159.828 210.249 160.295 210.351 160.779C210.594 161.913 210.461 163.097 209.973 164.149C209.484 165.202 208.667 166.066 207.644 166.611V166.611Z"
												stroke="#3F3D56"
												strokeMiterlimit="10"
											/>
											<path
												opacity="0.3"
												d="M200.025 152.354C199.606 151.564 198.996 150.892 198.249 150.4C197.503 149.908 196.645 149.613 195.755 149.541L195.686 152.189L194.497 149.587C193.381 149.762 192.35 150.288 191.552 151.089C190.754 151.889 190.23 152.923 190.057 154.042C189.884 155.16 190.07 156.304 190.588 157.31C191.107 158.315 191.93 159.13 192.941 159.635C193.951 160.141 195.096 160.312 196.209 160.123C197.323 159.935 198.348 159.397 199.136 158.586C199.925 157.776 200.436 156.736 200.595 155.616C200.755 154.495 200.556 153.353 200.025 152.354Z"
												fill="#FF6584"
											/>
											<path
												opacity="0.3"
												d="M199.604 151.461C199.185 150.671 198.574 149.999 197.827 149.507C197.081 149.016 196.223 148.72 195.333 148.648L195.264 151.296L194.075 148.694C192.959 148.869 191.928 149.395 191.13 150.196C190.332 150.996 189.808 152.031 189.635 153.149C189.462 154.267 189.648 155.411 190.166 156.417C190.685 157.422 191.508 158.237 192.519 158.742C193.529 159.248 194.674 159.419 195.787 159.231C196.901 159.042 197.926 158.504 198.714 157.694C199.503 156.883 200.014 155.843 200.174 154.723C200.333 153.603 200.134 152.46 199.604 151.461V151.461Z"
												stroke="#3F3D56"
												strokeMiterlimit="10"
											/>
											<path
												opacity="0.3"
												d="M200.02 180.856C198.864 181.471 197.524 181.639 196.253 181.328C194.982 181.016 193.87 180.247 193.129 179.167C192.388 178.087 192.069 176.771 192.234 175.47C192.399 174.17 193.035 172.976 194.022 172.115L194.936 174.115L195.005 171.436C195.009 171.433 195.013 171.431 195.018 171.429C195.636 171.099 196.312 170.895 197.009 170.828C197.706 170.76 198.409 170.831 199.078 171.036C199.747 171.24 200.37 171.576 200.91 172.022C201.45 172.468 201.897 173.016 202.226 173.635C202.555 174.254 202.758 174.932 202.825 175.631C202.892 176.329 202.821 177.033 202.616 177.704C202.411 178.374 202.076 178.998 201.631 179.539C201.185 180.08 200.638 180.527 200.02 180.856V180.856Z"
												fill="#FF6584"
											/>
											<path
												opacity="0.3"
												d="M199.636 179.946C198.481 180.561 197.14 180.729 195.869 180.417C194.598 180.106 193.486 179.337 192.745 178.256C192.004 177.176 191.685 175.86 191.85 174.56C192.015 173.26 192.651 172.065 193.639 171.205L194.552 173.205L194.621 170.526C194.625 170.523 194.63 170.521 194.634 170.519C195.252 170.189 195.928 169.985 196.625 169.918C197.322 169.85 198.025 169.921 198.694 170.126C199.363 170.331 199.986 170.666 200.526 171.112C201.066 171.558 201.513 172.106 201.841 172.725C202.17 173.344 202.373 174.022 202.44 174.72C202.507 175.418 202.436 176.123 202.232 176.793C202.027 177.464 201.692 178.087 201.247 178.628C200.801 179.169 200.254 179.617 199.636 179.946V179.946Z"
												stroke="#3F3D56"
												strokeMiterlimit="10"
											/>
											<path
												opacity="0.3"
												d="M206.752 188.855C206.711 190.079 206.252 191.251 205.451 192.175C204.65 193.099 203.556 193.72 202.353 193.932C201.15 194.144 199.91 193.936 198.843 193.341C197.775 192.746 196.943 191.802 196.488 190.666C196.033 189.53 195.981 188.272 196.342 187.102C196.702 185.933 197.454 184.923 198.469 184.242C199.484 183.562 200.703 183.252 201.919 183.364C203.136 183.477 204.277 184.005 205.151 184.86L203.301 188.738L206.247 186.401C206.609 187.167 206.782 188.008 206.752 188.855Z"
												fill="#FF6584"
											/>
											<path
												opacity="0.3"
												d="M206.437 188.185C206.396 189.409 205.937 190.581 205.136 191.505C204.335 192.43 203.241 193.05 202.038 193.262C200.835 193.475 199.595 193.266 198.527 192.671C197.459 192.077 196.628 191.132 196.173 189.996C195.717 188.86 195.666 187.602 196.026 186.432C196.387 185.263 197.138 184.253 198.154 183.573C199.169 182.892 200.387 182.582 201.604 182.694C202.82 182.807 203.961 183.335 204.835 184.191L202.986 188.068L205.931 185.732C206.294 186.497 206.467 187.339 206.437 188.185V188.185Z"
												stroke="#3F3D56"
												strokeMiterlimit="10"
											/>
										</g>
										<g opacity="0.5">
											<path
												opacity="0.3"
												d="M18.5169 167.024C17.7886 167.413 16.9801 167.626 16.1553 167.649C15.3304 167.671 14.5117 167.501 13.7636 167.152C13.0156 166.803 12.3587 166.284 11.8446 165.637C11.3306 164.991 10.9735 164.233 10.8016 163.425C10.6296 162.616 10.6474 161.778 10.8536 160.978C11.0599 160.177 11.4488 159.436 11.9899 158.811C12.531 158.187 13.2094 157.697 13.9716 157.381C14.7338 157.064 15.559 156.929 16.3822 156.986L16.6345 159.726L17.5898 157.212C18.9345 157.627 20.0598 158.559 20.7185 159.805C20.9515 160.241 21.1217 160.708 21.2239 161.192C21.467 162.327 21.3342 163.51 20.8457 164.562C20.3572 165.615 19.5397 166.479 18.5169 167.024Z"
												fill="#FF6584"
											/>
											<path
												opacity="0.3"
												d="M16.6183 199.48C16.7449 197.102 14.49 195.329 12.3606 194.271C10.2312 193.213 7.77817 192.225 6.79624 190.056C5.38501 186.94 7.79942 183.559 9.64327 180.678C11.0112 178.54 12.1213 176.247 12.9505 173.847C13.2828 172.885 13.5722 171.887 13.5516 170.869C13.522 169.403 12.8572 168.034 12.1973 166.725C9.99902 162.365 7.69889 158.059 5.29688 153.805"
												stroke="#3F3D56"
												strokeMiterlimit="10"
											/>
											<path
												opacity="0.3"
												d="M18.2005 166.354C17.4722 166.743 16.6637 166.957 15.8389 166.979C15.014 167.001 14.1953 166.831 13.4472 166.482C12.6992 166.133 12.0422 165.615 11.5282 164.968C11.0142 164.321 10.6571 163.563 10.4852 162.755C10.3132 161.946 10.331 161.109 10.5372 160.308C10.7435 159.508 11.1324 158.766 11.6735 158.142C12.2146 157.517 12.893 157.028 13.6552 156.711C14.4174 156.394 15.2426 156.259 16.0658 156.317L16.3181 159.056L17.2734 156.542C18.6181 156.957 19.7434 157.89 20.4021 159.135C20.6351 159.571 20.8053 160.038 20.9075 160.522C21.1506 161.657 21.0178 162.84 20.5293 163.893C20.0408 164.945 19.2233 165.809 18.2005 166.354Z"
												stroke="#3F3D56"
												strokeMiterlimit="10"
											/>
											<path
												opacity="0.3"
												d="M10.5821 152.097C10.163 151.307 9.55222 150.635 8.80589 150.144C8.05956 149.652 7.20173 149.356 6.31145 149.284L6.2425 151.932L5.05342 149.33C3.93764 149.505 2.90631 150.031 2.10831 150.832C1.31031 151.633 0.78695 152.667 0.613783 153.785C0.440615 154.903 0.626603 156.048 1.14489 157.053C1.66319 158.059 2.48696 158.873 3.49729 159.379C4.50761 159.884 5.65221 160.055 6.76582 159.867C7.87943 159.678 8.90443 159.14 9.69283 158.33C10.4812 157.519 10.9922 156.479 11.1521 155.359C11.3119 154.239 11.1123 153.097 10.5821 152.097Z"
												fill="#FF6584"
											/>
											<path
												opacity="0.3"
												d="M10.1602 151.205C9.74117 150.414 9.13034 149.742 8.38401 149.251C7.63768 148.759 6.77986 148.464 5.88958 148.391L5.82062 151.039L4.63155 148.437C3.51577 148.612 2.48443 149.138 1.68644 149.939C0.888439 150.74 0.365076 151.774 0.191908 152.892C0.0187397 154.01 0.204728 155.155 0.723019 156.16C1.24131 157.166 2.06509 157.98 3.07541 158.486C4.08573 158.992 5.23033 159.163 6.34394 158.974C7.45755 158.785 8.48255 158.247 9.27095 157.437C10.0594 156.627 10.5704 155.586 10.7302 154.466C10.89 153.346 10.6904 152.204 10.1602 151.205V151.205Z"
												stroke="#3F3D56"
												strokeMiterlimit="10"
											/>
											<path
												opacity="0.3"
												d="M10.5762 180.599C9.42098 181.215 8.08018 181.383 6.80937 181.071C5.53856 180.76 4.4266 179.99 3.68542 178.91C2.94425 177.83 2.6257 176.514 2.79049 175.214C2.95528 173.913 3.59188 172.719 4.57896 171.859L5.49267 173.859L5.56174 171.179C5.56578 171.177 5.57003 171.174 5.57444 171.172C6.19226 170.843 6.86885 170.638 7.56553 170.571C8.26222 170.503 8.96535 170.574 9.63476 170.779C10.3042 170.984 10.9267 171.319 11.4668 171.765C12.007 172.211 12.4541 172.759 12.7826 173.379C13.1112 173.998 13.3147 174.676 13.3817 175.374C13.4486 176.072 13.3776 176.776 13.1727 177.447C12.9678 178.118 12.633 178.741 12.1875 179.282C11.742 179.823 11.1944 180.271 10.5762 180.599V180.599Z"
												fill="#FF6584"
											/>
											<path
												opacity="0.3"
												d="M10.1924 179.689C9.0372 180.304 7.6964 180.472 6.42559 180.161C5.15478 179.849 4.04281 179.08 3.30163 178C2.56046 176.92 2.24191 175.604 2.4067 174.303C2.57149 173.003 3.20809 171.809 4.19518 170.948L5.10889 172.948L5.17796 170.269C5.182 170.266 5.18625 170.264 5.19066 170.262C5.80847 169.933 6.48501 169.728 7.18163 169.661C7.87824 169.594 8.58129 169.664 9.25059 169.869C9.9199 170.074 10.5424 170.409 11.0824 170.855C11.6224 171.301 12.0695 171.849 12.398 172.469C12.7265 173.088 12.9301 173.766 12.997 174.464C13.064 175.162 12.993 175.866 12.7882 176.537C12.5834 177.207 12.2487 177.831 11.8033 178.372C11.3579 178.913 10.8105 179.36 10.1924 179.689V179.689Z"
												stroke="#3F3D56"
												strokeMiterlimit="10"
											/>
											<path
												opacity="0.3"
												d="M17.3086 188.599C17.2679 189.822 16.8086 190.994 16.0077 191.918C15.2068 192.843 14.113 193.463 12.9098 193.675C11.7066 193.888 10.4671 193.679 9.39928 193.084C8.33143 192.49 7.50013 191.545 7.0448 190.409C6.58947 189.273 6.5378 188.015 6.89846 186.846C7.25911 185.676 8.01015 184.666 9.02563 183.986C10.0411 183.305 11.2593 182.995 12.4758 183.108C13.6923 183.22 14.8333 183.748 15.7073 184.604L13.8576 188.482L16.8034 186.145C17.1656 186.91 17.3388 187.752 17.3086 188.599Z"
												fill="#FF6584"
											/>
											<path
												opacity="0.3"
												d="M16.9932 187.929C16.9525 189.152 16.4931 190.324 15.6922 191.249C14.8913 192.173 13.7976 192.793 12.5944 193.006C11.3911 193.218 10.1517 193.009 9.08384 192.415C8.016 191.82 7.1847 190.875 6.72937 189.74C6.27404 188.604 6.22237 187.345 6.58303 186.176C6.94368 185.006 7.69472 183.997 8.7102 183.316C9.72568 182.635 10.9438 182.325 12.1604 182.438C13.3769 182.55 14.5178 183.079 15.3918 183.934L13.5422 187.812L16.488 185.475C16.8501 186.241 17.0234 187.082 16.9932 187.929V187.929Z"
												stroke="#3F3D56"
												strokeMiterlimit="10"
											/>
										</g>
										<g opacity="0.5">
											<path
												opacity="0.3"
												d="M17.086 143.338C18.3371 144.006 19.7258 144.373 21.1427 144.411C22.5596 144.449 23.966 144.157 25.2509 143.557C26.5359 142.958 27.6643 142.068 28.5473 140.957C29.4302 139.846 30.0436 138.544 30.339 137.155C30.6344 135.766 30.6038 134.328 30.2495 132.952C29.8953 131.577 29.2271 130.303 28.2977 129.231C27.3683 128.159 26.203 127.318 24.8937 126.774C23.5844 126.229 22.1669 125.998 20.7529 126.096L20.3195 130.802L18.6786 126.483C16.3688 127.196 14.4358 128.798 13.3043 130.938C12.9041 131.687 12.6117 132.489 12.4361 133.32C12.0186 135.269 12.2467 137.302 13.0858 139.11C13.9248 140.918 15.3292 142.402 17.086 143.338Z"
												fill="#57B894"
											/>
											<path
												opacity="0.3"
												d="M20.3476 199.089C20.1302 195.005 24.0034 191.96 27.6611 190.142C31.3188 188.325 35.5325 186.627 37.2192 182.902C39.6434 177.548 35.496 171.742 32.3288 166.793C29.9791 163.12 28.0722 159.181 26.6479 155.059C26.077 153.406 25.5799 151.692 25.6153 149.943C25.6662 147.425 26.8082 145.074 27.9417 142.826C31.7177 135.336 35.6687 127.938 39.7948 120.632"
												stroke="#3F3D56"
												strokeMiterlimit="10"
											/>
											<path
												opacity="0.3"
												d="M17.6289 142.188C18.88 142.855 20.2688 143.223 21.6857 143.261C23.1026 143.299 24.509 143.006 25.7939 142.407C27.0789 141.807 28.2073 140.917 29.0902 139.806C29.9732 138.695 30.5866 137.394 30.882 136.005C31.1774 134.616 31.1467 133.177 30.7925 131.802C30.4383 130.427 29.7701 129.153 28.8407 128.081C27.9113 127.008 26.746 126.167 25.4367 125.623C24.1274 125.079 22.7099 124.847 21.2959 124.946L20.8625 129.651L19.2216 125.333C16.9118 126.046 14.9787 127.648 13.8473 129.787C13.447 130.536 13.1547 131.338 12.9791 132.17C12.5616 134.119 12.7896 136.152 13.6287 137.959C14.4678 139.767 15.8721 141.252 17.6289 142.188V142.188Z"
												stroke="#3F3D56"
												strokeMiterlimit="10"
											/>
											<path
												opacity="0.3"
												d="M30.7167 117.698C31.4365 116.341 32.4857 115.187 33.7677 114.342C35.0497 113.498 36.5233 112.99 38.0525 112.866L38.171 117.415L40.2135 112.945C42.1301 113.246 43.9017 114.149 45.2724 115.525C46.6431 116.9 47.5421 118.677 47.8396 120.597C48.137 122.518 47.8176 124.484 46.9273 126.211C46.037 127.938 44.622 129.337 42.8865 130.206C41.151 131.074 39.1849 131.368 37.272 131.044C35.3592 130.72 33.5985 129.796 32.2442 128.404C30.89 127.012 30.0122 125.225 29.7376 123.301C29.4631 121.377 29.8059 119.415 30.7167 117.698H30.7167Z"
												fill="#57B894"
											/>
											<path
												opacity="0.3"
												d="M31.4403 116.165C32.1601 114.807 33.2094 113.653 34.4914 112.808C35.7734 111.964 37.2469 111.456 38.7762 111.332L38.8946 115.881L40.9371 111.411C42.8537 111.712 44.6253 112.615 45.996 113.991C47.3668 115.366 48.2658 117.143 48.5632 119.064C48.8607 120.984 48.5412 122.95 47.6509 124.677C46.7606 126.404 45.3456 127.803 43.6101 128.672C41.8747 129.541 39.9086 129.834 37.9957 129.51C36.0828 129.187 34.3221 128.262 32.9679 126.87C31.6136 125.478 30.7358 123.691 30.4613 121.767C30.1867 119.843 30.5296 117.881 31.4404 116.165H31.4403Z"
												stroke="#3F3D56"
												strokeMiterlimit="10"
											/>
											<path
												opacity="0.3"
												d="M30.725 166.657C32.7093 167.714 35.0124 168.002 37.1954 167.467C39.3783 166.932 41.2883 165.611 42.5615 163.755C43.8346 161.9 44.3818 159.64 44.0987 157.406C43.8157 155.172 42.7222 153.121 41.0266 151.643L39.4571 155.078L39.3385 150.476C39.3315 150.471 39.3242 150.467 39.3166 150.464C38.2555 149.899 37.0936 149.548 35.8973 149.433C34.701 149.318 33.4937 149.44 32.3445 149.792C31.1952 150.144 30.1264 150.719 29.1991 151.485C28.2718 152.251 27.5042 153.193 26.94 154.256C26.3759 155.319 26.0263 156.484 25.9112 157.682C25.7961 158.881 25.9178 160.091 26.2692 161.242C26.6207 162.394 27.1951 163.464 27.9596 164.394C28.7241 165.323 29.6638 166.092 30.725 166.657Z"
												fill="#57B894"
											/>
											<path
												opacity="0.3"
												d="M31.3861 165.093C33.3704 166.15 35.6736 166.439 37.8565 165.903C40.0394 165.368 41.9495 164.047 43.2226 162.192C44.4958 160.336 45.0429 158.076 44.7599 155.842C44.4768 153.608 43.3833 151.557 41.6878 150.079L40.1182 153.514L39.9996 148.912C39.9927 148.908 39.9854 148.904 39.9778 148.9C38.9166 148.335 37.7547 147.985 36.5584 147.869C35.3621 147.754 34.1549 147.876 33.0056 148.228C31.8563 148.58 30.7875 149.156 29.8602 149.922C28.9329 150.688 28.1653 151.629 27.6012 152.692C27.037 153.756 26.6874 154.92 26.5723 156.119C26.4572 157.317 26.5789 158.527 26.9304 159.678C27.2818 160.83 27.8562 161.901 28.6207 162.83C29.3852 163.759 30.3249 164.528 31.3861 165.093V165.093Z"
												stroke="#3F3D56"
												strokeMiterlimit="10"
											/>
											<path
												opacity="0.3"
												d="M19.1601 180.397C19.23 182.499 20.0191 184.512 21.3948 186.1C22.7706 187.688 24.6494 188.754 26.7161 189.118C28.7829 189.483 30.912 189.124 32.7463 188.103C34.5806 187.081 36.0085 185.459 36.7906 183.508C37.5728 181.556 37.6615 179.395 37.042 177.386C36.4225 175.377 35.1324 173.643 33.3881 172.474C31.6438 171.305 29.5513 170.772 27.4616 170.965C25.3719 171.159 23.4121 172.066 21.9108 173.535L25.088 180.196L20.028 176.182C19.4059 177.497 19.1082 178.943 19.1601 180.397Z"
												fill="#57B894"
											/>
											<path
												opacity="0.3"
												d="M19.704 179.247C19.774 181.348 20.563 183.362 21.9388 184.95C23.3145 186.538 25.1933 187.603 27.2601 187.968C29.3269 188.332 31.4559 187.974 33.2902 186.952C35.1245 185.931 36.5525 184.308 37.3346 182.357C38.1167 180.406 38.2055 178.245 37.586 176.236C36.9665 174.227 35.6764 172.492 33.932 171.323C32.1877 170.154 30.0952 169.622 28.0056 169.815C25.9159 170.008 23.956 170.916 22.4547 172.385L25.6319 179.046L20.5719 175.032C19.9498 176.347 19.6522 177.793 19.704 179.247V179.247Z"
												stroke="#3F3D56"
												strokeMiterlimit="10"
											/>
										</g>
										<g opacity="0.5">
											<path
												opacity="0.3"
												d="M236.207 199.632C235.925 194.344 240.939 190.402 245.674 188.049C250.409 185.697 255.864 183.499 258.047 178.677C261.185 171.746 255.817 164.229 251.717 157.823C248.675 153.068 246.206 147.97 244.363 142.633C243.624 140.493 242.98 138.275 243.026 136.011C243.092 132.751 244.57 129.707 246.037 126.797C250.926 117.101 256.04 107.524 261.381 98.0669"
												stroke="#3F3D56"
												strokeMiterlimit="10"
											/>
											<path
												opacity="0.3"
												d="M267.545 87.2841L262.39 88.7598L262.748 86.3688C262.294 86.3395 261.834 86.323 261.366 86.323C254.65 86.323 249.206 89.4237 249.206 93.2487C249.206 97.0736 254.65 100.174 261.366 100.174C268.082 100.174 273.527 97.0736 273.527 93.2487C273.527 90.7088 271.124 88.4895 267.545 87.2841Z"
												fill="#FF6584"
											/>
											<path
												opacity="0.3"
												d="M267.545 86.5146L262.39 87.9903L262.748 85.5993C262.294 85.57 261.834 85.5535 261.366 85.5535C254.65 85.5535 249.206 88.6542 249.206 92.4791C249.206 96.3041 254.65 99.4048 261.366 99.4048C268.082 99.4048 273.527 96.3041 273.527 92.4791C273.527 89.9393 271.124 87.72 267.545 86.5146Z"
												stroke="#3F3D56"
												strokeMiterlimit="10"
											/>
											<path
												opacity="0.3"
												d="M252.442 175.266L247.287 176.741L247.645 174.35C247.191 174.321 246.73 174.304 246.263 174.304C239.547 174.304 234.103 177.405 234.103 181.23C234.103 185.055 239.547 188.156 246.263 188.156C252.979 188.156 258.423 185.055 258.423 181.23C258.423 178.69 256.021 176.471 252.442 175.266Z"
												fill="#FF6584"
											/>
											<path
												opacity="0.3"
												d="M252.442 174.496L247.287 175.972L247.645 173.581C247.191 173.551 246.73 173.535 246.263 173.535C239.547 173.535 234.103 176.636 234.103 180.461C234.103 184.285 239.547 187.386 246.263 187.386C252.979 187.386 258.423 184.285 258.423 180.461C258.423 177.921 256.021 175.701 252.442 174.496Z"
												stroke="#3F3D56"
												strokeMiterlimit="10"
											/>
											<path
												opacity="0.3"
												d="M270.361 156.797L265.207 158.273L265.565 155.882C265.111 155.853 264.65 155.836 264.183 155.836C257.467 155.836 252.022 158.937 252.022 162.762C252.022 166.587 257.467 169.688 264.183 169.688C270.899 169.688 276.343 166.587 276.343 162.762C276.343 160.222 273.941 158.003 270.361 156.797Z"
												fill="#FF6584"
											/>
											<path
												opacity="0.3"
												d="M270.361 156.028L265.207 157.503L265.565 155.112C265.111 155.083 264.65 155.067 264.183 155.067C257.467 155.067 252.022 158.167 252.022 161.992C252.022 165.817 257.467 168.918 264.183 168.918C270.899 168.918 276.343 165.817 276.343 161.992C276.343 159.452 273.941 157.233 270.361 156.028Z"
												stroke="#3F3D56"
												strokeMiterlimit="10"
											/>
											<path
												opacity="0.3"
												d="M249.172 109.669L243.908 108.649L245.307 106.679C244.915 106.447 244.512 106.224 244.095 106.012C238.106 102.968 231.85 103.266 230.123 106.677C228.397 110.088 231.852 115.321 237.842 118.365C243.831 121.409 250.086 121.111 251.813 117.7C252.96 115.435 251.82 112.367 249.172 109.669Z"
												fill="#FF6584"
											/>
											<path
												opacity="0.3"
												d="M249.518 108.983L244.255 107.963L245.654 105.993C245.262 105.761 244.859 105.537 244.442 105.325C238.452 102.282 232.197 102.579 230.47 105.991C228.743 109.402 232.199 114.635 238.188 117.679C244.178 120.722 250.433 120.425 252.16 117.013C253.307 114.748 252.166 111.68 249.518 108.983Z"
												stroke="#3F3D56"
												strokeMiterlimit="10"
											/>
											<path
												opacity="0.3"
												d="M260.692 136.603L255.429 135.582L256.827 133.612C256.436 133.38 256.033 133.157 255.616 132.945C249.626 129.901 243.371 130.199 241.644 133.61C239.917 137.021 243.373 142.254 249.362 145.298C255.352 148.342 261.607 148.044 263.334 144.633C264.48 142.368 263.34 139.3 260.692 136.603Z"
												fill="#FF6584"
											/>
											<path
												opacity="0.3"
												d="M261.039 135.916L255.775 134.896L257.174 132.926C256.783 132.694 256.379 132.471 255.962 132.259C249.973 129.215 243.717 129.513 241.991 132.924C240.264 136.335 243.719 141.568 249.709 144.612C255.698 147.656 261.954 147.358 263.681 143.947C264.827 141.682 263.687 138.614 261.039 135.916Z"
												stroke="#3F3D56"
												strokeMiterlimit="10"
											/>
										</g>
										<path
											d="M2.29004 199.57H271.607"
											stroke="#3F3D56"
											strokeMiterlimit="10"
										/>
										<path
											d="M136.897 1C109.892 1 88 15.5736 88 33.551C88 41.5781 92.3671 48.9251 99.6026 54.6006V78.2257L115.103 62.6952C122.14 64.9852 129.498 66.1353 136.897 66.1021C163.902 66.1021 185.794 51.5285 185.794 33.551C185.794 15.5736 163.902 1 136.897 1Z"
											stroke="#3F3D56"
											strokeMiterlimit="10"
										/>
										<path
											d="M115.747 84.3558C115.747 84.3558 114.764 71.084 115.227 68.6567C115.69 66.2293 116.125 59.3198 113.579 61.5911C111.033 63.8624 111.937 69.0157 111.937 69.0157C111.937 69.0157 109.521 83.0418 111.756 84.9447C113.991 86.8477 115.747 84.3558 115.747 84.3558Z"
											fill="#A0616A"
										/>
										<path
											d="M117.582 97.4803C117.582 97.4803 110.003 90.7077 110.413 84.9613C110.413 84.9613 114.919 81.4724 115.943 83.3195C116.967 85.1665 124.411 92.3723 123.147 94.8237C121.883 97.275 117.582 97.4803 117.582 97.4803Z"
											fill="#FF4694"
										/>
										<path
											d="M144.414 85.3718C144.414 85.3718 148.92 72.8528 149.125 70.3901C149.33 67.9273 150.764 61.1547 152.607 64.0279C154.451 66.9012 152.198 71.6214 152.198 71.6214C152.198 71.6214 150.764 85.7823 148.101 87.0136C145.438 88.245 144.414 85.3718 144.414 85.3718Z"
											fill="#A0616A"
										/>
										<path
											d="M132.124 148.172H144.209L144.823 154.329L141.956 154.944C141.956 154.944 135.197 152.892 131.305 153.508C127.413 154.124 132.124 148.172 132.124 148.172Z"
											fill="#A0616A"
										/>
										<path
											d="M140.112 147.351C140.112 147.351 145.847 143.452 146.872 146.735C147.896 150.019 151.583 161.922 150.354 163.154C149.125 164.385 147.691 162.128 147.691 162.128C147.691 162.128 145.233 156.997 143.39 156.792C141.546 156.586 140.522 154.945 140.522 154.945C140.522 154.945 145.847 150.84 140.112 147.351Z"
											fill="#2F2E41"
										/>
										<path
											d="M129.052 179.162C129.052 179.162 131.305 188.397 130.895 189.834C130.486 191.27 137.45 190.449 137.45 190.449L137.859 187.781C137.859 187.781 133.763 181.214 133.763 178.341C133.763 175.467 129.052 179.162 129.052 179.162Z"
											fill="#A0616A"
										/>
										<path
											d="M137.45 185.934C137.45 185.934 142.98 190.039 140.113 192.091C137.245 194.144 126.594 199.479 126.594 199.479C126.594 199.479 122.702 200.095 125.57 196.606C128.437 193.117 129.257 192.502 129.461 190.655C129.64 189.425 130.07 188.245 130.725 187.19C130.725 187.19 133.558 192.912 137.45 185.934Z"
											fill="#2F2E41"
										/>
										<path
											d="M120.654 136.679C120.654 136.679 118.401 158.023 121.883 164.796C125.366 171.568 129.462 180.803 129.257 181.214C129.052 181.624 135.197 180.598 135.197 178.751C135.197 176.904 128.438 158.433 128.438 158.433C128.438 158.433 131.306 134.422 133.559 132.78C135.812 131.138 120.654 136.679 120.654 136.679Z"
											fill="#2F2E41"
										/>
										<path
											opacity="0.1"
											d="M120.654 136.679C120.654 136.679 118.401 158.023 121.883 164.796C125.366 171.568 129.462 180.803 129.257 181.214C129.052 181.624 135.197 180.598 135.197 178.751C135.197 176.904 128.438 158.433 128.438 158.433C128.438 158.433 131.306 134.422 133.559 132.78C135.812 131.138 120.654 136.679 120.654 136.679Z"
											fill="black"
										/>
										<path
											d="M125.283 76.4441C123.819 76.7097 122.368 77.5156 121.64 78.8921C120.961 80.176 120.918 81.8922 119.837 82.8143C119.192 83.3647 118.316 83.492 117.596 83.9243C117.085 84.2523 116.668 84.7098 116.39 85.2506C116.111 85.7914 115.979 86.3964 116.009 87.0043C116.066 88.1366 116.662 89.1913 116.65 90.3252C116.633 91.7994 115.616 93.0165 114.659 94.0834L117.832 94.6734C118.312 94.8018 118.815 94.8152 119.301 94.7124C119.849 94.5499 120.294 94.0977 120.848 93.9598C121.642 93.7621 122.429 94.2463 123.137 94.676C125.155 95.8989 127.319 96.8219 129.475 97.741C130.109 98.0114 130.828 98.282 131.454 97.9904C131.96 97.7548 132.274 97.2042 132.75 96.9063C133.601 96.3727 134.67 96.7743 135.627 97.0377C137.79 97.626 140.092 97.4297 142.125 96.4833C141.687 95.9703 141.112 95.6116 140.64 95.1339C140.168 94.6563 139.785 93.98 139.91 93.2998C140.037 92.6061 140.633 92.143 141.038 91.5831C141.338 91.1396 141.547 90.6407 141.652 90.1156C141.757 89.5904 141.757 89.0496 141.651 88.5246C141.438 87.4801 140.931 86.5187 140.19 85.754C139.767 85.3572 139.368 84.9355 138.995 84.4912C138.248 83.4811 138.063 82.1438 137.824 80.8845C137.586 79.6252 137.208 78.285 136.239 77.5182C134.695 76.2965 132.187 76.7129 130.381 76.5917C128.66 76.4761 127 76.4441 125.283 76.4441Z"
											fill="#2F2E41"
										/>
										<path
											d="M115.123 122.108L119.015 131.753C119.015 131.753 101.195 151.25 111.232 153.918C121.268 156.586 124.75 151.866 131.1 155.56C131.1 155.56 134.173 150.84 133.763 147.967C133.763 147.967 124.955 146.325 120.244 146.53C120.244 146.53 132.944 135.448 134.173 135.037C135.401 134.627 139.498 128.059 133.148 122.723C126.799 117.387 128.437 114.514 128.437 114.514L115.123 122.108Z"
											fill="#2F2E41"
										/>
										<path
											d="M124.341 88.6554C124.341 88.6554 124.955 95.0175 122.292 95.8384C119.63 96.6593 132.739 96.4541 132.739 96.4541C132.739 96.4541 129.666 94.607 131.1 90.7077C132.534 86.8083 124.341 88.6554 124.341 88.6554Z"
											fill="#A0616A"
										/>
										<path
											opacity="0.1"
											d="M124.341 88.6554C124.341 88.6554 124.955 95.0175 122.292 95.8384C119.63 96.6593 132.739 96.4541 132.739 96.4541C132.739 96.4541 129.666 94.607 131.1 90.7077C132.534 86.8083 124.341 88.6554 124.341 88.6554Z"
											fill="black"
										/>
										<path
											d="M138.27 99.7378C138.27 99.7378 137.041 93.3757 134.583 93.7861C132.125 94.1966 127.209 94.607 126.594 95.0175C125.98 95.428 122.703 96.2691 122.703 96.2691C122.703 96.2691 123.932 94.8123 122.703 94.607C121.474 94.4018 117.582 95.428 117.172 96.2489C116.763 97.0698 115.124 98.7116 115.124 101.585C115.124 104.458 113.895 109.384 114.305 111.436C114.714 113.488 114.1 118.208 112.871 120.876C111.642 123.544 112.666 126.212 114.714 123.544C116.763 120.876 115.738 123.544 117.377 123.75C119.016 123.955 126.389 116.361 128.438 118.208C130.486 120.056 132.534 121.287 132.944 120.261C133.354 119.235 131.305 117.388 131.305 116.567C131.305 115.746 128.028 119.235 131.51 112.052C134.992 104.869 131.715 102.816 138.27 99.7378Z"
											fill="#FF4694"
										/>
										<path
											d="M136.63 99.3274L138.269 99.7378C138.269 99.7378 144.209 95.428 145.848 92.3495C147.486 89.2711 148.715 86.8083 148.715 86.8083C148.715 86.8083 146.052 83.5247 144.414 84.756C142.775 85.9874 135.401 94.4018 135.401 94.4018L136.63 99.3274Z"
											fill="#FF4694"
										/>
										<path
											d="M129.052 92.9652C132.559 92.9652 135.402 90.1168 135.402 86.6031C135.402 83.0894 132.559 80.241 129.052 80.241C125.545 80.241 122.702 83.0894 122.702 86.6031C122.702 90.1168 125.545 92.9652 129.052 92.9652Z"
											fill="#A0616A"
										/>
										<path
											d="M123.436 84.7601C124.521 83.8583 125.906 83.4016 127.314 83.4821C129.748 83.6322 131.89 85.37 134.328 85.4243C134.231 84.8961 134.304 84.3505 134.538 83.8672C134.727 83.479 135.025 83.1028 134.985 82.6728C134.918 82.3314 134.732 82.0253 134.459 81.8098C133.05 80.471 131.102 79.7809 129.162 79.6959C127.861 79.6389 125.378 79.6698 124.369 80.6567C123.506 81.501 123.606 83.6656 123.436 84.7601Z"
											fill="#2F2E41"
										/>
										<path
											d="M136.993 52.0795C144.345 52.0795 150.305 46.1077 150.305 38.7411C150.305 31.3746 144.345 25.4028 136.993 25.4028C129.641 25.4028 123.681 31.3746 123.681 38.7411C123.681 46.1077 129.641 52.0795 136.993 52.0795Z"
											fill="#FF4694"
										/>
										<path
											d="M133.741 35.3905C134.446 35.3905 135.017 34.6405 135.017 33.7153C135.017 32.7901 134.446 32.04 133.741 32.04C133.035 32.04 132.464 32.7901 132.464 33.7153C132.464 34.6405 133.035 35.3905 133.741 35.3905Z"
											fill="#444053"
										/>
										<path
											d="M140.337 35.3905C141.042 35.3905 141.614 34.6405 141.614 33.7153C141.614 32.7901 141.042 32.04 140.337 32.04C139.632 32.04 139.061 32.7901 139.061 33.7153C139.061 34.6405 139.632 35.3905 140.337 35.3905Z"
											fill="#444053"
										/>
										<path
											d="M144.973 38.9846C144.973 41.3902 140.964 45.4419 136.918 45.4419C132.871 45.4419 129.014 41.2988 129.014 38.8932C129.014 36.4877 132.788 38.6876 136.834 38.6876C140.88 38.6876 144.973 36.5791 144.973 38.9846Z"
											fill="#3F3D56"
										/>
										<path
											d="M130.289 39.396C130.289 39.396 137.562 41.0179 143.672 39.4417C143.672 39.4417 144.42 39.4417 143.909 40.3079C143.776 40.5326 143.581 40.7146 143.349 40.8329C142.171 41.4358 137.811 43.2178 130.84 40.9451C130.625 40.877 130.429 40.7565 130.271 40.5945C130.114 40.4324 129.998 40.2337 129.935 40.0162C129.853 39.7188 129.889 39.4371 130.289 39.396Z"
											fill="#F6F8FB"
										/>
									</g>
									<defs>
										<clipPath id="clip0">
											<rect
												width="276.471"
												height="200"
												fill="white"
											/>
										</clipPath>
									</defs>
								</svg>