<svg
									width="349"
									height="200"
									viewBox="0 0 349 200"
									fill="none"
									xmlns="http://www.w3.org/2000/svg"
								>
									<path
										d="M244.766 104.628L222.559 115.107L242.213 100.455C239.019 95.4843 235.43 90.7766 231.482 86.377L135.172 110.242L222.167 77.1581C218.191 73.6613 213.97 70.4533 209.534 67.5586L62.7799 91.1243C47.1984 110.549 38.7044 134.678 38.6924 159.55H259.597C259.588 140.261 254.472 121.315 244.766 104.628Z"
										fill="#F2F2F2"
									/>
									<path
										d="M197.524 60.7558C175.306 49.9825 150.107 46.9412 125.952 52.1176C101.797 57.2941 80.0778 70.3896 64.2627 89.3134C98.9572 81.7348 159.363 68.6159 197.524 60.7558Z"
										fill="#F2F2F2"
									/>
									<path
										d="M177.501 62.882C173.72 74.0409 167.923 84.2083 156.109 84.2083C144.294 84.2083 135.383 74.6415 134.717 62.882C133.866 47.8557 144.022 41.4934 156.109 41.5556C170.388 41.6291 181.987 49.6391 177.501 62.882Z"
										fill="#A07268"
									/>
									<path
										d="M173.45 60.0449H138.46V110.881H173.45V60.0449Z"
										fill="#A07268"
									/>
									<path
										d="M150.736 89.2338C150.736 89.2338 151.855 105.226 149.244 107.829C146.632 110.433 172.373 112.664 172 109.689C171.627 106.714 166.777 87.3742 168.27 83.2831C169.762 79.1921 150.736 89.2338 150.736 89.2338Z"
										fill="#FFB8B8"
									/>
									<path
										opacity="0.1"
										d="M150.736 89.2338C150.736 89.2338 151.855 105.226 149.244 107.829C146.632 110.433 172.373 112.664 172 109.689C171.627 106.714 166.777 87.3742 168.27 83.2831C169.762 79.1921 150.736 89.2338 150.736 89.2338Z"
										fill="black"
									/>
									<path
										d="M126.117 130.146L112.712 175.333L112.175 177.154H89.6191C98.5942 149.457 120.782 108.614 120.782 108.614L124.246 107.832L126.117 130.146Z"
										fill="#FF4694"
									/>
									<path
										opacity="0.1"
										d="M126.117 130.146L112.712 175.333L112.175 177.154H89.6191C98.5942 149.457 120.782 108.614 120.782 108.614L124.246 107.832L126.117 130.146Z"
										fill="black"
									/>
									<path
										d="M155.212 94.8126C164.484 94.8126 172 87.3196 172 78.0765C172 68.8334 164.484 61.3403 155.212 61.3403C145.941 61.3403 138.425 68.8334 138.425 78.0765C138.425 87.3196 145.941 94.8126 155.212 94.8126Z"
										fill="#FFB8B8"
									/>
									<path
										d="M173.119 104.854C173.119 104.854 167.15 110.433 160.435 109.317C153.72 108.201 150.901 100.061 150.901 100.061L144.394 104.854C144.394 104.854 142.529 118.243 151.109 119.731C159.689 121.218 172 121.59 174.612 119.731C177.223 117.871 173.119 104.854 173.119 104.854Z"
										fill="#3F3D56"
									/>
									<path
										d="M193.639 124.562L192.568 128.03L177.454 177.153H112.408C112.547 176.553 112.648 175.945 112.713 175.333C113.554 168.341 113.058 150.7 113.058 149.487C113.058 147.996 119.396 111.18 120.895 108.573C121.127 108.257 121.433 108.003 121.785 107.831C123.525 106.835 127.372 105.719 131.519 104.734C131.523 104.73 131.523 104.73 131.527 104.73C133.845 104.168 136.264 103.651 138.458 103.213H138.462C140.615 102.783 142.546 102.43 143.958 102.198C144.72 102.053 145.488 101.946 146.261 101.88C146.607 101.88 146.858 102.288 147.027 102.914C147.595 104.951 147.377 109.314 147.377 109.314C147.881 109.891 148.442 110.416 149.052 110.88C150.487 112.004 152.06 112.939 153.733 113.663C155.168 114.29 156.654 114.795 158.174 115.172H158.178C159.776 115.576 161.402 115.857 163.043 116.015C164.38 116.168 165.732 116.142 167.063 115.936H167.07C171.026 115.284 172.476 112.835 173.153 110.88C173.273 110.524 173.367 110.183 173.449 109.872C173.449 109.869 173.453 109.861 173.453 109.857C173.701 108.902 173.806 108.232 174.069 108.243H174.073C174.753 108.307 183.33 115.636 188.901 120.449C191.546 122.73 193.511 124.453 193.631 124.558L193.639 124.562Z"
										fill="#FF4694"
									/>
									<path
										opacity="0.1"
										d="M192.568 128.03L177.454 177.153H171.327C171.878 176.348 172.117 175.372 171.999 174.404C171.804 173.033 176.06 159.067 180.159 146.071C183.886 134.262 187.481 123.266 187.481 123.266L191.024 124.936C191.024 124.936 191.659 126.131 192.568 128.03Z"
										fill="black"
									/>
									<path
										d="M203.338 172.539C202.602 172.723 202.681 174.903 202.64 177.153H173.689C174.042 176.719 174.305 176.219 174.463 175.683C174.622 175.147 174.673 174.585 174.614 174.03C174.422 172.715 177.277 159.161 180.159 146.071C182.424 135.719 184.708 125.655 185.501 122.153C185.696 121.307 185.802 120.85 185.802 120.85L186.143 121.011L186.151 121.015L193.631 124.558L193.638 124.562C193.638 124.562 205.202 146.509 201.475 151.715C197.741 156.921 197.741 156.921 199.232 159.528C200.724 162.127 204.826 172.168 203.338 172.539Z"
										fill="#FF4694"
									/>
									<path
										d="M156.108 46.0456C160.772 46.0456 164.552 42.2766 164.552 37.6273C164.552 32.978 160.772 29.209 156.108 29.209C151.445 29.209 147.664 32.978 147.664 37.6273C147.664 42.2766 151.445 46.0456 156.108 46.0456Z"
										fill="#A07268"
									/>
									<path
										d="M145.976 33.1375C145.976 31.0507 146.754 29.0383 148.158 27.4907C149.562 25.943 151.493 24.9705 153.576 24.7617C153.298 24.7342 153.016 24.7192 152.731 24.7192C150.492 24.7192 148.344 25.6062 146.76 27.1849C145.177 28.7636 144.287 30.9049 144.287 33.1375C144.287 35.3702 145.177 37.5114 146.76 39.0902C148.344 40.6689 150.492 41.5558 152.731 41.5558C153.016 41.5558 153.298 41.5408 153.576 41.5133C151.493 41.3046 149.562 40.332 148.158 38.7844C146.754 37.2368 145.976 35.2244 145.976 33.1375Z"
										fill="#A07268"
									/>
									<path
										d="M149.898 56.9901C149.898 56.9901 149.721 56.0116 142.826 58.5896C135.93 61.1677 131.796 80.1926 135.244 91.3641C136.633 95.8662 135.503 99.1122 133.658 101.383C126.735 109.906 129.46 122.707 139.544 127.09C139.829 127.214 140.12 127.336 140.416 127.457L144.726 130.035C144.726 130.035 139.232 122.828 141.981 113.608C144.369 105.753 144.664 97.4136 142.837 89.4103C142.521 88.0602 142.163 86.6685 141.756 85.2483C138.308 73.2174 139.985 74.6068 152.053 62.5759C152.053 62.5759 158.949 67.732 164.983 70.31C171.017 72.8881 176.189 75.4661 171.879 84.0596C167.569 92.6531 157.225 100.387 164.121 111.559C171.017 122.73 171.879 118.434 171.017 122.73L170.155 127.027L175.327 121.871L171.879 128.746C171.879 128.746 183.085 128.746 186.532 120.152L188.256 121.871C188.256 121.871 195.152 109.84 182.223 98.6686C182.223 98.6686 177.913 96.0905 183.946 87.4971C189.98 78.9036 185.346 60.4275 177.588 56.9901C169.83 53.5527 149.898 56.9901 149.898 56.9901Z"
										fill="#A07268"
									/>
									<path
										d="M155.212 111.108L140.85 135.909H144.207V139.256L160.531 111.108H155.212Z"
										fill="#3F3D56"
									/>
									<path
										d="M342.624 160.674H284.393V183.521H342.624V160.674Z"
										fill="#F2F2F2"
									/>
									<path
										d="M335.298 189.888H291.718V193.633H335.298V189.888Z"
										fill="#F2F2F2"
									/>
									<path
										d="M335.298 196.629H291.718V199.626H335.298V196.629Z"
										fill="#F2F2F2"
									/>
									<path
										d="M6.01152 5.99235C6.84146 5.99235 7.51426 5.32161 7.51426 4.49422C7.51426 3.66683 6.84146 2.99609 6.01152 2.99609C5.18159 2.99609 4.50879 3.66683 4.50879 4.49422C4.50879 5.32161 5.18159 5.99235 6.01152 5.99235Z"
										fill="#FF4694"
									/>
									<path
										d="M10.1434 5.99235C10.9733 5.99235 11.6461 5.32161 11.6461 4.49422C11.6461 3.66683 10.9733 2.99609 10.1434 2.99609C9.31342 2.99609 8.64062 3.66683 8.64062 4.49422C8.64062 5.32161 9.31342 5.99235 10.1434 5.99235Z"
										fill="#FF4694"
									/>
									<path
										d="M14.2762 5.99235C15.1061 5.99235 15.7789 5.32161 15.7789 4.49422C15.7789 3.66683 15.1061 2.99609 14.2762 2.99609C13.4462 2.99609 12.7734 3.66683 12.7734 4.49422C12.7734 5.32161 13.4462 5.99235 14.2762 5.99235Z"
										fill="#FF4694"
									/>
									<path
										d="M348.259 200H0V0H348.259V200ZM0.751367 199.251H347.507V0.749064H0.751367V199.251Z"
										fill="#2F2E41"
									/>
									<path
										d="M347.883 7.52295H0.375977V8.27201H347.883V7.52295Z"
										fill="#2F2E41"
									/>
									<path
										d="M15.7793 13.8579H4.50879V14.607H15.7793V13.8579Z"
										fill="#2F2E41"
									/>
									<path
										d="M15.7793 16.854H4.50879V17.6031H15.7793V16.854Z"
										fill="#2F2E41"
									/>
									<path
										d="M15.7793 19.8501H4.50879V20.5992H15.7793V19.8501Z"
										fill="#2F2E41"
									/>
									<path
										d="M240.062 20.5995H100.308V13.8579H240.062V20.5995ZM101.059 19.8504H239.311V14.607H101.059V19.8504Z"
										fill="#2F2E41"
									/>
									<path
										d="M234.427 18.1647C234.129 18.1647 233.839 18.0768 233.592 17.9122C233.345 17.7476 233.152 17.5136 233.038 17.2399C232.924 16.9661 232.895 16.6649 232.953 16.3743C233.011 16.0837 233.154 15.8168 233.364 15.6072C233.574 15.3977 233.842 15.255 234.133 15.1972C234.425 15.1394 234.727 15.1691 235.002 15.2825C235.276 15.3959 235.511 15.5879 235.676 15.8343C235.841 16.0806 235.929 16.3703 235.929 16.6666C235.929 17.0638 235.77 17.4446 235.489 17.7255C235.207 18.0063 234.825 18.1643 234.427 18.1647ZM234.427 15.9175C234.278 15.9175 234.133 15.9615 234.009 16.0438C233.886 16.1261 233.789 16.2431 233.732 16.3799C233.676 16.5168 233.661 16.6674 233.69 16.8127C233.719 16.958 233.79 17.0915 233.895 17.1963C234 17.301 234.134 17.3723 234.28 17.4013C234.426 17.4302 234.577 17.4153 234.714 17.3586C234.851 17.3019 234.969 17.2059 235.051 17.0827C235.134 16.9596 235.178 16.8147 235.178 16.6666C235.178 16.468 235.098 16.2776 234.958 16.1372C234.817 15.9967 234.626 15.9177 234.427 15.9175Z"
										fill="#2F2E41"
									/>
									<path
										d="M235.462 17.2134L234.939 17.7511L236.419 19.1828L236.943 18.6452L235.462 17.2134Z"
										fill="#2F2E41"
									/>
									<path
										d="M324.215 20.5995H316.701V13.8579H324.215V20.5995ZM317.453 19.8504H323.463V14.607H317.453V19.8504Z"
										fill="#2F2E41"
									/>
									<path
										d="M333.607 20.5995H326.093V13.8579H333.607V20.5995ZM326.845 19.8504H332.856V14.607H326.845V19.8504Z"
										fill="#2F2E41"
									/>
									<path
										d="M342.999 20.5995H335.485V13.8579H342.999V20.5995ZM336.237 19.8504H342.248V14.607H336.237V19.8504Z"
										fill="#2F2E41"
									/>
									<path
										d="M256.592 181.648H249.83V187.64H256.592V181.648Z"
										fill="#FF6584"
									/>
									<path
										d="M265.984 181.648H259.222V187.64H265.984V181.648Z"
										fill="#F2F2F2"
									/>
									<path
										d="M275.376 181.648H268.614V187.64H275.376V181.648Z"
										fill="#F2F2F2"
									/>
									<path
										d="M275 177.528H18.7842V32.21H275V177.528ZM19.5355 176.779H274.249V32.959H19.5355V176.779Z"
										fill="#2F2E41"
									/>
									<path
										d="M57.7103 164.186V167.705L51.847 164.137C51.8158 164.119 51.7803 164.109 51.7442 164.109C51.708 164.109 51.6724 164.118 51.6409 164.136C51.6095 164.154 51.5833 164.179 51.5651 164.211C51.5469 164.242 51.5372 164.277 51.5371 164.313V172.025C51.5372 172.061 51.5469 172.097 51.5651 172.128C51.5833 172.159 51.6095 172.185 51.6409 172.203C51.6724 172.221 51.708 172.23 51.7442 172.23C51.7803 172.23 51.8158 172.22 51.847 172.201L57.7103 168.634V172.153C57.7104 172.18 57.7212 172.206 57.7404 172.225C57.7596 172.244 57.7856 172.255 57.8127 172.255H59.6314C59.6585 172.255 59.6846 172.244 59.7038 172.225C59.723 172.206 59.7338 172.18 59.7339 172.153V164.186C59.7338 164.159 59.723 164.133 59.7038 164.113C59.6846 164.094 59.6585 164.084 59.6314 164.083H57.8127C57.7856 164.084 57.7596 164.094 57.7404 164.113C57.7212 164.133 57.7104 164.159 57.7103 164.186Z"
										fill="#3F3D56"
									/>
									<path
										d="M42.0741 172.255H40.4399C40.4128 172.255 40.386 172.25 40.3609 172.24C40.3358 172.23 40.313 172.215 40.2937 172.196C40.2744 172.177 40.2591 172.154 40.2486 172.129C40.2381 172.105 40.2326 172.078 40.2324 172.051V164.288C40.2326 164.261 40.2381 164.234 40.2486 164.209C40.2591 164.184 40.2744 164.162 40.2937 164.143C40.313 164.124 40.3358 164.109 40.3609 164.099C40.386 164.088 40.4128 164.083 40.4399 164.084H42.0741C42.1012 164.083 42.1281 164.088 42.1532 164.099C42.1782 164.109 42.2011 164.124 42.2203 164.143C42.2396 164.162 42.2549 164.184 42.2655 164.209C42.276 164.234 42.2815 164.261 42.2816 164.288V172.051C42.2815 172.078 42.276 172.105 42.2655 172.129C42.2549 172.154 42.2396 172.177 42.2203 172.196C42.2011 172.215 42.1782 172.23 42.1532 172.24C42.1281 172.25 42.1012 172.255 42.0741 172.255ZM46.5823 172.255H44.9481C44.921 172.255 44.8942 172.25 44.8691 172.24C44.844 172.23 44.8212 172.215 44.8019 172.196C44.7826 172.177 44.7673 172.154 44.7568 172.129C44.7463 172.105 44.7408 172.078 44.7406 172.051V164.288C44.7408 164.261 44.7463 164.234 44.7568 164.209C44.7673 164.184 44.7826 164.162 44.8019 164.143C44.8212 164.124 44.844 164.109 44.8691 164.099C44.8942 164.088 44.921 164.083 44.9481 164.084H46.5823C46.6094 164.083 46.6363 164.088 46.6613 164.099C46.6864 164.109 46.7093 164.124 46.7285 164.143C46.7478 164.162 46.7631 164.184 46.7736 164.209C46.7842 164.234 46.7897 164.261 46.7898 164.288V172.051C46.7897 172.078 46.7842 172.105 46.7736 172.129C46.7631 172.154 46.7478 172.177 46.7285 172.196C46.7093 172.215 46.6864 172.23 46.6613 172.24C46.6363 172.25 46.6094 172.255 46.5823 172.255Z"
										fill="#3F3D56"
									/>
									<path
										d="M29.6791 164.295V172.043C29.6771 172.079 29.6848 172.115 29.7015 172.146C29.7183 172.178 29.7433 172.205 29.774 172.224C29.8047 172.243 29.8399 172.253 29.876 172.253C29.912 172.254 29.9475 172.245 29.9788 172.227L36.1391 168.353C36.1693 168.333 36.194 168.306 36.2111 168.274C36.2282 168.242 36.2371 168.207 36.2371 168.17C36.2371 168.134 36.2282 168.099 36.2111 168.067C36.194 168.035 36.1693 168.008 36.1391 167.988L29.9788 164.114C29.9478 164.096 29.9124 164.086 29.8763 164.086C29.8403 164.086 29.8049 164.096 29.7741 164.115C29.7433 164.133 29.7181 164.16 29.7014 164.192C29.6846 164.224 29.6769 164.259 29.6791 164.295Z"
										fill="#FF4694"
									/>
									<path
										d="M262.791 158.801H30.9941V160.299H262.791V158.801Z"
										fill="#2F2E41"
									/>
									<path
										d="M71.3801 158.801H30.9941V160.299H71.3801V158.801Z"
										fill="#FF4694"
									/>
									<path
										d="M125.479 182.397H19.1602V186.517H125.479V182.397Z"
										fill="#F2F2F2"
									/>
									<path
										d="M42.4525 191.76H19.1602V195.88H42.4525V191.76Z"
										fill="#F2F2F2"
									/>
									<path
										d="M342.624 40.0747H284.393V62.9211H342.624V40.0747Z"
										fill="#F2F2F2"
									/>
									<path
										d="M335.298 69.2886H291.718V73.0339H335.298V69.2886Z"
										fill="#F2F2F2"
									/>
									<path
										d="M335.298 76.0298H291.718V79.7751H335.298V76.0298Z"
										fill="#F2F2F2"
									/>
									<path
										d="M335.298 82.7715H291.718V86.5168H335.298V82.7715Z"
										fill="#F2F2F2"
									/>
									<path
										d="M342.624 100.375H284.393V123.221H342.624V100.375Z"
										fill="#F2F2F2"
									/>
									<path
										d="M335.298 129.588H291.718V133.333H335.298V129.588Z"
										fill="#F2F2F2"
									/>
									<path
										d="M335.298 136.33H291.718V140.075H335.298V136.33Z"
										fill="#F2F2F2"
									/>
									<path
										d="M335.298 143.071H291.718V146.817H335.298V143.071Z"
										fill="#F2F2F2"
									/>
									<path
										d="M248.651 159.487L247.875 158.903C245.118 156.79 243.3 155.42 243.134 153.531C243.096 153.172 243.131 152.81 243.236 152.464C243.341 152.119 243.515 151.799 243.747 151.522C243.979 151.244 244.264 151.016 244.586 150.851C244.907 150.686 245.259 150.587 245.62 150.559C246.046 150.525 246.474 150.583 246.875 150.729C247.276 150.876 247.64 151.108 247.942 151.409C248.187 151.06 248.505 150.769 248.874 150.555C249.244 150.341 249.655 150.21 250.081 150.17C250.441 150.135 250.804 150.172 251.15 150.279C251.496 150.386 251.816 150.561 252.093 150.794C252.369 151.026 252.596 151.312 252.76 151.634C252.924 151.956 253.021 152.307 253.047 152.667C253.212 154.556 251.66 156.219 249.313 158.778L248.651 159.487Z"
										fill="#FF6584"
									/>
									<path
										d="M257.829 149.858L257.404 148.987C255.91 145.856 254.913 143.812 255.626 142.054C255.756 141.718 255.952 141.41 256.203 141.15C256.454 140.89 256.755 140.683 257.087 140.541C257.42 140.399 257.778 140.325 258.14 140.324C258.502 140.322 258.86 140.393 259.194 140.532C259.59 140.694 259.945 140.939 260.235 141.251C260.526 141.563 260.744 141.935 260.876 142.34C261.254 142.14 261.67 142.024 262.096 142.001C262.523 141.978 262.949 142.047 263.346 142.205C263.683 142.336 263.99 142.533 264.25 142.785C264.509 143.037 264.715 143.338 264.855 143.671C264.995 144.003 265.067 144.361 265.067 144.721C265.066 145.082 264.993 145.439 264.852 145.771C264.139 147.529 261.998 148.309 258.742 149.526L257.829 149.858Z"
										fill="#FF6584"
									/>
									<path
										d="M254.072 174.952L253.647 174.081C252.153 170.949 251.156 168.906 251.869 167.148C251.999 166.811 252.195 166.504 252.446 166.244C252.697 165.984 252.998 165.777 253.331 165.635C253.663 165.493 254.021 165.419 254.383 165.418C254.745 165.416 255.104 165.487 255.438 165.626C255.833 165.787 256.188 166.033 256.478 166.345C256.769 166.657 256.988 167.029 257.12 167.434C257.497 167.234 257.913 167.118 258.339 167.095C258.766 167.071 259.192 167.141 259.589 167.298C259.926 167.43 260.234 167.627 260.493 167.879C260.752 168.131 260.958 168.432 261.098 168.764C261.239 169.097 261.311 169.454 261.31 169.815C261.309 170.176 261.236 170.533 261.095 170.865C260.382 172.623 258.242 173.403 254.985 174.62L254.072 174.952Z"
										fill="#FF6584"
									/>
								</svg>