<svg
									width="287"
									height="200"
									viewBox="0 0 287 200"
									fill="none"
									xmlns="http://www.w3.org/2000/svg"
								>
									<g clipPath="url(#clip0)">
										<path
											opacity="0.1"
											d="M269.103 116.614C259.165 130.286 262.445 149.8 268.19 165.346C270.114 170.551 272.3 176.055 271.302 181.718C270.083 188.64 264.356 193.826 258.403 196.651C247.551 201.799 234.731 200.977 225.023 194.49C216.645 188.892 210.748 179.588 202.208 174.256C187.916 165.336 169.361 169.322 153.454 176.132C142.201 180.949 129.873 187.154 118.906 182.705C111.189 179.575 105.992 171.607 103.258 163.089C101.938 158.977 101.014 154.513 98.3842 151.294C96.8204 149.38 94.7539 148.046 92.6291 146.932C73.2366 136.752 48.2922 143.114 29.4913 131.756C16.7982 124.086 8.89803 109.201 5.6156 93.5526C2.33317 77.9041 3.14553 61.3853 4.45292 45.1489C5.38205 33.6104 6.85191 21.2804 13.7722 12.213C21.091 2.62385 33.3576 -1.18839 44.3269 0.31564C55.2963 1.81967 65.1283 7.93503 73.7342 15.2134C84.4903 24.3114 94.3935 35.7303 107.78 39.1811C116.896 41.5326 126.581 39.8683 136.057 39.1328C151.898 37.9062 167.683 39.3186 183.372 40.9142C198.39 42.4411 213.513 44.1462 227.737 49.152C237.802 52.6945 245.781 59.3901 255.258 63.9658C261.434 66.9484 268.23 67.6406 274.044 71.4936C281.218 76.2398 287.701 84.6481 285.597 94.7385C283.609 104.328 274.379 109.359 269.103 116.614Z"
											fill="#FF4694"
										/>
										<path
											d="M146.351 40.4409H99.0714C97.7241 40.4409 96.6318 41.5359 96.6318 42.8866V73.1249C96.6318 74.4756 97.7241 75.5705 99.0714 75.5705H146.351C147.698 75.5705 148.79 74.4756 148.79 73.1249V42.8866C148.79 41.5359 147.698 40.4409 146.351 40.4409Z"
											fill="#474059"
										/>
										<path
											d="M147.583 44.543H97.7295V73.2416H147.583V44.543Z"
											fill="white"
										/>
										<path
											d="M122.656 43.5353C122.899 43.5353 123.095 43.3222 123.095 43.0594C123.095 42.7966 122.899 42.5835 122.656 42.5835C122.413 42.5835 122.217 42.7966 122.217 43.0594C122.217 43.3222 122.413 43.5353 122.656 43.5353Z"
											fill="white"
										/>
										<path
											d="M127.144 74.2981H118.005V83.9687H127.144V74.2981Z"
											fill="#474059"
										/>
										<path
											d="M117.243 83.2051H128.413C128.817 83.2051 129.204 83.3659 129.49 83.6523C129.775 83.9387 129.936 84.327 129.936 84.732H115.72C115.72 84.327 115.88 83.9387 116.166 83.6523C116.451 83.3659 116.839 83.2051 117.243 83.2051Z"
											fill="#474059"
										/>
										<path
											d="M96.6809 91.3486H59.1094V104.328H96.6809V91.3486Z"
											fill="#C0BCCF"
										/>
										<path
											d="M220.565 84.9866H212.441V155.734H220.565V84.9866Z"
											fill="#C0BCCF"
										/>
										<path
											opacity="0.1"
											d="M96.6809 91.3486H59.1094V92.1121H96.6809V91.3486Z"
											fill="black"
										/>
										<path
											opacity="0.1"
											d="M220.565 84.9866H212.441V92.1122H220.565V84.9866Z"
											fill="black"
										/>
										<path
											d="M96.6809 103.819H59.1094V116.798H96.6809V103.819Z"
											fill="#C0BCCF"
										/>
										<path
											d="M77.8951 112.471C79.1569 112.471 80.1798 111.446 80.1798 110.181C80.1798 108.916 79.1569 107.89 77.8951 107.89C76.6333 107.89 75.6104 108.916 75.6104 110.181C75.6104 111.446 76.6333 112.471 77.8951 112.471Z"
											fill="#FF4694"
										/>
										<path
											d="M77.8951 100.001C79.1569 100.001 80.1798 98.9758 80.1798 97.7108C80.1798 96.4459 79.1569 95.4204 77.8951 95.4204C76.6333 95.4204 75.6104 96.4459 75.6104 97.7108C75.6104 98.9758 76.6333 100.001 77.8951 100.001Z"
											fill="#FF4694"
										/>
										<path
											d="M96.6809 116.798H59.1094V129.777H96.6809V116.798Z"
											fill="#C0BCCF"
										/>
										<path
											d="M77.8951 125.196C79.1569 125.196 80.1798 124.17 80.1798 122.905C80.1798 121.64 79.1569 120.615 77.8951 120.615C76.6333 120.615 75.6104 121.64 75.6104 122.905C75.6104 124.17 76.6333 125.196 77.8951 125.196Z"
											fill="#FF4694"
										/>
										<path
											d="M96.6809 129.776H59.1094V142.755H96.6809V129.776Z"
											fill="#C0BCCF"
										/>
										<path
											d="M77.8951 138.175C79.1569 138.175 80.1798 137.149 80.1798 135.884C80.1798 134.619 79.1569 133.594 77.8951 133.594C76.6333 133.594 75.6104 134.619 75.6104 135.884C75.6104 137.149 76.6333 138.175 77.8951 138.175Z"
											fill="#FF4694"
										/>
										<path
											d="M96.6809 142.755H59.1094V155.734H96.6809V142.755Z"
											fill="#C0BCCF"
										/>
										<path
											d="M77.8951 151.154C79.1569 151.154 80.1798 150.128 80.1798 148.863C80.1798 147.598 79.1569 146.573 77.8951 146.573C76.6333 146.573 75.6104 147.598 75.6104 148.863C75.6104 150.128 76.6333 151.154 77.8951 151.154Z"
											fill="#FF4694"
										/>
										<path
											opacity="0.1"
											d="M96.6809 116.034H59.1094V117.052H96.6809V116.034Z"
											fill="black"
										/>
										<path
											opacity="0.1"
											d="M96.6809 103.31H59.1094V104.328H96.6809V103.31Z"
											fill="black"
										/>
										<path
											opacity="0.1"
											d="M96.6809 129.013H59.1094V130.031H96.6809V129.013Z"
											fill="black"
										/>
										<path
											opacity="0.1"
											d="M96.6809 141.992H59.1094V143.01H96.6809V141.992Z"
											fill="black"
										/>
										<path
											d="M38.4882 146.392C38.4882 146.392 37.6504 121.513 24.2237 107.455C18.588 101.556 14.8867 94.0639 13.9068 85.9559C13.4487 82.108 13.3433 78.2261 13.592 74.3589"
											stroke="#535461"
											strokeWidth="2"
											strokeMiterlimit="10"
										/>
										<path
											d="M5.18183 65.4569C6.10081 68.2359 13.7827 74.6185 13.7827 74.6185C13.7827 74.6185 16.136 64.8945 15.217 62.118C14.7756 60.784 13.8237 59.6804 12.5707 59.0499C11.3176 58.4194 9.86609 58.3138 8.53534 58.7562C7.2046 59.1987 6.10368 60.1529 5.47478 61.4091C4.84587 62.6652 4.7405 64.1203 5.18183 65.4544V65.4569Z"
											fill="#FF4694"
										/>
										<path
											d="M1.9775 83.5996C4.26225 85.4319 14.1628 86.6076 14.1628 86.6076C14.1628 86.6076 10.8626 77.1636 8.5779 75.3338C7.48415 74.4543 6.0867 74.0465 4.69297 74.1999C3.29924 74.3533 2.02339 75.0555 1.1461 76.152C0.268817 77.2484 -0.138049 78.6493 0.0150111 80.0465C0.168072 81.4437 0.868521 82.7227 1.96227 83.6021L1.9775 83.5996Z"
											fill="#FF4694"
										/>
										<path
											d="M11.0407 109.774C13.9297 110.201 23.0763 106.211 23.0763 106.211C23.0763 106.211 15.4731 99.7188 12.5867 99.2887C11.1998 99.0832 9.78818 99.4384 8.66249 100.276C7.53679 101.114 6.7892 102.366 6.58419 103.756C6.37917 105.147 6.73352 106.562 7.56929 107.69C8.40505 108.819 9.65376 109.568 11.0407 109.774Z"
											fill="#FF4694"
										/>
										<path
											d="M22.3421 128.031C25.1168 128.942 34.8067 126.55 34.8067 126.55C34.8067 126.55 28.4069 118.872 25.6322 117.961C24.3001 117.522 22.8487 117.632 21.5973 118.266C20.3459 118.9 19.3971 120.006 18.9594 121.341C18.5218 122.677 18.6313 124.132 19.2637 125.386C19.8962 126.641 20.9999 127.592 22.332 128.031H22.3421Z"
											fill="#FF4694"
										/>
										<path
											d="M24.8812 83.6427C23.5332 86.2384 14.9374 91.3231 14.9374 91.3231C14.9374 91.3231 14.1555 81.3497 15.5035 78.7514C15.8239 78.1341 16.2624 77.5862 16.7941 77.1388C17.3257 76.6914 17.94 76.3534 18.6019 76.144C19.2639 75.9346 19.9605 75.858 20.6519 75.9185C21.3434 75.979 22.0162 76.1755 22.632 76.4966C23.2477 76.8178 23.7943 77.2574 24.2406 77.7903C24.6869 78.3233 25.0241 78.9391 25.2329 79.6027C25.4418 80.2662 25.5182 80.9645 25.4579 81.6577C25.3975 82.3509 25.2016 83.0254 24.8812 83.6427Z"
											fill="#FF4694"
										/>
										<path
											d="M37.8299 105.162C35.7686 107.236 26.0508 109.506 26.0508 109.506C26.0508 109.506 28.2822 99.7544 30.341 97.6803C31.3304 96.6847 32.6738 96.124 34.0756 96.1213C35.4774 96.1187 36.8229 96.6745 37.816 97.6663C38.8091 98.6581 39.3685 100.005 39.3711 101.41C39.3737 102.815 38.8193 104.164 37.8299 105.16V105.162Z"
											fill="#FF4694"
										/>
										<path
											d="M47.5537 127.809C45.8732 130.201 36.6758 134.087 36.6758 134.087C36.6758 134.087 37.2292 124.099 38.9123 121.704C39.3017 121.11 39.8062 120.601 40.3959 120.207C40.9856 119.813 41.6483 119.541 42.3447 119.409C43.0411 119.277 43.7569 119.286 44.4495 119.437C45.1422 119.588 45.7975 119.876 46.3766 120.286C46.9556 120.696 47.4465 121.218 47.8201 121.822C48.1937 122.426 48.4423 123.099 48.5512 123.801C48.6601 124.503 48.627 125.22 48.4539 125.909C48.2808 126.598 47.9712 127.245 47.5436 127.812L47.5537 127.809Z"
											fill="#FF4694"
										/>
										<path
											d="M35.5381 136.096C35.5381 136.096 43.1539 124.99 41.8186 114.54C41.2302 110.161 42.0747 105.709 44.2252 101.852C45.2595 100.026 46.4585 98.2993 47.8072 96.6931"
											stroke="#535461"
											strokeWidth="2"
											strokeMiterlimit="10"
										/>
										<path
											d="M47.0053 90.1119C46.5153 91.6184 47.81 96.8762 47.81 96.8762C47.81 96.8762 51.9556 93.3998 52.4455 91.8958C52.5622 91.5377 52.6074 91.1601 52.5785 90.7845C52.5496 90.4089 52.4472 90.0427 52.2771 89.7068C52.107 89.3708 51.8726 89.0718 51.5872 88.8267C51.3018 88.5816 50.9711 88.3952 50.6139 88.2783C49.8925 88.042 49.107 88.1028 48.4302 88.4471C47.7535 88.7915 47.2409 89.3912 47.0053 90.1144V90.1119Z"
											fill="#FF4694"
										/>
										<path
											d="M39.7877 96.9779C40.1913 98.5048 44.1312 102.218 44.1312 102.218C44.1312 102.218 45.7255 97.0415 45.3218 95.5095C45.2257 95.1452 45.0589 94.8035 44.8309 94.5039C44.603 94.2042 44.3185 93.9525 43.9935 93.7631C43.6685 93.5737 43.3096 93.4503 42.937 93.4C42.5645 93.3496 42.1857 93.3734 41.8224 93.4698C41.459 93.5662 41.1181 93.7334 40.8192 93.9619C40.5203 94.1904 40.2692 94.4756 40.0802 94.8014C39.8913 95.1272 39.7682 95.487 39.718 95.8605C39.6678 96.2339 39.6915 96.6136 39.7877 96.9779Z"
											fill="#FF4694"
										/>
										<path
											d="M35.3352 111.298C36.4547 112.415 41.7223 113.624 41.7223 113.624C41.7223 113.624 40.4936 108.348 39.3716 107.231C38.833 106.695 38.1038 106.395 37.3444 106.397C36.5851 106.399 35.8578 106.704 35.3225 107.244C34.7872 107.784 34.4879 108.515 34.4902 109.276C34.4926 110.037 34.7966 110.767 35.3352 111.303V111.298Z"
											fill="#FF4694"
										/>
										<path
											d="M34.4011 122.905C35.3175 124.195 40.3059 126.28 40.3059 126.28C40.3059 126.28 39.9835 120.872 39.067 119.581C38.6274 118.961 37.9599 118.541 37.2115 118.414C36.4631 118.288 35.6951 118.464 35.0763 118.905C34.4576 119.345 34.0388 120.014 33.9122 120.765C33.7856 121.515 33.9614 122.285 34.4011 122.905Z"
											fill="#FF4694"
										/>
										<path
											d="M49.7465 104.384C48.3274 105.081 42.9531 104.521 42.9531 104.521C42.9531 104.521 45.8116 99.9249 47.2332 99.2378C47.5708 99.0722 47.9375 98.9749 48.3126 98.9514C48.6877 98.9279 49.0637 98.9787 49.4192 99.1009C49.7746 99.223 50.1026 99.4142 50.3844 99.6634C50.6662 99.9127 50.8963 100.215 51.0615 100.554C51.2266 100.892 51.3237 101.26 51.3472 101.636C51.3706 102.012 51.3199 102.388 51.1981 102.745C51.0762 103.101 50.8855 103.43 50.6369 103.712C50.3882 103.995 50.0865 104.226 49.749 104.391L49.7465 104.384Z"
											fill="#FF4694"
										/>
										<path
											d="M48.4819 117.93C46.9181 118.167 41.9678 116.034 41.9678 116.034C41.9678 116.034 46.0676 112.507 47.6314 112.268C48.3818 112.153 49.1468 112.342 49.7581 112.793C50.3694 113.244 50.7769 113.92 50.891 114.673C51.0051 115.425 50.8165 116.192 50.3666 116.805C49.9167 117.417 49.2424 117.826 48.492 117.94L48.4819 117.93Z"
											fill="#FF4694"
										/>
										<path
											d="M45.449 130.927C43.9487 131.436 38.6963 130.163 38.6963 130.163C38.6963 130.163 42.1437 125.992 43.644 125.491C44.3645 125.251 45.1504 125.308 45.8291 125.649C46.5078 125.99 47.0235 126.587 47.2628 127.309C47.5022 128.031 47.4455 128.819 47.1054 129.5C46.7652 130.18 46.1694 130.697 45.449 130.937V130.927Z"
											fill="#FF4694"
										/>
										<path
											opacity="0.5"
											d="M47.0053 90.1119C46.5153 91.6184 47.81 96.8762 47.81 96.8762C47.81 96.8762 51.9556 93.3998 52.4455 91.8958C52.5622 91.5377 52.6074 91.1601 52.5785 90.7845C52.5496 90.4089 52.4472 90.0427 52.2771 89.7068C52.107 89.3708 51.8726 89.0718 51.5872 88.8267C51.3018 88.5816 50.9711 88.3952 50.6139 88.2783C49.8925 88.042 49.107 88.1028 48.4302 88.4471C47.7535 88.7915 47.2409 89.3912 47.0053 90.1144V90.1119Z"
											fill="white"
										/>
										<path
											opacity="0.5"
											d="M39.7877 96.9779C40.1913 98.5048 44.1312 102.218 44.1312 102.218C44.1312 102.218 45.7255 97.0415 45.3218 95.5095C45.2257 95.1452 45.0589 94.8035 44.8309 94.5039C44.603 94.2042 44.3185 93.9525 43.9935 93.7631C43.6685 93.5737 43.3096 93.4503 42.937 93.4C42.5645 93.3496 42.1857 93.3734 41.8224 93.4698C41.459 93.5662 41.1181 93.7334 40.8192 93.9619C40.5203 94.1904 40.2692 94.4756 40.0802 94.8014C39.8913 95.1272 39.7682 95.487 39.718 95.8605C39.6678 96.2339 39.6915 96.6136 39.7877 96.9779Z"
											fill="white"
										/>
										<path
											opacity="0.5"
											d="M35.3352 111.298C36.4547 112.415 41.7223 113.624 41.7223 113.624C41.7223 113.624 40.4936 108.348 39.3716 107.231C38.833 106.695 38.1038 106.395 37.3444 106.397C36.5851 106.399 35.8578 106.704 35.3225 107.244C34.7872 107.784 34.4879 108.515 34.4902 109.276C34.4926 110.037 34.7966 110.767 35.3352 111.303V111.298Z"
											fill="white"
										/>
										<path
											opacity="0.5"
											d="M34.4011 122.905C35.3175 124.195 40.3059 126.28 40.3059 126.28C40.3059 126.28 39.9835 120.872 39.067 119.581C38.6274 118.961 37.9599 118.541 37.2115 118.414C36.4631 118.288 35.6951 118.464 35.0763 118.905C34.4576 119.345 34.0388 120.014 33.9122 120.765C33.7856 121.515 33.9614 122.285 34.4011 122.905Z"
											fill="white"
										/>
										<path
											opacity="0.5"
											d="M49.7465 104.384C48.3274 105.081 42.9531 104.521 42.9531 104.521C42.9531 104.521 45.8116 99.9249 47.2332 99.2378C47.5708 99.0722 47.9375 98.9749 48.3126 98.9514C48.6877 98.9279 49.0637 98.9787 49.4192 99.1009C49.7746 99.223 50.1026 99.4142 50.3844 99.6634C50.6662 99.9127 50.8963 100.215 51.0615 100.554C51.2266 100.892 51.3237 101.26 51.3472 101.636C51.3706 102.012 51.3199 102.388 51.1981 102.745C51.0762 103.101 50.8855 103.43 50.6369 103.712C50.3882 103.995 50.0865 104.226 49.749 104.391L49.7465 104.384Z"
											fill="white"
										/>
										<path
											opacity="0.5"
											d="M48.4819 117.93C46.9181 118.167 41.9678 116.034 41.9678 116.034C41.9678 116.034 46.0676 112.507 47.6314 112.268C48.3818 112.153 49.1468 112.342 49.7581 112.793C50.3694 113.244 50.7769 113.92 50.891 114.673C51.0051 115.425 50.8165 116.192 50.3666 116.805C49.9167 117.417 49.2424 117.826 48.492 117.94L48.4819 117.93Z"
											fill="white"
										/>
										<path
											opacity="0.5"
											d="M45.449 130.927C43.9487 131.436 38.6963 130.163 38.6963 130.163C38.6963 130.163 42.1437 125.992 43.644 125.491C44.3645 125.251 45.1504 125.308 45.8291 125.649C46.5078 125.99 47.0235 126.587 47.2628 127.309C47.5022 128.031 47.4455 128.819 47.1054 129.5C46.7652 130.18 46.1694 130.697 45.449 130.937V130.927Z"
											fill="white"
										/>
										<path
											d="M49.6296 166.209H27.9676L22.5527 133.092H55.047L49.6296 166.209Z"
											fill="#474059"
										/>
										<path
											opacity="0.1"
											d="M50.899 133.092L45.8395 164.038H27.6123L27.9677 166.209H49.6297L55.0471 133.092H50.899Z"
											fill="black"
										/>
										<path
											d="M221.58 83.9685H58.3477V91.6032H221.58V83.9685Z"
											fill="#C0BCCF"
										/>
										<path
											d="M122.321 46.5281H98.9658V71.272H122.321V46.5281Z"
											fill="#E8EAF1"
										/>
										<path
											d="M121.812 47.0676H99.4727V70.7351H121.812V47.0676Z"
											fill="white"
										/>
										<path
											d="M119.396 64.317C119.708 61.8382 119.083 61.683 119.083 61.683L118.187 61.2529C118.202 61.1075 118.208 60.9613 118.205 60.8152C118.212 60.694 118.212 60.5725 118.205 60.4513C118.116 59.474 117.537 58.6215 117.126 57.7308C116.748 56.9082 116.51 56.0284 116.42 55.1274C116.311 54.0153 116.42 52.8599 116.04 51.819C115.685 50.9821 115.144 50.2378 114.458 49.6431C113.731 48.9094 112.869 48.3235 111.919 47.9177C110.958 47.5124 109.879 47.4815 108.896 47.8312C108.033 48.1722 107.373 48.8491 106.718 49.5184C106.246 49.9648 105.832 50.4693 105.487 51.0199C105.124 51.7299 104.89 52.4983 104.794 53.29C104.587 54.5467 104.445 55.8131 104.367 57.0844C104.299 58.1431 104.194 59.3468 103.352 59.9983C102.938 60.3164 102.359 60.4945 102.169 60.9755C102.116 61.1203 102.095 61.2749 102.108 61.4285C102.103 61.5571 102.111 61.686 102.133 61.8128C102.133 61.8866 102.161 61.9604 102.176 62.0342C101.934 62.6822 101.73 63.3442 101.567 64.0167C100.993 66.3091 100.575 68.6379 100.315 70.9871H115.375C115.517 71.0045 115.661 71.0045 115.804 70.9871H119.721L119.396 64.317Z"
											fill="url(#paint0_linear)"
										/>
										<path
											d="M115.012 54.0381H106.368V60.5759H115.012V54.0381Z"
											fill="#B96B6B"
										/>
										<path
											opacity="0.1"
											d="M115.012 54.0381H106.368V60.5759H115.012V54.0381Z"
											fill="black"
										/>
										<path
											d="M115.316 60.8787L111.98 65.5918L108.48 65.289C108.48 65.289 103.931 65.5918 106.957 62.0952C108.414 60.4155 108.891 59.0158 108.987 58.0233C109.072 57.4484 108.998 56.8611 108.772 56.3259L112.564 55.8704C112.394 56.3823 112.373 56.9323 112.503 57.4558C112.996 59.4256 115.316 60.8787 115.316 60.8787Z"
											fill="#FFB9B9"
										/>
										<path
											opacity="0.1"
											d="M112.524 57.4482C112.029 57.8231 111.45 58.0703 110.837 58.1684C110.225 58.2665 109.598 58.2123 109.011 58.0106C109.096 57.4357 109.021 56.8484 108.795 56.3132L112.588 55.8577C112.415 56.3709 112.393 56.9228 112.524 57.4482Z"
											fill="black"
										/>
										<path
											d="M110.234 58.0668C112.329 58.0668 114.027 56.3645 114.027 54.2647C114.027 52.1649 112.329 50.4626 110.234 50.4626C108.139 50.4626 106.441 52.1649 106.441 54.2647C106.441 56.3645 108.139 58.0668 110.234 58.0668Z"
											fill="#FFB9B9"
										/>
										<path
											opacity="0.1"
											d="M110.463 64.3728C110.463 64.3728 111.829 62.7008 111.829 61.3317C112.016 60.9687 112.273 60.6467 112.585 60.3845C112.898 60.1224 113.259 59.9253 113.649 59.8048C115.015 59.3492 114.862 59.8048 114.862 59.8048L115.771 63.4541L115.469 69.9919L115.621 70.7554H104.396L105.157 67.7143L105.002 65.1363L105.609 61.1841L107.429 60.1203L108.795 61.945L110.463 64.3728Z"
											fill="black"
										/>
										<path
											d="M110.463 64.5281C110.463 64.5281 111.829 62.8561 111.829 61.487C112.016 61.124 112.273 60.802 112.585 60.5398C112.898 60.2776 113.259 60.0805 113.649 59.96C115.015 59.5045 114.862 59.96 114.862 59.96L115.771 63.6094L115.469 70.1472L115.621 70.9107H104.396L105.157 67.8695L105.005 65.2839L105.612 61.3317L107.432 60.268L108.797 62.0926L110.463 64.5281Z"
											fill="#FEC5D9"
										/>
										<path
											opacity="0.1"
											d="M108.341 59.8149L103.639 60.5784C103.639 60.5784 102.878 60.4257 101.971 64.0751C101.415 66.3256 101.009 68.6109 100.758 70.9157H106.622C106.622 70.9157 106.975 64.8335 107.891 64.3779L109.161 62.4107C109.161 62.4107 107.13 62.2504 107.429 61.1866C107.729 60.1229 108.341 59.8149 108.341 59.8149Z"
											fill="black"
										/>
										<path
											d="M108.188 59.8149L103.487 60.5784C103.487 60.5784 102.725 60.4257 101.819 64.0751C101.264 66.3249 100.86 68.6093 100.61 70.9132H106.475C106.475 70.9132 106.827 64.8309 107.744 64.3754L109.013 62.4082C109.013 62.4082 106.982 62.2479 107.282 61.1841C107.581 60.1203 108.188 59.8149 108.188 59.8149Z"
											fill="#747B9C"
										/>
										<path
											opacity="0.1"
											d="M113.648 59.3594L118.652 61.7923C118.652 61.7923 119.259 61.945 118.954 64.3779L119.256 70.9157H113.874C114.284 68.864 114.361 66.7596 114.103 64.6833C113.838 62.9202 113.686 61.1419 113.648 59.3594Z"
											fill="black"
										/>
										<path
											d="M113.811 59.3594L118.814 61.7923C118.814 61.7923 119.421 61.945 119.116 64.3779L119.418 70.9157H114.026C114.436 68.864 114.513 66.7596 114.255 64.6833C113.993 62.92 113.845 61.1417 113.811 59.3594Z"
											fill="#747B9C"
										/>
										<path
											opacity="0.1"
											d="M108.988 52.6052C108.922 53.221 108.5 53.7275 108.15 54.239C107.8 54.7505 107.495 55.3817 107.69 55.9695C107.767 56.1986 107.916 56.4021 107.97 56.6388C108.061 57.046 107.855 57.4659 107.891 57.8807C107.939 58.4508 108.422 58.8732 108.688 59.3771C109.252 60.4434 108.82 61.7642 108.211 62.8025C107.602 63.8408 106.804 64.8257 106.604 66.0142C106.419 67.1136 106.774 68.2257 107.157 69.2716C107.258 69.474 107.288 69.7041 107.244 69.9257C107.127 70.2769 106.688 70.3812 106.317 70.4067C105.912 70.432 105.506 70.432 105.101 70.4067C104.948 70.4093 104.796 70.3771 104.657 70.3125C104.378 70.1598 104.294 69.8035 104.19 69.5083C104.086 69.2131 103.857 68.8772 103.54 68.9103C103.332 68.9332 103.169 69.1113 102.963 69.1469C102.868 69.1556 102.773 69.1412 102.684 69.1049C102.596 69.0686 102.517 69.0114 102.456 68.9383C102.078 68.5285 102.169 67.8669 102.418 67.3681C102.666 66.8693 103.047 66.4341 103.212 65.9022C103.621 64.5789 102.598 63.2683 102.382 61.8991C102.335 61.6759 102.347 61.4441 102.418 61.2273C102.603 60.7539 103.164 60.5783 103.565 60.2678C104.385 59.6291 104.487 58.4457 104.553 57.4074C104.622 56.1605 104.755 54.9178 104.949 53.6842C105.041 52.9086 105.268 52.155 105.619 51.4574C105.953 50.9178 106.354 50.4227 106.812 49.9839C107.437 49.3325 108.081 48.6657 108.924 48.3298C109.876 47.9863 110.923 48.0163 111.854 48.4138C112.778 48.8169 113.616 49.3969 114.319 50.1214C114.982 50.708 115.502 51.4381 115.842 52.2565C116.215 53.2872 116.096 54.4222 116.21 55.514C116.297 56.394 116.528 57.2537 116.893 58.0589C117.291 58.9343 117.852 59.7716 117.939 60.731C118.007 61.4945 117.759 62.2579 117.632 63.0087C117.408 64.3244 117.543 65.6706 117.675 66.9965C117.693 67.3177 117.76 67.6343 117.873 67.9356C118.094 68.358 118.402 68.7285 118.777 69.0222C118.819 69.0519 118.855 69.0897 118.882 69.1334C118.909 69.1771 118.928 69.2258 118.936 69.2767C118.934 69.3204 118.921 69.363 118.901 69.4016C118.88 69.4402 118.852 69.474 118.817 69.5007C118.358 69.9104 117.563 69.6076 117.066 69.9715C116.927 70.0928 116.8 70.2275 116.687 70.3736C116.476 70.6039 116.205 70.7716 115.905 70.8584C115.605 70.9452 115.287 70.9478 114.986 70.8659C114.684 70.784 114.411 70.6208 114.196 70.3939C113.981 70.1671 113.832 69.8854 113.765 69.5796C113.636 68.9841 113.829 68.3733 113.902 67.7676C114.131 65.8564 113.156 64.0394 112.379 62.2808C112.014 61.4588 111.681 60.5681 111.816 59.6774C111.925 58.9623 112.323 58.3337 112.615 57.6721C113.202 56.3513 113.377 54.804 112.869 53.4475C112.489 52.4133 111.717 51.5711 110.722 51.1037C110.361 50.9408 109.848 50.7169 109.47 50.9357C108.848 51.292 109.038 52.0351 108.988 52.6052Z"
											fill="black"
										/>
										<path
											d="M108.988 52.4527C108.922 53.0686 108.5 53.575 108.15 54.0865C107.8 54.598 107.495 55.2292 107.69 55.817C107.767 56.0461 107.916 56.2497 107.97 56.4863C108.061 56.8935 107.855 57.3134 107.891 57.7282C107.939 58.2983 108.422 58.7207 108.688 59.2246C109.252 60.2909 108.82 61.6117 108.211 62.6501C107.602 63.6884 106.804 64.6732 106.604 65.8617C106.419 66.9611 106.774 68.0732 107.157 69.1191C107.258 69.3215 107.288 69.5516 107.244 69.7732C107.127 70.1244 106.688 70.2287 106.317 70.2542C105.912 70.2795 105.506 70.2795 105.101 70.2542C104.948 70.2568 104.796 70.2246 104.657 70.16C104.378 70.0073 104.294 69.651 104.19 69.3558C104.086 69.0606 103.857 68.7247 103.54 68.7578C103.332 68.7807 103.169 68.9588 102.963 68.9944C102.868 69.0032 102.773 68.9887 102.684 68.9524C102.596 68.9161 102.517 68.8589 102.456 68.7858C102.078 68.376 102.169 67.7144 102.418 67.2156C102.666 66.7168 103.047 66.2816 103.212 65.7497C103.621 64.4264 102.598 63.1158 102.382 61.7466C102.335 61.5234 102.347 61.2916 102.418 61.0748C102.603 60.6014 103.164 60.4258 103.565 60.1153C104.385 59.4766 104.487 58.2932 104.553 57.2549C104.627 56.0069 104.765 54.7634 104.964 53.5292C105.057 52.7535 105.283 52 105.634 51.3024C105.968 50.7628 106.369 50.2677 106.827 49.8289C107.452 49.1774 108.097 48.5107 108.939 48.1747C109.892 47.8313 110.938 47.8613 111.869 48.2587C112.79 48.6579 113.626 49.2327 114.329 49.9511C114.992 50.5377 115.513 51.2678 115.852 52.0862C116.225 53.1169 116.106 54.2519 116.22 55.3437C116.307 56.2237 116.538 57.0834 116.903 57.8886C117.302 58.764 117.863 59.6013 117.949 60.5607C118.017 61.3242 117.769 62.0876 117.642 62.8384C117.418 64.1541 117.553 65.5003 117.685 66.8262C117.701 67.1489 117.767 67.4672 117.878 67.7704C118.099 68.1928 118.407 68.5633 118.782 68.857C118.824 68.8867 118.86 68.9245 118.887 68.9682C118.915 69.0119 118.933 69.0606 118.942 69.1115C118.939 69.1552 118.927 69.1978 118.906 69.2364C118.885 69.275 118.857 69.3088 118.822 69.3355C118.363 69.7452 117.568 69.4424 117.071 69.8063C116.932 69.9276 116.805 70.0622 116.692 70.2084C116.481 70.4387 116.21 70.6064 115.91 70.6932C115.61 70.78 115.292 70.7826 114.991 70.7007C114.689 70.6188 114.416 70.4556 114.201 70.2287C113.986 70.0019 113.837 69.7202 113.77 69.4144C113.641 68.8188 113.834 68.2081 113.907 67.6024C114.136 65.6912 113.161 63.8741 112.384 62.1156C112.019 61.2936 111.686 60.4029 111.821 59.5122C111.93 58.7971 112.328 58.1685 112.62 57.5068C113.207 56.186 113.382 54.6388 112.874 53.2823C112.494 52.2481 111.722 51.4059 110.727 50.9385C110.366 50.7756 109.853 50.5517 109.475 50.7705C108.848 51.1395 109.038 51.8852 108.988 52.4527Z"
											fill="#B96B6B"
										/>
										<path
											d="M145.422 48.0857H127.144V48.8492H145.422V48.0857Z"
											fill="#E8EAF1"
										/>
										<path
											d="M145.422 50.1216H127.144V50.8851H145.422V50.1216Z"
											fill="#E8EAF1"
										/>
										<path
											d="M145.422 52.1575H127.144V52.9209H145.422V52.1575Z"
											fill="#E8EAF1"
										/>
										<path
											d="M145.422 54.1934H127.144V54.9568H145.422V54.1934Z"
											fill="#E8EAF1"
										/>
										<path
											d="M145.422 56.2292H127.144V56.9927H145.422V56.2292Z"
											fill="#E8EAF1"
										/>
										<path
											d="M145.422 58.2651H127.144V59.0286H145.422V58.2651Z"
											fill="#E8EAF1"
										/>
										<path
											d="M145.422 60.301H127.144V61.0645H145.422V60.301Z"
											fill="#E8EAF1"
										/>
										<path
											d="M145.422 62.3369H127.144V63.1004H145.422V62.3369Z"
											fill="#E8EAF1"
										/>
										<path
											d="M145.422 64.373H127.144V65.1365H145.422V64.373Z"
											fill="#E8EAF1"
										/>
										<path
											d="M145.422 66.4087H127.144V67.1722H145.422V66.4087Z"
											fill="#E8EAF1"
										/>
										<path
											d="M145.422 68.4448H127.144V69.2083H145.422V68.4448Z"
											fill="#E8EAF1"
										/>
										<path
											d="M192.307 108.518C193.793 104.982 194.167 101.066 193.38 97.3051C192.46 92.8136 191.86 88.2609 191.584 83.682C191.296 79.2945 190.666 76.4522 189.979 74.6102C189.979 74.6102 190.243 68.6391 186.26 65.5257C182.277 62.4122 172.98 57.4798 172.98 57.4798L173.91 53.6244H173.872C174.152 53.5339 174.42 53.4093 174.67 53.2534C174.936 53.0851 175.177 52.8812 175.388 52.6471C176.961 51.2503 176.983 48.6868 177.729 46.6453C178.303 45.0745 179.379 43.7288 180.15 42.2399C181.554 39.5281 181.881 36.1997 180.576 33.4419C179.271 30.684 176.18 28.7013 173.093 29.0569C172.096 29.2104 171.119 29.4773 170.181 29.8525C167.946 30.6507 166.182 28.3917 163.948 29.1925C162.826 29.5941 158.642 30.0291 157.735 31.1982C157.527 31.3358 157.375 31.5446 157.306 31.7866C157.07 32.9225 159.118 35.1969 160.637 37.0133C159.43 38.502 158.769 40.3702 158.768 42.2987C158.768 42.3422 158.768 42.3857 158.768 42.4292C158.768 42.4727 158.768 42.5162 158.768 42.5597C158.77 43.6782 158.993 44.7848 159.424 45.8143C159.854 46.8438 160.484 47.7753 161.274 48.5538C161.146 49.6948 160.955 50.9791 160.68 52.2941H160.496C160.496 52.2941 159.433 56.9656 155.981 56.9656C155.059 56.9656 153.799 56.9093 152.454 56.83C148.388 56.6212 144.316 57.0976 140.403 58.2396C139.058 58.6208 137.577 58.654 136.337 57.7458C133.374 55.5738 130.184 50.0428 129.749 49.2727C130.081 47.0291 130.036 42.9204 125.448 42.1734C120.069 41.2984 120.364 47.6277 123.458 51.6545C123.381 51.8551 123.33 52.0649 123.306 52.2787C123.042 55.6531 126.229 61.8826 127.025 62.6604C127.821 63.4381 127.841 68.368 133.409 69.6753C138.977 70.9826 145.906 71.2298 146.158 77.7203C146.41 84.2107 148.813 91.2188 146.158 98.7479C144.563 103.266 144.979 105.632 145.566 106.802C145.518 106.955 145.472 107.106 145.422 107.262C144.817 109.127 146.254 110.794 145.422 111.917C145.231 112.173 143.184 113.703 143.005 113.99C140.843 115.412 138.259 115.955 137.388 116.925C135.528 119.002 136.324 127.306 137.388 130.681C138.451 134.055 145.09 154.56 145.09 154.56H145.341L145.422 155.072L145.689 156.771C145.602 156.723 145.518 156.67 145.437 156.612C145.386 156.575 145.327 156.551 145.265 156.54C145.203 156.529 145.139 156.531 145.079 156.548C145.018 156.565 144.961 156.594 144.913 156.636C144.865 156.677 144.826 156.728 144.8 156.786L143.502 159.728C143.502 159.728 138.191 157.397 137.919 162.849C137.919 163.067 137.919 163.274 137.919 163.473C137.907 166.372 139.479 167.451 140.827 167.84C142.065 168.178 143.236 168.73 144.288 169.473C145.566 170.404 147.511 171.355 149.723 170.839C150.17 170.737 150.628 170.694 151.086 170.711C152.041 170.739 153.656 170.455 153.605 168.291C153.616 168.12 153.616 167.949 153.605 167.779C153.605 167.779 152.484 163.397 152.436 161.383C152.431 161.178 152.467 160.975 152.542 160.785C152.731 160.416 152.794 159.72 152.776 158.976C152.776 158.326 152.744 157.676 152.678 157.029C152.671 156.968 152.645 156.911 152.604 156.865C152.564 156.819 152.511 156.787 152.452 156.773C152.393 156.759 152.331 156.763 152.275 156.786C152.218 156.808 152.17 156.847 152.136 156.898L152.094 156.957C151.922 156.382 151.723 155.709 151.537 155.074L151.383 154.563H151.741C151.741 154.563 149.612 141.82 150.408 140.796C150.93 140.118 150.088 132.006 149.443 126.47C155.913 126.887 166.225 125.725 173.28 125.367C174.628 125.301 175.944 124.928 177.132 124.277C176.495 129.527 175.31 140.019 175.905 140.794C176.701 141.833 174.577 154.55 174.577 154.55H174.897L174.781 154.939H174.822C174.625 155.612 174.411 156.336 174.227 156.952L174.184 156.893C174.15 156.842 174.102 156.803 174.046 156.781C173.989 156.758 173.928 156.754 173.869 156.768C173.81 156.782 173.757 156.814 173.716 156.86C173.676 156.906 173.65 156.963 173.642 157.024C173.577 157.671 173.544 158.32 173.544 158.971C173.544 159.715 173.592 160.411 173.779 160.779C173.854 160.969 173.89 161.173 173.884 161.378C173.836 163.404 172.715 167.774 172.715 167.774C172.705 167.944 172.705 168.115 172.715 168.286C172.662 170.46 174.277 170.736 175.235 170.706C175.693 170.689 176.151 170.732 176.598 170.834C178.81 171.345 180.755 170.396 182.032 169.467C183.085 168.725 184.256 168.173 185.494 167.835C186.842 167.446 188.414 166.367 188.401 163.468C188.401 163.269 188.401 163.061 188.401 162.844C188.122 157.397 182.811 159.728 182.811 159.728L181.506 156.776C181.479 156.718 181.44 156.666 181.392 156.625C181.344 156.584 181.288 156.554 181.227 156.538C181.166 156.521 181.103 156.518 181.041 156.529C180.979 156.54 180.92 156.565 180.868 156.602C180.787 156.66 180.703 156.713 180.616 156.76L180.967 154.542H181.218C181.218 154.542 187.857 134.037 188.92 130.663C189.984 127.289 190.78 118.982 188.92 116.907C188.041 115.924 185.741 114.308 183.557 112.872C185.424 114.011 187.216 115.272 188.92 116.648L192.307 108.518ZM180.838 111.12L179.994 110.608C179.819 110.301 179.604 110.018 179.357 109.767C179.122 109.536 178.905 109.288 178.707 109.025C178.188 107.431 176.27 100.838 178.828 97.4381C180.684 94.9616 180.825 90.1776 180.679 87.0206C181.939 93.2911 183.703 102.115 183.874 103.926C184.083 106.188 181.8 109.746 180.838 111.12Z"
											fill="url(#paint1_linear)"
										/>
										<path
											d="M179.561 152.299L178.546 158.915L172.453 157.643C172.453 157.643 173.722 153.317 173.976 152.299C174.23 151.281 174.23 152.299 174.23 152.299H179.561Z"
											fill="#D6E6F9"
										/>
										<path
											d="M152.144 157.643L146.052 158.915L145.348 154.335L145.036 152.299H150.367C150.367 152.299 150.367 151.281 150.621 152.299C150.712 152.665 150.936 153.464 151.187 154.335C151.637 155.877 152.144 157.643 152.144 157.643Z"
											fill="#D6E6F9"
										/>
										<path
											opacity="0.1"
											d="M151.192 154.335H145.353L145.041 152.299H150.372C150.372 152.299 150.372 151.281 150.626 152.299C150.717 152.665 150.941 153.464 151.192 154.335Z"
											fill="black"
										/>
										<path
											opacity="0.1"
											d="M173.415 154.207H179.254L179.566 152.171H174.23C174.23 152.171 174.23 151.153 173.976 152.171C173.89 152.538 173.666 153.337 173.415 154.207Z"
											fill="black"
										/>
										<path
											d="M185.4 72.1348C185.4 72.1348 188.7 72.3893 189.462 84.3502C189.729 88.8385 190.307 93.3027 191.191 97.7109C191.945 101.392 191.591 105.215 190.175 108.695L186.923 116.67C186.923 116.67 180.831 111.58 178.8 111.835C178.8 111.835 182.354 107 182.1 104.2C181.846 101.401 177.784 81.2964 177.784 81.2964L185.4 72.1348Z"
											fill="#D6E6F9"
										/>
										<path
											d="M148.59 111.399C148.59 111.399 139.451 116.099 137.674 118.135C135.897 120.171 136.659 127.104 137.674 130.413C138.69 133.721 145.036 153.826 145.036 153.826H151.383C151.383 153.826 149.352 141.356 150.114 140.338C150.875 139.32 148.59 121.251 148.59 121.251V111.399Z"
											fill="#5F546F"
										/>
										<path
											d="M177.277 110.054C177.277 110.054 185.146 114.889 186.923 116.925C188.7 118.961 187.939 127.104 186.923 130.413C185.908 133.721 179.561 153.826 179.561 153.826H173.215C173.215 153.826 175.246 141.356 174.484 140.338C173.723 139.32 176.007 121.251 176.007 121.251L177.277 110.054Z"
											fill="#5F546F"
										/>
										<path
											opacity="0.1"
											d="M148.186 113.472C148.186 113.472 139.451 117.135 137.674 119.171C135.897 121.207 136.659 127.104 137.674 130.413C138.69 133.721 145.036 153.826 145.036 153.826H151.383C151.383 153.826 149.352 141.356 150.114 140.338C150.875 139.32 148.59 121.251 148.59 121.251L148.186 113.472Z"
											fill="black"
										/>
										<path
											opacity="0.1"
											d="M177.277 110.054C177.277 110.054 185.146 114.889 186.923 116.925C188.7 118.961 187.939 127.104 186.923 130.413C185.908 133.721 179.561 153.826 179.561 153.826H173.215C173.215 153.826 175.246 141.356 174.484 140.338C173.723 139.32 176.007 121.251 176.007 121.251L177.277 110.054Z"
											fill="black"
										/>
										<path
											d="M161.224 45.3693C161.224 45.3693 161.224 55.4929 157.911 60.6844C154.598 65.876 173.057 61.4632 173.057 61.4632C172.216 60.7844 171.595 59.8298 171.282 58.7376C170.307 54.9296 169.938 48.2221 171.4 45.3693C173.53 41.2161 161.224 45.3693 161.224 45.3693Z"
											fill="#FFCED8"
										/>
										<path
											opacity="0.1"
											d="M166.493 52.412C171.119 52.412 174.87 48.652 174.87 44.0138C174.87 39.3757 171.119 35.6157 166.493 35.6157C161.866 35.6157 158.115 39.3757 158.115 44.0138C158.115 48.652 161.866 52.412 166.493 52.412Z"
											fill="black"
										/>
										<path
											d="M172.468 130.372C163.387 130.774 148.283 132.469 145.993 129.955C142.299 125.901 143.609 122.251 145.515 120.03C146.262 119.157 146.932 117.696 147.475 116.238C147.658 115.744 147.828 115.253 147.983 114.785C148.569 112.97 150.522 111.718 152.73 111.718H171.067C173.288 111.718 175.243 112.99 175.819 114.805C176.076 115.657 176.471 116.46 176.987 117.184C177.257 117.56 177.571 117.902 177.923 118.202C178.847 118.989 179.447 120.684 179.835 122.549C180.655 126.499 177.182 130.163 172.468 130.372Z"
											fill="#5F546F"
										/>
										<path
											opacity="0.1"
											d="M172.468 130.372C163.387 130.774 148.283 132.469 145.993 129.955C142.299 125.901 143.609 122.251 145.515 120.03C146.262 119.157 146.932 117.696 147.475 116.238C147.658 115.744 147.828 115.253 147.983 114.785C148.569 112.97 150.522 111.718 152.73 111.718H171.067C173.288 111.718 175.243 112.99 175.819 114.805C176.076 115.657 176.471 116.46 176.987 117.184C177.257 117.56 177.571 117.902 177.923 118.202C178.847 118.989 179.447 120.684 179.835 122.549C180.655 126.499 177.182 130.163 172.468 130.372Z"
											fill="black"
										/>
										<path
											opacity="0.1"
											d="M149.039 157.073C148.244 156.913 146.17 156.454 145.366 155.841C145.316 155.805 145.26 155.781 145.2 155.77C145.14 155.76 145.079 155.762 145.02 155.779C144.961 155.795 144.907 155.825 144.862 155.865C144.816 155.905 144.78 155.955 144.756 156.012L143.513 158.915C143.513 158.915 138.435 156.625 138.181 161.969C138.034 165.087 139.613 166.212 140.956 166.609C142.148 166.939 143.271 167.48 144.274 168.204C145.495 169.115 147.356 170.049 149.468 169.545C149.895 169.445 150.333 169.403 150.77 169.418C151.717 169.449 153.35 169.164 153.169 166.799C153.169 166.799 151.646 160.692 152.154 159.674C152.474 159.032 152.39 157.383 152.286 156.248C152.279 156.192 152.255 156.139 152.218 156.097C152.18 156.055 152.131 156.025 152.076 156.011C152.021 155.997 151.964 155.999 151.911 156.019C151.857 156.038 151.811 156.073 151.778 156.119C151.568 156.443 151.277 156.708 150.934 156.886C150.591 157.065 150.207 157.151 149.821 157.137C149.559 157.144 149.297 157.123 149.039 157.073Z"
											fill="black"
										/>
										<path
											d="M149.039 157.327C148.244 157.167 146.492 156.919 145.687 156.306C145.638 156.27 145.581 156.246 145.521 156.235C145.461 156.225 145.4 156.227 145.341 156.244C145.283 156.26 145.228 156.29 145.183 156.33C145.137 156.37 145.101 156.42 145.078 156.477L144.56 160.104C144.56 160.104 138.435 156.88 138.181 162.224C138.034 165.341 139.613 166.466 140.956 166.863C142.148 167.194 143.271 167.734 144.274 168.459C145.495 169.37 147.356 170.304 149.468 169.8C149.895 169.7 150.333 169.657 150.77 169.673C151.717 169.703 153.35 169.418 153.169 167.054C153.169 167.054 151.646 160.946 152.154 159.928C152.474 159.287 152.39 157.638 152.286 156.503C152.279 156.447 152.255 156.394 152.218 156.352C152.18 156.309 152.131 156.279 152.076 156.265C152.021 156.251 151.964 156.254 151.911 156.273C151.857 156.292 151.811 156.327 151.778 156.373C151.568 156.698 151.277 156.963 150.934 157.141C150.591 157.319 150.207 157.406 149.821 157.391C149.559 157.399 149.297 157.377 149.039 157.327Z"
											fill="#BC8387"
										/>
										<path
											opacity="0.1"
											d="M175.566 157.073C176.36 156.913 178.434 156.454 179.239 155.841C179.288 155.805 179.345 155.781 179.405 155.77C179.465 155.76 179.526 155.762 179.585 155.779C179.643 155.795 179.697 155.825 179.743 155.865C179.789 155.905 179.825 155.955 179.848 156.012L181.084 158.915C181.084 158.915 186.162 156.625 186.416 161.969C186.563 165.087 184.984 166.212 183.641 166.609C182.455 166.943 181.338 167.485 180.341 168.209C179.12 169.12 177.259 170.054 175.147 169.55C174.72 169.45 174.282 169.408 173.844 169.423C172.897 169.454 171.265 169.169 171.445 166.805C171.445 166.805 172.969 160.697 172.461 159.679C172.141 159.038 172.225 157.388 172.329 156.253C172.336 156.197 172.36 156.145 172.397 156.102C172.435 156.06 172.484 156.03 172.539 156.016C172.593 156.002 172.651 156.004 172.704 156.024C172.757 156.043 172.803 156.078 172.837 156.124C173.047 156.449 173.338 156.713 173.681 156.892C174.024 157.07 174.408 157.156 174.794 157.142C175.053 157.147 175.312 157.124 175.566 157.073Z"
											fill="black"
										/>
										<path
											d="M175.566 157.327C176.36 157.167 178.124 156.634 178.929 156.021C178.978 155.985 179.035 155.961 179.095 155.95C179.154 155.939 179.216 155.942 179.275 155.959C179.333 155.975 179.387 156.004 179.433 156.045C179.478 156.085 179.514 156.135 179.538 156.191L180.341 159.933C180.341 159.933 186.162 156.879 186.416 162.224C186.563 165.341 184.984 166.466 183.641 166.863C182.455 167.197 181.338 167.739 180.341 168.464C179.12 169.375 177.259 170.309 175.147 169.805C174.72 169.705 174.282 169.662 173.844 169.678C172.897 169.708 171.265 169.423 171.445 167.059C171.445 167.059 173.188 160.951 172.68 159.933C172.36 159.292 172.366 157.763 172.47 156.628C172.477 156.572 172.501 156.519 172.539 156.477C172.576 156.434 172.625 156.404 172.68 156.39C172.735 156.376 172.793 156.379 172.846 156.398C172.899 156.417 172.945 156.452 172.978 156.498C173.189 156.823 173.338 156.968 173.681 157.146C174.024 157.324 174.408 157.411 174.794 157.396C175.053 157.401 175.312 157.378 175.566 157.327Z"
											fill="#BC8387"
										/>
										<path
											d="M130.059 52.0302C130.059 52.0302 132.344 44.65 126.251 43.632C120.158 42.6141 121.681 51.5212 126.251 54.8295C130.82 58.1379 130.059 52.0302 130.059 52.0302Z"
											fill="#FFCED8"
										/>
										<path
											opacity="0.1"
											d="M177.277 110.308C170.169 122.015 146.306 108.781 146.306 108.781C146.306 108.781 145.74 108.471 145.349 107.458C145.544 106.839 145.724 106.221 145.887 105.633C146.193 104.524 146.855 103.547 147.769 102.851C148.684 102.155 149.801 101.78 150.949 101.783H170.496C171.648 101.78 172.768 102.159 173.683 102.859C174.598 103.56 175.257 104.544 175.558 105.659C175.825 106.71 176.244 107.717 176.802 108.646C177.053 109.672 177.277 110.308 177.277 110.308Z"
											fill="black"
										/>
										<path
											d="M162.177 53.5572L160.622 53.368C160.622 53.368 159.586 58.138 155.444 58.138C154.564 58.138 153.36 58.0845 152.066 58.0031C148.175 57.7986 144.278 58.266 140.545 59.385C139.258 59.7591 137.844 59.7921 136.659 58.9014C133.612 56.611 130.312 50.5033 130.312 50.5033C130.312 50.5033 124.473 50.2488 124.22 53.5572C123.966 56.8655 127.982 62.5569 128.743 63.3204C129.505 64.0839 131.056 66.4092 135.296 68.3397C140.627 69.6122 147.415 72.3944 147.669 78.7566C147.923 85.1188 148.59 91.7304 146.052 99.1106C143.513 106.491 146.305 108.018 146.305 108.018C146.305 108.018 170.168 121.251 177.277 109.545C177.277 109.545 174.484 101.656 177.277 97.8382C180.069 94.0208 178.8 84.6048 178.8 84.6048L187.939 75.4432C187.939 75.4432 185.791 63.7367 178.8 63.7367C174.992 60.6828 171.692 58.6469 171.692 58.6469L172.58 54.8652L162.177 53.5572Z"
											fill="#D6E6F9"
										/>
										<path
											d="M169.987 52.5098C176.587 52.5098 181.937 47.151 181.937 40.5406C181.937 33.9303 176.587 28.5715 169.987 28.5715C163.388 28.5715 158.038 33.9303 158.038 40.5406C158.038 47.151 163.388 52.5098 169.987 52.5098Z"
											fill="#6D5C64"
										/>
										<path
											d="M174.999 35.5213C177.553 35.5213 179.624 33.2741 179.624 30.502C179.624 27.7299 177.553 25.4827 174.999 25.4827C172.444 25.4827 170.373 27.7299 170.373 30.502C170.373 33.2741 172.444 35.5213 174.999 35.5213Z"
											fill="#6D5C64"
										/>
										<path
											d="M169.849 27.027C169.849 25.8818 170.297 24.7771 171.105 23.9262C171.914 23.0752 173.026 22.5382 174.227 22.4188C174.058 22.4022 173.888 22.3938 173.718 22.3938C172.422 22.3938 171.179 22.8819 170.263 23.7508C169.346 24.6197 168.831 25.7982 168.831 27.027C168.831 28.2558 169.346 29.4343 170.263 30.3032C171.179 31.1721 172.422 31.6602 173.718 31.6602C173.888 31.6602 174.058 31.6518 174.227 31.6352C173.026 31.5158 171.914 30.9788 171.105 30.1278C170.297 29.2769 169.849 28.1722 169.849 27.027Z"
											fill="#6D5C64"
										/>
										<path
											opacity="0.1"
											d="M158.115 56.863C158.115 56.863 159.638 57.5018 163.954 58.7742C168.27 60.0467 171.57 58.7742 171.57 58.7742"
											fill="black"
										/>
										<path
											opacity="0.1"
											d="M146.687 93.2319C146.687 93.2319 153.795 93.6391 156.079 96.693C158.364 99.7468 159.126 100.765 161.918 100.765C164.711 100.765 173.596 101.274 174.865 101.783"
											fill="black"
										/>
										<path
											d="M165.822 170.352H161.577V175.215H165.822V170.352Z"
											fill="#C0BCCF"
										/>
										<path
											d="M191.595 110.476H188.259V135.095H191.595V110.476Z"
											fill="#CB919B"
										/>
										<path
											d="M190.076 134.79H182.801V135.701H190.076V134.79Z"
											fill="#CB919B"
										/>
										<path
											d="M139.443 110.476H136.107V135.095H139.443V110.476Z"
											fill="#CB919B"
										/>
										<path
											d="M143.99 134.79H136.715V135.701H143.99V134.79Z"
											fill="#CB919B"
										/>
										<path
											d="M167.64 136.312H160.666V166.1H167.64V136.312Z"
											fill="#C0BCCF"
										/>
										<path
											d="M164.307 125.631C183.092 126.287 183.712 119.073 183.712 119.073L182.498 99.0673C182.196 67.9103 164.307 72.5013 164.307 72.5013C164.307 72.5013 146.417 67.9205 146.115 99.0673L144.901 119.073C144.901 119.073 145.508 126.287 164.307 125.631Z"
											fill="#CB919B"
										/>
										<path
											opacity="0.1"
											d="M164.307 125.631C183.092 126.287 183.712 119.073 183.712 119.073L182.498 99.0673C182.196 67.9103 164.307 72.5013 164.307 72.5013C164.307 72.5013 146.417 67.9205 146.115 99.0673L144.901 119.073C144.901 119.073 145.508 126.287 164.307 125.631Z"
											fill="white"
										/>
										<path
											d="M163.799 124.381C181.717 125.007 182.293 118.128 182.293 118.128L181.138 99.0596C180.849 69.3634 163.799 73.7406 163.799 73.7406C163.799 73.7406 146.75 69.3634 146.461 99.0596L145.306 118.128C145.306 118.128 145.882 125.007 163.799 124.381Z"
											fill="#CB919B"
										/>
										<path
											d="M164.47 116.25H163.236C161.483 116.25 160.062 117.675 160.062 119.432V126.14C160.062 127.897 161.483 129.321 163.236 129.321H164.47C166.222 129.321 167.643 127.897 167.643 126.14V119.432C167.643 117.675 166.222 116.25 164.47 116.25Z"
											fill="#C0BCCF"
										/>
										<path
											opacity="0.1"
											d="M167.629 165.038V166.1H160.666V165.046L161.273 164.886H167.033L167.629 165.038Z"
											fill="black"
										/>
										<path
											d="M135.805 175.215C135.805 175.215 132.772 172.785 161.283 165.186H167.043C167.043 165.186 191.594 171.258 191.896 175.215H188.258C188.258 175.215 174.918 171.258 168.853 171.258C162.788 171.258 144.597 171.866 139.151 175.21L135.805 175.215Z"
											fill="#C0BCCF"
										/>
										<path
											d="M136.984 106.827H138.266C139.141 106.827 139.98 107.175 140.599 107.796C141.218 108.416 141.566 109.258 141.566 110.135V111.69H133.684V110.135C133.684 109.258 134.031 108.416 134.65 107.796C135.269 107.175 136.109 106.827 136.984 106.827Z"
											fill="#CB919B"
										/>
										<path
											d="M189.126 106.827H190.408C191.284 106.827 192.123 107.175 192.742 107.796C193.361 108.416 193.709 109.258 193.709 110.135V111.69H185.826V110.135C185.826 109.258 186.174 108.416 186.793 107.796C187.412 107.175 188.251 106.827 189.126 106.827Z"
											fill="#CB919B"
										/>
										<path
											d="M137.321 179.47C138.494 179.47 139.444 178.518 139.444 177.343C139.444 176.168 138.494 175.215 137.321 175.215C136.149 175.215 135.199 176.168 135.199 177.343C135.199 178.518 136.149 179.47 137.321 179.47Z"
											fill="#5A5773"
										/>
										<path
											d="M163.699 179.47C164.872 179.47 165.822 178.518 165.822 177.343C165.822 176.168 164.872 175.215 163.699 175.215C162.527 175.215 161.577 176.168 161.577 177.343C161.577 178.518 162.527 179.47 163.699 179.47Z"
											fill="#5A5773"
										/>
										<path
											d="M190.381 179.47C191.553 179.47 192.503 178.518 192.503 177.343C192.503 176.168 191.553 175.215 190.381 175.215C189.209 175.215 188.259 176.168 188.259 177.343C188.259 178.518 189.209 179.47 190.381 179.47Z"
											fill="#5A5773"
										/>
										<path
											opacity="0.1"
											d="M167.64 136.312H160.666V137.528H167.64V136.312Z"
											fill="black"
										/>
										<path
											d="M164.307 136.92H184.616L186.139 133.881C187.048 128.715 183.714 128.41 183.714 128.41H144.901C144.901 128.41 141.566 128.713 142.477 133.881L144 136.92H164.307Z"
											fill="#CB919B"
										/>
										<path
											opacity="0.1"
											d="M164.307 136.92H184.616L186.139 133.881C187.048 128.715 183.714 128.41 183.714 128.41H144.901C144.901 128.41 141.566 128.713 142.477 133.881L144 136.92H164.307Z"
											fill="white"
										/>
										<path
											d="M164.307 136.92H184.616L186.139 134.314C187.048 129.886 183.714 129.624 183.714 129.624H144.901C144.901 129.624 141.566 129.878 142.477 134.314L144 136.92H164.307Z"
											fill="#CB919B"
										/>
										<path
											d="M205.201 76.4534C205.201 76.4534 202.884 75.667 201.769 77.7259C201.475 78.2809 201.325 78.9014 201.333 79.53C201.342 80.1586 201.508 80.7749 201.817 81.3218C202.551 82.6502 204.059 84.3756 206.92 84.2204C209.347 84.0906 210.152 82.2354 210.373 80.5074C210.453 79.8612 210.368 79.2049 210.124 78.6012C209.88 77.9975 209.487 77.4663 208.98 77.0582C208.474 76.65 207.872 76.3786 207.231 76.2696C206.591 76.1607 205.933 76.2178 205.321 76.4356L205.201 76.4534Z"
											fill="#FF4694"
										/>
										<path
											opacity="0.1"
											d="M202.312 81.4948C202.003 80.9479 201.837 80.3317 201.828 79.7031C201.82 79.0745 201.97 78.454 202.264 77.8989C203.379 75.863 205.696 76.6265 205.696 76.6265L205.816 76.5832C206.699 76.2624 207.671 76.2842 208.54 76.6443C208.06 76.3577 207.523 76.1815 206.967 76.1282C206.411 76.075 205.851 76.1461 205.326 76.3364L205.206 76.3796C205.206 76.3796 202.889 75.5932 201.774 77.6521C201.48 78.2071 201.33 78.8276 201.338 79.4562C201.347 80.0848 201.513 80.7011 201.822 81.248C202.396 82.3448 203.316 83.2194 204.44 83.7343C203.54 83.1962 202.804 82.4218 202.312 81.4948Z"
											fill="white"
										/>
										<path
											opacity="0.2"
											d="M204.008 77.4382C204.008 77.4382 204.866 78.1151 206.955 77.4382H204.008Z"
											fill="black"
										/>
										<path
											d="M203.825 72.5166C203.825 72.5166 205.298 76.5172 205.176 77.5631L206.341 77.441C206.341 77.441 204.376 73.9341 204.869 72.5191L203.825 72.5166Z"
											fill="#FF4694"
										/>
										<path
											opacity="0.2"
											d="M203.825 72.5166C203.825 72.5166 205.298 76.5172 205.176 77.5631L206.341 77.441C206.341 77.441 204.376 73.9341 204.869 72.5191L203.825 72.5166Z"
											fill="black"
										/>
										<path
											d="M209.837 72.8499C209.837 72.8499 207.519 71.6614 206.481 72.6438C205.443 73.6261 205.285 76.1354 205.285 76.1354C205.285 76.1354 209.065 76.6571 209.837 72.8499Z"
											fill="#FF4694"
										/>
										<path
											opacity="0.1"
											d="M209.837 72.8499C209.837 72.8499 207.519 71.6614 206.481 72.6438C205.443 73.6261 205.285 76.1354 205.285 76.1354C205.285 76.1354 209.065 76.6571 209.837 72.8499Z"
											fill="white"
										/>
										<path
											d="M205.285 76.1353C205.285 76.1353 205.894 73.2214 209.837 72.8499"
											stroke="#FF4694"
											strokeMiterlimit="10"
										/>
										<path
											d="M166.493 52.1573C171.119 52.1573 174.87 48.3974 174.87 43.7592C174.87 39.121 171.119 35.3611 166.493 35.3611C161.866 35.3611 158.115 39.121 158.115 43.7592C158.115 48.3974 161.866 52.1573 166.493 52.1573Z"
											fill="#FFCED8"
										/>
										<path
											d="M175.742 51.4507C179.304 48.5049 179.104 42.362 175.295 37.7302C171.485 33.0985 165.509 31.7317 161.947 34.6776C158.384 37.6234 158.584 43.7663 162.394 48.3981C166.203 53.0298 172.179 54.3966 175.742 51.4507Z"
											fill="#6D5C64"
										/>
										<path
											d="M160.272 44.6758L180.536 45.9468C180.536 45.9468 183.363 58.2863 182.377 59.8413C180.243 63.2083 157.636 61.089 156.709 58.2314C155.953 55.9033 160.272 44.6758 160.272 44.6758Z"
											fill="#6D5C64"
										/>
									</g>
									<defs>
										<linearGradient
											id="paint0_linear"
											x1="110.008"
											y1="70.9896"
											x2="110.008"
											y2="47.5767"
											gradientUnits="userSpaceOnUse"
										>
											<stop
												stopColor="#808080"
												stopOpacity="0.25"
											/>
											<stop
												offset="0.54"
												stopColor="#808080"
												stopOpacity="0.12"
											/>
											<stop
												offset="1"
												stopColor="#808080"
												stopOpacity="0.1"
											/>
										</linearGradient>
										<linearGradient
											id="paint1_linear"
											x1="47616.8"
											y1="103240"
											x2="47616.8"
											y2="24447.7"
											gradientUnits="userSpaceOnUse"
										>
											<stop
												stopColor="#808080"
												stopOpacity="0.25"
											/>
											<stop
												offset="0.54"
												stopColor="#808080"
												stopOpacity="0.12"
											/>
											<stop
												offset="1"
												stopColor="#808080"
												stopOpacity="0.1"
											/>
										</linearGradient>
										<clipPath id="clip0">
											<rect
												width="286.01"
												height="200"
												fill="white"
											/>
										</clipPath>
									</defs>
								</svg>