<svg width="100%" height="100%" viewBox="0 0 1440 1120" fill="none" 
								xmlns="http://www.w3.org/2000/svg">
							<path d="M1776.8 1034.28C1776.8 1034.28 1021.6 1280.68 698.4 935.085C375.2 589.485 424.412 
							342.624 -196.388 403.424C-817.188 464.224 -892 205.485 -892 205.485C-892 205.485 -261.6 -178.515
							 -236 -178.515C-210.4 -178.515 1696.8 55.085 1696.8 55.085L1776.8 1034.28Z" fill="#FBE6F0" />
							 <path opacity="0.15" d="M1615.73 921.606C1615.73 921.606 1025.36 1258.58 569.601 565.242C315.291 
							 178.365 -152.833 286.371 -470.399 401.485C-722.639 492.919 -860.8 126.285 -860.8 126.285L-694.569
							  -179C-694.569 -179 1552.7 -99 1562.4 -99C1572.1 -99 1615.73 921.606 1615.73 921.606Z" 
							  fill="url(#paint0_linear)"  />
							  <path opacity="0.1" d="M1700.73 753.606C1700.73 753.606 1452.96 1286.82 997.2 593.485C541.443 
							  -99.848 -309.907 587.006 -711.6 351.885C-1113.29 116.764 -609.569 -347 -609.569 -347C-609.569 
							  -347 1637.7 -267 1647.4 -267C1657.1 -267 1700.73 753.606 1700.73 753.606Z" 
							  fill="url(#paint1_linear)" /><defs>
								  <linearGradient id="paint0_linear" x1="1353.22" y1="835.564" x2="747.102" y2="-779.315" 
								  gradientUnits="userSpaceOnUse"><stop stopColor="#FFADC6" /><stop offset={1} 
								  stopColor="#FF3794" /></linearGradient><linearGradient id="paint1_linear" x1="1428.55" 
								  y1="765.332" x2="735.974" y2="-979.714" gradientUnits="userSpaceOnUse"><stop 
								  stopColor="#ED81B3" /><stop offset={1} stopColor="#FF3794" /></linearGradient></defs>
						</svg>