<svg width="296" height="56" viewBox="0 0 296 56" fill="none" xmlns="http://www.w3.org/2000/svg">
<path d="M9.06 28.3C7.64 28.3 6.37 27.99 5.25 27.37C4.15 26.75 3.29 25.86 2.67 24.7C2.05 23.52 1.74 22.12 1.74 20.5C1.74 18.88 2.05 17.49 2.67 16.33C3.29 15.15 4.14 14.25 5.22 13.63C6.3 13.01 7.53 12.7 8.91 12.7C10.31 12.7 11.5 13 12.48 13.6C13.48 14.2 14.24 15.02 14.76 16.06C15.28 17.08 15.54 18.23 15.54 19.51C15.54 19.85 15.53 20.16 15.51 20.44C15.49 20.72 15.46 20.97 15.42 21.19H4.11C4.23 22.77 4.72 24 5.58 24.88C6.44 25.76 7.58 26.2 9 26.2C10.1 26.2 10.99 25.99 11.67 25.57C12.37 25.15 12.93 24.58 13.35 23.86L15.24 24.97C14.68 25.99 13.87 26.8 12.81 27.4C11.77 28 10.52 28.3 9.06 28.3ZM8.85 14.8C7.59 14.8 6.55 15.18 5.73 15.94C4.93 16.68 4.42 17.72 4.2 19.06H13.14C13.08 17.7 12.66 16.65 11.88 15.91C11.1 15.17 10.09 14.8 8.85 14.8ZM20.1045 28V13H22.2045L22.3545 15.34C22.8945 14.42 23.5945 13.75 24.4545 13.33C25.3345 12.91 26.2345 12.7 27.1545 12.7C28.2145 12.7 29.2145 12.94 30.1545 13.42C31.0945 13.9 31.8145 14.64 32.3145 15.64C32.6345 14.96 33.0845 14.41 33.6645 13.99C34.2445 13.55 34.8745 13.23 35.5545 13.03C36.2545 12.81 36.9145 12.7 37.5345 12.7C38.4945 12.7 39.4045 12.9 40.2645 13.3C41.1445 13.7 41.8645 14.32 42.4245 15.16C42.9845 16 43.2645 17.08 43.2645 18.4V28H40.8645V18.64C40.8645 17.28 40.5245 16.3 39.8445 15.7C39.1645 15.1 38.3245 14.8 37.3245 14.8C36.5445 14.8 35.8145 14.99 35.1345 15.37C34.4545 15.75 33.9045 16.31 33.4845 17.05C33.0845 17.79 32.8845 18.7 32.8845 19.78V28H30.4845V18.64C30.4845 17.28 30.1445 16.3 29.4645 15.7C28.7845 15.1 27.9445 14.8 26.9445 14.8C26.2845 14.8 25.6045 14.98 24.9045 15.34C24.2245 15.68 23.6545 16.23 23.1945 16.99C22.7345 17.75 22.5045 18.75 22.5045 19.99V28H20.1045ZM48.6982 34.3V13H50.7982L50.9482 15.64C51.4082 14.76 52.0882 14.05 52.9882 13.51C53.9082 12.97 54.9582 12.7 56.1382 12.7C57.3582 12.7 58.4782 13.01 59.4982 13.63C60.5382 14.25 61.3682 15.14 61.9882 16.3C62.6082 17.46 62.9182 18.86 62.9182 20.5C62.9182 22.12 62.5982 23.52 61.9582 24.7C61.3382 25.86 60.5082 26.75 59.4682 27.37C58.4282 27.99 57.2882 28.3 56.0482 28.3C54.9282 28.3 53.9382 28.06 53.0782 27.58C52.2182 27.08 51.5582 26.44 51.0982 25.66V34.3H48.6982ZM55.8082 26.2C57.2882 26.2 58.4382 25.68 59.2582 24.64C60.0982 23.6 60.5182 22.22 60.5182 20.5C60.5182 18.78 60.1082 17.4 59.2882 16.36C58.4882 15.32 57.3582 14.8 55.8982 14.8C54.4582 14.8 53.2982 15.32 52.4182 16.36C51.5382 17.4 51.0982 18.78 51.0982 20.5C51.0982 22.22 51.5282 23.6 52.3882 24.64C53.2482 25.68 54.3882 26.2 55.8082 26.2ZM69.7868 6.1V24.19C69.7868 24.95 69.9268 25.48 70.2068 25.78C70.4868 26.06 70.9368 26.2 71.5568 26.2C71.9568 26.2 72.2868 26.17 72.5468 26.11C72.8068 26.05 73.1568 25.94 73.5968 25.78L73.2068 27.88C72.5468 28.16 71.8068 28.3 70.9868 28.3C68.5868 28.3 67.3868 26.96 67.3868 24.28V6.1H69.7868ZM82.8867 12.7C84.3067 12.7 85.5567 13.01 86.6367 13.63C87.7367 14.25 88.5967 15.15 89.2167 16.33C89.8367 17.49 90.1467 18.88 90.1467 20.5C90.1467 22.12 89.8367 23.52 89.2167 24.7C88.5967 25.86 87.7367 26.75 86.6367 27.37C85.5567 27.99 84.3067 28.3 82.8867 28.3C81.4867 28.3 80.2367 27.99 79.1367 27.37C78.0367 26.75 77.1767 25.86 76.5567 24.7C75.9367 23.52 75.6267 22.12 75.6267 20.5C75.6267 18.88 75.9367 17.49 76.5567 16.33C77.1767 15.15 78.0367 14.25 79.1367 13.63C80.2367 13.01 81.4867 12.7 82.8867 12.7ZM82.8867 14.77C81.3667 14.77 80.1767 15.28 79.3167 16.3C78.4567 17.32 78.0267 18.72 78.0267 20.5C78.0267 22.28 78.4567 23.68 79.3167 24.7C80.1767 25.72 81.3667 26.23 82.8867 26.23C84.4067 26.23 85.5967 25.72 86.4567 24.7C87.3167 23.68 87.7467 22.28 87.7467 20.5C87.7467 18.72 87.3167 17.32 86.4567 16.3C85.5967 15.28 84.4067 14.77 82.8867 14.77ZM106.556 13L99.5055 30.52C98.9255 31.98 98.2655 33 97.5255 33.58C96.8055 34.16 95.9155 34.45 94.8555 34.45C94.1755 34.45 93.5455 34.35 92.9655 34.15C92.4055 33.97 91.9055 33.72 91.4655 33.4L92.1255 31.3C92.5255 31.66 92.9455 31.92 93.3855 32.08C93.8455 32.26 94.2955 32.35 94.7355 32.35C95.2555 32.35 95.7455 32.19 96.2055 31.87C96.6655 31.55 97.0855 30.9 97.4655 29.92L98.2455 27.97L96.7455 24.4L91.9755 13H94.7055L98.4555 22.78L99.3855 25.45L100.466 22.48L103.976 13H106.556Z" fill="#31222A"/>
<path d="M114.854 8.2V15.73H121.274V8.2H127.424V28H121.274V20.32H114.854V28H108.734V8.2H114.854ZM131.088 28V8.2H147.048V12.79H137.208V16H145.068V20.26H137.208V23.41H147.438V28H131.088ZM160.066 8.2C162.526 8.2 164.426 8.77 165.766 9.91C167.126 11.03 167.806 12.53 167.806 14.41C167.806 15.89 167.476 17.12 166.816 18.1C166.176 19.06 165.226 19.77 163.966 20.23L168.946 28H162.256L158.416 21.13H155.926V28H149.926V8.2H160.066ZM159.076 16.96C159.936 16.96 160.576 16.8 160.996 16.48C161.436 16.14 161.656 15.59 161.656 14.83C161.656 14.07 161.436 13.52 160.996 13.18C160.576 12.84 159.936 12.67 159.076 12.67H155.926V16.96H159.076Z" fill="#FF0990"/>
<path d="M11.52 48.958C11.148 49.978 10.536 50.77 9.684 51.334C8.832 51.898 7.848 52.18 6.732 52.18C5.604 52.18 4.626 51.934 3.798 51.442C2.982 50.938 2.346 50.23 1.89 49.318C1.446 48.406 1.224 47.32 1.224 46.06C1.224 44.8 1.446 43.714 1.89 42.802C2.346 41.89 2.982 41.188 3.798 40.696C4.626 40.192 5.592 39.94 6.696 39.94C7.848 39.94 8.808 40.18 9.576 40.66C10.356 41.128 10.932 41.812 11.304 42.712L9.882 43.378C9.618 42.694 9.234 42.178 8.73 41.83C8.238 41.47 7.596 41.29 6.804 41.29C6 41.29 5.292 41.482 4.68 41.866C4.068 42.238 3.588 42.778 3.24 43.486C2.904 44.194 2.736 45.052 2.736 46.06C2.736 47.548 3.09 48.718 3.798 49.57C4.518 50.41 5.496 50.83 6.732 50.83C7.524 50.83 8.214 50.632 8.802 50.236C9.39 49.828 9.816 49.222 10.08 48.418L11.52 48.958ZM14.0138 52V43H15.1838L15.3818 44.476C15.8858 43.372 16.8458 42.82 18.2618 42.82C18.4178 42.82 18.5858 42.832 18.7658 42.856C18.9578 42.88 19.1198 42.928 19.2518 43L18.9998 44.314C18.8678 44.266 18.7238 44.23 18.5678 44.206C18.4118 44.182 18.1898 44.17 17.9018 44.17C17.5298 44.17 17.1518 44.278 16.7678 44.494C16.3958 44.71 16.0838 45.04 15.8318 45.484C15.5798 45.916 15.4538 46.468 15.4538 47.14V52H14.0138ZM24.8423 52.18C23.9903 52.18 23.2283 51.994 22.5563 51.622C21.8963 51.25 21.3803 50.716 21.0083 50.02C20.6363 49.312 20.4503 48.472 20.4503 47.5C20.4503 46.528 20.6363 45.694 21.0083 44.998C21.3803 44.29 21.8903 43.75 22.5383 43.378C23.1863 43.006 23.9243 42.82 24.7523 42.82C25.5923 42.82 26.3063 43 26.8943 43.36C27.4943 43.72 27.9503 44.212 28.2623 44.836C28.5743 45.448 28.7303 46.138 28.7303 46.906C28.7303 47.11 28.7243 47.296 28.7123 47.464C28.7003 47.632 28.6823 47.782 28.6582 47.914H21.8723C21.9443 48.862 22.2383 49.6 22.7543 50.128C23.2703 50.656 23.9543 50.92 24.8063 50.92C25.4663 50.92 26.0003 50.794 26.4083 50.542C26.8283 50.29 27.1643 49.948 27.4163 49.516L28.5503 50.182C28.2143 50.794 27.7283 51.28 27.0923 51.64C26.4683 52 25.7183 52.18 24.8423 52.18ZM24.7163 44.08C23.9603 44.08 23.3363 44.308 22.8443 44.764C22.3643 45.208 22.0583 45.832 21.9263 46.636H27.2903C27.2543 45.82 27.0023 45.19 26.5343 44.746C26.0663 44.302 25.4603 44.08 24.7163 44.08ZM36.7249 46.186C36.7249 45.514 36.5449 44.998 36.1849 44.638C35.8249 44.266 35.3149 44.08 34.6549 44.08C34.0309 44.08 33.5029 44.218 33.0709 44.494C32.6389 44.758 32.3209 45.19 32.1169 45.79L30.9469 45.07C31.1869 44.398 31.6309 43.858 32.2789 43.45C32.9269 43.03 33.7309 42.82 34.6909 42.82C35.3389 42.82 35.9269 42.934 36.4549 43.162C36.9829 43.378 37.3969 43.714 37.6969 44.17C38.0089 44.614 38.1649 45.19 38.1649 45.898V50.254C38.1649 50.686 38.3929 50.902 38.8489 50.902C39.0769 50.902 39.2989 50.872 39.5149 50.812L39.4429 51.946C39.2029 52.066 38.8909 52.126 38.5069 52.126C38.0629 52.126 37.6789 52.018 37.3549 51.802C37.0429 51.586 36.8389 51.256 36.7429 50.812C36.4309 51.28 36.0049 51.628 35.4649 51.856C34.9249 52.072 34.3909 52.18 33.8629 52.18C33.3349 52.18 32.8429 52.09 32.3869 51.91C31.9309 51.73 31.5649 51.46 31.2889 51.1C31.0249 50.728 30.8929 50.272 30.8929 49.732C30.8929 49.06 31.1149 48.508 31.5589 48.076C32.0149 47.632 32.6449 47.332 33.4489 47.176L36.7249 46.528V46.186ZM32.3689 49.66C32.3689 50.032 32.5129 50.338 32.8009 50.578C33.1009 50.806 33.5209 50.92 34.0609 50.92C34.5289 50.92 34.9609 50.842 35.3569 50.686C35.7649 50.518 36.0949 50.272 36.3469 49.948C36.5989 49.612 36.7249 49.186 36.7249 48.67V47.716L34.1149 48.256C33.5269 48.376 33.0889 48.544 32.8009 48.76C32.5129 48.976 32.3689 49.276 32.3689 49.66ZM46.7127 43V44.242H43.4367V49.516C43.4367 49.96 43.5627 50.29 43.8147 50.506C44.0667 50.722 44.3907 50.83 44.7867 50.83C45.1347 50.83 45.4347 50.77 45.6867 50.65C45.9387 50.53 46.1667 50.368 46.3707 50.164L46.8747 51.37C46.5987 51.622 46.2687 51.82 45.8847 51.964C45.5127 52.108 45.0807 52.18 44.5887 52.18C44.1327 52.18 43.7067 52.102 43.3107 51.946C42.9147 51.778 42.5967 51.52 42.3567 51.172C42.1287 50.812 42.0087 50.344 41.9967 49.768V44.242H40.1967V43H41.9967V40.84L43.4367 40.444V43H46.7127ZM49.5737 41.272C49.2497 41.272 48.9857 41.176 48.7817 40.984C48.5897 40.78 48.4937 40.516 48.4937 40.192C48.4937 39.868 48.5897 39.61 48.7817 39.418C48.9857 39.214 49.2497 39.112 49.5737 39.112C49.8977 39.112 50.1557 39.214 50.3477 39.418C50.5517 39.61 50.6537 39.868 50.6537 40.192C50.6537 40.516 50.5517 40.78 50.3477 40.984C50.1557 41.176 49.8977 41.272 49.5737 41.272ZM50.2937 43V52H48.8537V43H50.2937ZM53.6349 52V43H54.8949L54.9849 44.404C55.2969 43.84 55.7229 43.438 56.2629 43.198C56.8029 42.946 57.3849 42.82 58.0089 42.82C58.6569 42.82 59.2449 42.946 59.7729 43.198C60.3009 43.438 60.7209 43.81 61.0329 44.314C61.3569 44.818 61.5189 45.46 61.5189 46.24V52H60.0789V46.744C60.0789 45.748 59.8629 45.058 59.4309 44.674C59.0109 44.278 58.4889 44.08 57.8649 44.08C57.4329 44.08 57.0009 44.182 56.5689 44.386C56.1369 44.59 55.7769 44.92 55.4889 45.376C55.2129 45.832 55.0749 46.444 55.0749 47.212V52H53.6349ZM69.6215 50.848C70.4735 50.848 71.1395 51.046 71.6195 51.442C72.0995 51.826 72.3395 52.342 72.3395 52.99C72.3395 53.578 72.1415 54.088 71.7455 54.52C71.3615 54.952 70.8395 55.282 70.1795 55.51C69.5315 55.75 68.7995 55.87 67.9835 55.87C66.5675 55.87 65.5055 55.63 64.7975 55.15C64.1015 54.67 63.7535 54.094 63.7535 53.422C63.7535 53.014 63.8675 52.642 64.0955 52.306C64.3235 51.97 64.7015 51.73 65.2295 51.586C64.9415 51.454 64.7075 51.274 64.5275 51.046C64.3475 50.806 64.2575 50.488 64.2575 50.092C64.2575 49.72 64.3655 49.384 64.5815 49.084C64.7975 48.772 65.1215 48.532 65.5535 48.364C65.0975 48.1 64.7495 47.752 64.5095 47.32C64.2695 46.888 64.1495 46.402 64.1495 45.862C64.1495 45.262 64.3055 44.734 64.6175 44.278C64.9415 43.822 65.3795 43.468 65.9315 43.216C66.4835 42.952 67.1195 42.82 67.8395 42.82C68.5955 42.82 69.2735 42.97 69.8735 43.27C69.9575 42.67 70.2215 42.202 70.6655 41.866C71.1215 41.518 71.6555 41.344 72.2675 41.344H72.3575L72.6815 42.622H72.5555C72.0035 42.622 71.5715 42.724 71.2595 42.928C70.9475 43.132 70.7735 43.45 70.7375 43.882C71.2655 44.434 71.5295 45.094 71.5295 45.862C71.5295 46.45 71.3735 46.978 71.0615 47.446C70.7495 47.902 70.3115 48.262 69.7475 48.526C69.1955 48.778 68.5595 48.904 67.8395 48.904C67.3955 48.904 66.9815 48.862 66.5975 48.778C66.2375 48.886 65.9795 49.036 65.8235 49.228C65.6675 49.42 65.5895 49.63 65.5895 49.858C65.5895 50.518 66.0575 50.848 66.9935 50.848H69.6215ZM67.8395 43.99C67.2155 43.99 66.6935 44.164 66.2735 44.512C65.8535 44.848 65.6435 45.298 65.6435 45.862C65.6435 46.414 65.8535 46.864 66.2735 47.212C66.6935 47.56 67.2155 47.734 67.8395 47.734C68.4635 47.734 68.9855 47.56 69.4055 47.212C69.8255 46.864 70.0355 46.414 70.0355 45.862C70.0355 45.298 69.8255 44.848 69.4055 44.512C68.9855 44.164 68.4635 43.99 67.8395 43.99ZM67.9655 54.664C69.0095 54.664 69.7775 54.508 70.2695 54.196C70.7615 53.896 71.0075 53.548 71.0075 53.152C71.0075 52.828 70.8755 52.57 70.6115 52.378C70.3595 52.186 69.8975 52.09 69.2255 52.09H66.4535C66.0695 52.09 65.7455 52.186 65.4815 52.378C65.2175 52.582 65.0855 52.858 65.0855 53.206C65.0855 53.65 65.3375 54.004 65.8415 54.268C66.3575 54.532 67.0655 54.664 67.9655 54.664ZM82.2043 40.12V45.304H88.6483V40.12H90.0883V52H88.6483V46.654H82.2043V52H80.7643V40.12H82.2043ZM93.9831 52V40.12H102.317V41.47H95.4231V45.304H100.787V46.654H95.4231V50.65H102.587V52H93.9831ZM109.962 40.12C111.174 40.12 112.146 40.432 112.878 41.056C113.61 41.68 113.976 42.526 113.976 43.594C113.976 44.446 113.736 45.148 113.256 45.7C112.776 46.252 112.128 46.63 111.312 46.834L114.696 52H112.986L109.746 47.068H106.902V52H105.462V40.12H109.962ZM109.944 45.718C111.624 45.718 112.464 45.01 112.464 43.594C112.464 42.178 111.624 41.47 109.944 41.47H106.902V45.718H109.944ZM123.297 55.78V43H124.557L124.647 44.584C124.923 44.056 125.331 43.63 125.871 43.306C126.423 42.982 127.053 42.82 127.761 42.82C128.493 42.82 129.165 43.006 129.777 43.378C130.401 43.75 130.899 44.284 131.271 44.98C131.643 45.676 131.829 46.516 131.829 47.5C131.829 48.472 131.637 49.312 131.253 50.02C130.881 50.716 130.383 51.25 129.759 51.622C129.135 51.994 128.451 52.18 127.707 52.18C127.035 52.18 126.441 52.036 125.925 51.748C125.409 51.448 125.013 51.064 124.737 50.596V55.78H123.297ZM127.563 50.92C128.451 50.92 129.141 50.608 129.633 49.984C130.137 49.36 130.389 48.532 130.389 47.5C130.389 46.468 130.143 45.64 129.651 45.016C129.171 44.392 128.493 44.08 127.617 44.08C126.753 44.08 126.057 44.392 125.529 45.016C125.001 45.64 124.737 46.468 124.737 47.5C124.737 48.532 124.995 49.36 125.511 49.984C126.027 50.608 126.711 50.92 127.563 50.92ZM139.838 46.186C139.838 45.514 139.658 44.998 139.298 44.638C138.938 44.266 138.428 44.08 137.768 44.08C137.144 44.08 136.616 44.218 136.184 44.494C135.752 44.758 135.434 45.19 135.23 45.79L134.06 45.07C134.3 44.398 134.744 43.858 135.392 43.45C136.04 43.03 136.844 42.82 137.804 42.82C138.452 42.82 139.04 42.934 139.568 43.162C140.096 43.378 140.51 43.714 140.81 44.17C141.122 44.614 141.278 45.19 141.278 45.898V50.254C141.278 50.686 141.506 50.902 141.962 50.902C142.19 50.902 142.412 50.872 142.628 50.812L142.556 51.946C142.316 52.066 142.004 52.126 141.62 52.126C141.176 52.126 140.792 52.018 140.468 51.802C140.156 51.586 139.952 51.256 139.856 50.812C139.544 51.28 139.118 51.628 138.578 51.856C138.038 52.072 137.504 52.18 136.976 52.18C136.448 52.18 135.956 52.09 135.5 51.91C135.044 51.73 134.678 51.46 134.402 51.1C134.138 50.728 134.006 50.272 134.006 49.732C134.006 49.06 134.228 48.508 134.672 48.076C135.128 47.632 135.758 47.332 136.562 47.176L139.838 46.528V46.186ZM135.482 49.66C135.482 50.032 135.626 50.338 135.914 50.578C136.214 50.806 136.634 50.92 137.174 50.92C137.642 50.92 138.074 50.842 138.47 50.686C138.878 50.518 139.208 50.272 139.46 49.948C139.712 49.612 139.838 49.186 139.838 48.67V47.716L137.228 48.256C136.64 48.376 136.202 48.544 135.914 48.76C135.626 48.976 135.482 49.276 135.482 49.66ZM149.826 43V44.242H146.55V49.516C146.55 49.96 146.676 50.29 146.928 50.506C147.18 50.722 147.504 50.83 147.9 50.83C148.248 50.83 148.548 50.77 148.8 50.65C149.052 50.53 149.28 50.368 149.484 50.164L149.988 51.37C149.712 51.622 149.382 51.82 148.998 51.964C148.626 52.108 148.194 52.18 147.702 52.18C147.246 52.18 146.82 52.102 146.424 51.946C146.028 51.778 145.71 51.52 145.47 51.172C145.242 50.812 145.122 50.344 145.11 49.768V44.242H143.31V43H145.11V40.84L146.55 40.444V43H149.826ZM151.967 52V38.86H153.407V44.35C153.719 43.81 154.133 43.42 154.649 43.18C155.165 42.94 155.729 42.82 156.341 42.82C156.989 42.82 157.577 42.946 158.105 43.198C158.633 43.438 159.053 43.81 159.365 44.314C159.689 44.818 159.851 45.46 159.851 46.24V52H158.411V46.744C158.411 45.748 158.195 45.058 157.763 44.674C157.343 44.278 156.821 44.08 156.197 44.08C155.765 44.08 155.333 44.182 154.901 44.386C154.469 44.59 154.109 44.926 153.821 45.394C153.545 45.85 153.407 46.462 153.407 47.23V52H151.967ZM174.257 43H175.859L172.727 52H171.287L168.749 44.836L166.355 52H164.915L161.783 43H163.385L165.653 50.326L168.101 43H169.541L171.989 50.326L174.257 43ZM183.08 46.186C183.08 45.514 182.9 44.998 182.54 44.638C182.18 44.266 181.67 44.08 181.01 44.08C180.386 44.08 179.858 44.218 179.426 44.494C178.994 44.758 178.676 45.19 178.472 45.79L177.302 45.07C177.542 44.398 177.986 43.858 178.634 43.45C179.282 43.03 180.086 42.82 181.046 42.82C181.694 42.82 182.282 42.934 182.81 43.162C183.338 43.378 183.752 43.714 184.052 44.17C184.364 44.614 184.52 45.19 184.52 45.898V50.254C184.52 50.686 184.748 50.902 185.204 50.902C185.432 50.902 185.654 50.872 185.87 50.812L185.798 51.946C185.558 52.066 185.246 52.126 184.862 52.126C184.418 52.126 184.034 52.018 183.71 51.802C183.398 51.586 183.194 51.256 183.098 50.812C182.786 51.28 182.36 51.628 181.82 51.856C181.28 52.072 180.746 52.18 180.218 52.18C179.69 52.18 179.198 52.09 178.742 51.91C178.286 51.73 177.92 51.46 177.644 51.1C177.38 50.728 177.248 50.272 177.248 49.732C177.248 49.06 177.47 48.508 177.914 48.076C178.37 47.632 179 47.332 179.804 47.176L183.08 46.528V46.186ZM178.724 49.66C178.724 50.032 178.868 50.338 179.156 50.578C179.456 50.806 179.876 50.92 180.416 50.92C180.884 50.92 181.316 50.842 181.712 50.686C182.12 50.518 182.45 50.272 182.702 49.948C182.954 49.612 183.08 49.186 183.08 48.67V47.716L180.47 48.256C179.882 48.376 179.444 48.544 179.156 48.76C178.868 48.976 178.724 49.276 178.724 49.66ZM194.89 43L190.66 53.512C190.312 54.388 189.916 55 189.472 55.348C189.04 55.696 188.506 55.87 187.87 55.87C187.462 55.87 187.084 55.81 186.736 55.69C186.4 55.582 186.1 55.432 185.836 55.24L186.232 53.98C186.472 54.196 186.724 54.352 186.988 54.448C187.264 54.556 187.534 54.61 187.798 54.61C188.11 54.61 188.404 54.514 188.68 54.322C188.956 54.13 189.208 53.74 189.436 53.152L189.904 51.982L189.004 49.84L186.142 43H187.78L190.03 48.868L190.588 50.47L191.236 48.688L193.342 43H194.89ZM207.5 43V44.242H204.224V49.516C204.224 49.96 204.35 50.29 204.602 50.506C204.854 50.722 205.178 50.83 205.574 50.83C205.922 50.83 206.222 50.77 206.474 50.65C206.726 50.53 206.954 50.368 207.158 50.164L207.662 51.37C207.386 51.622 207.056 51.82 206.672 51.964C206.3 52.108 205.868 52.18 205.376 52.18C204.92 52.18 204.494 52.102 204.098 51.946C203.702 51.778 203.384 51.52 203.144 51.172C202.916 50.812 202.796 50.344 202.784 49.768V44.242H200.984V43H202.784V40.84L204.224 40.444V43H207.5ZM213.367 42.82C214.219 42.82 214.969 43.006 215.617 43.378C216.277 43.75 216.793 44.29 217.165 44.998C217.537 45.694 217.723 46.528 217.723 47.5C217.723 48.472 217.537 49.312 217.165 50.02C216.793 50.716 216.277 51.25 215.617 51.622C214.969 51.994 214.219 52.18 213.367 52.18C212.527 52.18 211.777 51.994 211.117 51.622C210.457 51.25 209.941 50.716 209.569 50.02C209.197 49.312 209.011 48.472 209.011 47.5C209.011 46.528 209.197 45.694 209.569 44.998C209.941 44.29 210.457 43.75 211.117 43.378C211.777 43.006 212.527 42.82 213.367 42.82ZM213.367 44.062C212.455 44.062 211.741 44.368 211.225 44.98C210.709 45.592 210.451 46.432 210.451 47.5C210.451 48.568 210.709 49.408 211.225 50.02C211.741 50.632 212.455 50.938 213.367 50.938C214.279 50.938 214.993 50.632 215.509 50.02C216.025 49.408 216.283 48.568 216.283 47.5C216.283 46.432 216.025 45.592 215.509 44.98C214.993 44.368 214.279 44.062 213.367 44.062ZM229.809 52.18C228.933 52.18 228.123 51.994 227.379 51.622C226.647 51.25 226.083 50.722 225.687 50.038L226.911 49.156C227.175 49.708 227.559 50.14 228.063 50.452C228.579 50.764 229.197 50.92 229.917 50.92C230.553 50.92 231.051 50.8 231.411 50.56C231.771 50.308 231.951 49.984 231.951 49.588C231.951 49.336 231.867 49.108 231.699 48.904C231.543 48.688 231.237 48.532 230.781 48.436L228.621 47.986C227.745 47.806 227.115 47.506 226.731 47.086C226.359 46.666 226.173 46.144 226.173 45.52C226.173 45.028 226.311 44.578 226.587 44.17C226.875 43.762 227.277 43.438 227.793 43.198C228.321 42.946 228.939 42.82 229.647 42.82C230.535 42.82 231.285 42.994 231.897 43.342C232.509 43.69 232.965 44.182 233.265 44.818L232.059 45.61C231.855 45.082 231.525 44.698 231.069 44.458C230.613 44.206 230.139 44.08 229.647 44.08C228.999 44.08 228.495 44.212 228.135 44.476C227.775 44.74 227.595 45.07 227.595 45.466C227.595 45.73 227.685 45.976 227.865 46.204C228.045 46.42 228.381 46.576 228.873 46.672L231.123 47.14C231.963 47.308 232.551 47.584 232.887 47.968C233.223 48.352 233.391 48.82 233.391 49.372C233.391 50.224 233.061 50.908 232.401 51.424C231.741 51.928 230.877 52.18 229.809 52.18ZM239.319 52.18C238.743 52.18 238.197 52.072 237.681 51.856C237.177 51.64 236.763 51.292 236.439 50.812C236.127 50.32 235.971 49.684 235.971 48.904V43H237.411V48.526C237.411 49.438 237.609 50.068 238.005 50.416C238.401 50.752 238.959 50.92 239.679 50.92C240.135 50.92 240.567 50.818 240.975 50.614C241.383 50.398 241.719 50.068 241.983 49.624C242.247 49.18 242.379 48.604 242.379 47.896V43H243.819V52H242.559L242.469 50.632C242.157 51.172 241.731 51.568 241.191 51.82C240.663 52.06 240.039 52.18 239.319 52.18ZM250.896 42.82C251.82 42.82 252.588 43.036 253.2 43.468C253.812 43.888 254.286 44.47 254.622 45.214L253.254 45.862C253.062 45.286 252.768 44.848 252.372 44.548C251.988 44.236 251.484 44.08 250.86 44.08C249.96 44.08 249.252 44.386 248.736 44.998C248.232 45.598 247.98 46.432 247.98 47.5C247.98 48.568 248.232 49.408 248.736 50.02C249.252 50.62 249.96 50.92 250.86 50.92C251.568 50.92 252.132 50.758 252.552 50.434C252.972 50.11 253.248 49.654 253.38 49.066L254.712 49.534C254.412 50.362 253.938 51.01 253.29 51.478C252.654 51.946 251.856 52.18 250.896 52.18C250.056 52.18 249.306 51.994 248.646 51.622C247.986 51.25 247.47 50.716 247.098 50.02C246.726 49.312 246.54 48.472 246.54 47.5C246.54 46.528 246.726 45.694 247.098 44.998C247.47 44.29 247.986 43.75 248.646 43.378C249.306 43.006 250.056 42.82 250.896 42.82ZM260.968 42.82C261.892 42.82 262.66 43.036 263.272 43.468C263.884 43.888 264.358 44.47 264.694 45.214L263.326 45.862C263.134 45.286 262.84 44.848 262.444 44.548C262.06 44.236 261.556 44.08 260.932 44.08C260.032 44.08 259.324 44.386 258.808 44.998C258.304 45.598 258.052 46.432 258.052 47.5C258.052 48.568 258.304 49.408 258.808 50.02C259.324 50.62 260.032 50.92 260.932 50.92C261.64 50.92 262.204 50.758 262.624 50.434C263.044 50.11 263.32 49.654 263.452 49.066L264.784 49.534C264.484 50.362 264.01 51.01 263.362 51.478C262.726 51.946 261.928 52.18 260.968 52.18C260.128 52.18 259.378 51.994 258.718 51.622C258.058 51.25 257.542 50.716 257.17 50.02C256.798 49.312 256.612 48.472 256.612 47.5C256.612 46.528 256.798 45.694 257.17 44.998C257.542 44.29 258.058 43.75 258.718 43.378C259.378 43.006 260.128 42.82 260.968 42.82ZM271.077 52.18C270.225 52.18 269.463 51.994 268.791 51.622C268.131 51.25 267.615 50.716 267.243 50.02C266.871 49.312 266.685 48.472 266.685 47.5C266.685 46.528 266.871 45.694 267.243 44.998C267.615 44.29 268.125 43.75 268.773 43.378C269.421 43.006 270.159 42.82 270.987 42.82C271.827 42.82 272.541 43 273.129 43.36C273.729 43.72 274.185 44.212 274.497 44.836C274.809 45.448 274.965 46.138 274.965 46.906C274.965 47.11 274.959 47.296 274.947 47.464C274.935 47.632 274.917 47.782 274.893 47.914H268.107C268.179 48.862 268.473 49.6 268.989 50.128C269.505 50.656 270.189 50.92 271.041 50.92C271.701 50.92 272.235 50.794 272.643 50.542C273.063 50.29 273.399 49.948 273.651 49.516L274.785 50.182C274.449 50.794 273.963 51.28 273.327 51.64C272.703 52 271.953 52.18 271.077 52.18ZM270.951 44.08C270.195 44.08 269.571 44.308 269.079 44.764C268.599 45.208 268.293 45.832 268.161 46.636H273.525C273.489 45.82 273.237 45.19 272.769 44.746C272.301 44.302 271.695 44.08 270.951 44.08ZM280.943 52.18C280.067 52.18 279.257 51.994 278.513 51.622C277.781 51.25 277.217 50.722 276.821 50.038L278.045 49.156C278.309 49.708 278.693 50.14 279.197 50.452C279.713 50.764 280.331 50.92 281.051 50.92C281.687 50.92 282.185 50.8 282.545 50.56C282.905 50.308 283.085 49.984 283.085 49.588C283.085 49.336 283.001 49.108 282.833 48.904C282.677 48.688 282.371 48.532 281.915 48.436L279.755 47.986C278.879 47.806 278.249 47.506 277.865 47.086C277.493 46.666 277.307 46.144 277.307 45.52C277.307 45.028 277.445 44.578 277.721 44.17C278.009 43.762 278.411 43.438 278.927 43.198C279.455 42.946 280.073 42.82 280.781 42.82C281.669 42.82 282.419 42.994 283.031 43.342C283.643 43.69 284.099 44.182 284.399 44.818L283.193 45.61C282.989 45.082 282.659 44.698 282.203 44.458C281.747 44.206 281.273 44.08 280.781 44.08C280.133 44.08 279.629 44.212 279.269 44.476C278.909 44.74 278.729 45.07 278.729 45.466C278.729 45.73 278.819 45.976 278.999 46.204C279.179 46.42 279.515 46.576 280.007 46.672L282.257 47.14C283.097 47.308 283.685 47.584 284.021 47.968C284.357 48.352 284.525 48.82 284.525 49.372C284.525 50.224 284.195 50.908 283.535 51.424C282.875 51.928 282.011 52.18 280.943 52.18ZM290.435 52.18C289.559 52.18 288.749 51.994 288.005 51.622C287.273 51.25 286.709 50.722 286.313 50.038L287.537 49.156C287.801 49.708 288.185 50.14 288.689 50.452C289.205 50.764 289.823 50.92 290.543 50.92C291.179 50.92 291.677 50.8 292.037 50.56C292.397 50.308 292.577 49.984 292.577 49.588C292.577 49.336 292.493 49.108 292.325 48.904C292.169 48.688 291.863 48.532 291.407 48.436L289.247 47.986C288.371 47.806 287.741 47.506 287.357 47.086C286.985 46.666 286.799 46.144 286.799 45.52C286.799 45.028 286.937 44.578 287.213 44.17C287.501 43.762 287.903 43.438 288.419 43.198C288.947 42.946 289.565 42.82 290.273 42.82C291.161 42.82 291.911 42.994 292.523 43.342C293.135 43.69 293.591 44.182 293.891 44.818L292.685 45.61C292.481 45.082 292.151 44.698 291.695 44.458C291.239 44.206 290.765 44.08 290.273 44.08C289.625 44.08 289.121 44.212 288.761 44.476C288.401 44.74 288.221 45.07 288.221 45.466C288.221 45.73 288.311 45.976 288.491 46.204C288.671 46.42 289.007 46.576 289.499 46.672L291.749 47.14C292.589 47.308 293.177 47.584 293.513 47.968C293.849 48.352 294.017 48.82 294.017 49.372C294.017 50.224 293.687 50.908 293.027 51.424C292.367 51.928 291.503 52.18 290.435 52.18Z" fill="#999999"/>
</svg>
