<svg width="600" height="408" viewBox="0 0 600 408" fill="none" xmlns="http://www.w3.org/2000/svg">
<rect width="600" height="408" rx="15" fill="#FCF8FA"/>
<path d="M247.219 273.844H244.289L242.883 307.313C242.847 308.501 242.376 309.635 241.559 310.499C240.743 311.363 239.637 311.897 238.453 312L208.804 314.625C208.104 314.691 207.398 314.604 206.735 314.371C206.072 314.137 205.468 313.762 204.964 313.271C204.46 312.781 204.069 312.187 203.818 311.53C203.566 310.874 203.46 310.17 203.508 309.469L205.312 274.781L164.554 275.719C163.838 275.736 163.127 275.594 162.472 275.304C161.817 275.014 161.234 274.582 160.766 274.04C160.297 273.497 159.955 272.858 159.763 272.168C159.571 271.477 159.535 270.753 159.656 270.047L170.929 203.203C171.115 202.087 171.685 201.07 172.541 200.33C173.397 199.589 174.485 199.171 175.617 199.148H198.703C199.406 199.161 200.098 199.326 200.731 199.633C201.365 199.939 201.923 200.38 202.369 200.924C202.815 201.468 203.137 202.102 203.314 202.783C203.49 203.464 203.516 204.175 203.39 204.867L195.023 252.609L206.554 252.258L209.648 190.664C209.691 189.406 210.221 188.214 211.126 187.339C212.031 186.464 213.241 185.976 214.5 185.977H242.625C243.28 185.976 243.929 186.108 244.531 186.365C245.134 186.622 245.679 186.998 246.132 187.471C246.586 187.944 246.938 188.504 247.169 189.118C247.4 189.731 247.505 190.384 247.476 191.039L245.133 250.875H246.844C247.488 250.84 248.134 250.935 248.742 251.153C249.35 251.371 249.908 251.708 250.384 252.145C250.86 252.581 251.244 253.108 251.513 253.695C251.782 254.282 251.932 254.917 251.953 255.563V268.945C251.966 270.22 251.476 271.449 250.59 272.365C249.704 273.282 248.493 273.813 247.219 273.844Z" fill="#D0ADBE"/>
<path d="M434.719 173.062H431.789L430.383 206.531C430.347 207.72 429.876 208.853 429.059 209.718C428.243 210.582 427.137 211.116 425.953 211.219L396.304 213.844C395.604 213.91 394.898 213.823 394.235 213.589C393.572 213.356 392.968 212.981 392.464 212.49C391.96 212 391.569 211.406 391.318 210.749C391.066 210.092 390.96 209.389 391.008 208.687L392.812 173.93L352.054 174.844C351.338 174.861 350.627 174.719 349.972 174.429C349.317 174.139 348.734 173.707 348.266 173.165C347.797 172.622 347.455 171.983 347.263 171.293C347.071 170.602 347.035 169.878 347.156 169.172L358.429 102.352C358.615 101.235 359.185 100.219 360.041 99.4781C360.897 98.7377 361.985 98.3198 363.117 98.2969H386.203C386.906 98.3093 387.598 98.4745 388.231 98.7811C388.865 99.0876 389.423 99.5281 389.869 100.072C390.315 100.616 390.637 101.251 390.814 101.932C390.99 102.612 391.016 103.324 390.89 104.016L382.523 151.828L394.054 151.477L397.148 89.8828C397.191 88.6247 397.721 87.4325 398.626 86.5578C399.531 85.6832 400.741 85.1946 402 85.1953H430.125C430.78 85.1947 431.429 85.3268 432.031 85.5837C432.634 85.8406 433.179 86.217 433.632 86.6901C434.086 87.1631 434.438 87.7232 434.669 88.3364C434.9 88.9495 435.005 89.6032 434.976 90.2578L432.633 150H434.344C434.996 149.965 435.649 150.063 436.263 150.286C436.877 150.51 437.44 150.856 437.917 151.302C438.394 151.749 438.776 152.287 439.04 152.885C439.304 153.483 439.444 154.128 439.453 154.781V168.164C439.466 169.439 438.976 170.667 438.09 171.584C437.204 172.501 435.993 173.032 434.719 173.062Z" fill="#D0ADBE"/>
<path d="M327.728 182.062L329.345 183.187C336.098 188.159 340.827 195.404 342.662 203.587C344.497 211.769 343.313 220.339 339.329 227.719C335.842 234.22 329.915 239.071 322.852 241.202C315.788 243.334 308.167 242.573 301.665 239.086C296.463 236.294 292.583 231.551 290.878 225.899C289.173 220.246 289.782 214.148 292.572 208.945C293.676 206.883 295.177 205.058 296.986 203.576C298.796 202.093 300.881 200.982 303.12 200.305C305.36 199.628 307.711 199.399 310.039 199.631C312.367 199.863 314.627 200.551 316.689 201.656C320.017 203.444 322.498 206.481 323.588 210.098C324.678 213.715 324.287 217.616 322.501 220.945C321.797 222.266 320.84 223.436 319.683 224.386C318.527 225.337 317.194 226.05 315.762 226.486C314.33 226.921 312.826 227.07 311.336 226.924C309.846 226.777 308.4 226.339 307.079 225.633C306.023 225.067 305.089 224.299 304.33 223.371C303.571 222.444 303.002 221.377 302.656 220.229C302.31 219.082 302.193 217.878 302.313 216.686C302.432 215.494 302.786 214.337 303.353 213.281C304.267 211.578 305.82 210.308 307.67 209.75C309.521 209.192 311.517 209.391 313.22 210.305C314.576 211.043 315.584 212.289 316.024 213.77C316.463 215.25 316.298 216.844 315.564 218.203C314.973 219.291 313.977 220.101 312.791 220.457C311.606 220.812 310.327 220.685 309.236 220.102C308.802 219.87 308.419 219.556 308.107 219.176C307.796 218.796 307.562 218.358 307.421 217.887C307.279 217.417 307.232 216.923 307.282 216.434C307.332 215.945 307.478 215.471 307.712 215.039C307.887 214.687 308.129 214.373 308.425 214.115C308.721 213.858 309.066 213.661 309.438 213.537C309.811 213.413 310.204 213.363 310.596 213.392C310.987 213.42 311.37 213.526 311.72 213.703C312.002 213.846 312.251 214.044 312.454 214.286C312.657 214.528 312.809 214.809 312.901 215.111C312.993 215.413 313.023 215.73 312.989 216.044C312.956 216.358 312.859 216.662 312.704 216.937" stroke="#FF0990" stroke-width="4" stroke-miterlimit="10" stroke-linecap="round"/>
<path d="M281.249 267.281C270.934 259.457 263.751 248.208 260.992 235.558C258.234 222.908 260.081 209.69 266.202 198.281C270.937 189.465 278.569 182.553 287.808 178.71C297.048 174.867 307.331 174.329 316.921 177.187" stroke="#FF0990" stroke-width="3" stroke-miterlimit="10" stroke-linecap="round"/>
<path d="M334.875 278.391C324.723 280.586 314.202 280.418 304.125 277.898" stroke="#FF0990" stroke-width="3" stroke-miterlimit="10" stroke-linecap="round" stroke-dasharray="0.09 8.71"/>
<path d="M380.437 244.102C376.399 251.647 370.967 258.36 364.43 263.883" stroke="#FF0990" stroke-width="3" stroke-miterlimit="10" stroke-linecap="round"/>
<path d="M296.531 253.407C288.411 249.045 282.354 241.639 279.69 232.814C277.027 223.99 277.976 214.469 282.328 206.344C285.815 199.842 291.742 194.992 298.806 192.86C305.869 190.729 313.49 191.49 319.992 194.977C325.187 197.769 329.063 202.508 330.768 208.154C332.473 213.801 331.868 219.893 329.085 225.094C326.85 229.255 323.054 232.358 318.531 233.721C314.009 235.083 309.13 234.594 304.968 232.36C301.641 230.572 299.159 227.535 298.069 223.918C296.979 220.301 297.37 216.399 299.156 213.071C299.86 211.75 300.818 210.58 301.974 209.63C303.13 208.679 304.463 207.965 305.895 207.53C307.327 207.095 308.831 206.946 310.321 207.092C311.811 207.239 313.257 207.677 314.578 208.383C315.634 208.949 316.568 209.717 317.327 210.644C318.086 211.572 318.655 212.639 319.001 213.786C319.347 214.934 319.464 216.138 319.344 217.33C319.225 218.522 318.871 219.679 318.304 220.735C317.39 222.438 315.837 223.708 313.987 224.266C312.137 224.824 310.14 224.625 308.437 223.711C307.081 222.973 306.073 221.727 305.633 220.246C305.194 218.766 305.359 217.172 306.093 215.813C306.684 214.725 307.681 213.915 308.866 213.559C310.052 213.204 311.33 213.331 312.421 213.914C312.855 214.146 313.239 214.46 313.55 214.84C313.861 215.22 314.095 215.658 314.236 216.129C314.378 216.599 314.425 217.093 314.375 217.582C314.325 218.071 314.179 218.545 313.945 218.977C313.76 219.325 313.509 219.633 313.204 219.882C312.9 220.132 312.549 220.319 312.172 220.433C311.795 220.546 311.399 220.584 311.007 220.543C310.616 220.502 310.236 220.384 309.89 220.196C309.609 220.053 309.359 219.854 309.156 219.612C308.953 219.371 308.801 219.09 308.709 218.788C308.617 218.486 308.587 218.168 308.621 217.855C308.655 217.541 308.752 217.237 308.906 216.961" stroke="#FF0990" stroke-width="4" stroke-miterlimit="10" stroke-linecap="round"/>
<path d="M292.969 154.477C306.814 152.807 320.838 155.459 333.117 162.07C339.412 165.437 344.982 170.011 349.508 175.531C354.035 181.051 357.429 187.409 359.497 194.241C361.564 201.074 362.265 208.247 361.559 215.35C360.854 222.454 358.755 229.349 355.383 235.641C351.122 243.588 344.495 250.015 336.42 254.029C328.345 258.044 319.221 259.448 310.313 258.047" stroke="#FF0990" stroke-width="3" stroke-miterlimit="10" stroke-linecap="round"/>
<path d="M262.5 166.055C265.426 164.035 268.506 162.249 271.711 160.711" stroke="#FF0990" stroke-width="4" stroke-miterlimit="10" stroke-linecap="round" stroke-dasharray="0.09 8.92"/>
<path d="M310.359 234.305C320.171 234.305 328.125 226.508 328.125 216.891C328.125 207.273 320.171 199.477 310.359 199.477C300.548 199.477 292.594 207.273 292.594 216.891C292.594 226.508 300.548 234.305 310.359 234.305Z" fill="white" stroke="#393C54" stroke-width="6" stroke-linecap="round" stroke-linejoin="round"/>
<path d="M279.423 193.453C284.601 193.453 288.798 189.256 288.798 184.078C288.798 178.9 284.601 174.703 279.423 174.703C274.245 174.703 270.048 178.9 270.048 184.078C270.048 189.256 274.245 193.453 279.423 193.453Z" fill="#F8DC25"/>
<path d="M242.906 244.617L244.008 241.805C244.074 241.625 244.194 241.47 244.351 241.361C244.508 241.252 244.695 241.193 244.887 241.193C245.078 241.193 245.265 241.252 245.422 241.361C245.579 241.47 245.699 241.625 245.766 241.805L246.867 244.617C247.295 245.672 247.93 246.631 248.736 247.436C249.541 248.241 250.499 248.877 251.555 249.305L254.367 250.406C254.547 250.473 254.701 250.593 254.811 250.75C254.92 250.907 254.978 251.094 254.978 251.285C254.978 251.476 254.92 251.663 254.811 251.82C254.701 251.977 254.547 252.097 254.367 252.164L251.555 253.266C250.499 253.693 249.541 254.329 248.736 255.134C247.93 255.939 247.295 256.898 246.867 257.953L245.766 260.766C245.699 260.945 245.579 261.1 245.422 261.209C245.265 261.318 245.078 261.377 244.887 261.377C244.695 261.377 244.508 261.318 244.351 261.209C244.194 261.1 244.074 260.945 244.008 260.766L242.906 257.953C242.478 256.898 241.843 255.939 241.038 255.134C240.233 254.329 239.274 253.693 238.219 253.266L235.406 252.164C235.227 252.097 235.072 251.977 234.963 251.82C234.853 251.663 234.795 251.476 234.795 251.285C234.795 251.094 234.853 250.907 234.963 250.75C235.072 250.593 235.227 250.473 235.406 250.406L238.219 249.305C239.274 248.877 240.233 248.241 241.038 247.436C241.843 246.631 242.478 245.672 242.906 244.617Z" fill="#F8DC25"/>
<path d="M370.312 167.133L371.414 164.32C371.481 164.141 371.601 163.986 371.758 163.877C371.915 163.768 372.102 163.709 372.293 163.709C372.484 163.709 372.671 163.768 372.828 163.877C372.985 163.986 373.105 164.141 373.172 164.32L374.273 167.133C374.701 168.188 375.337 169.147 376.142 169.952C376.947 170.757 377.906 171.392 378.961 171.82L381.773 172.922C381.953 172.988 382.108 173.108 382.217 173.265C382.326 173.423 382.385 173.609 382.385 173.801C382.385 173.992 382.326 174.179 382.217 174.336C382.108 174.493 381.953 174.613 381.773 174.68L378.961 175.781C377.906 176.209 376.947 176.844 376.142 177.65C375.337 178.455 374.701 179.413 374.273 180.469L373.172 183.281C373.105 183.461 372.985 183.615 372.828 183.725C372.671 183.834 372.484 183.892 372.293 183.892C372.102 183.892 371.915 183.834 371.758 183.725C371.601 183.615 371.481 183.461 371.414 183.281L370.312 180.726C369.885 179.671 369.249 178.713 368.444 177.907C367.639 177.102 366.68 176.467 365.625 176.039L362.812 174.937C362.633 174.871 362.478 174.751 362.369 174.594C362.26 174.437 362.201 174.25 362.201 174.059C362.201 173.867 362.26 173.68 362.369 173.523C362.478 173.366 362.633 173.246 362.812 173.18L365.625 172.078C366.705 171.621 367.679 170.946 368.485 170.095C369.292 169.244 369.914 168.236 370.312 167.133Z" fill="#F8DC25"/>
<path d="M374.086 281.883C376.157 281.883 377.836 280.204 377.836 278.133C377.836 276.062 376.157 274.383 374.086 274.383C372.015 274.383 370.336 276.062 370.336 278.133C370.336 280.204 372.015 281.883 374.086 281.883Z" fill="#F8DC25"/>
<path d="M248.484 206.906C250.555 206.906 252.234 205.227 252.234 203.156C252.234 201.085 250.555 199.406 248.484 199.406C246.413 199.406 244.734 201.085 244.734 203.156C244.734 205.227 246.413 206.906 248.484 206.906Z" fill="#F8DC25"/>
<path d="M350.345 156.281C352.416 156.281 354.095 154.602 354.095 152.531C354.095 150.46 352.416 148.781 350.345 148.781C348.274 148.781 346.595 150.46 346.595 152.531C346.595 154.602 348.274 156.281 350.345 156.281Z" fill="#F8DC25"/>
</svg>