<svg width="144" height="144" viewBox="0 0 144 144" fill="none" xmlns="http://www.w3.org/2000/svg">
    <path d="M133.547 38.9061C139.42 49.8006 142.326 62.0608 141.971 74.4464C141.616 86.832 138.011 98.9036 131.523 109.44C125.035 119.976 115.892 128.603 105.021 134.448C94.1494 140.293 81.9346 143.149 69.6124 142.726C57.2901 142.304 45.2976 138.618 34.848 132.041C24.3984 125.465 15.8626 116.232 10.104 105.275C4.34552 94.3191 1.56864 82.0286 2.05435 69.6475C2.54005 57.2663 6.27111 45.2337 12.87 34.7671" stroke="#FF0990" stroke-width="2"/>
    <path d="M98 72L58 94V50L98 72Z" fill="#FF0990"/>
    <g clip-path="url(#clip0)">
    <path d="M26.0119 28.662L18.909 19.2743L21.8413 17.0048C22.3538 16.6082 22.8645 16.2888 23.3734 16.0466C23.8918 15.7971 24.3992 15.6623 24.8956 15.6423C25.3921 15.6222 25.8716 15.729 26.3343 15.9627C26.7897 16.1868 27.2238 16.5715 27.6365 17.117C28.0275 17.6337 28.2777 18.1533 28.387 18.6756C28.4963 19.1979 28.4874 19.7132 28.3602 20.2213C28.2353 20.7124 28.0017 21.1892 27.6593 21.6514C27.3191 22.0968 26.8976 22.5141 26.3946 22.9034L25.0566 23.939L27.6631 27.384L26.0119 28.662ZM24.0465 22.604L25.2565 21.6676C26.623 20.6099 26.8754 19.5117 26.0138 18.3729C25.5649 17.7796 25.0769 17.5125 24.5497 17.5715C24.0248 17.6136 23.416 17.9027 22.7233 18.4389L21.5703 19.3313L24.0465 22.604Z" fill="#FF0990"/>
    <path d="M35.5362 21.9174L29.9374 11.562L31.7645 10.5514L36.5243 19.355L40.8086 16.9852L41.6475 18.5369L35.5362 21.9174Z" fill="#FF0990"/>
    <path d="M45.1659 10.3497L45.2855 11.8462L48.0919 10.7689L47.1993 9.56914C46.8007 9.05376 46.4014 8.51937 46.0014 7.96599C45.6126 7.4083 45.2259 6.85623 44.8413 6.30978L44.7741 6.33558C44.8492 7.01368 44.9243 7.69178 44.9995 8.36987C45.0704 9.03674 45.1259 9.69667 45.1659 10.3497ZM43.6873 17.6267L43.1292 5.23178L45.4146 4.35449L53.1314 14.0015L51.0813 14.7884L49.1045 12.1347L45.4075 13.5538L45.6703 16.8655L43.6873 17.6267Z" fill="#FF0990"/>
    <path d="M57.556 13.3364L56.7472 9.0378L51.9149 2.43451L54.1066 2.01245L55.9174 4.72494C56.1645 5.12952 56.4094 5.5223 56.652 5.90329C56.8924 6.27249 57.149 6.663 57.4219 7.07483L57.4926 7.06122C57.5968 6.57677 57.6996 6.11705 57.8009 5.68205C57.9 5.23525 57.9909 4.7778 58.0738 4.30969L58.7729 1.11386L60.9116 0.702014L58.7976 8.64297L59.6064 12.9415L57.556 13.3364Z" fill="#FF0990"/>
    <path d="M76.5204 12.2547L73.7919 0.223165L75.9986 0.401898L77.1806 6.43901C77.3188 7.12441 77.4359 7.77197 77.532 8.38172C77.64 8.99243 77.7686 9.64695 77.9178 10.3453L77.9896 10.3511C78.2471 9.6857 78.4713 9.05976 78.6623 8.47326C78.8653 7.88774 79.083 7.2673 79.3156 6.61193L81.4169 0.840737L83.5519 1.01366L78.9783 12.4538L76.5204 12.2547Z" fill="#FF0990"/>
    <path d="M85.4667 13.1121L88.5619 1.75432L90.574 2.31231L87.4788 13.6701L85.4667 13.1121Z" fill="#FF0990"/>
    <path d="M92.8046 14.9938L96.7446 3.9007L99.7055 4.97581C101.397 5.59016 102.554 6.52732 103.177 7.7873C103.799 9.04728 103.784 10.5932 103.134 12.4251C102.809 13.341 102.397 14.1045 101.9 14.7155C101.414 15.3306 100.856 15.7916 100.225 16.0986C99.6087 16.3984 98.9315 16.5483 98.193 16.5482C97.4657 16.5522 96.6904 16.4047 95.867 16.1058L92.8046 14.9938ZM95.3336 14.112L96.1964 14.4253C97.3244 14.8349 98.3017 14.8259 99.1285 14.3985C99.9705 13.9638 100.634 13.0623 101.12 11.694C101.602 10.3371 101.649 9.23704 101.261 8.39394C100.873 7.55084 100.12 6.92655 99.0038 6.52108L98.141 6.20776L95.3336 14.112Z" fill="#FF0990"/>
    <path d="M103.792 19.4402L109.414 9.09755L115.613 12.5432L114.771 14.0931L110.397 11.6618L108.961 14.3028L112.658 16.358L111.816 17.9078L108.119 15.8526L106.459 18.9048L110.99 21.4235L110.148 22.9733L103.792 19.4402Z" fill="#FF0990"/>
    <path d="M116.163 27.555C115.562 27.0769 115.098 26.531 114.769 25.9172C114.449 25.2939 114.272 24.632 114.239 23.9313C114.214 23.2212 114.334 22.4893 114.601 21.7357C114.868 20.9821 115.296 20.2264 115.886 19.4686C116.468 18.7203 117.086 18.1309 117.74 17.7005C118.401 17.2606 119.069 16.979 119.742 16.8555C120.416 16.7321 121.086 16.7594 121.754 16.9375C122.421 17.1155 123.055 17.4436 123.656 17.9217C124.257 18.3998 124.722 18.9457 125.05 19.5595C125.378 20.1733 125.562 20.8258 125.602 21.5169C125.652 22.2156 125.543 22.9417 125.276 23.6953C125.017 24.4395 124.596 25.1857 124.014 25.934C123.425 26.6918 122.799 27.2906 122.138 27.7305C121.477 28.1704 120.797 28.4578 120.099 28.5927C119.418 28.7256 118.74 28.7078 118.066 28.5392C117.399 28.3611 116.764 28.0331 116.163 27.555ZM117.28 26.1199C117.646 26.4113 118.037 26.5922 118.454 26.6628C118.87 26.7333 119.296 26.7039 119.731 26.5746C120.173 26.4359 120.613 26.2029 121.049 25.8758C121.494 25.5392 121.918 25.1104 122.324 24.5894C123.134 23.5474 123.552 22.561 123.576 21.6301C123.618 20.6972 123.272 19.9394 122.54 19.3567C121.807 18.7741 120.993 18.6093 120.097 18.8624C119.217 19.1135 118.373 19.7601 117.562 20.802C117.157 21.323 116.845 21.8414 116.626 22.3573C116.415 22.8637 116.294 23.3507 116.265 23.8181C116.243 24.2761 116.315 24.7014 116.481 25.094C116.647 25.4866 116.913 25.8286 117.28 26.1199Z" fill="#FF0990"/>
    </g>
    <defs>
    <clipPath id="clip0">
    <rect width="107" height="29" fill="white" transform="translate(19)"/>
    </clipPath>
    </defs>
</svg>