<svg width="117" height="37" viewBox="0 0 117 37" fill="none" xmlns="http://www.w3.org/2000/svg">
    <path d="M12.325 35.3225L5.14047 25.9972L8.05287 23.7021C8.56183 23.3011 9.06971 22.9772 9.57651 22.7306C10.0927 22.4766 10.599 22.3374 11.0952 22.313C11.5914 22.2886 12.0719 22.3912 12.5366 22.6208C12.994 22.841 13.4314 23.2219 13.8488 23.7638C14.2443 24.2771 14.499 24.7944 14.6129 25.3158C14.7267 25.8371 14.7223 26.3524 14.5996 26.8616C14.479 27.3539 14.2495 27.8326 13.9111 28.2978C13.5749 28.7461 13.157 29.1671 12.6575 29.5608L11.3285 30.608L13.965 34.0301L12.325 35.3225ZM10.3068 29.2819L11.5086 28.3349C12.8658 27.2654 13.1086 26.165 12.2371 25.0338C11.783 24.4445 11.2927 24.1816 10.7661 24.2452C10.2416 24.2919 9.63533 24.5863 8.94729 25.1285L7.80212 26.0309L10.3068 29.2819Z" fill="#FF0990" />
    <path d="M21.7907 28.4957L16.1017 18.1896L17.92 17.163L22.7564 25.9248L27.0198 23.5177L27.8723 25.062L21.7907 28.4957Z" fill="#FF0990" />
    <path d="M31.3186 16.8445L31.4513 18.3399L34.2481 17.2382L33.3451 16.0462C32.942 15.5343 32.5381 15.0035 32.1333 14.4536C31.7396 13.8993 31.3481 13.3506 30.9588 12.8076L30.8918 12.834C30.9728 13.5114 31.0538 14.1888 31.1349 14.8662C31.2116 15.5324 31.2729 16.1918 31.3186 16.8445ZM29.9036 24.1341L29.2373 11.7446L31.515 10.8474L39.3157 20.4266L37.2725 21.2314L35.2726 18.595L31.5882 20.0464L31.8798 23.3557L29.9036 24.1341Z" fill="#FF0990" />
    <path d="M43.7337 19.7219L42.8875 15.4305L37.9977 8.86966L40.1857 8.42849L42.0201 11.1251C42.2706 11.5275 42.5189 11.9181 42.7649 12.297C43.0085 12.6641 43.2685 13.0523 43.545 13.4618L43.6155 13.4475C43.7155 12.9622 43.8143 12.5016 43.9118 12.0657C44.007 11.6181 44.0939 11.1598 44.1727 10.691L44.8439 7.48923L46.9789 7.05873L44.9343 15.0178L45.7806 19.3092L43.7337 19.7219Z" fill="#FF0990" />
    <path d="M62.6892 18.4753L59.8558 6.46809L62.064 6.62756L63.2986 12.6541C63.4428 13.3383 63.5656 13.9848 63.667 14.5937C63.7803 15.2034 63.9146 15.8568 64.0699 16.5538L64.1417 16.559C64.3934 15.8914 64.6121 15.2635 64.798 14.6754C64.9959 14.0881 65.2082 13.4658 65.4351 12.8084L67.4859 7.0191L69.6223 7.17338L65.1488 18.653L62.6892 18.4753Z" fill="#FF0990" />
    <path d="M71.6414 19.2549L74.6374 7.87055L76.6542 8.41096L73.6583 19.7953L71.6414 19.2549Z" fill="#FF0990" />
    <path d="M78.9954 21.072L82.8384 9.94496L85.8085 10.9942C87.5057 11.5938 88.6709 12.5208 89.304 13.7753C89.9371 15.0298 89.9364 16.5758 89.3018 18.4133C88.9844 19.332 88.5799 20.0991 88.0881 20.7144C87.6076 21.3337 87.0531 21.7996 86.4247 22.1121C85.8115 22.4172 85.1356 22.573 84.3971 22.5794C83.6699 22.5897 82.8933 22.449 82.0673 22.1572L78.9954 21.072ZM81.5165 20.1682L82.3821 20.474C83.5135 20.8737 84.4908 20.8562 85.3137 20.4215C86.152 19.9795 86.8081 19.0723 87.2821 17.6998C87.7522 16.3387 87.7895 15.2383 87.3939 14.3986C86.9984 13.5589 86.2405 12.9412 85.1204 12.5455L84.2548 12.2398L81.5165 20.1682Z" fill="#FF0990" />
    <path d="M90.0216 25.4226L95.5534 15.0313L101.782 18.4228L100.953 19.9799L96.5583 17.5869L95.1457 20.2403L98.8607 22.2632L98.0317 23.8203L94.3168 21.7974L92.6843 24.864L97.2371 27.343L96.4082 28.9001L90.0216 25.4226Z" fill="#FF0990" />
    <path d="M102.464 33.4293C101.859 32.9565 101.389 32.4146 101.055 31.8037C100.729 31.1833 100.547 30.5229 100.508 29.8226C100.476 29.1127 100.591 28.3798 100.851 27.6239C101.111 26.8679 101.533 26.1085 102.116 25.3456C102.691 24.5923 103.304 23.9976 103.954 23.5615C104.612 23.1158 105.277 22.8283 105.949 22.699C106.622 22.5697 107.292 22.5912 107.961 22.7634C108.63 22.9356 109.267 23.2582 109.872 23.731C110.477 24.2038 110.946 24.7457 111.28 25.3566C111.614 25.9675 111.804 26.6183 111.85 27.3091C111.905 28.0073 111.803 28.7343 111.543 29.4903C111.29 30.2367 110.875 30.9865 110.3 31.7399C109.717 32.5028 109.097 33.1071 108.439 33.5527C107.782 33.9983 107.105 34.2916 106.408 34.4326C105.729 34.5715 105.051 34.5596 104.375 34.3969C103.706 34.2247 103.069 33.9021 102.464 33.4293ZM103.567 31.9846C103.936 32.2727 104.329 32.4502 104.746 32.5171C105.163 32.584 105.588 32.5509 106.022 32.4179C106.463 32.2752 106.901 32.0385 107.335 31.7075C107.776 31.367 108.197 30.9346 108.598 30.4101C109.399 29.3611 109.808 28.3711 109.825 27.44C109.858 26.5067 109.506 25.752 108.768 25.1757C108.031 24.5995 107.215 24.4418 106.321 24.7027C105.444 24.9615 104.605 25.6154 103.803 26.6644C103.403 27.1889 103.095 27.71 102.881 28.2278C102.674 28.736 102.558 29.224 102.533 29.6917C102.515 30.1499 102.591 30.5745 102.76 30.9657C102.929 31.3568 103.199 31.6964 103.567 31.9846Z" fill="#FF0990" />
</svg>