<svg className="quotes" width="28" height="20" viewBox="0 0 28 20" fill="none" xmlns="http://www.w3.org/2000/svg">
  <path d="M2.48578 18.2759C0.868376 16.6762 0 14.8819 0 11.9734C0 6.8553 3.85822 2.26804 9.4689 0L10.8712 2.01506C5.63423 4.65307 4.6104 8.07633 4.20212 10.2347C5.04537 9.82818 6.14929 9.68633 7.23123 9.77992C10.064 10.0241 12.297 12.1898 12.297 14.8819C12.297 16.2393 11.718 17.5411 10.6873 18.5009C9.65655 19.4608 8.25861 20 6.80096 20C5.99486 19.9934 5.19822 19.8376 4.45739 19.5416C3.71656 19.2457 3.04636 18.8154 2.48578 18.2759ZM18.1888 18.2759C16.5714 16.6762 15.703 14.8819 15.703 11.9734C15.703 6.8553 19.5612 2.26804 25.1719 0L26.5742 2.01506C21.3372 4.65307 20.3134 8.07633 19.9051 10.2347C20.7484 9.82818 21.8523 9.68633 22.9342 9.77992C25.767 10.0241 28 12.1898 28 14.8819C28 16.2393 27.421 17.5411 26.3902 18.5009C25.3595 19.4608 23.9616 20 22.504 20C21.6979 19.9934 20.9012 19.8376 20.1604 19.5416C19.4196 19.2457 18.7493 18.8154 18.1888 18.2759Z" fill="#FFCCCC"/>
</svg>