 <svg width="47" height="73" viewBox="0 0 47 73" fill="none" xmlns="http://www.w3.org/2000/svg">
                        <path d="M29.974 1.28386C24.062 -0.382628 17.7291 0.371404 12.3685 3.38007C7.00784 6.38874 3.05855 11.4056 1.3894 17.327C0.439383 20.562 0.226637 23.9686 0.766856 27.2957C1.0924 28.7387 1.51033 30.1592 2.01808 31.5483C3.02703 34.1854 3.72105 36.933 4.08568 39.7338C4.07562 42.5868 3.70844 45.4275 2.99273 48.1896L7.04565 49.3321C7.89176 46.0921 8.31018 42.7554 8.29019 39.4072C7.91719 36.2514 7.15957 33.1535 6.03424 30.1827C5.58114 28.9737 5.19871 27.7393 4.88888 26.4858C4.47286 23.7921 4.6659 21.0388 5.45376 18.4288C6.82474 13.5652 10.0685 9.44457 14.4716 6.97336C18.8746 4.50215 24.0762 3.88281 28.9321 5.25161C33.7879 6.6204 37.9003 9.86519 40.3645 14.2722C42.8287 18.6791 43.4428 23.8873 42.0719 28.7509C41.3287 31.4017 39.9954 33.8499 38.1721 35.9116C37.2532 36.8188 36.2824 37.6718 35.2646 38.4661C32.7666 40.403 30.5134 42.6372 28.5548 45.1195C26.7819 47.9764 25.3921 51.0543 24.4212 54.2738L28.4741 55.4162C29.3064 52.687 30.4769 50.0727 31.9583 47.6345C33.732 45.4364 35.7588 43.4558 37.9965 41.7339C39.1656 40.7893 40.2716 39.7691 41.3075 38.6796C43.5058 36.1245 45.1036 33.1083 45.9829 29.8534C47.6394 23.936 46.884 17.6042 43.8825 12.2479C40.8811 6.89155 35.8789 2.94836 29.974 1.28386Z" fill="#6D5C64" />
                        <path d="M7.04565 49.3321L2.99273 48.1896L1.20766 54.5223L26.7005 61.7083L28.4741 55.4162L24.4212 54.2738L23.7919 56.5064L6.40485 51.6053L7.04565 49.3321Z" fill="#6D5C64" />
                        <path d="M24.2754 30.2633C24.0571 29.8739 23.6934 29.5873 23.2641 29.4663C22.8348 29.3453 22.375 29.3998 21.9855 29.6178L14.1897 33.9932L17.584 40.2742L14.4143 51.5187L17.7377 52.4555L21.2735 39.912L18.7466 35.3653L23.6579 32.6088C23.8551 32.498 24.0279 32.3487 24.1663 32.1697C24.3046 31.9906 24.4056 31.7856 24.4632 31.5667C24.5208 31.3479 24.5339 31.1197 24.5016 30.8958C24.4693 30.6718 24.3924 30.4567 24.2754 30.2633Z" fill="#6D5C64" />
                        <path d="M20.9277 70.8944C23.059 69.6982 24.3951 67.6314 24.9673 65.6017L20.9144 64.4592C20.535 65.805 19.2877 66.4395 18.5424 66.8577C17.7972 67.276 16.3335 68.1732 13.8065 67.4609L9.06932 66.1255C6.65697 65.4455 5.87305 64.0763 5.34875 63.1387C4.74788 62.064 4.32333 61.2352 4.70269 59.8894L0.649769 58.7469C0.0776285 60.7766 0.262526 63.1563 1.53229 65.4272C2.89597 67.866 5.79584 69.8376 7.85902 70.4192L12.9819 71.8632C15.6691 72.6207 19.4709 71.712 20.9277 70.8944Z" fill="#6D5C64" />
                        <path d="M15.976 18.8815L20.8988 28.0717L19.3296 28.9155L17.229 24.9938L12.9843 27.2763L15.0849 31.1979L13.5013 32.0494L8.57847 22.8592L10.1621 22.0077L12.3266 26.0486L16.5714 23.7661L14.4068 19.7253L15.976 18.8815Z" fill="#6D5C64" />
                        <path d="M25.8265 18.5094L26.4841 19.7371L22.3407 21.9651L23.9002 24.8765L28.7089 22.2908L29.3666 23.5185L22.9742 26.9558L18.0513 17.7655L24.4003 14.3516L25.058 15.5793L20.2926 18.1417L21.683 20.7374L25.8265 18.5094Z" fill="#6D5C64" />
                        <path d="M32.3407 17.0036L30.2364 18.1351L32.2807 21.9515L30.6971 22.803L25.7743 13.6128L29.2742 11.7309C30.3396 11.158 31.2831 10.9488 32.1048 11.1034C32.924 11.2533 33.5641 11.7585 34.025 12.619C34.5336 13.5684 34.4041 14.5206 33.6365 15.4755C34.8045 15.245 35.6942 15.7004 36.3055 16.8415L36.7151 17.6062C37.0734 18.275 37.4707 18.6517 37.9072 18.7363L37.9861 18.8836L36.3591 19.7585C35.9641 19.6817 35.5524 19.2435 35.124 18.4437L34.7294 17.7071C34.4738 17.2301 34.1324 16.9288 33.705 16.8032C33.2824 16.675 32.8276 16.7418 32.3407 17.0036ZM28.0155 13.989L29.5788 16.9074L31.4155 15.9198C32.0471 15.5802 32.4448 15.2157 32.6088 14.8263C32.7776 14.4344 32.733 13.9975 32.4749 13.5158C32.2169 13.0341 31.8719 12.7436 31.4401 12.6445C31.0131 12.5428 30.5103 12.6475 29.9318 12.9586L28.0155 13.989Z" fill="#6D5C64" />
                    </svg>