<svg width="35" height="35" viewBox="0 0 35 35" fill="none" xmlns="http://www.w3.org/2000/svg">
<circle r="17.5" transform="matrix(-1 0 0 1 17.5 17.5)" fill="#C4C4C4"/>
<circle r="17.5" transform="matrix(-1 0 0 1 17.5 17.5)" fill="#FF4694"/>
<path d="M8.86458 23.2941C7.65153 22.1743 7.00024 20.9183 7.00024 18.8823C7.00024 15.2997 9.89391 12.0886 14.1019 10.501L15.1536 11.9115C11.2259 13.7581 10.458 16.1544 10.1518 17.6653C10.7843 17.3807 11.6122 17.2814 12.4237 17.3469C14.5483 17.5179 16.223 19.0338 16.223 20.9183C16.223 21.8685 15.7887 22.7798 15.0157 23.4516C14.2427 24.1235 13.1942 24.501 12.101 24.501C11.4964 24.4964 10.8989 24.3873 10.3433 24.1801C9.78767 23.9729 9.28501 23.6718 8.86458 23.2941ZM20.6418 23.2941C19.4288 22.1743 18.7775 20.9183 18.7775 18.8823C18.7775 15.2997 21.6712 12.0886 25.8792 10.501L26.9309 11.9115C23.0032 13.7581 22.2353 16.1544 21.9291 17.6653C22.5615 17.3807 23.3895 17.2814 24.2009 17.3469C26.3255 17.5179 28.0002 19.0338 28.0002 20.9183C28.0002 21.8685 27.566 22.7798 26.7929 23.4516C26.0199 24.1235 24.9714 24.501 23.8782 24.501C23.2736 24.4964 22.6761 24.3873 22.1205 24.1801C21.5649 23.9729 21.0623 23.6718 20.6418 23.2941Z" fill="#FFCCCC"/>
</svg>
