<svg width="600" height="408" viewBox="0 0 600 408" fill="none" xmlns="http://www.w3.org/2000/svg">
<rect width="600" height="408" rx="15" fill="#FCF8FA"/>
<path d="M171 272V246.8H106.6V218.6C108.467 215.133 111 210.867 114.2 205.8C117.533 200.6 121.4 194.667 125.8 188L157.2 140H211V216.6H228.8V246.8H211V272H171ZM141 216.6H171.6V182.8C171.6 180.8 171.6 178.6 171.6 176.2C171.733 173.8 171.867 171.333 172 168.8H171.6C170.4 171.067 169.133 173.333 167.8 175.6C166.6 177.867 165.333 180 164 182L148 206.6C146.933 208.333 145.8 210 144.6 211.6C143.533 213.2 142.333 214.867 141 216.6ZM443.784 274C412.584 274 393.118 262.8 385.384 240.4L427.384 223.4C427.251 227.933 427.784 231.4 428.984 233.8C430.184 236.2 431.784 237.8 433.784 238.6C435.918 239.4 438.051 239.8 440.184 239.8C443.518 239.8 446.251 238.933 448.384 237.2C450.651 235.467 451.784 232.867 451.784 229.4C451.784 225.667 450.584 223.133 448.184 221.8C445.784 220.333 443.118 219.6 440.184 219.6C438.184 219.6 436.518 219.667 435.184 219.8C433.851 219.933 432.251 220.133 430.384 220.4V193.6C431.451 193.733 432.518 193.867 433.584 194C434.651 194 436.051 194 437.784 194C441.651 194 444.518 193.133 446.384 191.4C448.251 189.667 449.184 186.8 449.184 182.8C449.184 179.467 448.318 176.867 446.584 175C444.851 173.133 442.451 172.2 439.384 172.2C436.318 172.2 433.518 173.333 430.984 175.6C428.451 177.733 427.251 182.067 427.384 188.6L387.184 176.2C388.118 167.667 391.118 160.6 396.184 155C401.384 149.4 407.984 145.2 415.984 142.4C424.118 139.467 433.051 138 442.784 138C458.918 138 471.451 141.2 480.384 147.6C489.318 154 493.784 163.333 493.784 175.6C493.784 181.867 492.718 187 490.584 191C488.451 194.867 485.851 197.867 482.784 200C479.851 202.133 477.051 203.6 474.384 204.4C471.718 205.2 469.918 205.6 468.984 205.6V206.4C469.918 206.4 471.784 206.667 474.584 207.2C477.518 207.6 480.651 208.667 483.984 210.4C487.318 212 490.184 214.667 492.584 218.4C494.984 222.133 496.184 227.2 496.184 233.6C496.184 242.133 493.784 249.467 488.984 255.6C484.318 261.6 477.984 266.2 469.984 269.4C462.118 272.467 453.384 274 443.784 274Z" fill="#D0ADBE"/>
<path d="M261.4 257L258.33 259.564L258.339 259.575L258.348 259.585L261.4 257ZM261.4 155L258.348 152.415L258.339 152.425L258.33 152.436L261.4 155ZM350 155L346.93 157.564L346.939 157.575L346.948 157.585L350 155ZM350 257L346.948 254.415L346.939 254.425L346.93 254.436L350 257ZM317.6 226.2L313.654 225.542L313.646 225.596L313.638 225.65L317.6 226.2ZM317.6 185.8L313.638 186.35L313.646 186.404L313.654 186.458L317.6 185.8ZM313.8 175.8L316.628 172.972L313.8 175.8ZM297.8 175.8L295.071 172.876L295.02 172.923L294.972 172.972L297.8 175.8ZM293.8 185.8L289.854 185.142L289.846 185.196L289.838 185.25L293.8 185.8ZM293.8 226.2L289.838 226.75L289.846 226.804L289.854 226.858L293.8 226.2ZM297.8 236.2L294.972 239.028L295.02 239.077L295.071 239.124L297.8 236.2ZM305.8 270C286.545 270 273.052 264.567 264.452 254.415L258.348 259.585C268.948 272.1 285.055 278 305.8 278V270ZM264.47 254.436C255.852 244.119 251.2 228.208 251.2 206H243.2C243.2 229.125 248.014 247.214 258.33 259.564L264.47 254.436ZM251.2 206C251.2 183.792 255.852 167.881 264.47 157.564L258.33 152.436C248.014 164.786 243.2 182.875 243.2 206H251.2ZM264.452 157.585C273.052 147.433 286.545 142 305.8 142V134C285.055 134 268.948 139.9 258.348 152.415L264.452 157.585ZM305.8 142C325.059 142 338.469 147.434 346.93 157.564L353.07 152.436C342.598 139.899 326.541 134 305.8 134V142ZM346.948 157.585C355.685 167.901 360.4 183.803 360.4 206H368.4C368.4 182.864 363.515 164.766 353.052 152.415L346.948 157.585ZM360.4 206C360.4 228.197 355.685 244.099 346.948 254.415L353.052 259.585C363.515 247.234 368.4 229.136 368.4 206H360.4ZM346.93 254.436C338.469 264.566 325.059 270 305.8 270V278C326.541 278 342.598 272.101 353.07 259.564L346.93 254.436ZM305.8 243C309.982 243 313.799 241.858 316.628 239.028L310.972 233.372C310.068 234.275 308.551 235 305.8 235V243ZM316.628 239.028C319.445 236.212 320.863 231.784 321.562 226.75L313.638 225.65C313.004 230.216 311.889 232.455 310.972 233.372L316.628 239.028ZM321.546 226.858C322.399 221.735 322.8 214.745 322.8 206H314.8C314.8 214.588 314.401 221.065 313.654 225.542L321.546 226.858ZM322.8 206C322.8 197.255 322.399 190.265 321.546 185.142L313.654 186.458C314.401 190.935 314.8 197.412 314.8 206H322.8ZM321.562 185.25C320.863 180.216 319.445 175.788 316.628 172.972L310.972 178.628C311.889 179.545 313.004 181.784 313.638 186.35L321.562 185.25ZM316.628 172.972C313.799 170.142 309.982 169 305.8 169V177C308.551 177 310.068 177.725 310.972 178.628L316.628 172.972ZM305.8 169C301.687 169 297.966 170.174 295.071 172.876L300.529 178.724C301.634 177.693 303.247 177 305.8 177V169ZM294.972 172.972C292.196 175.747 290.691 180.12 289.854 185.142L297.746 186.458C298.509 181.88 299.671 179.586 300.628 178.628L294.972 172.972ZM289.838 185.25C289.134 190.321 288.8 197.268 288.8 206H296.8C296.8 197.398 297.133 190.879 297.762 186.35L289.838 185.25ZM288.8 206C288.8 214.732 289.134 221.679 289.838 226.75L297.762 225.65C297.133 221.121 296.8 214.602 296.8 206H288.8ZM289.854 226.858C290.691 231.88 292.196 236.253 294.972 239.028L300.628 233.372C299.671 232.414 298.509 230.12 297.746 225.542L289.854 226.858ZM295.071 239.124C297.966 241.826 301.687 243 305.8 243V235C303.247 235 301.634 234.307 300.529 233.276L295.071 239.124Z" fill="#FF0990"/>
</svg>
