<svg width="36" height="36" viewBox="0 0 36 36" fill="none" xmlns="http://www.w3.org/2000/svg">
<path d="M31.5938 6.75H31.125V7.92188C31.125 8.30859 30.8086 8.625 30.4219 8.625H28.0781C27.6914 8.625 27.375 8.30859 27.375 7.92188V6.75H8.625V7.92188C8.625 8.30859 8.30859 8.625 7.92188 8.625H5.57812C5.19141 8.625 4.875 8.30859 4.875 7.92188V6.75H4.40625C3.62695 6.75 3 7.37695 3 8.15625V27.8438C3 28.623 3.62695 29.25 4.40625 29.25H4.875V28.0781C4.875 27.6914 5.19141 27.375 5.57812 27.375H7.92188C8.30859 27.375 8.625 27.6914 8.625 28.0781V29.25H27.375V28.0781C27.375 27.6914 27.6914 27.375 28.0781 27.375H30.4219C30.8086 27.375 31.125 27.6914 31.125 28.0781V29.25H31.5938C32.373 29.25 33 28.623 33 27.8438V8.15625C33 7.37695 32.373 6.75 31.5938 6.75ZM8.625 24.7969C8.625 25.1836 8.30859 25.5 7.92188 25.5H5.57812C5.19141 25.5 4.875 25.1836 4.875 24.7969V22.4531C4.875 22.0664 5.19141 21.75 5.57812 21.75H7.92188C8.30859 21.75 8.625 22.0664 8.625 22.4531V24.7969ZM8.625 19.1719C8.625 19.5586 8.30859 19.875 7.92188 19.875H5.57812C5.19141 19.875 4.875 19.5586 4.875 19.1719V16.8281C4.875 16.4414 5.19141 16.125 5.57812 16.125H7.92188C8.30859 16.125 8.625 16.4414 8.625 16.8281V19.1719ZM8.625 13.5469C8.625 13.9336 8.30859 14.25 7.92188 14.25H5.57812C5.19141 14.25 4.875 13.9336 4.875 13.5469V11.2031C4.875 10.8164 5.19141 10.5 5.57812 10.5H7.92188C8.30859 10.5 8.625 10.8164 8.625 11.2031V13.5469ZM24.5625 25.7344C24.5625 26.1211 24.2461 26.4375 23.8594 26.4375H12.1406C11.7539 26.4375 11.4375 26.1211 11.4375 25.7344V20.1094C11.4375 19.7227 11.7539 19.4062 12.1406 19.4062H23.8594C24.2461 19.4062 24.5625 19.7227 24.5625 20.1094V25.7344ZM24.5625 15.8906C24.5625 16.2773 24.2461 16.5938 23.8594 16.5938H12.1406C11.7539 16.5938 11.4375 16.2773 11.4375 15.8906V10.2656C11.4375 9.87891 11.7539 9.5625 12.1406 9.5625H23.8594C24.2461 9.5625 24.5625 9.87891 24.5625 10.2656V15.8906ZM31.125 24.7969C31.125 25.1836 30.8086 25.5 30.4219 25.5H28.0781C27.6914 25.5 27.375 25.1836 27.375 24.7969V22.4531C27.375 22.0664 27.6914 21.75 28.0781 21.75H30.4219C30.8086 21.75 31.125 22.0664 31.125 22.4531V24.7969ZM31.125 19.1719C31.125 19.5586 30.8086 19.875 30.4219 19.875H28.0781C27.6914 19.875 27.375 19.5586 27.375 19.1719V16.8281C27.375 16.4414 27.6914 16.125 28.0781 16.125H30.4219C30.8086 16.125 31.125 16.4414 31.125 16.8281V19.1719ZM31.125 13.5469C31.125 13.9336 30.8086 14.25 30.4219 14.25H28.0781C27.6914 14.25 27.375 13.9336 27.375 13.5469V11.2031C27.375 10.8164 27.6914 10.5 28.0781 10.5H30.4219C30.8086 10.5 31.125 10.8164 31.125 11.2031V13.5469Z" fill="#FF0990"/>
</svg>
