<svg width="212" height="200" viewBox="0 0 212 200" fill="none" xmlns="http://www.w3.org/2000/svg">
    <path d="M204 46.6729H80.9966C76.5783 46.6729 72.9966 50.2546 72.9966 54.6729V148.845C72.9966 153.264 76.5783 156.845 80.9966 156.845H204C208.418 156.845 212 153.264 212 148.845V54.6729C212 50.2546 208.418 46.6729 204 46.6729Z" fill="#F2F2F2"/>
    <path d="M192.597 136.055C192.597 140.473 189.016 144.055 184.597 144.055H61.0147C56.5964 144.055 53.0146 140.473 53.0146 136.055V41.3008C53.0146 36.8825 56.5964 33.3008 61.0146 33.3008H184.597C189.016 33.3008 192.597 36.8825 192.597 41.3008V136.055ZM53.5938 135.473C53.5938 139.891 57.1756 143.473 61.5938 143.473H184.018C188.436 143.473 192.018 139.891 192.018 135.473V41.8822C192.018 37.4639 188.437 33.8822 184.018 33.8822H61.5938C57.1756 33.8822 53.5938 37.4639 53.5938 41.8822V135.473Z" fill="#767676"/>
    <path d="M210.666 178.152H49.6226V178.839H210.666V178.152Z" fill="#767676"/>
    <path opacity="0.2" d="M114.641 116.483C109.354 118.838 103.394 114.974 103.386 109.187L103.34 76.2317C103.331 70.4448 109.28 66.5639 114.573 68.9031L151.738 85.3278C158.083 88.132 158.095 97.1309 151.758 99.9531L114.641 116.483Z" fill="#767676"/>
    <path d="M102.519 116.423C97.2321 118.777 91.2721 114.913 91.264 109.126L91.2175 76.171C91.2094 70.3841 97.1583 66.5033 102.451 68.8425L139.616 85.267C145.961 88.0712 145.973 97.0701 139.636 99.8923L102.519 116.423Z" fill="#FFCCCC"/>
    <path opacity="0.2" d="M142.099 96.7977C141.794 96.6657 141.447 96.6662 141.143 96.7991L98.1583 115.526C97.7195 115.717 97.436 116.151 97.4367 116.629C97.4379 117.494 98.3252 118.075 99.1182 117.729L142.102 99.0021C143.066 98.5822 143.064 97.2148 142.099 96.7977Z" fill="#FF0990"/>
    <path opacity="0.6" d="M38.4924 20.8569L38.226 20.9603C35.994 21.8268 34.8824 24.3405 35.7432 26.5747C36.6041 28.809 39.1113 29.9177 41.3433 29.0512L41.6098 28.9477C43.8418 28.0812 44.9534 25.5676 44.0925 23.3333C43.2317 21.0991 40.7245 19.9903 38.4924 20.8569Z" fill="#FF0990"/>
    <path d="M42.5059 22.4938C43.4104 24.8414 42.2444 27.4782 39.8991 28.3887L39.6187 28.4976C37.2649 29.4113 34.6165 28.2402 33.7088 25.8841C32.8043 23.5365 33.9703 20.8998 36.3155 19.9893L36.596 19.8804C38.9497 18.9666 41.5981 20.1378 42.5059 22.4938ZM34.1486 25.7146C34.9656 27.8351 37.3492 28.8891 39.4675 28.0667L39.7199 27.9687C41.8307 27.1493 42.8801 24.7762 42.066 22.6634C41.2491 20.5429 38.8655 19.4889 36.7471 20.3113L36.4947 20.4092C34.384 21.2287 33.3346 23.6018 34.1486 25.7146Z" fill="#767676"/>
    <path d="M209.446 6.49328L209.337 6.17451C208.564 3.91591 206.107 2.71633 203.85 3.49516C201.593 4.27399 200.391 6.73631 201.165 8.99491L201.274 9.31368C202.047 11.5723 204.504 12.7719 206.761 11.993C209.018 11.2142 210.22 8.75188 209.446 6.49328Z" fill="#FF0990"/>
    <path d="M207.678 10.4261C205.298 11.2473 202.704 9.98051 201.889 7.59913L201.774 7.26356C200.961 4.89003 202.222 2.30636 204.594 1.48789C206.973 0.666713 209.568 1.93345 210.383 4.31483L210.498 4.6504C211.311 7.02393 210.049 9.60761 207.678 10.4261ZM204.748 1.9348C202.614 2.67142 201.478 4.99673 202.21 7.13291L202.313 7.43492C203.047 9.57816 205.382 10.7182 207.524 9.97917C209.658 9.24255 210.794 6.91724 210.062 4.78106L209.958 4.47905C209.224 2.3358 206.89 1.19574 204.748 1.9348Z" fill="#767676"/>
    <path d="M210.331 178.59L209.964 178.452C209.884 178.422 201.858 175.335 198.098 168.336C194.339 161.337 196.18 152.91 196.199 152.826L196.285 152.442L196.652 152.58C196.733 152.611 204.758 155.698 208.518 162.696C212.278 169.695 210.437 178.122 210.418 178.207L210.331 178.59ZM198.7 168.011C201.879 173.928 208.221 176.961 209.828 177.654C210.134 175.925 211.092 168.934 207.916 163.022C204.741 157.111 198.396 154.073 196.788 153.379C196.483 155.109 195.525 162.099 198.7 168.011Z" fill="#767676"/>
    <path d="M200.972 165.882C207.729 169.962 210.331 178.067 210.331 178.067C210.331 178.067 201.978 179.556 195.222 175.476C188.465 171.395 185.863 163.291 185.863 163.291C185.863 163.291 194.216 161.801 200.972 165.882Z" fill="#FF0990"/>
    <path opacity="0.8" d="M77.2302 196.293C73.8974 196.546 70.9912 194.039 70.7391 190.694C70.4871 187.348 72.9845 184.431 76.3174 184.178C79.6502 183.925 82.5564 186.432 82.8085 189.777C83.0605 193.123 80.5631 196.04 77.2302 196.293Z" fill="#FF0990"/>
    <path d="M20.7709 186.918C10.5529 187.694 1.92898 183.802 1.50886 178.227C1.08875 172.651 9.03154 167.502 19.2496 166.726C29.4676 165.95 38.0915 169.841 38.5117 175.417C38.9318 180.993 30.989 186.142 20.7709 186.918Z" fill="white"/>
    <path d="M37.2648 87.4846L37.6379 89.4839L37.8579 90.667L38.9378 96.4536C38.9378 96.4536 39.4945 97.3264 40.4635 98.5358C42.0749 100.546 44.8336 103.484 48.0883 104.894C53.3038 107.151 53.8544 88.0502 53.8544 88.0502C53.8544 88.0502 54.3847 80.6203 51.7013 80.5528C49.0178 80.4853 50.1722 83.5807 50.3622 88.8031C50.5521 94.0256 47.4055 98.6943 47.4055 98.6943C47.4055 98.6943 43.3146 93.8188 41.4272 90.4825C40.444 88.7444 39.3547 88.0033 38.5384 87.6942L38.5359 87.6934C38.2664 87.588 37.9842 87.519 37.6966 87.4881C37.5532 87.4708 37.4084 87.4697 37.2648 87.4846Z" fill="#FFCCCC"/>
    <path d="M46.1296 95.1502L38.3229 100.535L33.2773 92.9199L34.0114 89.2567C35.1044 88.2558 36.5198 87.6833 37.9988 87.6439C39.4778 87.6045 40.9215 88.1009 42.0658 89.0423L46.1296 95.1502Z" fill="#FF0990"/>
    <path d="M41.0008 66.9701C45.8756 68.5727 48.3911 74.2743 46.6192 79.7048L44.3681 86.6044L42.2541 85.9094L41.8643 82.9507L41.3362 85.6076L27.7486 81.1406L27.3942 78.4508L26.9141 80.8662L25.3843 80.3633L27.1519 74.9459C29.1908 68.6968 35.3912 65.1259 41.0008 66.9701Z" fill="#2F2E41"/>
    <path d="M38.8838 101.595L38.5092 107.718L24.9862 102.729L26.751 98.1492C26.751 98.1492 37.8936 98.8251 38.8838 101.595Z" fill="#A0616A"/>
    <path d="M44.7158 128.497L37.1169 136.862L34.6433 130.346L40.3048 124.603L44.7158 128.497Z" fill="#FFCCCC"/>
    <path d="M21.9568 160.938L17.7871 172.059L12.4114 170.292L16.8258 159.251L21.9568 160.938Z" fill="#FFCCCC"/>
    <path d="M43.4342 116.67L38.3499 123.961L21.8808 161.999C21.8808 161.999 18.1399 161.855 16.0967 159.826L17.3685 154.269L26.4743 123.044C26.4743 123.044 22.6321 119.065 24.2411 115.792C25.8502 112.519 28.5924 108.26 28.5924 108.26L43.4342 116.67Z" fill="#2F2E41"/>
    <path d="M17.9338 169.121L19.3999 169.603C19.3999 169.603 22.1132 175.384 23.4192 176.356C24.7252 177.329 30.9393 183.988 24.5908 182.716C18.2422 181.444 15.373 176.97 15.373 176.97C15.373 176.97 13.0182 177.554 10.6505 175.689C8.28288 173.824 10.7092 171.363 10.7092 171.363C10.7092 171.363 13.5372 167.326 13.5765 167.378C13.6157 167.43 14.3615 170.119 17.9338 169.121Z" fill="#2F2E41"/>
    <path d="M37.7278 82.7474C34.624 81.727 32.932 78.3741 33.9485 75.2586C34.9651 72.143 38.3052 70.4445 41.409 71.4649C44.5127 72.4853 46.2048 75.8382 45.1882 78.9537C44.1717 82.0693 40.8316 83.7678 37.7278 82.7474Z" fill="#FFCCCC"/>
    <path d="M28.86 81.7338L30.7393 84.7469L30.9918 85.1504L30.2758 88.174L39.8051 91.3068C39.8051 91.3068 38.8742 89.7488 38.0488 88.182C38.0332 88.147 38.0159 88.1088 37.9954 88.0721C37.8837 87.8589 37.7851 87.6635 37.6964 87.4877C37.6495 87.3908 37.6035 87.2996 37.5633 87.2158C37.4975 87.0774 37.4325 86.9447 37.3676 86.812C37.3667 86.8103 37.3664 86.8083 37.3668 86.8063C37.2025 86.4614 37.0578 86.1074 36.9336 85.7459L36.9319 85.7427C36.8987 85.6453 36.8705 85.5463 36.8475 85.4461C36.5146 83.9787 39.0252 82.0883 39.0252 82.0883L34.53 77.6231C33.4744 80.22 30.6544 81.2591 29.4349 81.5969C29.0785 81.6943 28.86 81.7338 28.86 81.7338Z" fill="#FFCCCC"/>
    <path d="M2.22191 118.601C5.56692 120.787 8.21201 113.509 8.21201 113.509L16.491 105.111C18.2404 103.336 19.7086 101.303 20.8444 99.0821L24.3621 92.2036L24.5747 92.7379L24.5738 92.7403L25.0994 93.2607L30.9166 88.3837L32.547 87.0187L33.1872 85.0565L30.0823 82.1347L28.6162 81.6527C28.6162 81.6527 28.5861 81.6373 28.5315 81.614C27.8803 81.3211 23.588 79.5841 21.9603 83.8098C21.3212 85.4681 20.8728 86.8687 20.5606 87.9807C19.7096 91.0612 18.4311 94.0062 16.7626 96.7292C16.1563 97.7094 15.5723 98.5418 15.1283 98.9448C13.5908 100.34 5.76862 112.706 5.76862 112.706C5.76862 112.706 -1.12309 116.415 2.22191 118.601Z" fill="#FFCCCC"/>
    <path d="M36.933 85.7463C36.9339 85.7764 36.9776 86.0325 37.5634 87.2161C37.3221 86.7402 37.1115 86.2492 36.933 85.7463Z" fill="#D0CDE1"/>
    <path d="M24.4437 92.3675L24.5733 92.7414L25.2378 100.585C25.2378 100.585 28.7599 105.977 32.3407 106.611C34.3719 106.91 37.9673 104.651 38.4549 106.653L39.3634 100.124L40.4633 98.5357C40.5916 98.3498 40.7369 98.145 40.8967 97.9124C42.4299 95.7006 40.6225 92.119 40.6225 92.119L38.5382 87.6942L38.5358 87.6934C38.2663 87.588 37.984 87.519 37.6964 87.488C37.7852 87.6638 37.8838 87.8592 37.9955 88.0725C38.016 88.1091 38.0332 88.1474 38.0489 88.1824C38.6718 89.449 38.0983 89.5565 37.6377 89.4839C37.4858 89.4586 37.3369 89.4178 37.1932 89.3621C36.1263 89.1743 34.1883 87.5432 32.7961 86.2545C31.8484 85.378 31.1519 84.6602 31.1519 84.6602L29.659 81.9968L29.435 81.5972C29.0785 81.6946 28.86 81.7341 28.86 81.7341L28.6157 81.6538C28.6157 81.6538 28.5855 81.6384 28.5309 81.615L29.3731 82.8095C29.7924 83.4042 30.0569 84.0948 30.1425 84.8184C30.228 85.5419 30.1319 86.2755 29.863 86.9522L24.4437 92.3675Z" fill="#FF0990"/>
    <path d="M35.4796 103.735L38.595 106.31C38.595 106.31 60.4483 105.154 61.3797 112.25C62.3112 119.346 44.3153 129.724 44.3153 129.724L39.3314 125.098L44.1755 118.543C44.1755 118.543 26.0825 125.903 22.379 117.352C18.6755 108.802 25.6401 100.724 25.6401 100.724C25.6401 100.724 30.2514 99.0289 35.4796 103.735Z" fill="#2F2E41"/>
    <path d="M37.019 133.843L38.6579 136.282C38.6579 136.282 34.1424 143.488 34.4753 144.956C34.8082 146.423 35.1539 150.339 32.5461 149.21C29.9384 148.081 28.3667 142.948 28.6026 141.396C28.8384 139.844 28.5685 134.866 28.5685 134.866C28.5685 134.866 27.8771 127.035 30.1562 127.513C32.4353 127.99 35.9913 128.978 35.9913 128.978L37.019 133.843Z" fill="#2F2E41"/>
    <path d="M37.6077 68.8541C38.2193 68.4212 38.9219 68.1355 39.6612 68.0193C40.4005 67.9031 41.1566 67.9594 41.8707 68.1839L42.044 68.2408C45.3852 69.3393 47.1035 73.2647 45.8821 77.0084L44.7625 76.6404L45.0324 75.1995L44.3166 76.4938L37.6766 74.3108L37.5017 72.9592L37.2594 74.1737L35.9531 73.7442C34.3521 76.5825 34.2365 79.9092 35.6063 83.7242L33.3811 82.9926L33.0311 80.2894L32.5466 82.7183L28.3048 81.3237L29.2245 75.6732C30.5381 71.6469 33.9826 68.9989 37.6077 68.8541Z" fill="#2F2E41"/>
    <path d="M14.8033 91.2498L27.6424 95.4708L30.9049 85.4715L28.9697 81.6367C27.4515 80.8642 25.707 80.6662 24.0553 81.0787C22.4035 81.4913 20.955 82.487 19.9745 83.8836L14.8033 91.2498Z" fill="#FF0990"/>
</svg>