<svg width="160" height="160" viewBox="0 0 160 160" fill="none" xmlns="http://www.w3.org/2000/svg">
<path d="M159.999 79.5935C160.216 123.142 125.247 159.07 81.7066 159.982C75.6921 160.107 69.8267 159.565 64.1748 158.43C61.3794 157.869 59.375 155.398 59.375 152.545C59.375 149.414 56.8359 146.875 53.7036 146.875H37.8027C36.665 146.875 35.5542 146.53 34.6179 145.884C26.3477 140.177 19.2041 132.955 13.5901 124.617C12.876 123.557 12.5 122.305 12.5 121.025V103.832C12.5 99.9902 9.38477 96.875 5.54321 96.875C3.31787 96.875 1.42822 95.2576 1.06567 93.0615C0.366211 88.811 0 84.4482 0 80C0 35.8167 35.8167 0 80 0C124.047 0 159.78 35.5969 159.999 79.5935Z" fill="#025F80"/>
<path d="M66.6248 16.3782C66.8298 15.7178 67.03 15.0964 67.1631 14.7192C69.0173 9.45312 71.532 4.5874 74.585 0.186768C76.3745 0.0671388 78.1799 0 80 0C80.603 0 81.2048 0.00976563 81.8042 0.0231934C77.8857 4.83398 74.7192 10.3711 72.5439 16.5112C72.4194 16.8628 72.2327 17.4463 72.0374 18.0713C71.5771 19.5459 70.0183 20.3809 68.5352 19.9475C67.0129 19.502 66.1523 17.8943 66.6248 16.3782ZM159.979 78.3105C146.312 89.4104 127.601 93.811 109.304 88.4546C95.47 84.4055 84.4116 75.4443 77.4622 64.0308L80.1965 62.533C81.1011 62.0361 81.0498 60.719 80.1074 60.2954L71.2683 56.3281C70.5115 55.9888 69.6399 56.4661 69.519 57.2864L68.1055 66.8713C67.9541 67.8931 69.0369 68.6462 69.9426 68.1506L72.4841 66.7578C80.1404 79.4531 92.3938 89.4238 107.745 93.9075C126.199 99.2981 145.148 95.603 159.812 85.4517C159.933 83.6499 160 81.8323 160 80C160 79.4348 159.99 78.8721 159.979 78.3105ZM85.4053 146.489C83.9258 146.042 82.3608 146.863 81.886 148.334C81.6846 148.956 81.4917 149.539 81.3647 149.889C80.0671 153.447 78.4338 156.798 76.5173 159.919C77.6721 159.969 78.833 160 80 160C81.0229 160 82.041 159.974 83.0542 159.937C84.4604 157.328 85.6921 154.59 86.7297 151.731C86.8665 151.354 87.0715 150.735 87.2827 150.076C87.7686 148.566 86.9238 146.948 85.4053 146.489ZM84.7668 109.143L86.2695 99.5715C86.4294 98.551 85.354 97.7881 84.4446 98.2764L81.8896 99.6448C74.3506 86.8799 62.1912 76.7969 46.8811 72.1704C30.6238 67.2583 13.9148 69.4299 0.0659181 76.908C0.0268555 77.9333 0 78.9636 0 80C0 81.1316 0.0292969 82.2559 0.0756838 83.3765C13.1079 75.3809 29.3811 72.7966 45.2722 77.6086C59.0674 81.7859 70.0427 90.8472 76.886 102.325L74.1382 103.799C73.2275 104.286 73.2678 105.604 74.2065 106.036L83.009 110.085C83.7622 110.432 84.6375 109.962 84.7668 109.143ZM86.7126 114.219C85.2673 113.783 83.7427 114.6 83.3057 116.045C82.8687 117.49 83.6865 119.016 85.1318 119.452C86.5771 119.889 88.1018 119.071 88.5388 117.626C88.9758 116.182 88.158 114.656 86.7126 114.219ZM85.4358 124.951C84.9072 126.366 85.625 127.941 87.0386 128.469C88.4521 128.998 90.0281 128.281 90.5566 126.866C91.0852 125.453 90.3674 123.878 88.9539 123.35C87.5403 122.82 85.9656 123.538 85.4358 124.951ZM89.1748 130.988C87.7612 130.459 86.1865 131.177 85.658 132.59C85.1282 134.004 85.8459 135.58 87.2595 136.108C88.6743 136.637 90.249 135.919 90.7776 134.506C91.3062 133.092 90.5896 131.517 89.1748 130.988ZM88.3032 138.959C86.8896 138.429 85.3137 139.147 84.7852 140.56C84.2566 141.974 84.9744 143.55 86.3879 144.078C87.8015 144.607 89.3774 143.889 89.906 142.476C90.4346 141.062 89.7168 139.487 88.3032 138.959ZM67.5269 52.229C68.9758 52.6514 70.4932 51.8201 70.9167 50.3711C71.3391 48.9221 70.5078 47.4036 69.0588 46.9812C67.6099 46.5576 66.0925 47.3889 65.6689 48.8379C65.2454 50.2869 66.0767 51.8054 67.5269 52.229ZM68.7036 41.4844C69.2188 40.0659 68.4863 38.4973 67.0679 37.9822C65.6494 37.4658 64.0808 38.1982 63.5657 39.6167C63.0493 41.0352 63.7817 42.6038 65.2002 43.1189C66.6187 43.6353 68.1873 42.9041 68.7036 41.4844ZM64.9084 35.4834C66.3269 35.9985 67.8955 35.2673 68.4119 33.8477C68.927 32.4292 68.1958 30.8606 66.7761 30.3455C65.3577 29.8303 63.7891 30.5615 63.2739 31.98C62.7576 33.3997 63.49 34.967 64.9084 35.4834ZM65.7068 27.5049C67.1265 28.0212 68.6938 27.2888 69.2102 25.8704C69.7253 24.4519 68.9941 22.8833 67.5745 22.3669C66.156 21.8518 64.5874 22.5842 64.0723 24.0027C63.5559 25.4211 64.2883 26.9897 65.7068 27.5049Z" fill="#88B9D3"/>
<path d="M64.615 158.516C53.5127 156.353 43.2332 151.897 34.2866 145.655C38.8899 144.064 42.6912 140.366 44.2073 135.347C46.717 127.041 42.0173 118.271 33.7105 115.76C25.6001 113.31 17.054 117.731 14.3159 125.671C7.60205 116.032 2.95483 104.847 1.01758 92.7559C1.98438 92.9707 2.91821 93.3955 3.74341 94.0388L6.06152 95.8418C8.14282 94.4685 10.3413 93.2844 12.6313 92.2993L12.3481 89.5381C11.9954 86.1043 14.2476 82.9439 17.6082 82.1553C20.898 81.385 24.2598 83.1233 25.5317 86.2532L26.6328 88.9644C29.0962 88.8142 31.5938 88.8826 34.1011 89.1829L35.2327 86.6572C36.6438 83.5078 40.1753 81.8965 43.4797 82.895C46.7146 83.8728 48.7556 87.0588 48.2918 90.4048L47.8901 93.3101C50.1509 94.4356 52.2761 95.7478 54.2524 97.2249L56.4912 95.6062C59.2891 93.5835 63.1526 93.9546 65.5159 96.4705C67.8279 98.9339 68.0024 102.714 65.9285 105.382L64.1243 107.7C65.4976 109.78 66.6829 111.978 67.668 114.268L70.4292 113.985C73.863 113.632 77.0234 115.886 77.8108 119.246C78.5823 122.535 76.844 125.897 73.7129 127.169L71.0029 128.27C71.1519 130.733 71.0835 133.231 70.7832 135.738L73.3088 136.87C76.4583 138.282 78.0696 141.814 77.0711 145.117C76.0945 148.352 72.9085 150.393 69.5613 149.93L66.6572 149.527C65.5305 151.788 64.2183 153.913 62.7424 155.889L64.3611 158.129C64.4526 158.256 64.5332 158.387 64.615 158.516Z" fill="#FDBF43"/>
<path d="M44.2061 135.347C46.717 127.039 42.0173 118.269 33.7092 115.759C25.6001 113.309 17.0527 117.731 14.3147 125.67C11.6975 121.913 9.39526 117.921 7.44336 113.731C14.2671 105.054 25.948 100.978 37.1528 104.364C51.7549 108.776 60.0142 124.19 55.6025 138.79C53.8948 144.445 50.5354 149.146 46.2153 152.531C42.0283 150.577 38.0403 148.274 34.2866 145.654C38.8887 144.064 42.6899 140.365 44.2061 135.347Z" fill="#FDA800"/>
<path d="M12.1516 122.389C10.4133 119.612 8.8374 116.722 7.44336 113.73C12.5813 107.197 20.4719 103.275 28.8398 103.179C21.2727 106.177 15.0959 112.476 12.5581 120.874C12.4055 121.378 12.2737 121.884 12.1516 122.389Z" fill="#FC9302"/>
<path d="M89.1064 0.518555C87.716 2.84155 87.7953 5.84082 89.4701 8.11377L91.1095 10.3379C89.6508 12.3276 88.3581 14.4663 87.2533 16.7368L84.3456 16.3608C80.9948 15.9287 77.8271 18.0002 76.8798 21.2424C75.913 24.5566 77.5561 28.0723 80.7189 29.4553L83.2555 30.5637C82.9772 33.0735 82.9321 35.571 83.1042 38.0332L80.404 39.1599C77.2863 40.4612 75.5785 43.8377 76.3805 47.1201C77.1984 50.4734 80.3808 52.6963 83.811 52.313L86.5698 52.0029C87.5744 54.2844 88.7804 56.4719 90.1733 58.5398L88.391 60.8738C86.3415 63.5593 86.5514 67.3386 88.8854 69.78C91.2719 72.2752 95.1391 72.6096 97.9174 70.5613L100.142 68.9219C102.131 70.3806 104.269 71.6733 106.539 72.7781L106.164 75.6858C105.732 79.0378 107.803 82.2044 111.046 83.1516C114.359 84.1196 117.876 82.4753 119.259 79.3125L120.367 76.7771C122.877 77.0542 125.375 77.0994 127.837 76.9273L128.964 79.6274C130.264 82.7451 133.641 84.4529 136.924 83.6521C140.277 82.833 142.5 79.6519 142.117 76.2217L141.807 73.4629C144.088 72.457 146.276 71.251 148.343 69.8594L150.677 71.6416C153.34 73.6729 157.073 73.4812 159.515 71.2058C155.464 34.155 126.114 4.71411 89.1064 0.518555ZM140.001 39.52C137.568 47.8513 128.843 52.6316 120.511 50.1987C112.181 47.7647 107.4 39.0391 109.834 30.7078C112.267 22.3777 120.994 17.5974 129.324 20.0303C137.654 22.4644 142.435 31.1899 140.001 39.52Z" fill="#F18BC3"/>
<path d="M116.515 8.80273C108.073 11.5078 101.08 18.2205 98.4082 27.3709C94.1309 42.0132 102.533 57.3489 117.175 61.6262C131.591 65.8364 146.679 57.7578 151.223 43.5342C143.582 28.6379 131.405 16.4541 116.515 8.80273ZM136.283 38.4341C134.45 44.7097 127.876 48.312 121.599 46.4785C115.324 44.645 111.722 38.0715 113.556 31.7947C115.388 25.519 121.963 21.918 128.239 23.7515C134.514 25.5837 138.115 32.1584 136.283 38.4341Z" fill="#E659A9"/>
<path d="M128.369 62.5222C124.723 62.9837 120.927 62.7224 117.175 61.6262C102.533 57.3489 94.1309 42.012 98.4082 27.3709C101.08 18.2205 108.073 11.5066 116.515 8.80273C117.512 9.31421 118.495 9.84766 119.467 10.4006C112.825 13.7161 107.528 19.6816 105.283 27.3709C101.006 42.012 109.408 57.3489 124.05 61.625C125.487 62.0462 126.93 62.3416 128.369 62.5222Z" fill="#DF3D9B"/>
<path d="M54.5667 37.1394C54.5704 35.7954 54.4508 34.4697 54.2176 33.1758L55.5824 32.4251C57.1583 31.5571 57.8675 29.6711 57.256 27.9793C56.6297 26.2507 54.817 25.2571 53.0238 25.6575L51.5809 25.9797C50.9181 24.8298 50.1539 23.741 49.2982 22.7266L50.1075 21.3875C51.0377 19.8481 50.7093 17.8596 49.3336 16.7012C47.9273 15.5183 45.8607 15.5635 44.5069 16.8062L43.4242 17.8022C42.2865 17.1443 41.0804 16.5828 39.8146 16.1287L39.8463 14.5674C39.8829 12.7681 38.6048 11.2104 36.8336 10.8955C35.0233 10.5745 33.2569 11.6462 32.7064 13.4004L32.2657 14.8066C30.9205 14.8042 29.596 14.9226 28.3021 15.1558L27.5501 13.791C26.6822 12.2151 24.7962 11.5059 23.1056 12.1174C21.377 12.7437 20.3822 14.5564 20.7838 16.3496L21.1048 17.7925C19.9562 18.4553 18.8673 19.2195 17.8529 20.0752L16.5138 19.2659C14.9745 18.3357 12.9859 18.6641 11.8275 20.0398C10.6434 21.446 10.6886 23.5127 11.9325 24.8652L12.9286 25.9492C12.2706 27.0869 11.7091 28.2917 11.255 29.5576L9.6937 29.5259C7.89438 29.4905 6.33676 30.7686 6.02182 32.5398C5.69956 34.3501 6.77256 36.1165 8.52549 36.667L9.93174 37.1077C9.92929 38.4529 10.0489 39.7773 10.2821 41.0713L8.91733 41.822C7.3414 42.6899 6.63095 44.5759 7.24375 46.2678C7.86997 47.9963 9.68149 48.99 11.4759 48.5896L12.9188 48.2673C13.5816 49.4172 14.3458 50.5061 15.2015 51.5205L14.3922 52.8584C13.4608 54.3989 13.7904 56.3862 15.1661 57.5447C16.5724 58.7288 18.639 58.6836 19.9916 57.4397L21.0755 56.4448C22.2132 57.1028 23.4193 57.6643 24.6839 58.1184L24.6522 59.6797C24.6168 61.4778 25.8949 63.0366 27.6661 63.3516C29.4752 63.6726 31.2428 62.6008 31.7933 60.8467L32.234 59.4404C33.578 59.4429 34.9037 59.3245 36.1976 59.0913L36.9483 60.4561C37.8163 62.032 39.7022 62.7412 41.3941 62.1284C43.1214 61.5034 44.1163 59.6907 43.7159 57.8975L43.3937 56.4546C44.5423 55.7905 45.6324 55.0276 46.6468 54.1719L47.9847 54.98C49.5252 55.9114 51.5125 55.583 52.671 54.2073C53.8551 52.801 53.8099 50.7344 52.566 49.3806L51.5711 48.2979C52.2291 47.1602 52.7906 45.9541 53.2447 44.6882L54.806 44.72C56.6041 44.7566 58.1617 43.4785 58.4779 41.7073C58.7989 39.897 57.7271 38.1306 55.973 37.5801L54.5667 37.1394ZM40.4884 38.5896C39.6791 43.1392 35.3333 46.1714 30.7838 45.3621C26.2342 44.5527 23.202 40.2083 24.0113 35.6575C24.8207 31.1079 29.1664 28.0757 33.7159 28.885C38.2655 29.6943 41.2977 34.04 40.4884 38.5896Z" fill="#0ED1B2"/>
<path d="M34.9782 21.7932C26.5114 20.2868 18.4255 25.9289 16.9192 34.3957C15.4128 42.8625 21.0549 50.9485 29.5217 52.4548C37.9885 53.9612 46.0744 48.3191 47.5808 39.8523C49.0871 31.3855 43.445 23.2995 34.9782 21.7932ZM42.7553 38.9929C41.7226 44.7961 36.1831 48.6621 30.3811 47.6294C24.5779 46.5967 20.7119 41.0571 21.7446 35.2551C22.7773 29.4531 28.3169 25.5859 34.1189 26.6186C39.9221 27.6513 43.7881 33.1909 42.7553 38.9929Z" fill="#0AB59E"/>
<path d="M34.7158 52.4998C33.0385 52.7683 31.2893 52.7695 29.5217 52.4546C21.0549 50.9482 15.4128 42.8623 16.9192 34.3955C18.4084 26.0264 26.3259 20.4221 34.6865 21.749C28.3254 22.7683 23.0129 27.6963 21.8203 34.3955C21.675 35.2183 21.5981 36.0361 21.5823 36.8455C21.5774 37.0444 21.5774 37.2434 21.5823 37.4399C21.7226 44.7227 26.9814 51.1301 34.424 52.4546C34.5217 52.4717 34.6181 52.4839 34.7158 52.4998Z" fill="#01988C"/>
<path d="M141.334 131.357C139.782 128.713 137.128 126.738 133.874 126.159C127.972 125.108 122.336 129.041 121.285 134.943C120.527 139.205 122.366 143.326 125.668 145.684C120.542 149.256 114.979 152.244 109.073 154.549C108.276 153.518 107.548 152.432 106.895 151.302L105.024 151.72C102.697 152.24 100.346 150.949 99.5344 148.707C98.7398 146.513 99.6602 144.067 101.705 142.94L103.475 141.966C103.173 140.288 103.018 138.569 103.022 136.824L101.197 136.253C98.9229 135.539 97.5313 133.247 97.9487 130.899C98.3577 128.602 100.379 126.943 102.712 126.99L104.737 127.031C105.327 125.39 106.055 123.825 106.907 122.349L105.616 120.944C104.003 119.189 103.945 116.508 105.48 114.685C106.983 112.899 109.563 112.473 111.56 113.68L113.295 114.73C114.611 113.62 116.025 112.629 117.515 111.768L117.098 109.897C116.579 107.57 117.868 105.219 120.111 104.407C122.304 103.613 124.751 104.533 125.877 106.578L126.851 108.348C128.53 108.046 130.249 107.891 131.993 107.895L132.565 106.07C133.278 103.796 135.571 102.404 137.918 102.822C140.216 103.231 141.875 105.252 141.827 107.585L141.787 109.61C143.428 110.2 144.992 110.928 146.468 111.782L147.873 110.49C149.605 108.898 152.235 108.823 154.057 110.295C150.907 117.989 146.594 125.083 141.334 131.357Z" fill="#7ECD00"/>
<path d="M146.305 124.761C144.76 127.046 143.102 129.248 141.335 131.357C139.783 128.713 137.129 126.738 133.875 126.158C127.972 125.109 122.336 129.042 121.285 134.944C120.527 139.205 122.367 143.326 125.67 145.685C123.462 147.223 121.169 148.645 118.807 149.958C114.94 146.525 112.5 141.517 112.5 135.938C112.5 125.582 120.895 117.188 131.25 117.188C137.417 117.188 142.887 120.166 146.305 124.761Z" fill="#6BAE01"/>
<path d="M122.216 147.955C121.097 148.649 119.961 149.318 118.807 149.958C114.94 146.525 112.5 141.517 112.5 135.938C112.5 125.582 120.895 117.188 131.25 117.188C132.155 117.188 133.041 117.258 133.911 117.383C124.83 118.688 117.85 126.495 117.85 135.938C117.85 140.513 119.493 144.701 122.216 147.955Z" fill="#5A9001"/>
</svg>
