<svg width="183" height="200" viewBox="0 0 183 200" fill="none" xmlns="http://www.w3.org/2000/svg">
	<g clip-path="url(#clip0)">
	<path d="M126.781 40.5755C114.124 38.5603 99.7115 37.485 84.7014 37.485C70.9645 37.485 57.7299 38.3842 45.8853 40.0798C45.888 39.8983 45.8907 39.7168 45.8988 39.5354C46.2128 29.0016 50.6441 19.0082 58.2457 11.6911C65.8472 4.37407 76.0159 0.313815 86.5783 0.378195C97.1407 0.442576 107.259 4.62648 114.77 12.0357C122.282 19.4448 126.59 29.4915 126.775 40.0283C126.778 40.2125 126.781 40.394 126.781 40.5755Z" fill="#FF4694"/>
	<g opacity="0.1">
	<path opacity="0.1" d="M91.638 0.363309C86.0203 -0.393755 80.3058 0.0353269 74.8649 1.62274C69.424 3.21016 64.3781 5.92049 60.0543 9.57807C55.7304 13.2357 52.2251 17.7589 49.7655 22.8546C47.306 27.9503 45.947 33.5047 45.7767 39.158C45.7685 39.3394 45.7658 39.5209 45.7632 39.7024C49.2821 39.1986 52.9261 38.767 56.6672 38.4065C57.1247 28.9885 60.8726 20.0274 67.2605 13.0784C73.6483 6.12929 82.2731 1.63074 91.638 0.363309Z" fill="white"/>
	</g>
	<path d="M144.476 43.7771C138.65 42.2014 132.741 40.9499 126.775 40.0284C116.998 38.5168 107.142 37.5717 97.2548 37.198C93.1364 37.03 88.9421 36.9434 84.7016 36.9434C81.3407 36.9434 78.0068 36.9975 74.7193 37.1059C65.0752 37.3902 55.4541 38.2012 45.899 39.5355C38.8258 40.5072 31.8213 41.9239 24.9272 43.7771C8.85289 48.2111 0 54.1537 0 60.508C0 66.8624 8.85291 72.805 24.9272 77.2389C36.2316 80.3592 50.1693 82.4855 65.356 83.4605C71.6244 83.8668 78.1047 84.0727 84.7016 84.0727C91.3202 84.0727 97.8222 83.8641 104.11 83.4578C117.931 82.5667 130.717 80.7222 141.419 78.0407C141.476 78.0244 141.53 78.0109 141.587 77.9973C142.31 77.8186 143.021 77.6317 143.724 77.4448C143.976 77.3744 144.226 77.3066 144.476 77.2389C144.49 77.2332 144.504 77.2287 144.519 77.2254C144.758 77.1604 144.994 77.0927 145.231 77.0277C145.703 76.8922 146.17 76.7595 146.629 76.6214C146.65 76.616 146.669 76.6105 146.688 76.6051C147.087 76.486 147.479 76.3668 147.867 76.2476C148.184 76.1474 148.499 76.0499 148.811 75.9496C149.04 75.8765 149.265 75.8034 149.487 75.7303C149.65 75.6761 149.81 75.6246 149.968 75.5704C150.182 75.5 150.397 75.4269 150.609 75.3538C150.698 75.324 150.788 75.2942 150.875 75.2617C151.078 75.194 151.276 75.1235 151.475 75.0531C151.689 74.9773 151.904 74.8987 152.115 74.8229C152.292 74.7606 152.468 74.6956 152.642 74.6306C152.789 74.5737 152.932 74.5195 153.079 74.4653C153.478 74.3164 153.869 74.162 154.255 74.0103C154.447 73.9318 154.64 73.8559 154.83 73.7774C155.017 73.7015 155.207 73.623 155.392 73.5444C155.696 73.4171 155.995 73.2898 156.288 73.1625C156.429 73.0975 156.573 73.0352 156.711 72.9756C156.817 72.9269 156.921 72.8808 157.026 72.8321C157.102 72.7996 157.178 72.7644 157.252 72.7292C157.526 72.6046 157.797 72.4773 158.063 72.35C159.084 71.8624 160.037 71.364 160.922 70.8548C166.474 67.6831 169.403 64.1646 169.403 60.508C169.403 54.1537 160.55 48.2111 144.476 43.7771ZM144.329 76.7189C133.011 79.8419 119.036 81.9681 103.808 82.9351C97.6158 83.3278 91.2144 83.531 84.7016 83.531C78.2105 83.531 71.8307 83.3305 65.6573 82.9378C50.4056 81.9735 36.4081 79.8473 25.0738 76.7189C9.25469 72.3526 0.542959 66.5969 0.542959 60.508C0.543843 59.97 0.611339 59.4342 0.743917 58.9127C2.12836 53.4197 10.6447 48.2788 25.0738 44.2972C31.9158 42.4584 38.8666 41.0499 45.8854 40.0799C55.4981 38.7381 65.1773 37.9243 74.8794 37.6422C78.1155 37.5365 81.3896 37.4842 84.7016 37.4851C88.8851 37.4851 93.0224 37.569 97.0891 37.7316C107.033 38.102 116.948 39.0516 126.781 40.5756C132.695 41.4929 138.553 42.7353 144.329 44.2972C158.756 48.2788 167.269 53.417 168.657 58.9072C168.791 59.4302 168.86 59.968 168.86 60.508C168.86 66.5969 160.148 72.3526 144.329 76.7189Z" fill="#3F3D56"/>
	<path d="M169.248 60.7547C169.248 64.3734 166.259 67.797 160.922 70.855C160.034 71.3643 159.079 71.8626 158.063 72.3502C157.797 72.4775 157.526 72.6048 157.252 72.7294C157.178 72.7646 157.102 72.7998 157.026 72.8323C156.92 72.8811 156.817 72.9271 156.711 72.9759C156.573 73.0354 156.429 73.0977 156.288 73.1627C155.995 73.29 155.696 73.4173 155.392 73.5446C155.207 73.6232 155.017 73.7017 154.83 73.7776C154.64 73.8561 154.447 73.932 154.255 74.0105C153.869 74.1622 153.478 74.3166 153.079 74.4656C152.932 74.5197 152.788 74.5739 152.642 74.6308C152.468 74.6958 152.292 74.7608 152.115 74.8231C151.903 74.8989 151.689 74.9775 151.475 75.0533C151.276 75.1237 151.078 75.1942 150.875 75.2619C150.788 75.2944 150.698 75.3242 150.609 75.354C150.397 75.4271 150.182 75.5002 149.968 75.5707C149.81 75.6248 149.65 75.6763 149.487 75.7305C149.265 75.8036 149.039 75.8767 148.811 75.9499C148.499 76.0501 148.184 76.1476 147.867 76.2478C147.478 76.367 147.087 76.4862 146.688 76.6053C146.669 76.6108 146.65 76.6162 146.629 76.6216C146.17 76.7597 145.703 76.8925 145.23 77.0279C144.994 77.0929 144.758 77.1606 144.519 77.2256C144.504 77.2289 144.49 77.2334 144.476 77.2392C144.226 77.3069 143.976 77.3746 143.724 77.445C143.023 77.6292 142.309 77.8161 141.587 77.9975C141.53 78.0111 141.476 78.0246 141.419 78.0409C131.008 80.6357 118.235 82.5263 104.099 83.4391C97.9062 83.8373 91.4504 84.0485 84.8183 84.0485C78.1263 84.0485 71.6161 83.8345 65.3749 83.4283C28.117 81.0041 0.388184 71.7732 0.388184 60.7547C0.391117 60.0843 0.493547 59.418 0.69214 58.7775C0.708445 58.8235 0.724747 58.8668 0.743837 58.9129C4.61772 69.0646 32.1106 77.2689 67.7829 79.2706C73.2478 79.5794 78.9081 79.7392 84.7015 79.7392C90.5193 79.7392 96.2013 79.5767 101.688 79.2679C137.33 77.2581 164.796 69.0511 168.656 58.9075C168.722 58.7449 168.779 58.5824 168.827 58.4199C169.103 59.1679 169.245 59.958 169.248 60.7547Z" fill="#3F3D56"/>
	<path d="M24.8865 57.8393C20.3683 57.8393 15.5664 56.8695 15.5664 55.072C15.5664 53.2745 20.3683 52.3047 24.8865 52.3047C29.4046 52.3047 34.2065 53.2745 34.2065 55.072C34.2065 56.8695 29.4046 57.8393 24.8865 57.8393ZM24.8865 52.8464C19.714 52.8464 16.1094 54.0194 16.1094 55.072C16.1094 56.1246 19.714 57.2976 24.8865 57.2976C30.059 57.2976 33.6636 56.1246 33.6636 55.072C33.6636 54.0194 30.059 52.8464 24.8865 52.8464Z" fill="#3F3D56"/>
	<path d="M44.1613 70.5693C39.6432 70.5693 34.8413 69.5994 34.8413 67.802C34.8413 66.0045 39.6432 65.0347 44.1613 65.0347C48.6795 65.0347 53.4814 66.0045 53.4814 67.802C53.4814 69.5994 48.6795 70.5693 44.1613 70.5693ZM44.1613 65.5764C38.9889 65.5764 35.3843 66.7494 35.3843 67.802C35.3843 68.8546 38.9889 70.0276 44.1613 70.0276C49.3338 70.0276 52.9385 68.8546 52.9385 67.802C52.9385 66.7494 49.3338 65.5764 44.1613 65.5764Z" fill="#3F3D56"/>
	<path d="M144.337 57.8393C139.819 57.8393 135.017 56.8695 135.017 55.072C135.017 53.2745 139.819 52.3047 144.337 52.3047C148.855 52.3047 153.657 53.2745 153.657 55.072C153.657 56.8695 148.855 57.8393 144.337 57.8393ZM144.337 52.8464C139.165 52.8464 135.56 54.0194 135.56 55.072C135.56 56.1246 139.165 57.2976 144.337 57.2976C149.51 57.2976 153.114 56.1246 153.114 55.072C153.114 54.0194 149.51 52.8464 144.337 52.8464Z" fill="#3F3D56"/>
	<path d="M125.062 70.5693C120.544 70.5693 115.742 69.5994 115.742 67.802C115.742 66.0045 120.544 65.0347 125.062 65.0347C129.58 65.0347 134.382 66.0045 134.382 67.802C134.382 69.5994 129.58 70.5693 125.062 70.5693ZM125.062 65.5764C119.89 65.5764 116.285 66.7494 116.285 67.802C116.285 68.8546 119.89 70.0276 125.062 70.0276C130.235 70.0276 133.839 68.8546 133.839 67.802C133.839 66.7494 130.235 65.5764 125.062 65.5764Z" fill="#3F3D56"/>
	<path d="M84.6115 76.5283C80.0934 76.5283 75.2915 75.5584 75.2915 73.761C75.2915 71.9635 80.0934 70.9937 84.6115 70.9937C89.1297 70.9937 93.9317 71.9635 93.9317 73.761C93.9317 75.5584 89.1297 76.5283 84.6115 76.5283ZM84.6115 71.5354C79.439 71.5354 75.8345 72.7083 75.8345 73.761C75.8345 74.8136 79.4391 75.9865 84.6115 75.9865C89.784 75.9865 93.3887 74.8136 93.3887 73.761C93.3887 72.7083 89.784 71.5354 84.6115 71.5354Z" fill="#3F3D56"/>
	<path d="M72.2134 134.181C72.0694 134.181 71.9313 134.124 71.8294 134.023C71.7276 133.921 71.6704 133.783 71.6704 133.64V101.678C71.6704 101.535 71.7276 101.397 71.8294 101.295C71.9313 101.194 72.0694 101.137 72.2134 101.137C72.3574 101.137 72.4955 101.194 72.5973 101.295C72.6991 101.397 72.7563 101.535 72.7563 101.678V133.64C72.7563 133.783 72.6991 133.921 72.5973 134.023C72.4955 134.124 72.3574 134.181 72.2134 134.181Z" fill="#CCCCCC"/>
	<path d="M64.0693 162.892C63.9253 162.892 63.7872 162.835 63.6854 162.734C63.5836 162.632 63.5264 162.494 63.5264 162.351V139.057C63.5264 138.913 63.5836 138.775 63.6854 138.674C63.7872 138.572 63.9253 138.515 64.0693 138.515C64.2133 138.515 64.3514 138.572 64.4533 138.674C64.5551 138.775 64.6123 138.913 64.6123 139.057V162.351C64.6123 162.494 64.5551 162.632 64.4533 162.734C64.3514 162.835 64.2133 162.892 64.0693 162.892Z" fill="#CCCCCC"/>
	<path d="M84.9731 143.661C84.8291 143.661 84.691 143.604 84.5892 143.503C84.4874 143.401 84.4302 143.263 84.4302 143.12V111.158C84.4302 111.015 84.4874 110.877 84.5892 110.775C84.691 110.674 84.8291 110.617 84.9731 110.617C85.1171 110.617 85.2552 110.674 85.357 110.775C85.4589 110.877 85.5161 111.015 85.5161 111.158V143.12C85.5161 143.263 85.4589 143.401 85.357 143.503C85.2552 143.604 85.1171 143.661 84.9731 143.661Z" fill="#CCCCCC"/>
	<path d="M77.1001 166.684C76.9561 166.684 76.818 166.627 76.7162 166.526C76.6143 166.424 76.5571 166.286 76.5571 166.143V153.141C76.5571 152.998 76.6143 152.86 76.7161 152.758C76.818 152.657 76.9561 152.6 77.1001 152.6C77.2441 152.6 77.3822 152.657 77.484 152.758C77.5858 152.86 77.643 152.998 77.643 153.141V166.143C77.643 166.286 77.5858 166.424 77.484 166.526C77.3822 166.627 77.2441 166.684 77.1001 166.684Z" fill="#CCCCCC"/>
	<path d="M88.2309 100.053C88.0869 100.053 87.9488 99.9963 87.847 99.8947C87.7452 99.7931 87.688 99.6553 87.688 99.5116V86.5105C87.688 86.3668 87.7452 86.229 87.847 86.1274C87.9488 86.0258 88.0869 85.9688 88.2309 85.9688C88.375 85.9688 88.513 86.0258 88.6149 86.1274C88.7167 86.229 88.7739 86.3668 88.7739 86.5105V99.5116C88.7739 99.6553 88.7167 99.7931 88.6149 99.8947C88.513 99.9963 88.3749 100.053 88.2309 100.053Z" fill="#CCCCCC"/>
	<path d="M61.083 105.741C60.939 105.741 60.8009 105.684 60.6991 105.583C60.5973 105.481 60.54 105.343 60.54 105.2V92.1985C60.54 92.0548 60.5972 91.917 60.6991 91.8154C60.8009 91.7138 60.939 91.6567 61.083 91.6567C61.227 91.6567 61.3651 91.7138 61.4669 91.8154C61.5688 91.917 61.626 92.0548 61.626 92.1985V105.2C61.626 105.343 61.5687 105.481 61.4669 105.583C61.3651 105.684 61.227 105.741 61.083 105.741Z" fill="#CCCCCC"/>
	<path d="M108.32 107.096C108.176 107.096 108.038 107.039 107.936 106.937C107.835 106.836 107.777 106.698 107.777 106.554V93.5529C107.777 93.4093 107.835 93.2715 107.936 93.1699C108.038 93.0683 108.176 93.0112 108.32 93.0112C108.464 93.0112 108.602 93.0683 108.704 93.1699C108.806 93.2715 108.863 93.4093 108.863 93.5529V106.554C108.863 106.698 108.806 106.836 108.704 106.937C108.602 107.039 108.464 107.096 108.32 107.096Z" fill="#CCCCCC"/>
	<path d="M107.234 147.724C107.09 147.724 106.952 147.667 106.85 147.566C106.749 147.464 106.691 147.326 106.691 147.183V131.473C106.691 131.329 106.749 131.191 106.85 131.09C106.952 130.988 107.09 130.931 107.234 130.931C107.378 130.931 107.516 130.988 107.618 131.09C107.72 131.191 107.777 131.329 107.777 131.473V147.183C107.777 147.326 107.72 147.464 107.618 147.566C107.516 147.667 107.378 147.724 107.234 147.724Z" fill="#CCCCCC"/>
	<path d="M96.375 161.538C96.231 161.538 96.0929 161.481 95.9911 161.38C95.8892 161.278 95.832 161.14 95.832 160.997V137.703C95.832 137.559 95.8892 137.421 95.9911 137.32C96.0929 137.218 96.231 137.161 96.375 137.161C96.519 137.161 96.6571 137.218 96.7589 137.32C96.8607 137.421 96.918 137.559 96.918 137.703V160.997C96.9179 161.14 96.8607 161.278 96.7589 161.38C96.6571 161.481 96.519 161.538 96.375 161.538Z" fill="#CCCCCC"/>
	<path d="M98.5469 121.722C98.4029 121.722 98.2648 121.665 98.1629 121.563C98.0611 121.462 98.0039 121.324 98.0039 121.18V89.219C98.0039 89.0753 98.0611 88.9375 98.1629 88.8359C98.2648 88.7343 98.4029 88.6772 98.5469 88.6772C98.6909 88.6772 98.829 88.7343 98.9308 88.8359C99.0326 88.9375 99.0898 89.0753 99.0898 89.219V121.18C99.0898 121.324 99.0326 121.462 98.9308 121.563C98.829 121.665 98.6909 121.722 98.5469 121.722Z" fill="#CCCCCC"/>
	<path d="M106.881 118.914L113.113 141.998C113.229 142.427 113.169 142.884 112.947 143.268C112.725 143.653 112.359 143.934 111.93 144.05L102.319 146.635C103.669 140.86 103.066 132.499 101.411 126.372C100.759 123.954 99.8652 121.608 98.7424 119.369L104.824 117.733C105.254 117.618 105.712 117.678 106.097 117.899C106.483 118.121 106.765 118.485 106.881 118.914Z" fill="#FF4694"/>
	<path d="M91.944 119.524L74.7913 124.038L74.9721 118.062C74.9885 117.592 75.1551 117.139 75.4477 116.77C75.7404 116.401 76.1436 116.136 76.5984 116.012L76.6065 116.01L86.3967 113.434C86.8545 113.315 87.3382 113.347 87.7767 113.523C88.2152 113.7 88.5854 114.012 88.8326 114.414L91.944 119.524Z" fill="#3F3D56"/>
	<path d="M101.002 115.074C100.525 115.202 100.118 115.513 99.8708 115.94C99.6238 116.367 99.5568 116.874 99.6847 117.35L103.283 116.388C103.155 115.912 102.843 115.506 102.415 115.26C101.987 115.013 101.479 114.947 101.002 115.074Z" fill="#FF4694"/>
	<path d="M114.826 144.496L67.5358 157.138C66.9564 157.293 66.3394 157.211 65.8201 156.912C65.3008 156.613 64.9217 156.12 64.7658 155.543L58.0858 130.67C57.9313 130.092 58.0129 129.476 58.3127 128.958C58.6125 128.44 59.1061 128.062 59.6851 127.906L106.975 115.264C107.554 115.11 108.171 115.191 108.691 115.49C109.21 115.789 109.589 116.282 109.745 116.859L116.425 141.732C116.579 142.31 116.498 142.926 116.198 143.444C115.898 143.962 115.405 144.341 114.826 144.496ZM59.7539 128.163C59.243 128.3 58.8076 128.634 58.543 129.091C58.2785 129.548 58.2065 130.091 58.3429 130.601L65.0228 155.474C65.1603 155.984 65.4949 156.418 65.9531 156.682C66.4113 156.946 66.9557 157.018 67.4669 156.882L114.757 144.24C115.268 144.102 115.703 143.769 115.968 143.312C116.232 142.854 116.304 142.311 116.168 141.801L109.488 116.928C109.35 116.418 109.016 115.984 108.558 115.72C108.099 115.456 107.555 115.384 107.044 115.52L59.7539 128.163Z" fill="#3F3D56"/>
	<path d="M84.887 119.176L80.7748 120.276C80.4851 120.353 80.1765 120.313 79.9167 120.163C79.657 120.013 79.4675 119.767 79.3898 119.478C79.3122 119.189 79.3529 118.881 79.5028 118.622C79.6528 118.363 79.8998 118.174 80.1895 118.096L84.3016 116.997C84.5913 116.919 84.9 116.96 85.1597 117.11C85.4195 117.259 85.609 117.506 85.6866 117.795C85.7642 118.084 85.7236 118.392 85.5736 118.651C85.4237 118.91 85.1767 119.099 84.887 119.176Z" fill="white"/>
	<path d="M89.8723 145.945C87.9407 146.461 85.8989 146.395 84.0053 145.753C82.1117 145.112 80.4512 143.925 79.2338 142.342C78.0165 140.759 77.2969 138.852 77.1661 136.861C77.0353 134.87 77.4992 132.885 78.4991 131.157C79.4989 129.429 80.9899 128.036 82.7834 127.154C84.5769 126.271 86.5925 125.939 88.5751 126.2C90.5578 126.46 92.4185 127.301 93.922 128.617C95.4255 129.932 96.5042 131.663 97.0218 133.59C97.7127 136.174 97.3479 138.926 96.0076 141.243C94.6673 143.559 92.4608 145.25 89.8723 145.945ZM84.7073 126.713C82.8266 127.216 81.1375 128.264 79.8536 129.725C78.5698 131.185 77.7489 132.993 77.4948 134.919C77.2406 136.845 77.5646 138.803 78.4258 140.545C79.287 142.288 80.6467 143.736 82.333 144.707C84.0192 145.679 85.9563 146.129 87.8993 146.002C89.8422 145.875 91.7038 145.176 93.2485 143.994C94.7933 142.811 95.9519 141.198 96.5778 139.358C97.2036 137.519 97.2687 135.535 96.7648 133.659C96.0864 131.144 94.4359 129.001 92.1755 127.699C89.9151 126.397 87.2293 126.042 84.7073 126.713Z" fill="#3F3D56"/>
	<path d="M88.977 142.612C87.7062 142.951 86.3629 142.908 85.1171 142.486C83.8713 142.064 82.7789 141.283 81.978 140.241C81.1771 139.2 80.7037 137.945 80.6176 136.635C80.5316 135.325 80.8368 134.02 81.4946 132.883C82.1524 131.746 83.1333 130.829 84.3132 130.249C85.4932 129.668 86.8192 129.45 88.1236 129.621C89.4279 129.793 90.6521 130.346 91.6412 131.211C92.6304 132.077 93.3401 133.216 93.6806 134.483C94.1351 136.184 93.8951 137.994 93.0134 139.518C92.1316 141.042 90.6799 142.154 88.977 142.612ZM85.6025 130.047C84.3826 130.373 83.2869 131.053 82.4542 132C81.6214 132.948 81.089 134.12 80.9241 135.37C80.7592 136.619 80.9694 137.889 81.528 139.019C82.0866 140.149 82.9686 141.089 84.0624 141.719C85.1562 142.349 86.4127 142.641 87.673 142.559C88.9333 142.476 90.1408 142.023 91.1428 141.256C92.1448 140.489 92.8963 139.442 93.3023 138.249C93.7082 137.056 93.7505 135.769 93.4236 134.552C92.9835 132.921 91.913 131.531 90.4467 130.686C88.9805 129.842 87.2384 129.612 85.6025 130.047Z" fill="#3F3D56"/>
	<path d="M88.5641 141.073C91.261 140.352 92.8614 137.586 92.1388 134.895C91.4162 132.205 88.6441 130.608 85.9472 131.329C83.2502 132.05 81.6498 134.816 82.3724 137.506C83.095 140.197 85.8671 141.794 88.5641 141.073Z" fill="#CCCCCC"/>
	<path d="M84.2995 136.991C84.0922 136.219 84.1714 135.398 84.5224 134.679C84.8734 133.961 85.4727 133.393 86.2101 133.079C85.7372 133.137 85.2822 133.294 84.8757 133.542C84.4693 133.79 84.1209 134.122 83.8542 134.516C83.5876 134.91 83.4088 135.356 83.33 135.825C83.2511 136.293 83.2742 136.774 83.3974 137.233C83.5207 137.692 83.7414 138.119 84.0445 138.486C84.3477 138.852 84.7262 139.149 85.1545 139.357C85.5828 139.565 86.0509 139.679 86.5271 139.691C87.0033 139.703 87.4765 139.613 87.9146 139.426C87.1192 139.523 86.3154 139.33 85.6512 138.883C84.987 138.435 84.507 137.764 84.2995 136.991Z" fill="white"/>
	<path d="M104.731 116.139L98.3054 117.856L98.271 117.728C98.0427 116.878 98.1622 115.972 98.6032 115.21C99.0443 114.448 99.7707 113.892 100.623 113.664C101.475 113.436 102.383 113.556 103.147 113.996C103.911 114.436 104.468 115.16 104.696 116.011L104.731 116.139ZM98.4963 117.531L104.402 115.952C104.165 115.201 103.647 114.571 102.956 114.193C102.264 113.815 101.453 113.717 100.692 113.921C99.93 114.124 99.2766 114.613 98.8676 115.286C98.4586 115.958 98.3256 116.763 98.4963 117.531Z" fill="#3F3D56"/>
	<path d="M61.7462 131.478C61.492 131.545 61.2234 131.537 60.9742 131.452C60.725 131.368 60.5066 131.212 60.3464 131.003C60.1862 130.795 60.0915 130.544 60.0743 130.282C60.0571 130.02 60.1181 129.759 60.2497 129.532C60.3813 129.304 60.5774 129.121 60.8134 129.005C61.0494 128.889 61.3146 128.845 61.5755 128.879C61.8364 128.914 62.0812 129.024 62.279 129.197C62.4769 129.371 62.6188 129.598 62.6869 129.852C62.7778 130.192 62.7298 130.554 62.5535 130.859C62.3771 131.164 62.0868 131.386 61.7462 131.478ZM61.1264 129.17C60.9231 129.224 60.7404 129.337 60.6017 129.495C60.4629 129.653 60.3741 129.849 60.3466 130.057C60.3192 130.265 60.3542 130.477 60.4473 130.665C60.5404 130.853 60.6874 131.01 60.8697 131.115C61.052 131.22 61.2614 131.269 61.4715 131.255C61.6815 131.241 61.8828 131.166 62.0498 131.038C62.2168 130.91 62.342 130.736 62.4097 130.537C62.4773 130.338 62.4844 130.123 62.4299 129.921C62.3565 129.649 62.1781 129.417 61.9337 129.276C61.6894 129.135 61.399 129.097 61.1264 129.17Z" fill="#3F3D56"/>
	<path d="M61.5738 130.836C61.9286 130.742 62.1392 130.378 62.0441 130.024C61.949 129.67 61.5843 129.459 61.2294 129.554C60.8746 129.649 60.664 130.013 60.7591 130.367C60.8542 130.721 61.2189 130.931 61.5738 130.836Z" fill="#FF4694"/>
	<path d="M64.9151 129.943C65.2699 129.848 65.4805 129.485 65.3854 129.131C65.2903 128.776 64.9256 128.566 64.5707 128.661C64.2159 128.756 64.0053 129.12 64.1004 129.474C64.1955 129.828 64.5602 130.038 64.9151 129.943Z" fill="#CCCCCC"/>
	<path d="M68.2559 129.05C68.6107 128.955 68.8213 128.592 68.7263 128.237C68.6312 127.883 68.2664 127.673 67.9116 127.768C67.5567 127.863 67.3461 128.227 67.4412 128.581C67.5363 128.935 67.901 129.145 68.2559 129.05Z" fill="#CCCCCC"/>
	<path d="M65.087 130.584C64.8328 130.652 64.5642 130.644 64.315 130.559C64.0659 130.475 63.8474 130.319 63.6872 130.11C63.527 129.902 63.4323 129.651 63.4151 129.389C63.3979 129.127 63.459 128.866 63.5905 128.639C63.7221 128.411 63.9183 128.228 64.1542 128.112C64.3902 127.996 64.6554 127.952 64.9163 127.986C65.1772 128.021 65.422 128.131 65.6198 128.304C65.8177 128.477 65.9596 128.705 66.0277 128.959C66.1186 129.299 66.0706 129.661 65.8943 129.966C65.7179 130.27 65.4276 130.493 65.087 130.584ZM64.4672 128.277C64.2639 128.331 64.0813 128.444 63.9425 128.602C63.8037 128.76 63.7149 128.956 63.6875 129.164C63.66 129.372 63.695 129.584 63.7881 129.772C63.8812 129.96 64.0282 130.117 64.2105 130.222C64.3928 130.327 64.6022 130.376 64.8123 130.362C65.0223 130.348 65.2236 130.273 65.3906 130.145C65.5576 130.017 65.6828 129.843 65.7505 129.644C65.8181 129.445 65.8252 129.23 65.7707 129.028C65.6974 128.756 65.5189 128.524 65.2746 128.383C65.0302 128.242 64.7398 128.204 64.4672 128.277Z" fill="#3F3D56"/>
	<path d="M68.4283 129.691C68.1741 129.759 67.9055 129.751 67.6563 129.666C67.4072 129.582 67.1887 129.426 67.0285 129.217C66.8683 129.009 66.7736 128.758 66.7564 128.496C66.7392 128.234 66.8003 127.973 66.9318 127.746C67.0634 127.518 67.2596 127.335 67.4956 127.219C67.7315 127.103 67.9967 127.059 68.2576 127.093C68.5185 127.128 68.7633 127.238 68.9612 127.411C69.159 127.584 69.3009 127.812 69.369 128.066C69.4599 128.406 69.4119 128.768 69.2356 129.073C69.0592 129.377 68.7689 129.6 68.4283 129.691ZM67.8085 127.384C67.6052 127.438 67.4226 127.551 67.2838 127.709C67.145 127.867 67.0562 128.062 67.0288 128.271C67.0013 128.479 67.0363 128.691 67.1294 128.879C67.2225 129.067 67.3695 129.224 67.5518 129.329C67.7341 129.434 67.9435 129.483 68.1536 129.469C68.3636 129.455 68.5649 129.38 68.7319 129.252C68.8989 129.124 69.0241 128.949 69.0918 128.751C69.1595 128.552 69.1665 128.337 69.112 128.134C69.0387 127.863 68.8602 127.631 68.6159 127.49C68.3715 127.349 68.0811 127.311 67.8085 127.384Z" fill="#3F3D56"/>
	<path d="M77.3258 135.128L60.6201 139.594L60.689 139.851L77.3947 135.385L77.3258 135.128Z" fill="#3F3D56"/>
	<path d="M78.2971 140.4L62.0063 144.755L62.0752 145.011L78.366 140.656L78.2971 140.4Z" fill="#3F3D56"/>
	<path d="M112.022 125.852L95.3164 130.318L95.3853 130.575L112.091 126.109L112.022 125.852Z" fill="#3F3D56"/>
	<path d="M113.379 131.021L97.0884 135.376L97.1572 135.632L113.448 131.277L113.379 131.021Z" fill="#3F3D56"/>
	</g>
	<defs>
		<clipPath id="clip0">
		<rect width="182.578" height="200" fill="white"/>
		</clipPath>
	</defs>
</svg>