<svg width="173" height="162" viewBox="0 0 173 162" fill="none" xmlns="http://www.w3.org/2000/svg">
<path opacity="0.2" d="M17.3055 45.9323C16.2347 46.3765 15.1358 46.9467 14.5474 47.9462C13.9241 49.002 13.9987 50.3132 14.1147 51.5348C15.1258 62.1298 17.7895 73.3978 13.1898 82.9949C10.9571 87.651 7.22268 91.3821 4.25237 95.6105C1.28205 99.8389 -0.960606 105.118 0.418469 110.092C2.10253 116.171 8.38794 119.54 12.6246 124.218C15.3977 127.276 17.342 130.992 19.9294 134.21C22.5168 137.427 26.0623 140.261 30.1929 140.45C36.1336 140.724 40.9669 135.594 46.7916 134.405C52.7587 133.189 58.7673 136.285 63.6057 139.991C68.444 143.697 72.8448 148.188 78.4821 150.502C84.7079 153.059 91.7259 152.668 98.2798 154.205C104.247 155.605 109.74 158.584 115.664 160.172C121.588 161.76 128.532 161.664 133.121 157.608C139.103 152.303 138.633 142.855 142.453 135.839C146.002 129.32 152.949 125.428 157.625 119.665C166.039 109.292 165.763 93.4374 158.619 82.1562C151.475 70.875 138.535 64.0442 125.303 62.2657C119.336 61.4651 113.191 61.5745 107.454 59.7529C92.0988 54.8797 82.9608 37.4191 67.2838 33.7858C57.3186 31.4802 47.627 35.4732 39.1387 40.3878C31.7709 44.6543 24.9733 42.7514 17.3055 45.9323Z" fill="#FF0990"/>
<path d="M32.268 80.1602C32.268 80.1602 26.6108 85.4991 20.5392 85.6582C17.9896 85.709 15.5252 86.5855 13.5162 88.1561C12.5665 88.9069 11.6877 89.743 10.8906 90.6541" stroke="#767676" stroke-width="2" stroke-miterlimit="10"/>
<path d="M7.06296 90.7854C7.87847 90.371 10.9913 90.6462 10.9913 90.6462C10.9913 90.6462 9.37689 93.3231 8.56138 93.7375C8.36607 93.8533 8.14905 93.9277 7.92379 93.9561C7.69854 93.9846 7.46983 93.9664 7.25187 93.9028C7.03391 93.8392 6.83134 93.7315 6.65672 93.5864C6.4821 93.4413 6.33916 93.2619 6.23676 93.0592C6.13435 92.8566 6.07467 92.6351 6.06142 92.4084C6.04817 92.1817 6.08162 91.9548 6.15971 91.7416C6.2378 91.5284 6.35885 91.3335 6.51537 91.169C6.67189 91.0045 6.86053 90.874 7.06959 90.7854H7.06296Z" fill="#FF0990"/>
<path d="M10.3403 86.0537C11.2503 86.1499 13.7134 88.0726 13.7134 88.0726C13.7134 88.0726 10.8956 89.4418 9.99391 89.3473C9.57204 89.2835 9.191 89.0596 8.93008 88.722C8.66916 88.3844 8.54845 87.9593 8.59308 87.5349C8.63771 87.1106 8.84424 86.7199 9.16969 86.444C9.49514 86.1681 9.91444 86.0283 10.3403 86.0537Z" fill="#FF0990"/>
<path d="M18.1099 82.2392C18.8459 82.7812 20.0029 85.6852 20.0029 85.6852C20.0029 85.6852 16.885 85.4482 16.1491 84.9078C15.8174 84.6398 15.6017 84.2543 15.5469 83.8314C15.4922 83.4084 15.6025 82.9807 15.855 82.637C16.1075 82.2934 16.4828 82.0603 16.9027 81.9862C17.3227 81.9121 17.7551 82.0027 18.1099 82.2392Z" fill="#FF0990"/>
<path d="M24.6401 80.6801C25.4573 81.0895 27.0883 83.7565 27.0883 83.7565C27.0883 83.7565 23.9755 84.0498 23.1583 83.6404C22.9521 83.5504 22.7664 83.4193 22.6125 83.2552C22.4586 83.0911 22.3398 82.8974 22.2631 82.6859C22.1865 82.4743 22.1538 82.2494 22.1669 82.0248C22.18 81.8002 22.2387 81.5806 22.3394 81.3795C22.4401 81.1783 22.5807 80.9997 22.7526 80.8546C22.9246 80.7095 23.1243 80.601 23.3395 80.5355C23.5548 80.4701 23.7811 80.4492 24.0047 80.474C24.2283 80.4989 24.4445 80.569 24.6401 80.6801Z" fill="#FF0990"/>
<path d="M15.4439 91.0902C15.7157 90.2167 14.9201 87.1934 14.9201 87.1934C14.9201 87.1934 12.5531 89.2354 12.2813 90.109C12.2047 90.3198 12.1717 90.544 12.1842 90.768C12.1968 90.9919 12.2547 91.211 12.3545 91.4119C12.4542 91.6129 12.5937 91.7915 12.7645 91.9369C12.9352 92.0823 13.1337 92.1916 13.348 92.2581C13.5622 92.3246 13.7877 92.3469 14.0109 92.3236C14.234 92.3004 14.45 92.2321 14.646 92.1229C14.8419 92.0137 15.0137 91.8659 15.1508 91.6884C15.288 91.5109 15.3877 91.3074 15.4439 91.0902Z" fill="#FF0990"/>
<path d="M23.0579 89.1629C23.0579 88.248 21.392 85.6025 21.392 85.6025C21.392 85.6025 19.7444 88.2546 19.7461 89.1729C19.7474 89.6125 19.9233 90.0336 20.2351 90.3435C20.5469 90.6534 20.969 90.8268 21.4086 90.8255C21.8482 90.8241 22.2693 90.6482 22.5792 90.3365C22.8891 90.0247 23.0625 89.6025 23.0612 89.1629H23.0579Z" fill="#FF0990"/>
<path d="M30.2011 86.285C30.3536 85.3833 29.1601 82.4941 29.1601 82.4941C29.1601 82.4941 27.0866 84.8346 26.9357 85.7363C26.8848 86.1593 26.9987 86.5857 27.2539 86.927C27.509 87.2683 27.8858 87.4982 28.3059 87.569C28.7261 87.6398 29.1574 87.5461 29.5103 87.3073C29.8632 87.0685 30.1106 86.703 30.2011 86.2866V86.285Z" fill="#FF0990"/>
<path d="M39.6202 66.022C39.6202 66.022 32.806 62.2793 30.7805 56.5459C29.9483 54.1349 28.3564 52.0591 26.2438 50.6301C25.2357 49.9593 24.1682 49.3822 23.0547 48.9062" stroke="#767676" stroke-width="2" stroke-miterlimit="10"/>
<path d="M21.7628 45.3011C22.4076 45.9492 23.1021 48.9974 23.1021 48.9974C23.1021 48.9974 20.0589 48.2846 19.4141 47.6349C19.1293 47.3187 18.9771 46.9051 18.9889 46.4797C19.0007 46.0544 19.1757 45.6498 19.4775 45.3499C19.7793 45.05 20.185 44.8776 20.6104 44.8685C21.0358 44.8594 21.4484 45.0143 21.7628 45.3011Z" fill="#FF0990"/>
<path d="M27.2741 46.9636C27.463 47.8587 26.3906 50.7942 26.3906 50.7942C26.3906 50.7942 24.2242 48.5416 24.0352 47.6448C23.9791 47.428 23.9676 47.202 24.0013 46.9805C24.035 46.7591 24.1132 46.5467 24.2312 46.3564C24.3493 46.166 24.5047 46.0015 24.688 45.8729C24.8714 45.7442 25.079 45.6541 25.2982 45.6079C25.5173 45.5617 25.7436 45.5604 25.9633 45.6041C26.183 45.6478 26.3916 45.7356 26.5764 45.8621C26.7612 45.9887 26.9185 46.1514 27.0387 46.3404C27.1589 46.5294 27.2395 46.7409 27.2757 46.9619L27.2741 46.9636Z" fill="#FF0990"/>
<path d="M33.2903 53.1939C33.0019 54.0608 30.5935 56.0548 30.5935 56.0548C30.5935 56.0548 29.8609 53.0166 30.1493 52.148C30.288 51.7304 30.5869 51.3849 30.9803 51.1877C31.3737 50.9905 31.8293 50.9576 32.2469 51.0963C32.6645 51.235 33.01 51.5339 33.2072 51.9273C33.4044 52.3207 33.4373 52.7763 33.2986 53.1939H33.2903Z" fill="#FF0990"/>
<path d="M36.7843 58.9208C36.6468 59.8241 34.6096 62.1961 34.6096 62.1961C34.6096 62.1961 33.3731 59.3252 33.5107 58.4218C33.5336 58.1986 33.6016 57.9823 33.7106 57.7861C33.8196 57.5899 33.9673 57.4179 34.1448 57.2805C34.3222 57.1431 34.5257 57.0432 34.743 56.9868C34.9602 56.9304 35.1866 56.9187 35.4085 56.9524C35.6304 56.9861 35.8431 57.0645 36.0338 57.1829C36.2244 57.3012 36.3891 57.4571 36.5177 57.641C36.6464 57.8249 36.7364 58.033 36.7822 58.2527C36.828 58.4724 36.8287 58.6991 36.7843 58.9191V58.9208Z" fill="#FF0990"/>
<path d="M24.0478 53.3714C24.9628 53.3614 27.595 51.6741 27.595 51.6741C27.595 51.6741 24.9247 50.0497 24.0097 50.0596C23.5701 50.0647 23.1505 50.2442 22.8432 50.5586C22.5359 50.873 22.3661 51.2966 22.3712 51.7362C22.3763 52.1758 22.5557 52.5954 22.8702 52.9027C23.1846 53.21 23.6082 53.3798 24.0478 53.3747V53.3714Z" fill="#FF0990"/>
<path d="M28.2186 60.0251C29.0872 59.7416 31.0945 57.3448 31.0945 57.3448C31.0945 57.3448 28.0595 56.594 27.1909 56.8774C26.9766 56.9386 26.7768 57.0423 26.6035 57.1825C26.4302 57.3227 26.2869 57.4963 26.1823 57.6932C26.0777 57.89 26.0138 58.1058 25.9945 58.3279C25.9752 58.55 26.0009 58.7736 26.0701 58.9855C26.1392 59.1974 26.2504 59.3932 26.3969 59.5611C26.5435 59.7291 26.7224 59.8657 26.923 59.9629C27.1235 60.0601 27.3417 60.1159 27.5643 60.1269C27.7869 60.1378 28.0095 60.1038 28.2186 60.0267V60.0251Z" fill="#FF0990"/>
<path d="M33.158 65.9355C34.0631 65.8029 36.4466 63.7807 36.4466 63.7807C36.4466 63.7807 33.5824 62.5276 32.679 62.6602C32.4565 62.6831 32.241 62.7509 32.0454 62.8593C31.8497 62.9677 31.6781 63.1146 31.5407 63.2912C31.4034 63.4677 31.3032 63.6702 31.2462 63.8865C31.1892 64.1027 31.1765 64.3283 31.209 64.5496C31.2414 64.7709 31.3183 64.9833 31.4351 65.1741C31.5518 65.3649 31.7059 65.5301 31.8882 65.6597C32.0704 65.7894 32.2771 65.8808 32.4956 65.9285C32.7141 65.9761 32.94 65.9791 33.1597 65.9372L33.158 65.9355Z" fill="#FF0990"/>
<path d="M86.5128 156.835C119.652 156.835 146.516 129.971 146.516 96.8322C146.516 63.6934 119.652 36.8291 86.5128 36.8291C53.3741 36.8291 26.5098 63.6934 26.5098 96.8322C26.5098 129.971 53.3741 156.835 86.5128 156.835Z" fill="url(#paint0_linear)"/>
<path d="M86.5144 155.841C119.104 155.841 145.523 129.422 145.523 96.8327C145.523 64.2432 119.104 37.8242 86.5144 37.8242C53.9249 37.8242 27.5059 64.2432 27.5059 96.8327C27.5059 129.422 53.9249 155.841 86.5144 155.841Z" fill="#FF0990"/>
<path d="M86.5139 143.741C112.421 143.741 133.422 122.739 133.422 96.8323C133.422 70.9255 112.421 49.9238 86.5139 49.9238C60.6071 49.9238 39.6055 70.9255 39.6055 96.8323C39.6055 122.739 60.6071 143.741 86.5139 143.741Z" fill="#F0F0F0"/>
<g opacity="0.1">
<path opacity="0.1" d="M43.2482 102.468C43.2482 76.5605 64.2493 55.5595 90.1567 55.5595C97.4282 55.553 104.601 57.2398 111.108 60.4862C117.615 63.7327 123.276 68.4495 127.644 74.2632C119.661 59.7564 104.246 49.9238 86.5101 49.9238C60.6027 49.9238 39.6016 70.9249 39.6016 96.8323C39.5864 107.01 42.8964 116.914 49.0281 125.037C45.2255 118.123 43.237 110.358 43.2482 102.468Z" fill="#181818"/>
</g>
<path d="M149.257 112.255C149.257 112.255 142.322 119.19 146.237 129.48C150.152 139.77 139.527 156.883 139.527 156.883C139.527 156.883 139.642 156.866 139.859 156.83C154.102 154.315 161.178 138.026 153.258 125.925C150.306 121.424 147.89 116.147 149.257 112.255Z" fill="#FF0990"/>
<path opacity="0.1" d="M148.685 112.371C148.685 112.371 141.75 119.306 145.665 129.596C149.58 139.886 138.955 156.997 138.955 156.997C138.955 156.997 139.069 156.981 139.287 156.944C153.53 154.43 160.606 138.141 152.686 126.039C149.734 121.541 147.317 116.263 148.685 112.371Z" fill="#181818"/>
<path d="M148.685 112.255C148.685 112.255 144.769 120.755 148.685 127.69C152.6 134.625 149.348 154.086 138.953 156.883" stroke="#767676" stroke-miterlimit="10"/>
<path d="M163.904 140.304C163.904 140.304 155.991 139.045 155.27 146.136C154.549 153.227 140.049 154.209 140.049 154.209L140.321 154.39C152.288 162.247 163.73 159.394 162.005 148.962C161.368 145.085 161.421 141.189 163.904 140.304Z" fill="#FF0990"/>
<path opacity="0.75" d="M136.629 138.146C136.629 138.146 144.642 138.185 144.205 145.299C143.767 152.414 157.917 155.733 157.917 155.733L157.619 155.867C144.537 161.681 133.708 157.012 137.101 146.997C138.357 143.274 138.936 139.422 136.629 138.146Z" fill="#FF0990"/>
<path d="M163.903 140.304C163.903 140.304 157.761 141.651 158.268 147.237C158.775 152.823 149.151 159.518 140.055 154.211" stroke="#767676" stroke-miterlimit="10"/>
<path d="M136.886 138.061C136.886 138.061 142.729 140.386 141.324 145.816C139.918 151.246 143.323 159.519 153.159 155.755" stroke="#767676" stroke-miterlimit="10"/>
<path d="M156.942 154.467C156.942 154.467 150.71 153.221 149.047 151.558C147.385 149.896 139.906 146.989 139.075 149.072C138.245 151.156 127.857 158.213 134.92 159.46C141.983 160.706 151.54 161.117 153.617 160.289C155.694 159.46 156.942 154.467 156.942 154.467Z" fill="#A8A8A8"/>
<path opacity="0.2" d="M134.92 158.683C141.985 159.929 151.54 160.34 153.617 159.511C155.2 158.878 156.299 155.838 156.733 154.423L156.941 154.466C156.941 154.466 155.694 159.452 153.617 160.282C151.54 161.113 141.983 160.698 134.92 159.453C132.881 159.094 132.298 158.248 132.518 157.179C132.691 157.877 133.402 158.414 134.92 158.683Z" fill="#181818"/>
<g opacity="0.1">
<path opacity="0.1" d="M114.288 59.4441C114.288 59.4441 113.938 60.1452 113.459 60.9873C112.728 60.5962 112.02 60.1611 111.341 59.6844L111.195 59.5817L111.117 59.5253L111.946 58.6104L114.288 59.4441Z" fill="#181818"/>
</g>
<g opacity="0.1">
<path opacity="0.1" d="M108.836 60.3519C108.621 60.5565 108.446 60.7993 108.32 61.068C107.142 60.5359 105.904 59.8646 105.453 59.616L105.418 59.5977C105.643 59.3146 105.9 59.0592 106.185 58.8369C106.185 58.8369 109.443 59.8215 108.836 60.3519Z" fill="#181818"/>
</g>
<g opacity="0.1">
<path opacity="0.1" d="M115.28 11.2312C114.834 11.8127 114.237 12.2612 113.555 12.5283C112.872 12.7953 112.13 12.8707 111.407 12.7462C111.366 11.8976 111.19 11.0506 110.73 10.5334C109.518 9.1709 114.666 9.39798 114.666 9.39798C114.824 10.0236 115.029 10.6365 115.28 11.2312Z" fill="#181818"/>
</g>
<g opacity="0.1">
<path opacity="0.1" d="M123.469 18.3798C122.912 18.5853 120.756 19.4555 120.517 20.7003C120.37 20.1458 120.259 19.5821 120.186 19.013L122.838 17.5742C123.089 17.8079 123.302 18.0797 123.469 18.3798Z" fill="#181818"/>
</g>
<g opacity="0.1">
<path opacity="0.1" d="M107.02 18.484C106.813 19.0762 106.575 19.6572 106.307 20.2244C106.205 19.4752 105.782 17.5591 104.109 16.9408C104.441 16.4883 104.673 16.2148 104.673 16.2148L107.02 18.484Z" fill="#181818"/>
</g>
<g opacity="0.1">
<path opacity="0.1" d="M115.576 22.6474H111.184V15.5299C111.314 14.8464 111.391 14.1536 111.412 13.458C112.316 14.3299 112.092 15.6808 112.092 15.6808L114.439 20.9849L115.576 16.2957L115.198 15.6907L116.756 13.8376C117.289 14.5456 117.973 15.1269 118.757 15.5399C121.784 17.0449 115.576 22.6474 115.576 22.6474Z" fill="#181818"/>
</g>
<path d="M122.393 45.2851C122.393 45.2851 118.38 53.8397 118.533 54.5972C118.685 55.3547 116.186 61.4113 116.186 61.4113C115.616 61.6798 114.568 61.2936 113.58 60.7815C112.835 60.3844 112.115 59.9415 111.425 59.4554L111.279 59.3527L111.192 59.2897L117.779 41.0434L111.951 36.7686L111.52 36.452L108.914 34.5293L116.87 35.968C116.87 35.968 117.147 35.9332 118.611 36.7521C119.313 37.1449 120.29 37.7333 121.639 38.6185C125.798 41.3484 122.393 45.2851 122.393 45.2851Z" fill="#5E52AD"/>
<g opacity="0.1">
<path opacity="0.1" d="M118.679 37.1814C118.679 37.1814 115.238 36.9079 112.252 36.7786L111.952 36.7653C111.528 36.7487 111.124 36.7355 110.727 36.7255C107.83 36.6559 104.553 35.6432 103.996 35.4658C104.205 35.1421 104.431 34.8295 104.672 34.5293L109.216 35.5238C109.216 35.5238 109.932 35.7526 111.523 36.457L108.912 34.5293L116.869 35.968C116.869 35.968 117.145 35.9332 118.609 36.7521L118.679 37.1814Z" fill="#181818"/>
</g>
<path d="M133.746 10.5095C133.189 9.97415 128.502 13.4931 128.502 13.4931C128.502 13.4931 126.833 13.7981 127.23 14.9435C127.628 16.0888 125.482 22.5035 125.482 22.5035L124.608 21.2819C124.693 19.8481 124.298 18.8321 123.914 18.1989C123.882 18.1475 123.851 18.0978 123.819 18.0514L123.972 17.9983C123.914 17.216 122.662 16.0242 121.998 15.4407C121.998 15.3562 121.998 15.275 121.998 15.1888C122.039 14.2539 122.414 13.2677 121.998 12.4207C121.527 11.4543 120.149 10.9687 120.033 9.90785C119.964 9.27467 120.391 8.70282 120.58 8.09284C121.031 6.6342 120.095 5.14573 119.2 3.88931C118.896 3.41825 118.528 2.99293 118.104 2.62627C117.701 2.33131 117.257 2.09472 116.788 1.92347C115.477 1.39305 114.136 1.12619 112.783 0.763186C111.485 0.418417 110.289 0.254322 108.971 0.68694C108.658 0.771258 108.373 0.935153 108.142 1.16265C107.829 1.51405 107.787 2.01463 107.582 2.43399C107.25 3.10861 106.536 3.51139 105.905 3.94401C105.273 4.37663 104.64 4.97003 104.636 5.71592C104.636 6.77509 105.846 7.44143 106.251 8.42766C106.629 9.34594 106.251 10.3686 106.04 11.3367C105.952 11.6495 105.944 11.9794 106.016 12.2964C106.099 12.5326 106.225 12.7517 106.387 12.9428C106.637 13.2743 106.906 13.5826 107.173 13.8976L107.05 13.9456C104.825 13.7169 103.395 16.5413 103.395 16.5413C103.498 16.5629 103.596 16.5877 103.692 16.6159L103.597 16.7386C102.925 17.6115 102.376 18.5724 101.965 19.5945L100.141 22.0378C100.141 22.0378 99.7434 15.928 100.698 14.5539C101.653 13.1798 99.8246 12.3395 99.8246 12.3395C99.8246 12.3395 95.8465 7.91051 95.2946 8.29175C94.7426 8.67298 96.6455 13.4848 98.3146 14.249C98.3146 14.249 98.4804 15.7756 98.1489 16.7684C97.9483 17.3966 96.8775 24.0235 96.8775 24.0235C96.8775 24.0235 95.9244 29.5978 100.295 26.8413C103.135 25.0545 104.97 21.9781 105.905 20.0454C105.97 19.9095 106.031 19.7796 106.088 19.6559C106.132 19.8608 106.161 20.0685 106.176 20.2774L106.342 26.6639C106.384 28.2436 106.039 29.8096 105.338 31.2255L103.39 35.1754L103.607 35.2417L103.476 35.4307C102.193 37.3186 100.012 41.5636 104.502 43.7267L110.469 44.4908L110.151 46.0174C110.151 46.0174 107.688 50.6751 106.972 53.8825C106.527 55.8466 105.833 57.7455 104.905 59.533L105.089 59.6308C105.051 59.6739 105.011 59.7187 104.973 59.7651C104.611 60.172 104.372 60.6732 104.283 61.2104L103.475 62.3575C103.475 62.3575 103.156 67.0914 103.793 68.2384C104.141 68.865 105.296 69.2628 106.279 69.4949C107.738 69.8413 108.915 68.3346 108.141 67.0931L108.131 67.0765H108.116C107.95 66.3057 107.443 63.9139 107.608 63.0056C107.655 62.747 107.698 62.4901 107.72 62.2282C107.759 61.884 107.864 61.5505 108.028 61.2453C108.054 61.1939 108.083 61.1442 108.111 61.0944L108.197 61.1309C108.464 61.2453 108.727 61.353 108.978 61.4475C108.59 61.8005 108.315 62.5315 108.646 64.0349C108.646 64.0349 108.678 67.7959 108.964 68.3876C109.251 68.9794 112.46 69.7617 113.017 69.1517C113.574 68.5418 112.659 66.44 112.659 66.44L112.631 66.4599C112.447 65.2416 112.22 63.0603 112.778 62.2017C113.004 61.8552 113.223 61.4972 113.418 61.1624L113.539 60.9552C114.577 61.4723 115.674 61.8619 116.274 61.5917C116.274 61.5917 118.896 55.482 118.737 54.7195C118.578 53.957 122.79 45.3262 122.79 45.3262C122.79 45.3262 126.365 41.3481 121.996 38.6065C120.609 37.733 119.597 37.1462 118.863 36.7501L118.248 33.5345C117.932 31.8486 117.989 30.1141 118.414 28.4524L119.077 25.923L119.132 25.7075C119.132 25.7075 120.801 22.2715 120.721 20.667C120.715 20.5423 120.729 20.4175 120.763 20.2973C120.781 20.3736 120.801 20.4531 120.822 20.536C121.261 22.2037 121.839 23.8316 122.55 25.4026C123.818 28.2635 125.699 28.0364 126.73 27.6303C126.951 27.5449 127.147 27.4059 127.3 27.226C127.454 27.046 127.56 26.8307 127.61 26.5993C127.981 24.8191 129.001 19.8316 129.065 18.4541C129.123 17.3771 129.256 16.3054 129.463 15.2468C132.079 13.7169 134.303 11.0449 133.746 10.5095Z" fill="url(#paint1_linear)"/>
<path d="M114.288 59.4441C114.288 59.4441 113.938 60.1452 113.459 60.9873C113.272 61.3188 113.063 61.6751 112.849 62.0183C112.091 63.2299 112.849 67.0903 112.849 67.0903L111.191 67.3174L109.534 66.4887L109.23 63.6874V61.6387L111.12 59.5253L111.949 58.6104L114.288 59.4441Z" fill="#F2B393"/>
<path d="M110.202 60.957C110.202 60.957 108.232 60.6537 108.915 63.8345C108.915 63.8345 108.945 67.564 109.219 68.1441C109.492 68.7242 112.55 69.5066 113.079 68.9016C113.608 68.2966 112.738 66.2147 112.738 66.2147C112.738 66.2147 110.505 67.8424 109.898 66.1003C109.292 64.3583 110.202 60.957 110.202 60.957Z" fill="#767676"/>
<path d="M108.837 60.3515C108.622 60.5561 108.447 60.7989 108.321 61.0676C108.165 61.3718 108.065 61.7022 108.028 62.0422C108.008 62.3008 107.966 62.5577 107.923 62.813C107.734 63.892 108.459 67.0894 108.459 67.0894L105.581 67.5436L104.522 66.4082L104.295 63.9103C104.578 63.0538 104.731 62.1599 104.749 61.2582C104.749 60.6068 105.081 60.025 105.412 59.6007C105.637 59.3175 105.894 59.0621 106.18 58.8398C106.18 58.8398 109.443 59.8211 108.837 60.3515Z" fill="#F2B393"/>
<path d="M118.152 43.0143C118.152 43.0143 116.26 46.573 115.047 49.5251C114.251 51.4644 112.607 56.0823 111.566 59.0228L111.414 59.4571C110.956 60.7583 110.651 61.6384 110.651 61.6384C110.45 61.6398 110.249 61.6101 110.056 61.5506C109.877 61.5025 109.677 61.4379 109.463 61.3583L109.222 61.2671C108.984 61.1743 108.725 61.0666 108.478 60.9539C107.275 60.4168 105.992 59.7173 105.526 59.4621L105.35 59.3643C106.239 57.5844 106.902 55.7007 107.325 53.7568C108.006 50.5776 110.353 45.9663 110.353 45.9663L110.656 44.4514L104.977 43.6939C100.699 41.5556 102.778 37.3405 103.999 35.4691C104.208 35.1443 104.433 34.8306 104.674 34.5293L109.217 35.5238C109.217 35.5238 109.933 35.7526 111.525 36.457L112.256 36.7885C113.147 37.1979 114.245 37.725 115.571 38.4013C120.043 40.6622 118.152 43.0143 118.152 43.0143Z" fill="#5E52AD"/>
<path d="M108.43 66.8625C108.592 67.1355 108.669 67.4503 108.653 67.7673C108.636 68.0843 108.526 68.3893 108.337 68.6439C108.147 68.8984 107.886 69.0911 107.587 69.1977C107.288 69.3043 106.964 69.3199 106.656 69.2428C105.726 69.0124 104.624 68.6179 104.293 67.9963C103.688 66.8609 103.989 62.1667 103.989 62.1667L104.785 60.9932C104.785 60.9932 104.369 66.1796 105.353 66.6288C106.338 67.078 108.42 66.8393 108.42 66.8393L108.43 66.8625Z" fill="#767676"/>
<path d="M109.237 1.02285C108.935 1.107 108.66 1.27004 108.442 1.49526C108.143 1.84334 108.11 2.3406 107.908 2.75665C107.593 3.41966 106.913 3.82576 106.31 4.24844C105.707 4.67111 105.105 5.26617 105.102 6.00543C105.102 7.05631 106.262 7.71602 106.64 8.69231C106.999 9.60396 106.64 10.6167 106.439 11.5764C106.356 11.8872 106.348 12.2134 106.416 12.5279C106.495 12.7611 106.615 12.9784 106.771 13.1693C107.502 14.1639 108.41 15.0457 108.899 16.1778C109.27 17.038 109.373 17.9878 109.471 18.921C109.612 20.2636 109.753 21.6311 109.497 22.9571C109.473 23.0364 109.473 23.1215 109.497 23.2008C109.541 23.2768 109.609 23.3354 109.691 23.3665C110.174 23.6009 110.698 23.7353 111.234 23.7617C111.77 23.7881 112.305 23.7059 112.808 23.5201C113.311 23.3343 113.771 23.0487 114.161 22.6805C114.551 22.3123 114.862 21.8691 115.077 21.3775C115.408 20.6266 115.536 19.7199 116.192 19.2326C116.269 19.1693 116.361 19.1275 116.459 19.1116C116.614 19.1159 116.764 19.1661 116.89 19.2558C117.742 19.7166 118.775 19.7299 119.724 19.5409C120.298 19.4266 120.885 19.2227 121.264 18.7751C122.012 17.8867 121.596 16.559 121.645 15.4004C121.685 14.4738 122.042 13.4959 121.645 12.6572C121.198 11.6991 119.884 11.2184 119.774 10.1708C119.708 9.54429 120.116 8.97575 120.296 8.3724C120.726 6.92537 119.834 5.45015 118.982 4.20534C118.695 3.74099 118.344 3.31964 117.939 2.95389C117.557 2.6629 117.135 2.42844 116.686 2.25772C115.438 1.73228 114.165 1.46708 112.874 1.10905C111.637 0.755991 110.499 0.591894 109.237 1.02285Z" fill="#85555C"/>
<path d="M115.577 22.6484H111.185V15.5309C111.315 14.8473 111.392 14.1545 111.413 13.459C111.413 13.2253 111.413 12.9866 111.413 12.7462C111.372 11.8976 111.196 11.0506 110.735 10.5334C109.524 9.1709 114.672 9.39798 114.672 9.39798C114.83 10.0236 115.035 10.6365 115.285 11.2312C115.658 12.1593 116.155 13.0329 116.761 13.8286C117.294 14.5366 117.977 15.1179 118.761 15.5309C121.785 17.0459 115.577 22.6484 115.577 22.6484Z" fill="#F2B393"/>
<path d="M112.093 12.5795C114.309 12.5795 116.106 10.7829 116.106 8.56662C116.106 6.35035 114.309 4.55371 112.093 4.55371C109.877 4.55371 108.08 6.35035 108.08 8.56662C108.08 10.7829 109.877 12.5795 112.093 12.5795Z" fill="#F2B393"/>
<path opacity="0.8" d="M128.749 15.4559C128.552 16.5059 128.426 17.568 128.371 18.635C128.31 19.9992 127.338 24.9453 126.984 26.7106C126.939 26.9369 126.839 27.1488 126.693 27.3272C126.546 27.5056 126.358 27.6451 126.145 27.7333C125.16 28.1361 123.37 28.3615 122.167 25.5254C121.488 23.9649 120.938 22.3518 120.521 20.702C120.373 20.1474 120.263 19.5838 120.189 19.0146L122.842 17.5759C123.091 17.8094 123.303 18.0807 123.468 18.3798C123.834 19.008 124.211 20.0158 124.131 21.4363L124.96 22.6479C124.96 22.6479 127.004 16.288 126.617 15.1525C126.231 14.0171 127.829 13.7138 127.829 13.7138C127.829 13.7138 132.296 10.2329 132.827 10.7617C133.357 11.2905 131.247 13.9409 128.749 15.4559Z" fill="#F2994A" fill-opacity="0.5"/>
<path opacity="0.8" d="M107.02 18.4843C106.813 19.0765 106.575 19.6575 106.307 20.2247C105.416 22.1425 103.669 25.1973 100.963 26.9643C96.7997 29.6893 97.7081 24.163 97.7081 24.163C97.7081 24.163 98.7275 17.5925 98.9198 16.9709C99.2231 15.9864 99.0706 14.473 99.0706 14.473C97.481 13.7155 95.6643 8.94678 96.1931 8.5672C96.7218 8.18762 100.503 12.5801 100.503 12.5801C100.503 12.5801 102.245 13.4089 101.331 14.7764C100.418 16.1438 100.801 22.1955 100.801 22.1955L102.553 19.7772C102.943 18.7681 103.466 17.8159 104.11 16.9461C104.441 16.4936 104.673 16.2201 104.673 16.2201L107.02 18.4843Z" fill="#F2994A" fill-opacity="0.5"/>
<path d="M115.577 16.5908L115.199 15.9858L116.88 13.9752C116.88 13.9752 120.346 15.6741 121.254 15.3012C121.254 15.3012 123.45 17.1245 123.525 18.1787C123.525 18.1787 120.346 19.2379 120.42 20.8308C120.495 22.4236 118.912 25.8266 118.912 25.8266L118.249 28.5483C117.841 30.1977 117.784 31.9145 118.083 33.5872L118.688 36.957C118.688 36.957 113.918 36.5791 110.732 36.5028C107.546 36.4266 103.918 35.2166 103.918 35.2166L105.776 31.3064C106.446 29.8953 106.774 28.3462 106.734 26.7846L106.568 20.4545C106.568 20.4545 106.417 17.2753 103.916 16.7449C103.916 16.7449 105.279 13.9437 107.397 14.1707C107.397 14.1707 110.483 12.8828 111.4 13.7531C112.316 14.6233 112.091 15.9874 112.091 15.9874L114.438 21.2916L115.577 16.5908Z" fill="#ED677B"/>
<g opacity="0.03">
<path opacity="0.03" d="M122.393 45.2851C122.393 45.2851 118.38 53.8397 118.533 54.5972C118.685 55.3547 116.186 61.4113 116.186 61.4113C115.616 61.6798 114.568 61.2936 113.58 60.7815C112.835 60.3844 112.115 59.9415 111.425 59.4554L111.279 59.3527L111.192 59.2897L117.779 41.0434L111.951 36.7686L111.52 36.452L108.914 34.5293L116.87 35.968C116.87 35.968 117.147 35.9332 118.611 36.7521C119.313 37.1449 120.29 37.7333 121.639 38.6185C125.798 41.3484 122.393 45.2851 122.393 45.2851Z" fill="#181818"/>
</g>
<path opacity="0.1" d="M109.196 7.73978C109.804 7.73978 110.281 7.09499 110.89 7.12814C111.205 7.14472 111.475 7.34528 111.735 7.52595C112.718 8.20689 113.813 8.71167 114.969 9.01774C115.418 9.13708 115.894 9.22659 116.345 9.1172C116.795 9.0078 117.218 8.65308 117.269 8.19063C117.282 7.98681 117.255 7.78247 117.19 7.58894C116.68 5.81079 115.525 4.28667 113.951 3.31413C113.321 2.92793 112.552 2.63288 111.854 2.87488C111.224 3.09202 110.818 3.68211 110.362 4.16777C110.019 4.53142 109.629 4.84799 109.202 5.10925C108.871 5.30982 108.373 5.44076 108.183 5.80874C107.823 6.49496 108.388 7.73315 109.196 7.73978Z" fill="#181818"/>
<path d="M109.196 7.58841C109.804 7.58841 110.281 6.94362 110.89 6.97677C111.205 6.99335 111.475 7.19391 111.735 7.37458C112.718 8.05552 113.813 8.5603 114.969 8.86637C115.418 8.98571 115.894 9.07522 116.345 8.96583C116.795 8.85643 117.218 8.50171 117.269 8.03926C117.282 7.83544 117.255 7.6311 117.19 7.43757C116.68 5.65942 115.525 4.1353 113.951 3.16277C113.321 2.77656 112.552 2.48152 111.854 2.72352C111.224 2.94066 110.818 3.53074 110.362 4.0164C110.019 4.38005 109.629 4.69663 109.202 4.95789C108.871 5.15845 108.373 5.2894 108.183 5.65737C107.823 6.35022 108.388 7.58012 109.196 7.58841Z" fill="#85555C"/>
<path opacity="0.05" d="M107.361 24.8809C107.361 24.8809 111.071 26.2434 113.494 25.1842L114.706 25.2604C114.706 25.2604 116.72 26.6727 118.85 26.0411" fill="#181818"/>
<path opacity="0.05" d="M124.927 22.6094C124.927 22.6094 124.322 24.0481 124.623 24.5023L124.927 22.6094Z" fill="#181818"/>
<path opacity="0.05" d="M100.775 22.1553C100.775 22.1553 101.079 23.594 100.775 24.0482V22.1553Z" fill="#181818"/>
<path d="M100.091 89.124H73.0996C72.6231 89.124 72.166 89.3133 71.829 89.6503C71.492 89.9873 71.3027 90.4444 71.3027 90.9209V108.355C71.3027 108.831 71.492 109.288 71.829 109.625C72.166 109.962 72.6231 110.152 73.0996 110.152H100.091C100.568 110.152 101.025 109.962 101.362 109.625C101.699 109.288 101.888 108.831 101.888 108.355V90.9209C101.888 90.4444 101.699 89.9873 101.362 89.6503C101.025 89.3133 100.568 89.124 100.091 89.124ZM92.5023 100.431L83.1641 104.598C83.0187 104.664 82.8593 104.692 82.7003 104.68C82.5414 104.668 82.3879 104.616 82.254 104.53C82.12 104.443 82.0098 104.325 81.9334 104.185C81.857 104.045 81.8168 103.888 81.8165 103.729V95.394C81.8168 95.2346 81.857 95.0778 81.9334 94.9379C82.0098 94.798 82.12 94.6794 82.254 94.593C82.3879 94.5065 82.5414 94.4549 82.7003 94.4429C82.8593 94.4309 83.0187 94.4589 83.1641 94.5243L92.5023 98.682C92.6719 98.7568 92.8161 98.8792 92.9173 99.0345C93.0185 99.1898 93.0724 99.3712 93.0724 99.5565C93.0724 99.7419 93.0185 99.9232 92.9173 100.079C92.8161 100.234 92.6719 100.356 92.5023 100.431Z" fill="#767676"/>
<path opacity="0.6" d="M98.1988 82.4343C98.1988 82.1808 98.0981 81.9377 97.9189 81.7585C97.7396 81.5792 97.4965 81.4785 97.243 81.4785H76.2156C75.9621 81.4785 75.719 81.5792 75.5397 81.7585C75.3605 81.9377 75.2598 82.1808 75.2598 82.4343V83.3901H98.1988V82.4343Z" fill="#767676"/>
<path opacity="0.8" d="M100.09 86.2566C100.09 86.0031 99.9897 85.76 99.8104 85.5807C99.6312 85.4015 99.3881 85.3008 99.1346 85.3008H74.2839C74.0304 85.3008 73.7873 85.4015 73.6081 85.5807C73.4288 85.76 73.3281 86.0031 73.3281 86.2566V87.2124H100.09V86.2566Z" fill="#767676"/>
<defs>
<linearGradient id="paint0_linear" x1="86.5128" y1="156.835" x2="86.5128" y2="36.8291" gradientUnits="userSpaceOnUse">
<stop stop-color="#808080" stop-opacity="0.25"/>
<stop offset="0.54" stop-color="#808080" stop-opacity="0.12"/>
<stop offset="1" stop-color="#808080" stop-opacity="0.1"/>
</linearGradient>
<linearGradient id="paint1_linear" x1="29011.3" y1="41214.4" x2="29011.3" y2="12390.6" gradientUnits="userSpaceOnUse">
<stop stop-color="#808080" stop-opacity="0.25"/>
<stop offset="0.54" stop-color="#808080" stop-opacity="0.12"/>
<stop offset="1" stop-color="#808080" stop-opacity="0.1"/>
</linearGradient>
</defs>
</svg>
